<svg width="80" height="80" viewBox="0 0 80 80" fill="none" xmlns="http://www.w3.org/2000/svg">
<path d="M72.4756 14.2578H7.52472C3.37564 14.2578 0 17.6335 0 21.7825V39.2078C0 39.2178 0.00125 39.2271 0.00140626 39.2371C0.00203126 39.2624 0.00296876 39.2878 0.00515627 39.3131C0.00656253 39.3301 0.00890628 39.3468 0.01125 39.3637C0.0140626 39.3843 0.0167188 39.4049 0.0206251 39.4253C0.0242188 39.4456 0.0290626 39.4654 0.0337501 39.4851C0.0376564 39.5017 0.0418752 39.5185 0.0465627 39.5349C0.0528127 39.5565 0.0596877 39.5776 0.0670315 39.5985C0.0721878 39.6134 0.0775003 39.6284 0.0832816 39.6431C0.0915629 39.6638 0.100157 39.6842 0.109532 39.7042C0.116407 39.7192 0.123438 39.7342 0.130938 39.7488C0.140469 39.7673 0.150469 39.7853 0.160782 39.8031C0.170157 39.8192 0.179688 39.8351 0.189844 39.8507C0.199688 39.8659 0.210001 39.8809 0.22047 39.8957C0.232657 39.9128 0.245157 39.9298 0.258282 39.9462C0.268282 39.9587 0.278595 39.9709 0.289064 39.9831C0.303751 40.0003 0.319064 40.0171 0.334845 40.0334C0.34547 40.0445 0.356408 40.0549 0.367501 40.0656C0.383908 40.0812 0.400627 40.0967 0.417814 40.1113C0.430627 40.1221 0.443752 40.1326 0.457033 40.1429C0.473283 40.1556 0.489846 40.1682 0.506877 40.1801C0.523596 40.192 0.541096 40.2029 0.558596 40.2139C0.572971 40.2229 0.587659 40.2321 0.602502 40.2404C0.624534 40.2529 0.64719 40.2642 0.670003 40.2753C0.678909 40.2795 0.686878 40.2846 0.69594 40.2887C1.29579 40.5615 15.6054 46.9809 34.3819 48.1404C34.4069 48.142 34.4315 48.1428 34.4564 48.1428C34.4806 48.1428 34.5045 48.1408 34.5284 48.1393V48.1404H45.4955C45.5114 48.1411 45.5274 48.1428 45.5433 48.1428C45.568 48.1428 45.5928 48.142 45.6178 48.1404C64.3942 46.9808 78.7036 40.5615 79.3036 40.2887C79.3127 40.2846 79.3208 40.2795 79.3295 40.2753C79.3525 40.2642 79.375 40.2528 79.397 40.2404C79.4122 40.2318 79.4266 40.2228 79.4409 40.2139C79.4586 40.2029 79.4759 40.192 79.4927 40.1801C79.51 40.1682 79.5264 40.1556 79.5425 40.1429C79.5556 40.1326 79.5689 40.1221 79.5816 40.1113C79.5991 40.0965 79.6156 40.0812 79.6319 40.0656C79.643 40.0549 79.6541 40.0445 79.6647 40.0334C79.6805 40.0171 79.6956 40.0003 79.7105 39.9831C79.7209 39.9709 79.7313 39.9587 79.7413 39.9462C79.7544 39.9298 79.7667 39.9128 79.7791 39.8957C79.7895 39.881 79.7998 39.8659 79.8097 39.8507C79.8198 39.8351 79.8294 39.819 79.8388 39.8031C79.8491 39.7851 79.8591 39.7673 79.8687 39.7488C79.8762 39.7342 79.8833 39.7192 79.8902 39.7042C79.8995 39.684 79.9084 39.6637 79.9164 39.6431C79.9223 39.6284 79.9275 39.6135 79.9327 39.5985C79.94 39.5776 79.9469 39.5563 79.9531 39.5349C79.9577 39.5184 79.962 39.5017 79.9659 39.4851C79.9706 39.4653 79.9755 39.4456 79.9791 39.4253C79.9827 39.4048 79.9856 39.3842 79.9884 39.3637C79.9908 39.3468 79.993 39.3301 79.9947 39.3131C79.9969 39.2879 79.9978 39.2626 79.9983 39.2371C79.9986 39.2271 79.9998 39.2178 79.9998 39.2078V21.7825C80.0003 17.6333 76.6247 14.2578 72.4756 14.2578Z" fill="#FF6B6B"/>
<path d="M45.6181 48.1415C45.5932 48.1431 45.5684 48.1439 45.5435 48.1439C45.5274 48.1439 45.5117 48.1423 45.4957 48.1415H34.5286V48.1404C34.5047 48.1418 34.4808 48.1439 34.4566 48.1439C34.4319 48.1439 34.4072 48.1431 34.3821 48.1415C18.0112 47.1306 5.03759 42.1216 1.58398 40.674V70.8921C1.58398 74.1679 4.24884 76.8327 7.52463 76.8327H72.4755C75.7513 76.8327 78.4162 74.1679 78.4162 70.8921V40.6738C74.9627 42.1215 61.9891 47.1304 45.6181 48.1415Z" fill="#EE5253"/>
<path d="M73.6633 42.4741V70.8921C73.6633 74.1679 70.9985 76.8327 67.7227 76.8327H72.4756C75.7514 76.8327 78.4163 74.1679 78.4163 70.8921V40.6738C77.4847 41.0643 75.8597 41.7141 73.6633 42.4741Z" fill="#D83941"/>
<path d="M48.7127 3.16797H31.2864C28.0106 3.16797 25.3457 5.83298 25.3457 9.10861C25.3457 9.76471 25.8777 10.2967 26.5338 10.2967H53.4652C54.1214 10.2967 54.6533 9.76471 54.6533 9.10861C54.6533 5.83298 51.9885 3.16797 48.7127 3.16797Z" fill="#576574"/>
<path d="M26.5338 10.2975C25.8777 10.2975 25.3457 9.76547 25.3457 9.10938V14.2578H32.4746V10.2975H26.5338Z" fill="#CAD0D7"/>
<path d="M54.6542 9.10547C54.6542 9.10641 54.6542 9.1075 54.6542 9.10859C54.6542 9.76469 54.1223 10.2967 53.466 10.2967H47.5254V14.2572H54.6542V9.10844C54.6542 9.1075 54.6542 9.10641 54.6542 9.10547Z" fill="#CAD0D7"/>
<path d="M45.5448 56.2371H34.4557C33.7996 56.2371 33.2676 55.7051 33.2676 55.049V39.2077C33.2676 38.5516 33.7996 38.0195 34.4557 38.0195H45.5448C46.2009 38.0195 46.7329 38.5516 46.7329 39.2077V55.049C46.7329 55.7052 46.2011 56.2371 45.5448 56.2371Z" fill="#FECA57"/>
<path d="M40.0006 51.4861C39.3445 51.4861 38.8125 50.9541 38.8125 50.298V43.9616C38.8125 43.3055 39.3445 42.7734 40.0006 42.7734C40.6567 42.7734 41.1888 43.3055 41.1888 43.9616V50.298C41.1888 50.9543 40.6567 51.4861 40.0006 51.4861Z" fill="#FF9F43"/>
<path d="M72.4756 14.2578H67.7227C71.8717 14.2578 75.2474 17.6335 75.2474 21.7825V41.9098C77.6835 41.0176 79.1222 40.3717 79.3038 40.2892C79.3129 40.2851 79.3208 40.2799 79.3297 40.2757C79.3527 40.2646 79.3752 40.2532 79.3972 40.2409C79.4124 40.2323 79.4268 40.2232 79.4411 40.2143C79.4588 40.2034 79.4761 40.1924 79.4929 40.1806C79.5102 40.1687 79.5266 40.156 79.5427 40.1434C79.5558 40.1331 79.5691 40.1226 79.5818 40.1118C79.5993 40.097 79.6158 40.0817 79.6321 40.066C79.6432 40.0554 79.6543 40.0449 79.6649 40.0339C79.6807 40.0176 79.6958 40.0007 79.7107 39.9835C79.7211 39.9714 79.7315 39.9592 79.7415 39.9467C79.7546 39.9303 79.7669 39.9132 79.7793 39.8962C79.7897 39.8815 79.8 39.8664 79.8099 39.8512C79.82 39.8356 79.8296 39.8195 79.839 39.8035C79.8493 39.7856 79.8593 39.7678 79.869 39.7493C79.8765 39.7346 79.8835 39.7196 79.8904 39.7046C79.8997 39.6845 79.9086 39.6642 79.9166 39.6435C79.9225 39.6289 79.9277 39.614 79.9329 39.599C79.9402 39.5781 79.9471 39.5568 79.9533 39.5354C79.9579 39.5189 79.9622 39.5021 79.9661 39.4856C79.9708 39.4657 79.9757 39.446 79.9793 39.4257C79.9829 39.4053 79.9858 39.3846 79.9886 39.3642C79.991 39.3473 79.9932 39.3306 79.9949 39.3135C79.9971 39.2884 79.998 39.2631 79.9985 39.2376C79.9988 39.2276 80 39.2182 80 39.2082V21.7825C80.0004 17.6333 76.6247 14.2578 72.4756 14.2578Z" fill="#EE5253"/>
</svg>
