<svg width="80" height="80" viewBox="0 0 80 80" fill="none" xmlns="http://www.w3.org/2000/svg">
<path d="M1.33398 12H78.6673V73.3333C78.6656 74.7473 78.1031 76.1028 77.1033 77.1026C76.1035 78.1024 74.7479 78.6649 73.334 78.6667H6.66732C5.25337 78.6649 3.89784 78.1024 2.89803 77.1026C1.89822 76.1028 1.33575 74.7473 1.33398 73.3333V12Z" fill="#2783EC"/>
<path d="M78.6667 6.66732V73.334C78.6667 73.1606 78.6533 72.9873 78.64 72.814C78.4738 71.4705 77.8168 70.2358 76.7954 69.3473C75.774 68.4588 74.4603 67.9792 73.1067 68.0006H69.3333C68.9797 68.0006 68.6406 67.8602 68.3905 67.6101C68.1405 67.3601 68 67.0209 68 66.6673V2.66732C68 2.3137 68.1405 1.97456 68.3905 1.72451C68.6406 1.47446 68.9797 1.33398 69.3333 1.33398H73.3333C74.7478 1.33398 76.1044 1.89589 77.1046 2.89608C78.1048 3.89628 78.6667 5.25283 78.6667 6.66732Z" fill="#439AF6"/>
<path d="M12.0007 2.66732V66.6673C12.0007 67.0209 11.8602 67.3601 11.6101 67.6101C11.3601 67.8602 11.0209 68.0006 10.6673 68.0006H6.89399C5.5404 67.9792 4.22665 68.4588 3.20526 69.3473C2.18387 70.2358 1.52691 71.4705 1.36065 72.814C1.34732 72.9873 1.33398 73.1606 1.33398 73.334V6.66732C1.33398 5.25283 1.89589 3.89628 2.89608 2.89608C3.89628 1.89589 5.25283 1.33398 6.66732 1.33398H10.6673C11.0209 1.33398 11.3601 1.47446 11.6101 1.72451C11.8602 1.97456 12.0007 2.3137 12.0007 2.66732Z" fill="#439AF6"/>
<path d="M31.5199 31.5193C29.4104 33.6205 28.1596 36.4323 28.0116 39.406C27.8637 42.3798 28.8293 45.3019 30.7199 47.602C30.9259 47.8562 31.0301 48.1778 31.0123 48.5045C30.9946 48.8311 30.8562 49.1396 30.6239 49.37L24.9426 55.0513C24.8116 55.1807 24.6554 55.2818 24.4837 55.3483C24.312 55.4149 24.1285 55.4454 23.9445 55.4382C23.7605 55.4309 23.58 55.386 23.4141 55.3062C23.2481 55.2263 23.1004 55.1133 22.9799 54.974C19.1745 50.6481 17.1592 45.0354 17.3437 39.2768C17.5282 33.5183 19.8987 28.0461 23.9733 23.9727L29.3333 25.3327L31.5199 31.5193Z" fill="#E85D5D"/>
<path d="M56.0266 23.9727C60.1005 28.0468 62.47 33.5193 62.6535 39.2779C62.837 45.0364 60.8208 50.6487 57.0146 54.974C56.8942 55.1133 56.7464 55.2263 56.5805 55.3062C56.4146 55.386 56.234 55.4309 56.05 55.4382C55.8661 55.4454 55.6825 55.4149 55.5109 55.3483C55.3392 55.2818 55.183 55.1807 55.0519 55.0513L49.3706 49.37C49.1384 49.1396 49 48.8311 48.9822 48.5045C48.9645 48.1778 49.0687 47.8562 49.2746 47.602C51.1652 45.3019 52.1308 42.3798 51.9829 39.406C51.835 36.4323 50.5842 33.6205 48.4746 31.5193L50.6666 26.666L56.0266 23.9727Z" fill="#3CC3A3"/>
<path d="M42.506 28.2671C44.7698 28.7512 46.8446 29.8813 48.4793 31.5204L56.026 23.9738C51.7753 19.7236 46.0104 17.3359 39.9993 17.3359C33.9883 17.3359 28.2234 19.7236 23.9727 23.9738L31.5193 31.5204C33.154 29.8813 35.2289 28.7512 37.4927 28.2671H42.506Z" fill="#FCCB55"/>
<path d="M45.3327 39.7998C45.3327 41.2143 44.7708 42.5708 43.7706 43.571C42.7704 44.5712 41.4138 45.1331 39.9994 45.1331C38.5849 45.1331 37.2283 44.5712 36.2281 43.571C35.2279 42.5708 34.666 41.2143 34.666 39.7998C34.666 35.9931 37.19 28.9131 38.766 24.8665C38.8579 24.6132 39.0256 24.3943 39.2463 24.2396C39.4669 24.0849 39.7299 24.002 39.9994 24.002C40.2688 24.002 40.5318 24.0849 40.7524 24.2396C40.9731 24.3943 41.1408 24.6132 41.2327 24.8665C42.8087 28.9131 45.3327 35.9998 45.3327 39.7998Z" fill="white"/>
<path d="M57.334 62.6667H22.6673C22.3137 62.6667 21.9746 62.5262 21.7245 62.2762C21.4745 62.0261 21.334 61.687 21.334 61.3333C21.334 60.9797 21.4745 60.6406 21.7245 60.3905C21.9746 60.1405 22.3137 60 22.6673 60H57.334C57.6876 60 58.0267 60.1405 58.2768 60.3905C58.5268 60.6406 58.6673 60.9797 58.6673 61.3333C58.6673 61.687 58.5268 62.0261 58.2768 62.2762C58.0267 62.5262 57.6876 62.6667 57.334 62.6667Z" fill="#1F61A3"/>
<path d="M36.0007 68.0007H22.6673C22.3137 68.0007 21.9746 67.8602 21.7245 67.6102C21.4745 67.3601 21.334 67.021 21.334 66.6673C21.334 66.3137 21.4745 65.9746 21.7245 65.7245C21.9746 65.4745 22.3137 65.334 22.6673 65.334H36.0007C36.3543 65.334 36.6934 65.4745 36.9435 65.7245C37.1935 65.9746 37.334 66.3137 37.334 66.6673C37.334 67.021 37.1935 67.3601 36.9435 67.6102C36.6934 67.8602 36.3543 68.0007 36.0007 68.0007Z" fill="#1F61A3"/>
<path d="M45.334 73.3327H22.6673C22.3137 73.3327 21.9746 73.1922 21.7245 72.9422C21.4745 72.6921 21.334 72.353 21.334 71.9994C21.334 71.6457 21.4745 71.3066 21.7245 71.0565C21.9746 70.8065 22.3137 70.666 22.6673 70.666H45.334C45.6876 70.666 46.0267 70.8065 46.2768 71.0565C46.5268 71.3066 46.6673 71.6457 46.6673 71.9994C46.6673 72.353 46.5268 72.6921 46.2768 72.9422C46.0267 73.1922 45.6876 73.3327 45.334 73.3327Z" fill="#1F61A3"/>
<path d="M57.3333 68.0007H41.3333C40.9797 68.0007 40.6406 67.8602 40.3905 67.6102C40.1405 67.3601 40 67.021 40 66.6673C40 66.3137 40.1405 65.9746 40.3905 65.7245C40.6406 65.4745 40.9797 65.334 41.3333 65.334H57.3333C57.687 65.334 58.0261 65.4745 58.2761 65.7245C58.5262 65.9746 58.6667 66.3137 58.6667 66.6673C58.6667 67.021 58.5262 67.3601 58.2761 67.6102C58.0261 67.8602 57.687 68.0007 57.3333 68.0007Z" fill="#1F61A3"/>
<path d="M56.9736 23.0266C52.5662 18.6196 46.6173 16.1001 40.3854 16.0011C34.1535 15.902 28.1275 18.2312 23.5822 22.4958C19.037 26.7604 16.3291 32.626 16.0313 38.8515C15.7336 45.0771 17.8694 51.1743 21.9869 55.8532C22.2274 56.1297 22.5219 56.3539 22.8524 56.512C23.1829 56.6701 23.5424 56.7588 23.9085 56.7725C24.2746 56.7863 24.6397 56.7248 24.9811 56.5919C25.3225 56.459 25.6331 56.2575 25.8936 55.9999L31.5736 50.3199C32.044 49.8565 32.3229 49.2332 32.355 48.5737C32.3871 47.9142 32.1701 47.2668 31.7469 46.7599C30.1881 44.8516 29.3357 42.4639 29.3336 39.9999C29.342 37.7014 30.0892 35.4664 31.4649 33.625C32.8406 31.7836 34.7718 30.4332 36.9736 29.7732C37.3202 28.7332 37.6803 27.7332 38.0269 26.7999C37.6536 26.8666 37.2669 26.9466 37.2136 26.9599C35.1431 27.4024 33.209 28.3352 31.5736 29.6799L25.9069 24.0132C29.7934 20.5686 34.8069 18.6667 40.0002 18.6667C45.1936 18.6667 50.2071 20.5686 54.0936 24.0132L48.4269 29.6799C46.7915 28.3352 44.8574 27.4024 42.7869 26.9599C42.7336 26.9466 42.3469 26.8666 41.9736 26.7999C42.3202 27.7332 42.6803 28.7332 43.0269 29.7732C44.7134 30.271 46.2506 31.1783 47.5012 32.4144C48.7519 33.6505 49.6773 35.1769 50.1948 36.8574C50.7123 38.538 50.8058 40.3205 50.4671 42.046C50.1284 43.7715 49.368 45.3863 48.2536 46.7466C47.8301 47.2558 47.613 47.9054 47.6451 48.5669C47.6772 49.2285 47.9561 49.854 48.4269 50.3199L54.1069 55.9999C54.6096 56.4917 55.2837 56.7689 55.9869 56.7732H56.0669C56.4368 56.76 56.8002 56.6716 57.1349 56.5134C57.4695 56.3552 57.7685 56.1306 58.0136 55.8532C62.0449 51.2742 64.1812 45.3318 63.988 39.2341C63.7948 33.1365 61.2867 27.3412 56.9736 23.0266ZM29.6802 31.5732C27.7318 33.9493 26.667 36.9271 26.667 39.9999C26.667 43.0727 27.7318 46.0505 29.6802 48.4266L23.9869 54.0932C20.5541 50.1995 18.6622 45.1857 18.6671 39.9949C18.672 34.804 20.5734 29.7938 24.0136 25.9066L29.6802 31.5732ZM56.0003 54.1066L50.3069 48.4399C52.2614 46.0647 53.3311 43.0849 53.3335 40.0089C53.3359 36.933 52.2709 33.9515 50.3203 31.5732L55.9869 25.9066C59.4413 29.7872 61.3448 34.8045 61.3336 39.9999C61.3316 45.1944 59.4354 50.21 56.0003 54.1066Z" fill="#1F61A3"/>
</svg>
