<svg width="80" height="80" viewBox="0 0 80 80" fill="none" xmlns="http://www.w3.org/2000/svg">
<path d="M71.5198 72.0491L61.8886 69.9294L58.9036 79.3529C58.6889 80.0305 57.7713 80.1299 57.4167 79.5139L45.502 58.8163C51.371 57.5446 56.593 54.5307 60.6027 50.3418L72.4034 70.8438C72.7575 71.4588 72.2129 72.2017 71.5198 72.0491Z" fill="#F1554C"/>
<path d="M71.5217 72.0493L62.6194 70.0899C62.2065 69.999 61.7927 70.2381 61.665 70.641L58.9055 79.3529C58.6908 80.0305 57.7732 80.1299 57.4186 79.5139L47.2114 61.7811L45.5039 58.8163C51.373 57.5446 56.595 54.5307 60.6046 50.3418L62.299 53.2835L72.4055 70.8438C72.7592 71.4591 72.2146 72.2019 71.5217 72.0493Z" fill="#F1554C"/>
<path d="M71.5199 72.0502L62.6183 70.0911C62.2049 70.0013 61.7915 70.2398 61.6641 70.6418L62.6222 67.6644C62.7514 67.2628 63.1653 67.0257 63.5772 67.1172L71.2372 68.8199L72.4039 70.846C72.7584 71.4604 72.2127 72.2038 71.5199 72.0502Z" fill="#F1554C"/>
<path d="M34.6834 58.5686L22.5803 79.59C22.2257 80.2059 21.3081 80.1066 21.0934 79.429L18.3337 70.7169C18.2061 70.314 17.7921 70.075 17.3794 70.1658L8.47726 72.1251C7.78415 72.2777 7.23957 71.5347 7.59364 70.9197L18.8502 51.3633C23.0527 55.3474 28.7212 57.5869 34.6834 58.5686Z" fill="#F1554C"/>
<path d="M20.443 54.273L10.4123 71.6989L8.47741 72.1252C7.7843 72.278 7.23955 71.535 7.59362 70.9199L17.1753 54.273L19.7664 49.7598C20.464 50.4202 21.1928 51.0479 21.9525 51.638L20.443 54.273Z" fill="#F1554C"/>
<path d="M23.761 77.5374L22.5797 79.5896C22.2251 80.2056 21.3085 80.1076 21.0928 79.4295L18.3331 70.7175C18.2057 70.3139 17.7923 70.0753 17.3789 70.1652L20.4311 69.4938C20.8438 69.403 21.2577 69.642 21.3853 70.0448L23.761 77.5374Z" fill="#F1554C"/>
<path d="M19.1229 50.8672L27.0832 54.4569L34.6837 58.57L32.6458 62.1075C26.963 60.9537 21.6903 58.3086 17.3326 54.413C17.2804 54.3671 17.2281 54.3211 17.1758 54.2736L19.1229 50.8672Z" fill="#F1554C"/>
<path d="M62.297 53.2855L60.6027 50.3438L51.6367 54.3011L45.502 58.8182L46.1915 60.0154L47.8847 62.9562L57.4167 79.5156C57.7712 80.1316 58.6889 80.0323 58.9036 79.3547L59.5106 77.4384L50.0362 60.9356C54.6228 59.3396 58.7982 56.743 62.297 53.2855Z" fill="#F1554C"/>
<path d="M69.6538 29.7436C69.6538 37.7379 66.5085 44.9981 61.3895 50.3425C57.3798 54.5314 52.1578 57.5453 46.2887 58.817C44.261 59.2562 42.1582 59.4872 39.9998 59.4872C38.3528 59.4872 36.7385 59.3528 35.165 59.094C29.5084 58.1631 24.3893 55.6261 20.2914 51.965C20.0692 51.7683 19.8519 51.5684 19.6362 51.3635C18.8715 50.6392 18.1461 49.8737 17.4598 49.0724C16.803 48.3022 16.1853 47.4975 15.6086 46.6618C13.8766 44.156 12.5188 41.3682 11.6153 38.3822C10.7901 35.6486 10.3457 32.7494 10.3457 29.7438C10.3457 13.3173 23.623 0 39.9998 0C42.9948 0 45.8868 0.445734 48.6105 1.27511C51.5892 2.17818 54.3669 3.54006 56.8668 5.27888C57.7001 5.85745 58.5023 6.47687 59.2686 7.13731C60.2947 8.0157 61.2587 8.96469 62.1558 9.97412C66.8206 15.23 69.6538 22.1557 69.6538 29.7436Z" fill="#FAA515"/>
<path d="M39.9995 51.0473C51.7298 51.0473 61.2392 41.5092 61.2392 29.7434C61.2392 17.9775 51.7298 8.43945 39.9995 8.43945C28.2691 8.43945 18.7598 17.9775 18.7598 29.7434C18.7598 41.5092 28.2691 51.0473 39.9995 51.0473Z" fill="#FAD207"/>
<path d="M61.2385 29.7432C61.2385 41.5086 51.729 51.0468 39.9991 51.0468C28.2692 51.0468 18.7598 41.5086 18.7598 29.7432C18.7598 28.8548 18.8137 27.9797 18.9199 27.1211C20.2074 37.6508 29.1548 45.8024 39.9991 45.8024C50.8435 45.8024 59.7908 37.6508 61.0783 27.1211C61.1846 27.9799 61.2385 28.855 61.2385 29.7432Z" fill="#FAA515"/>
<path fill-rule="evenodd" clip-rule="evenodd" d="M39.9991 8.43945C28.2692 8.43945 18.7598 17.9776 18.7598 29.743C18.7598 41.5084 28.2692 51.0466 39.9991 51.0466C51.729 51.0466 61.2385 41.5084 61.2385 29.743C61.2385 17.9776 51.729 8.43945 39.9991 8.43945ZM39.9991 48.5882C29.6384 48.5882 21.2106 40.135 21.2106 29.743C21.2106 19.3511 29.6384 10.8979 39.9991 10.8979C50.3598 10.8979 58.7876 19.3511 58.7876 29.743C58.7876 40.135 50.3598 48.5882 39.9991 48.5882Z" fill="#FAF063"/>
<path d="M40.7324 17.9637L43.6501 23.9237C43.7689 24.1665 44.0001 24.3348 44.2677 24.3732L50.8248 25.3154C51.4959 25.4118 51.7643 26.2364 51.2786 26.7093L46.5227 31.3403C46.3296 31.5283 46.2417 31.7994 46.2876 32.0649L47.4209 38.6129C47.5367 39.2818 46.8333 39.7919 46.2333 39.4741L40.3811 36.3729C40.1419 36.2461 39.8553 36.2461 39.6161 36.3729L33.7639 39.4741C33.1639 39.7921 32.4605 39.282 32.5764 38.6129L33.7096 32.0649C33.7556 31.7994 33.6676 31.5283 33.4745 31.3403L28.7187 26.7093C28.2329 26.2362 28.5013 25.4118 29.1724 25.3154L35.7295 24.3732C35.997 24.3348 36.2282 24.1665 36.3471 23.9237L39.2648 17.9637C39.5637 17.3533 40.4336 17.3533 40.7324 17.9637Z" fill="#FAA515"/>
</svg>
