<svg width="134" height="55" viewBox="0 0 134 55" fill="none" xmlns="http://www.w3.org/2000/svg">
<g clip-path="url(#clip0_2894_21513)">
<path d="M56.9514 40.0706V34.2232H64.6863V30.4574H56.9514V27.6741H65.5042V23.6978H52.418V40.0706H56.9514ZM70.9256 40.3513C71.7669 40.3513 72.4874 40.207 73.0872 39.9186C73.687 39.6301 74.205 39.2442 74.6412 38.7608V40.0706H79.0344V32.7964C79.0344 31.9076 78.9292 31.1318 78.7189 30.4691C78.5086 29.8064 78.162 29.2412 77.679 28.7734C77.1805 28.2744 76.5379 27.8924 75.7512 27.6273C74.9644 27.3622 74.0024 27.2297 72.8652 27.2297C71.7747 27.2297 70.8283 27.3193 70.026 27.4987C69.2236 27.678 68.4642 27.9158 67.7475 28.212L68.6589 31.3463C69.2197 31.1279 69.7728 30.9564 70.3181 30.8317C70.8633 30.7069 71.4709 30.6446 72.1408 30.6446C72.9976 30.6446 73.6324 30.8239 74.0453 31.1825C74.4581 31.5412 74.6645 32.0479 74.6645 32.7029V32.9134C74.3062 32.7886 73.8583 32.6756 73.3209 32.5742C72.7834 32.4729 72.2187 32.4222 71.6267 32.4222C70.8789 32.4222 70.2012 32.5079 69.5936 32.6795C68.9861 32.851 68.4681 33.1005 68.0396 33.4279C67.6112 33.7554 67.2763 34.1686 67.0348 34.6676C66.7933 35.1666 66.6726 35.7435 66.6726 36.3984V36.4452C66.6726 37.0845 66.7817 37.6459 66.9998 38.1293C67.2179 38.6126 67.5178 39.0181 67.8994 39.3455C68.2811 39.673 68.729 39.9225 69.2431 40.094C69.7572 40.2655 70.3181 40.3513 70.9256 40.3513ZM72.5147 37.5679C72.0629 37.5679 71.689 37.4471 71.393 37.2054C71.097 36.9637 70.949 36.6245 70.949 36.1879V36.1411C70.949 35.6733 71.1243 35.2952 71.4748 35.0067C71.8253 34.7183 72.3277 34.574 72.982 34.574C73.3092 34.574 73.6247 34.6052 73.9284 34.6676C74.2322 34.73 74.4932 34.8079 74.7113 34.9015V35.4862C74.7113 36.1255 74.5088 36.6323 74.1037 37.0066C73.6987 37.3808 73.169 37.5679 72.5147 37.5679ZM85.928 26.2707V22.9961H81.3011V26.2707H85.928ZM85.8345 40.0706V27.4168H81.3946V40.0706H85.8345ZM92.845 40.0706V22.9961H88.4051V40.0706H92.845ZM101.772 40.3747C102.784 40.3747 103.719 40.1992 104.576 39.8484C105.433 39.4975 106.173 39.022 106.796 38.4216C107.419 37.8213 107.906 37.1196 108.256 36.3166C108.607 35.5135 108.782 34.6598 108.782 33.7554V33.7086C108.782 32.8042 108.611 31.9544 108.268 31.1591C107.925 30.3639 107.442 29.67 106.819 29.0775C106.196 28.4849 105.46 28.0132 104.611 27.6624C103.762 27.3115 102.831 27.1361 101.818 27.1361C100.806 27.1361 99.8711 27.3115 99.0142 27.6624C98.1574 28.0132 97.4174 28.4888 96.7943 29.0891C96.1711 29.6895 95.6843 30.3912 95.3337 31.1942C94.9832 31.9973 94.8079 32.851 94.8079 33.7554V33.8022C94.8079 34.7066 94.9793 35.5564 95.322 36.3516C95.6648 37.1469 96.1477 37.8447 96.7709 38.445C97.394 39.0453 98.1301 39.517 98.9792 39.8601C99.8282 40.2031 100.759 40.3747 101.772 40.3747ZM101.818 36.6089C101.429 36.6089 101.071 36.531 100.743 36.375C100.416 36.2191 100.132 36.0125 99.8905 35.7552C99.6491 35.4979 99.4621 35.1977 99.3297 34.8547C99.1973 34.5117 99.1311 34.1452 99.1311 33.7554V33.7086C99.1311 33.3344 99.1934 32.9757 99.318 32.6327C99.4426 32.2896 99.6179 31.9895 99.8438 31.7322C100.07 31.4749 100.346 31.2722 100.673 31.124C101.001 30.9759 101.367 30.9018 101.772 30.9018C102.161 30.9018 102.519 30.9798 102.847 31.1357C103.174 31.2917 103.458 31.4983 103.7 31.7556C103.941 32.0129 104.128 32.313 104.26 32.6561C104.393 32.9991 104.459 33.3656 104.459 33.7554V33.8022C104.459 34.1764 104.397 34.535 104.272 34.8781C104.147 35.2211 103.972 35.5213 103.746 35.7786C103.52 36.0359 103.244 36.2386 102.917 36.3867C102.59 36.5349 102.223 36.6089 101.818 36.6089ZM115.092 40.0706V36.1411C115.092 34.6754 115.403 33.5995 116.026 32.9134C116.649 32.2273 117.545 31.8842 118.714 31.8842H119.088V27.2063C118.028 27.1595 117.187 27.3934 116.564 27.908C115.941 28.4225 115.45 29.1086 115.092 29.9663V27.4168H110.652V40.0706H115.092ZM124.392 43.8831C125.015 43.8831 125.568 43.8051 126.051 43.6492C126.534 43.4933 126.963 43.2516 127.337 42.9241C127.71 42.5967 128.045 42.1718 128.341 41.6494C128.637 41.127 128.926 40.4994 129.206 39.7665L133.833 27.4168H129.276L126.893 35.0418L124.369 27.4168H119.718L124.673 39.8367C124.532 40.0394 124.38 40.1758 124.217 40.246C124.053 40.3162 123.862 40.3513 123.644 40.3513C123.395 40.3513 123.099 40.2928 122.756 40.1758C122.414 40.0589 122.063 39.8913 121.705 39.673L120.326 42.7838C120.918 43.1113 121.545 43.3763 122.207 43.579C122.869 43.7818 123.598 43.8831 124.392 43.8831Z" fill="white"/>
<path d="M39.7813 18.9199H1V48.5302H39.7813V18.9199Z" fill="white"/>
<path fill-rule="evenodd" clip-rule="evenodd" d="M1.62109 19.3536V47.6993L29.9613 39.3563V8.86523L1.62109 19.3536Z" fill="white" stroke="#10131F" stroke-width="2"/>
<path fill-rule="evenodd" clip-rule="evenodd" d="M1.49609 19.1462V47.5804L19.8924 34.8328V3.09375L1.49609 19.1462Z" fill="white" stroke="#10131F" stroke-width="2"/>
<path fill-rule="evenodd" clip-rule="evenodd" d="M27.1035 48.0332L33.9411 54.8771V48.1418" fill="white"/>
</g>
<defs>
<clipPath id="clip0_2894_21513">
<rect width="134" height="55" fill="white"/>
</clipPath>
</defs>
</svg>
