<svg width="122" height="18" viewBox="0 0 122 18" fill="none" xmlns="http://www.w3.org/2000/svg">
<g clip-path="url(#clip0_2894_21514)">
<path d="M19.6797 11.1177C19.6797 7.09418 22.5649 4.23535 26.6257 4.23535C30.6864 4.23535 33.5717 7.09418 33.5717 11.1177C33.5717 15.1589 30.6864 18.0001 26.6257 18.0001C22.5649 18.0001 19.6797 15.1589 19.6797 11.1177ZM30.0987 11.1177C30.0987 8.85888 28.7451 7.41182 26.6257 7.41182C24.5241 7.41182 23.1527 8.85888 23.1527 11.1177C23.1527 13.3589 24.5063 14.8236 26.6257 14.8236C28.7273 14.8236 30.0987 13.3589 30.0987 11.1177Z" fill="white"/>
<path d="M35.709 4.50006H39.182V5.29418C39.9478 4.62359 40.9452 4.23535 42.0672 4.23535C43.5099 4.23535 44.7566 4.72947 45.7005 5.61182C46.7157 4.72947 48.1049 4.23535 49.6722 4.23535C53.0027 4.23535 55.4605 6.45888 55.4605 9.653V17.7177H52.0053V9.653C52.0053 8.32947 51.097 7.39418 49.69 7.39418C48.283 7.39418 47.3391 8.31182 47.3391 9.653V17.7177H43.8661V9.653C43.8661 8.32947 42.9577 7.39418 41.5507 7.39418C40.1437 7.39418 39.182 8.32947 39.182 9.653V17.7177H35.709V4.50006Z" fill="white"/>
<path d="M57.6172 11.1177C57.6172 7.09418 60.5024 4.23535 64.5632 4.23535C65.8989 4.23535 67.0744 4.62359 68.0362 5.34712V4.50006H71.5092V17.7354H68.0362V16.8883C67.0744 17.5942 65.8989 18.0001 64.5632 18.0001C60.5024 18.0001 57.6172 15.1589 57.6172 11.1177ZM68.0362 11.1177C68.0362 8.85888 66.6826 7.41182 64.5632 7.41182C62.4438 7.41182 61.0902 8.85888 61.0902 11.1177C61.0902 13.3589 62.4616 14.8236 64.5632 14.8236C66.6648 14.8236 68.0362 13.3589 68.0362 11.1177Z" fill="white"/>
<path d="M82.7282 7.67647H78.7209V12.8118C78.7209 13.9765 79.3086 14.5588 80.5019 14.5588H82.7282V17.7353H80.2347C76.9042 17.7353 75.2479 16.0941 75.2479 12.8118V7.67647H73.9121V4.5H75.2479V0H78.7209V4.5H82.7282V7.67647Z" fill="white"/>
<path d="M85.1328 4.5H88.6058V6.22941L92.6131 4.5V8.06471L88.6058 9.65294V17.7176H85.1328V4.5Z" fill="white"/>
<path d="M93.9492 11.1177C93.9492 7.09418 96.8345 4.23535 100.895 4.23535C104.956 4.23535 107.841 7.09418 107.841 11.1177C107.841 15.1589 104.956 18.0001 100.895 18.0001C96.8345 18.0001 93.9492 15.1589 93.9492 11.1177ZM104.368 11.1177C104.368 8.85888 103.015 7.41182 100.895 7.41182C98.7758 7.41182 97.4222 8.85888 97.4222 11.1177C97.4222 13.3589 98.7758 14.8236 100.895 14.8236C103.015 14.8236 104.368 13.3589 104.368 11.1177Z" fill="white"/>
<path d="M109.979 4.50006H113.452V5.34712C114.253 4.64123 115.286 4.23535 116.461 4.23535C119.578 4.23535 121.858 6.52947 121.858 9.79418V17.7354H118.385V9.79418C118.385 8.38241 117.352 7.41182 115.927 7.41182C114.467 7.41182 113.452 8.38241 113.452 9.79418V17.7354H109.979V4.50006Z" fill="white"/>
<path d="M3.65109 0.175781H0V17.9111H3.65109V0.175781Z" fill="white"/>
<path d="M0.0585938 0.189453V3.8071H13.8437V0.189453H0.0585938Z" fill="white"/>
<path d="M0.0488281 14.2969V17.9146H13.8339V14.2969H0.0488281Z" fill="white"/>
<path d="M13.793 14.2939H17.4441V3.81152H13.793V14.2939Z" fill="white"/>
</g>
<defs>
<clipPath id="clip0_2894_21514">
<rect width="122" height="18" fill="white"/>
</clipPath>
</defs>
</svg>
