<svg width="94" height="32" viewBox="0 0 94 32" fill="none" xmlns="http://www.w3.org/2000/svg">
<g clip-path="url(#clip0_2894_21510)">
<path d="M10.4891 16.0484L16.3923 8.12287H13.9335C12.8331 8.12287 12.12 8.51352 11.5382 9.29272L8.41745 13.4827L5.40742 9.29272C4.82344 8.51352 4.11242 8.12287 3.01004 8.12287H0.551192L6.37866 16.0484L0 24.6895H2.3318C3.43214 24.6895 4.14316 24.2989 4.72713 23.5197L8.41543 18.6142L17.0603 30.6024C17.6095 31.3816 18.3553 31.7701 19.4557 31.7701H21.9801L10.4891 16.0484ZM57.6599 24.6834H60.9937V8.12287H57.6599V24.6834ZM31.2089 24.6834H34.5447V8.12287H31.2089V24.6834ZM81.7793 30.5304L93.8464 8.12287H92.0327C90.9324 8.12287 90.0898 8.44775 89.6374 9.29272L84.8879 18.1599L80.7752 9.29272C80.3654 8.41481 79.4802 8.12287 78.3799 8.12287H76.6341L82.9861 21.6365L77.4537 31.7701H79.2651C80.3859 31.7701 81.2936 31.4144 81.7793 30.5365V30.5304ZM38.522 8.12287V24.6895H41.8558V13.3203C42.8925 11.8584 44.3822 10.9497 46.2263 10.9497C48.6852 10.9497 50.3716 12.5081 50.3716 15.627V23.0982C50.36 23.3075 50.3921 23.5167 50.4657 23.7128C50.5392 23.9089 50.6526 24.0875 50.7987 24.2372C50.9448 24.3869 51.1204 24.5044 51.3143 24.5823C51.5081 24.6601 51.716 24.6967 51.9247 24.6895H53.7053V15.041C53.7053 10.7544 50.9863 7.76514 47.0357 7.76514C45.1192 7.73197 43.2637 8.44194 41.8558 9.74703V8.12287H38.522ZM67.1737 18.8136C67.1737 22.4198 69.3744 24.9815 73.3208 24.9815C74.1416 24.9919 74.9595 24.8825 75.7489 24.6566L75.0768 21.7331C74.5778 21.8447 74.0677 21.8992 73.5564 21.8955C71.9377 21.8955 70.5116 21.0197 70.5116 18.7459V11.104H75.1752L73.8146 8.12287H70.5116V1.46373L67.1778 2.9255V8.12287H63.6493V11.104H67.1778L67.1737 18.8136ZM20.9473 11.104V24.673H24.2811V11.104H28.5554V8.12287H24.2811V6.88931C24.2811 4.06242 25.9654 3.12081 27.6149 3.12081C27.9985 3.11923 28.3802 3.17395 28.7481 3.28323L29.4283 0.326808C28.7631 0.093664 28.0612 -0.0163985 27.3567 0.00197286C23.2136 0.00197286 20.9473 3.08586 20.9473 6.82353V8.12287H19.1975L17.0931 11.104H20.9473Z" fill="white"/>
</g>
<defs>
<clipPath id="clip0_2894_21510">
<rect width="94" height="32" fill="white"/>
</clipPath>
</defs>
</svg>
