<svg width="128" height="32" viewBox="0 0 128 32" fill="none" xmlns="http://www.w3.org/2000/svg">
<path fill-rule="evenodd" clip-rule="evenodd" d="M45.043 9.32812H60.4735V12.9948H54.8207V30.717H50.6957V12.9948H45.043V9.32812Z" fill="#3CC3A3"/>
<path fill-rule="evenodd" clip-rule="evenodd" d="M70.863 17.5781H74.2852C75.2833 17.5781 75.9759 17.3643 76.363 16.9365C76.7704 16.4887 76.9741 15.9485 76.9741 15.317C76.9741 14.6655 76.7704 14.1155 76.363 13.667C75.9552 13.2192 75.263 12.9948 74.2852 12.9948H70.863V17.5781ZM72.3602 21.2448H70.863V30.717H66.7383V9.32812H74.53C76.4855 9.32812 78.0435 9.8581 79.2046 10.917C80.4676 12.1192 81.0991 13.5754 81.0991 15.2865C81.0991 16.9976 80.4676 18.4544 79.2046 19.6559C78.5939 20.2266 77.8806 20.6442 77.0661 20.909L85.0716 30.717H79.9685L72.3602 21.2448Z" fill="#3CC3A3"/>
<path fill-rule="evenodd" clip-rule="evenodd" d="M110.645 3.75066L101.411 9.08211C100.852 8.99875 100.281 8.95555 99.6992 8.95555C93.348 8.95555 88.1992 14.1043 88.1992 20.4556C88.1992 26.8069 93.348 31.9556 99.6992 31.9556C103.041 31.9556 106.05 30.5299 108.151 28.2535L120.944 20.8667C121.183 20.7287 121.265 20.4229 121.127 20.1837C120.989 19.9446 120.683 19.8626 120.444 20.0007L109.641 26.2385C110.632 24.5396 111.199 22.5638 111.199 20.4556C111.199 15.2025 107.677 10.772 102.865 9.39693L111.145 4.61669C111.384 4.47861 111.466 4.17282 111.328 3.93367C111.19 3.69453 110.884 3.61259 110.645 3.75066ZM99.6992 11.9556C104.393 11.9556 108.199 15.7612 108.199 20.4556C108.199 25.15 104.393 28.9556 99.6992 28.9556C95.0048 28.9556 91.1992 25.15 91.1992 20.4556C91.1992 15.7612 95.0048 11.9556 99.6992 11.9556Z" fill="#3CC3A3"/>
<path d="M112.254 12.7507L122.646 6.75066C122.885 6.61259 123.191 6.69453 123.329 6.93367C123.467 7.17282 123.385 7.47861 123.146 7.61668L112.754 13.6167C112.515 13.7548 112.209 13.6729 112.071 13.4337C111.933 13.1946 112.015 12.8888 112.254 12.7507Z" fill="#3CC3A3"/>
<path d="M113.254 17.7507L126.244 10.2507C126.483 10.1126 126.789 10.1946 126.927 10.4337C127.065 10.6729 126.983 10.9787 126.744 11.1167L113.754 18.6167C113.514 18.7548 113.209 18.6729 113.071 18.4337C112.933 18.1946 113.014 17.8888 113.254 17.7507Z" fill="#3CC3A3"/>
<path d="M94.7266 17.2507L124.172 0.250665C124.411 0.112594 124.717 0.194531 124.855 0.433677C124.993 0.672824 124.911 0.978619 124.672 1.11668L95.2266 18.1167C94.9875 18.2548 94.6817 18.1729 94.5436 17.9337C94.4055 17.6946 94.4875 17.3888 94.7266 17.2507Z" fill="#3CC3A3"/>
<mask id="mask0_2894_21512" style="mask-type:alpha" maskUnits="userSpaceOnUse" x="25" y="9" width="16" height="23">
<path fill-rule="evenodd" clip-rule="evenodd" d="M25.9473 9.02246H40.9195V31.0228H25.9473V9.02246Z" fill="white"/>
</mask>
<g mask="url(#mask0_2894_21512)">
<path fill-rule="evenodd" clip-rule="evenodd" d="M25.9473 27.8145L28.6362 25.0034C30.0618 26.5722 31.7423 27.3558 33.6778 27.3558C34.5945 27.3558 35.3431 27.1015 35.9237 26.5919C36.5042 26.083 36.7945 25.4417 36.7945 24.6669C36.7945 23.8528 36.4686 23.1958 35.8167 22.6964C35.1645 22.1974 34.1715 21.6935 32.8376 21.1839C31.5033 20.675 30.5408 20.2472 29.9501 19.9003C27.9334 18.7195 26.9251 17.0997 26.9251 15.0423C26.9251 13.2293 27.6278 11.7728 29.0334 10.6728C30.439 9.5728 32.089 9.02246 33.9834 9.02246C36.3056 9.02246 38.3729 9.69503 40.1862 11.0395L38.0473 14.095C37.0284 13.1583 35.7964 12.6895 34.3501 12.6895C33.4738 12.6895 32.7048 12.8833 32.0431 13.27C31.3807 13.6571 31.0501 14.238 31.0501 15.0117C31.0501 15.6228 31.3909 16.1575 32.0737 16.6159C32.7561 17.0742 33.5757 17.4816 34.5334 17.8381C35.4908 18.1946 36.4533 18.6071 37.4209 19.0756C38.3882 19.5445 39.2132 20.2472 39.8959 21.1839C40.5783 22.121 40.9195 23.2617 40.9195 24.6062C40.9195 26.4602 40.2062 27.9927 38.7806 29.2048C37.3547 30.4168 35.6534 31.0228 33.6778 31.0228C30.8667 31.0228 28.2895 29.9534 25.9473 27.8145Z" fill="#3CC3A3"/>
</g>
<mask id="mask1_2894_21512" style="mask-type:alpha" maskUnits="userSpaceOnUse" x="0" y="9" width="22" height="22">
<path fill-rule="evenodd" clip-rule="evenodd" d="M0 9.21484H21.236V30.6289H0V9.21484Z" fill="white"/>
</mask>
<g mask="url(#mask1_2894_21512)">
<path fill-rule="evenodd" clip-rule="evenodd" d="M9.16667 9.21484L0 30.6037C0 30.6037 4.13824 30.6604 4.30833 30.6037C4.47843 30.547 10.6028 15.876 10.6028 15.876L16.9278 30.6037H21.2361L12.0694 9.21484H9.16667Z" fill="#3CC3A3"/>
</g>
</svg>
