<svg width="140" height="295" viewBox="0 0 140 295" fill="none" xmlns="http://www.w3.org/2000/svg">
<rect width="140" height="295" rx="5" fill="#F1554C"/>
<path d="M72.9113 182.223L82.5532 182.223L82.5532 187.63L57.8789 187.63L57.8789 171.883L62.8804 171.883L62.8804 182.223L68.0487 182.223L68.0487 173.527L72.9113 173.527L72.9113 182.223Z" fill="white"/>
<path d="M65.377 161.738C65.377 156.414 68.9058 152.54 74.1852 152.54C79.4646 152.54 82.9379 156.414 82.9379 161.738C82.9379 167.089 79.4368 170.963 74.1852 170.963C68.9058 170.963 65.377 167.089 65.377 161.738ZM78.3254 161.738C78.3254 159.369 76.6582 157.724 74.1296 157.724C71.6289 157.724 69.9617 159.369 69.9617 161.738C69.9617 164.135 71.6289 165.779 74.1296 165.779C76.6582 165.779 78.3254 164.162 78.3254 161.738Z" fill="white"/>
<path d="M82.5231 149.559L57.4043 149.559L57.4043 144.403L82.5231 144.403L82.5231 149.559Z" fill="white"/>
<path d="M60.3488 140.946C58.7094 140.946 57.459 139.636 57.459 137.992C57.459 136.375 58.7372 135.093 60.3488 135.093C61.9882 135.093 63.2663 136.403 63.2663 137.992C63.2663 139.636 61.9604 140.946 60.3488 140.946ZM65.8782 140.528L65.8782 135.372L82.55 135.372L82.55 140.528L65.8782 140.528Z" fill="white"/>
<path d="M65.377 123.193C65.377 117.869 68.9058 113.995 74.1852 113.995C79.4646 113.995 82.9379 117.869 82.9379 123.193C82.9379 128.544 79.4368 132.418 74.1852 132.418C68.9058 132.418 65.377 128.544 65.377 123.193ZM78.3254 123.193C78.3254 120.824 76.6582 119.179 74.1296 119.179C71.6289 119.179 69.9617 120.824 69.9617 123.193C69.9617 125.59 71.6289 127.234 74.1296 127.234C76.6582 127.234 78.3254 125.59 78.3254 123.193Z" fill="white"/>
<path d="M82.5215 110.372L57.875 110.372L57.875 94.653L62.8765 94.653L62.8765 104.937L67.7114 104.937L67.7114 95.8236L72.435 95.8236L72.435 104.937L77.5199 104.937L77.5199 94.653L82.5215 94.653L82.5215 110.372Z" fill="white"/>
<path d="M74.2984 91.7559C68.9912 91.7559 65.3234 88.5786 65.3234 83.5061C65.3234 81.4437 66.157 79.4649 67.3796 78.4894L57.4043 78.4894L57.4043 73.3333L82.5231 73.3333L82.5231 78.1828L80.3836 78.4615C81.9118 79.3534 82.9399 81.4437 82.9399 83.8406C82.9677 88.6343 79.5778 91.7559 74.2984 91.7559ZM74.1039 78.5173C71.6031 78.5173 69.9359 80.1895 69.9359 82.5864C69.9359 85.039 71.6309 86.5719 74.1039 86.5719C76.5769 86.5719 78.2718 85.039 78.2718 82.5864C78.2718 80.1895 76.6047 78.5173 74.1039 78.5173Z" fill="white"/>
<path d="M65.2969 62.2398C65.2969 59.9544 66.1583 58.1707 67.5198 57.2509L65.8526 56.9722L65.8526 52.1227L81.4407 52.1227C87.4148 52.1227 90.9992 55.5787 90.9992 61.2922C90.9992 66.3925 88.1095 69.8485 83.358 70.3223L83.358 65.1104C85.2197 64.999 86.3311 63.6054 86.3311 61.3479C86.3311 58.8674 84.8585 57.3067 82.4966 57.3067L80.3571 57.3067C81.5519 58.31 82.3299 60.1773 82.3299 62.3512C82.3299 67.0335 78.8844 70.2665 73.9106 70.2665C68.8257 70.2665 65.2969 66.9778 65.2969 62.2398ZM77.8563 61.2085C77.8563 58.8674 76.2169 57.3067 73.7439 57.3067C71.2987 57.3067 69.7427 58.8674 69.7427 61.2643C69.7427 63.5497 71.3821 65.1105 73.7439 65.1105C76.1613 65.0826 77.8563 63.4939 77.8563 61.2085Z" fill="white"/>
<path d="M74.1583 49.168C68.9623 49.168 65.3223 45.6563 65.3223 40.6117C65.3223 35.372 68.7678 32.0832 74.1861 32.0832L75.4921 32.0832L75.5476 44.207C77.7428 43.9004 78.7709 42.6741 78.7709 40.3887C78.7709 38.4377 78.0762 37.0721 76.8814 36.7098L76.8814 31.9996C80.577 32.6128 82.9388 35.9015 82.9388 40.5002C82.9666 45.5726 79.2988 49.168 74.1583 49.168ZM72.4078 44.1512L72.4078 37.2114C70.6295 37.2114 69.518 38.5214 69.518 40.5838C69.4902 42.6184 70.4072 43.7611 72.4078 44.1512Z" fill="white"/>
<g clip-path="url(#clip0_3868_7068)">
<path d="M58.7209 229.847C57.6905 228.835 56.2674 228.206 54.6966 228.206C51.5506 228.206 49 230.722 49 233.825C49 235.786 50.0219 237.511 51.5675 238.514C51.8377 238.785 79.7885 261.151 80.1094 261.359C81.1398 262.371 82.5586 263 84.1295 263C87.2755 263 89.8261 260.484 89.8261 257.381C89.8261 255.42 88.8041 253.696 87.2586 252.692C86.9926 252.425 59.0418 230.055 58.7209 229.847Z" fill="white"/>
<path d="M71.981 216.907C70.9506 215.89 69.5275 215.261 67.9524 215.261C64.8064 215.261 62.2559 217.777 62.2559 220.88C62.2559 222.842 63.2778 224.566 64.8233 225.574C65.0978 225.845 79.7763 237.59 80.1014 237.802C81.1318 238.818 82.5549 239.447 84.13 239.447C87.276 239.447 89.8265 236.932 89.8265 233.829C89.8265 231.867 88.8046 230.143 87.2591 229.135C86.9888 228.864 72.3061 217.115 71.981 216.907Z" fill="white"/>
<path d="M54.6966 204.649C57.8426 204.649 60.3931 207.164 60.3931 210.267C60.3931 213.37 57.8426 215.886 54.6966 215.886C51.5506 215.886 49 213.37 49 210.267C49 207.164 51.5506 204.649 54.6966 204.649Z" fill="white"/>
<path d="M54.6966 251.763C57.8426 251.763 60.3931 254.279 60.3931 257.381C60.3931 260.484 57.8426 263 54.6966 263C51.5506 263 49 260.484 49 257.381C49 254.279 51.5506 251.763 54.6966 251.763Z" fill="white"/>
</g>
<defs>
<clipPath id="clip0_3868_7068">
<rect width="58.3508" height="40.8261" fill="white" transform="translate(49 263) rotate(-90)"/>
</clipPath>
</defs>
</svg>
