<svg width="154" height="20" viewBox="0 0 154 20" fill="none" xmlns="http://www.w3.org/2000/svg">
<g clip-path="url(#clip0_3868_8053)">
<path d="M14.8738 0.285606C15.0302 -0.0593268 15.5032 -0.0789386 15.7629 0.157488C16.2939 0.580278 16.5949 1.22185 16.8221 1.84766C17.2294 3.07661 17.3031 4.4997 16.6687 5.66656C16.3569 6.32489 15.8868 6.89551 15.3389 7.36954C12.4191 9.92589 8.99553 11.831 5.48856 13.4512C5.31046 13.5517 5.10796 13.5783 4.90625 13.5626C5.04885 13.264 5.32924 13.0738 5.55239 12.8421C7.42099 10.946 9.09289 8.86547 10.6487 6.70619C12.1496 4.62979 13.6376 2.53457 14.8738 0.285606Z" fill="#6E6E78"/>
<path d="M34.002 2.13817C35.726 1.34089 37.6762 1.14575 39.5498 1.3537C40.8371 1.48674 42.1088 1.8572 43.2279 2.51366C43.9646 2.93852 44.6205 3.48637 45.2362 4.0698C44.3973 5.06321 43.5407 6.04291 42.6861 7.02242C41.5128 5.95707 40.073 5.06025 38.4492 4.99028C36.8737 4.86117 35.255 5.51852 34.2381 6.73564C32.1787 9.11567 32.4393 13.1741 34.8941 15.1836C36.1824 16.2726 38.0058 16.523 39.6079 16.1188C40.849 15.8182 41.8866 15.0219 42.8141 14.1774C43.656 15.0387 44.5106 15.8882 45.3603 16.7426C44.5696 17.6444 43.6225 18.422 42.5613 18.9847C41.1835 19.71 39.6099 20.0057 38.0629 19.9899C36.0842 20.0431 34.0848 19.45 32.4748 18.2909C30.5689 16.9388 29.254 14.8071 28.8439 12.5088C28.4996 10.5624 28.6885 8.50071 29.5009 6.68932C30.3779 4.68871 32.0095 3.03007 34.002 2.13817V2.13817ZM133.164 1.43353C133.779 1.43648 134.394 1.43353 135.011 1.4356C135.012 7.48759 135.008 13.5407 135.013 19.5938C134.396 19.5967 133.779 19.5938 133.163 19.5958C133.16 18.9296 133.17 18.2634 133.157 17.5982C132.677 18.1077 132.198 18.6319 131.589 18.9907C130.125 19.9377 128.231 20.129 126.59 19.5712C125.096 19.0883 123.808 18.0121 123.062 16.6284C122.341 15.3532 122.116 13.8454 122.252 12.3985C122.4 10.466 123.434 8.60724 125.032 7.50553C126.547 6.44008 128.552 6.1119 130.318 6.67769C131.439 7.02262 132.411 7.74599 133.162 8.63789C133.166 6.23598 133.162 3.83426 133.164 1.43353V1.43353ZM127.602 8.33317C126.723 8.51352 125.903 8.98371 125.313 9.66165C124.225 10.9161 123.99 12.6971 124.261 14.2887C124.476 15.4506 125.101 16.5633 126.077 17.2472C127.004 17.9224 128.212 18.1973 129.341 17.9903C130.555 17.7764 131.658 17.0403 132.352 16.0242C133.625 14.2109 133.507 11.5421 132.056 9.86181C130.987 8.60123 129.224 7.95571 127.602 8.33317V8.33317ZM149.386 1.54785C149.724 1.35173 150.132 1.38129 150.506 1.43451C150.494 1.60806 150.479 1.7824 150.468 1.95585C150.212 1.946 149.838 1.79334 149.681 2.07806C149.697 2.37864 150.091 2.39244 150.295 2.53041C150.752 2.7216 150.783 3.39373 150.441 3.70713C150.099 4.0628 149.555 4.00673 149.113 3.93961C149.123 3.75246 149.134 3.5661 149.143 3.37895C149.381 3.43315 149.629 3.49613 149.876 3.44005C150.01 3.37501 150.079 3.18766 149.96 3.07048C149.716 2.90688 149.396 2.86943 149.194 2.64375C148.913 2.3205 149.021 1.76269 149.386 1.54785ZM151.193 1.43353C151.421 1.43353 151.651 1.43451 151.883 1.43845C152.006 1.86223 152.148 2.28009 152.273 2.70386L152.371 2.75314C152.571 2.33725 152.66 1.86824 152.823 1.43264C153.046 1.43362 153.269 1.43461 153.493 1.43658C153.635 2.27526 153.76 3.11591 153.899 3.95558C153.682 3.95765 153.469 3.95558 153.254 3.94671C153.198 3.5387 153.139 3.13069 153.067 2.72466L152.961 2.78478C152.83 3.1711 152.727 3.5663 152.604 3.95459C152.41 3.95558 152.219 3.95558 152.029 3.95656C151.907 3.5181 151.721 3.09531 151.645 2.64582C151.761 2.44083 151.44 2.43886 151.556 2.64582C151.538 3.08437 151.448 3.51702 151.403 3.95459C151.199 3.95558 150.996 3.95755 150.795 3.95853C150.92 3.11581 151.064 2.27615 151.193 1.43353V1.43353ZM89.2792 2.74723C90.9393 1.88588 92.8777 1.71046 94.7089 1.96669C96.0228 2.14409 97.2797 2.65952 98.3684 3.41246C98.9978 3.84411 99.5742 4.3487 100.132 4.87004C99.6774 5.34999 99.2221 5.82994 98.753 6.29511C98.2346 5.78559 97.6879 5.30269 97.0928 4.88581C95.6126 3.87171 93.7342 3.48538 91.9708 3.77808C90.356 4.04319 88.8631 4.96662 87.8924 6.28624C87.0358 7.41959 86.5736 8.82396 86.4841 10.2352C86.3415 12.0476 86.8008 13.9329 87.8915 15.4013C88.9192 16.8096 90.5301 17.7804 92.2601 18.003C93.5288 18.1499 94.8564 18.013 96.0239 17.4738C97.1067 16.9456 98.0586 16.1768 98.8739 15.2938C99.3332 15.7216 99.7709 16.174 100.23 16.6026C99.2329 17.6148 98.1176 18.55 96.8077 19.1245C95.3099 19.8006 93.626 19.9968 92.0024 19.8183C90.0148 19.5996 88.1216 18.6318 86.7675 17.1604C84.4406 14.6375 83.8289 10.7722 85.0129 7.58309C85.7672 5.51655 87.2945 3.716 89.2792 2.74723V2.74723ZM137.659 1.90362C138.374 1.89574 139.089 1.89859 139.805 1.90155C139.809 2.66829 139.807 3.43512 139.806 4.20176C139.089 4.20077 138.372 4.20964 137.655 4.19683C137.658 3.43217 137.652 2.6674 137.659 1.90362V1.90362ZM143.461 2.78763C144.086 2.78556 144.712 2.78468 145.337 2.78862C145.337 4.08852 145.337 5.38744 145.338 6.68745C146.763 6.68942 148.188 6.68745 149.614 6.68843C149.614 7.27876 149.612 7.8681 149.616 8.45843C148.19 8.45941 146.764 8.45843 145.338 8.45843C145.337 11.0198 145.337 13.5811 145.338 16.1416C145.357 16.6569 145.478 17.2434 145.923 17.5606C146.52 17.9873 147.301 18.0505 148.007 17.9381C148.557 17.8613 149.056 17.6031 149.565 17.395C149.567 18.017 149.569 18.6388 149.563 19.2606C148.835 19.6056 148.04 19.8382 147.228 19.7949C146.077 19.8382 144.831 19.4263 144.148 18.4505C143.635 17.7636 143.464 16.8924 143.461 16.0508C143.458 13.5219 143.457 10.9931 143.461 8.46326C142.88 8.4534 142.299 8.4603 141.719 8.45932V6.68745C142.298 6.68745 142.879 6.69129 143.46 6.68449C143.458 5.38547 143.457 4.08655 143.461 2.78763ZM66.0446 6.12363C66.7793 5.6624 67.6644 5.53527 68.5161 5.54808C68.5426 6.93077 68.524 8.31356 68.5259 9.69615C67.3703 9.66471 66.1263 9.9583 65.3129 10.8344C64.4003 11.8013 64.1594 13.185 64.1229 14.468C64.1169 16.2095 64.1208 17.952 64.1208 19.6943C62.8099 19.6933 61.4989 19.6933 60.189 19.6943C60.191 15.0682 60.1879 10.4432 60.191 5.81812C61.5001 5.82009 62.81 5.82009 64.119 5.81812C64.1268 6.70706 64.1072 7.59698 64.1308 8.48593C64.5752 7.5684 65.1456 6.65482 66.0446 6.12363V6.12363ZM71.6434 6.83616C72.8108 5.97087 74.2742 5.53034 75.7229 5.57075C77.2757 5.55685 78.8679 6.04961 80.0315 7.10422C81.3021 8.22969 82.0102 9.87354 82.2551 11.5312C82.376 12.3935 82.4282 13.2736 82.3032 14.1389C79.1069 14.1271 75.9106 14.1389 72.7143 14.133C72.8954 14.9914 73.3615 15.8191 74.1128 16.2962C74.9371 16.8313 75.9746 16.8885 76.9217 16.7495C77.8806 16.6017 78.7156 16.0449 79.4129 15.3935C80.179 16.0537 80.9304 16.7328 81.6886 17.4029C80.6974 18.6595 79.2575 19.5514 77.683 19.8431C75.8734 20.1812 73.9222 19.9899 72.2946 19.0901C70.9177 18.3402 69.8241 17.0846 69.2772 15.6122C68.7392 14.1852 68.6537 12.6025 68.9587 11.1123C69.3038 9.42808 70.249 7.85322 71.6434 6.83616V6.83616ZM73.7549 9.45371C73.1344 10.0253 72.8197 10.8443 72.6545 11.6564C74.6107 11.6584 76.5658 11.6544 78.5218 11.6584C78.391 10.5941 77.856 9.48436 76.8471 9.01032C75.8517 8.53619 74.5693 8.69486 73.7549 9.45371V9.45371ZM47.093 6.78984C49.1386 5.81033 51.4635 5.51763 53.7068 5.73435C55.0178 5.87823 56.3583 6.3503 57.266 7.34765C57.9258 8.06018 58.3154 8.98765 58.4924 9.93464C58.6911 10.9074 58.637 11.9057 58.6439 12.8933C58.6429 15.16 58.6439 17.4267 58.6429 19.6934C57.3672 19.6904 56.0918 19.7013 54.8162 19.6874C54.8221 19.2222 54.826 18.7562 54.8141 18.2909C54.5053 18.5156 54.2526 18.8094 53.93 19.0153C52.6299 19.9161 50.9482 20.1191 49.4199 19.8294C48.1433 19.5869 46.906 18.8232 46.3338 17.6218C45.895 16.7743 45.8715 15.7879 45.9659 14.8574C46.1046 13.7931 46.7006 12.7978 47.5955 12.2025C48.7205 11.4525 50.1063 11.2229 51.4349 11.2209C52.5945 11.2012 53.756 11.3874 54.8487 11.7768C54.8958 10.9844 54.6697 10.1063 53.998 9.62243C53.1806 9.03713 52.1107 8.99761 51.1449 9.0864C50.0896 9.14642 49.0678 9.44602 48.0814 9.81165C47.749 8.80523 47.4225 7.79705 47.093 6.78984V6.78984ZM51.5876 13.6648C51.0516 13.7565 50.5007 13.9526 50.134 14.3725C49.5507 15.0367 49.5823 16.2252 50.3238 16.7623C50.9758 17.2472 51.8452 17.265 52.6164 17.1408C53.4916 16.9969 54.3797 16.5023 54.7338 15.6497C54.957 15.1629 54.8912 14.6178 54.893 14.0996C53.8554 13.6658 52.7009 13.4953 51.5876 13.6648ZM111.963 7.33188C114.029 5.95116 117.026 6.10687 118.879 7.79113C120.241 8.99248 120.93 10.8088 121.03 12.5966C121.055 13.0519 121.073 13.516 120.962 13.9625C117.625 13.9585 114.289 13.9605 110.952 13.9605C111.105 15.3342 111.873 16.645 113.039 17.3959C113.954 17.9853 115.087 18.1627 116.154 18.007C117.493 17.8532 118.644 16.9958 119.507 16.0034C119.974 16.3799 120.412 16.7928 120.864 17.1881C120.226 17.8868 119.52 18.5332 118.703 19.0152C117.715 19.6459 116.523 19.8855 115.365 19.8746C113.923 19.9091 112.478 19.4016 111.362 18.488C110.032 17.4178 109.209 15.7799 109.029 14.0886C108.921 12.9868 108.986 11.8535 109.344 10.7989C109.796 9.39359 110.717 8.13114 111.963 7.33188V7.33188ZM113.27 8.6377C111.957 9.34441 111.166 10.7792 110.955 12.2241C113.657 12.2251 116.361 12.222 119.065 12.2261C118.954 11.4042 118.703 10.5881 118.251 9.88842C117.743 9.1 116.943 8.49095 116.024 8.28103C115.102 8.08679 114.1 8.16957 113.27 8.6377ZM107.651 6.56514C108.112 6.48433 108.581 6.51094 109.046 6.50897C109.045 7.16927 109.051 7.83055 109.043 8.49085C107.848 8.42768 106.602 8.71151 105.658 9.47529C104.301 10.5398 103.671 12.3019 103.641 13.988C103.635 15.8565 103.64 17.7262 103.639 19.5947C103.022 19.5957 102.405 19.5947 101.79 19.5957C101.791 15.2929 101.791 10.9901 101.79 6.68745C102.406 6.68942 103.023 6.68745 103.64 6.68843C103.642 7.48572 103.629 8.28301 103.646 9.08029C103.859 8.91965 103.991 8.67928 104.175 8.48701C105.065 7.46788 106.31 6.75633 107.651 6.56514V6.56514ZM137.802 6.68833C138.418 6.68735 139.034 6.68833 139.652 6.68735C139.651 10.99 139.651 15.2928 139.652 19.5956C139.035 19.5946 138.418 19.5966 137.803 19.5936C137.803 15.2919 137.805 10.9901 137.802 6.68833V6.68833ZM21.4125 9.72177C21.4311 9.67545 21.4696 9.5839 21.4893 9.53758C21.4912 9.57995 21.4942 9.66569 21.496 9.70797L21.4125 9.72177ZM23.3234 12.7247C23.7257 12.565 24.2923 12.5226 24.5567 12.9375C24.839 13.4194 24.7427 14.0117 24.6206 14.5282C24.2843 15.8064 23.5191 16.9604 22.5022 17.7981C21.6083 18.5058 20.4851 18.8398 19.3865 19.0725C17.8946 19.3691 16.3692 19.4282 14.8527 19.4775C12.2691 19.5169 9.67962 19.3514 7.12947 18.9275C4.8429 18.5305 2.55534 17.9667 0.465461 16.9309C0.313023 16.8727 0.197957 16.7574 0.0996094 16.6323C0.351378 16.4263 0.685759 16.5416 0.978736 16.5406C3.99898 16.652 7.03103 16.5298 10.0288 16.1405C12.092 15.8754 14.122 15.4063 16.1391 14.9086C18.5654 14.2897 20.9779 13.6037 23.3234 12.7247ZM16.3201 13.4431C16.3663 13.4234 16.4588 13.385 16.505 13.3662L16.4904 13.452L16.396 13.4913L16.3201 13.4431ZM15.7291 13.6363L15.914 13.5574L15.9002 13.6412C15.8579 13.6402 15.7723 13.6373 15.7291 13.6363V13.6363ZM15.0426 13.8413C15.0878 13.8206 15.1784 13.7802 15.2237 13.7604L15.2119 13.8442C15.1695 13.8442 15.0849 13.8422 15.0426 13.8413ZM14.3483 14.0285C14.3945 14.0108 14.4879 13.9743 14.5341 13.9567L14.5174 14.0413L14.423 14.0778L14.3483 14.0285ZM13.9598 14.129C14.005 14.1123 14.0975 14.0788 14.1427 14.0619L14.126 14.1448L13.9598 14.129V14.129ZM13.5684 14.2404C13.6136 14.2227 13.7031 14.1862 13.7473 14.1684L13.7335 14.2523L13.5684 14.2404ZM4.35815 14.9017L4.44863 14.8563L4.52839 14.8996C4.48315 14.9214 4.39365 14.9657 4.34841 14.9874L4.35815 14.9017V14.9017Z" fill="#6E6E78"/>
<path d="M151.556 2.64569C151.44 2.43873 151.762 2.4407 151.646 2.64569H151.556ZM20.0864 5.73038C20.347 5.53229 20.702 5.42792 21.0177 5.54618C21.4623 5.77867 21.6019 6.31676 21.6963 6.77208C21.8202 7.68861 21.7986 8.66132 21.4898 9.53755C21.4701 9.58387 21.4316 9.67543 21.4131 9.72175C21.4553 9.85578 21.3629 9.98202 21.3245 10.1052C21.1603 10.4827 20.9754 10.8582 20.6992 11.1666C19.6104 12.3315 18.0782 12.8952 16.5991 13.3781L16.5056 13.3663C16.4594 13.385 16.367 13.4235 16.3207 13.4432C16.2047 13.5191 16.0572 13.6009 15.9146 13.5575L15.7297 13.6363C15.5772 13.7142 15.4002 13.8049 15.2242 13.7605C15.1789 13.7802 15.0883 13.8206 15.0431 13.8413C14.8867 13.9083 14.7097 14.0078 14.5346 13.9566C14.4884 13.9744 14.395 14.0108 14.3488 14.0285L14.2563 14.0965L14.1433 14.0619C14.0981 14.0787 14.0056 14.1122 13.9604 14.129L13.8581 14.2008L13.748 14.1683C13.7038 14.1862 13.6143 14.2226 13.5691 14.2403C13.387 14.3132 13.1943 14.3487 13.0055 14.395C9.99513 15.0926 6.92375 15.5086 3.84253 15.7146C3.48356 15.7372 3.12361 15.7599 2.76562 15.7195L2.76956 15.4919C3.29867 15.3401 3.80909 15.0701 4.34911 14.9873C4.39435 14.9656 4.48385 14.9213 4.52909 14.8995C4.74536 14.7606 5.00116 14.7004 5.23611 14.601C7.34271 13.7612 9.40308 12.8014 11.3818 11.6907C13.5149 10.5102 15.4632 9.03375 17.4459 7.62248C17.4508 7.61963 17.4597 7.61263 17.4645 7.60869C18.3366 6.98005 19.2106 6.35395 20.0864 5.73038V5.73038Z" fill="#6E6E78"/>
</g>
<defs>
<clipPath id="clip0_3868_8053">
<rect width="154" height="20" fill="white"/>
</clipPath>
</defs>
</svg>
