<svg width="142" height="31" viewBox="0 0 142 31" fill="none" xmlns="http://www.w3.org/2000/svg">
<g clip-path="url(#clip0_3868_8065)">
<path d="M10.2631 7.55681C10.2631 6.56315 10.6074 5.60018 11.2374 4.83166C11.8674 4.06312 12.7443 3.53651 13.7188 3.34136L22.7451 1.5382C23.3686 1.41379 24.012 1.4292 24.6288 1.58333C25.2457 1.73745 25.8206 2.02645 26.3123 2.4295C26.8039 2.83255 27.2 3.33961 27.472 3.91415C27.744 4.48869 27.8852 5.11638 27.8852 5.75204V5.8036C27.8836 6.79574 27.5385 7.75674 26.9086 8.52342C26.2786 9.29006 25.4027 9.81508 24.4295 10.0093L19.0733 11.0809V14.6034C19.0733 15.5971 18.7291 16.56 18.099 17.3286C17.469 18.0971 16.5921 18.6237 15.6176 18.8189L4.90694 20.9604C3.93236 21.1549 3.05538 21.6812 2.42528 22.4495C1.79518 23.2178 1.45094 24.1807 1.45117 25.1742V25.2177C1.45122 25.8535 1.59238 26.4814 1.86448 27.0561C2.13658 27.6308 2.53283 28.1379 3.02467 28.541C3.51651 28.9441 4.09167 29.233 4.70874 29.387C5.32578 29.541 5.9693 29.5564 6.59293 29.4317L6.80567 29.3897C7.78053 29.1948 8.65777 28.6684 9.2881 27.8998C9.91847 27.1313 10.263 26.1681 10.2631 25.1742V7.55681Z" stroke="#6E6E78" stroke-width="2.90105" stroke-miterlimit="10"/>
<path d="M40.067 17.4392V24.2055H36.7773V6.76367H47.738V9.85591H40.1234H40.043V9.9365V14.2873V14.3679H40.1234H46.8965V17.3586H40.1478H40.067V17.4392Z" fill="#6E6E78" stroke="#6E6E78" stroke-width="0.16117"/>
<path d="M49.3398 24.2055V6.76367H52.4814V24.2055H49.3398Z" fill="#6E6E78" stroke="#6E6E78" stroke-width="0.16117"/>
<path d="M66.7115 18.1775C66.7115 21.8832 63.9909 24.578 60.3849 24.578C56.7791 24.578 54.0586 21.8832 54.0586 18.1775C54.0586 14.4719 56.7791 11.7803 60.3849 11.7803C63.9913 11.7803 66.7115 14.4496 66.7115 18.1775ZM63.5699 18.1775C63.5699 17.0058 63.1911 16.1157 62.5996 15.5184C62.0086 14.9216 61.2112 14.6228 60.3849 14.6228C59.5589 14.6228 58.7615 14.9216 58.1704 15.5184C57.579 16.1157 57.1999 17.0058 57.1999 18.1775C57.1999 19.3493 57.579 20.2397 58.1704 20.8374C58.7615 21.4347 59.5589 21.7339 60.3849 21.7339C61.2112 21.7339 62.0086 21.4351 62.5996 20.838C63.1911 20.2405 63.5699 19.3501 63.5699 18.1775Z" fill="#6E6E78" stroke="#6E6E78" stroke-width="0.16117"/>
<path d="M80.9922 19.9624L83.232 12.1523H86.3387L82.5658 24.2056H79.3897L76.552 15.9178L76.4752 15.6932L76.3993 15.9182L73.6118 24.2056H70.376L66.5283 12.1523H69.834L72.0738 19.9383L72.145 20.1855L72.2276 19.9419L74.8701 12.1523H78.2311L80.8384 19.9657L80.9206 20.2122L80.9922 19.9624Z" fill="#6E6E78" stroke="#6E6E78" stroke-width="0.16117"/>
<path d="M90.4679 22.7955V24.2055H87.4053V6.76367H90.5049V13.4107V13.6901L90.6537 13.4536C91.1821 12.6136 92.494 11.8283 94.2926 11.8283C96.0578 11.8283 97.4452 12.508 98.3925 13.6312C99.3412 14.756 99.8536 16.3315 99.8536 18.1289C99.8536 19.9657 99.2876 21.5593 98.2969 22.6925C97.3069 23.8247 95.8892 24.502 94.1734 24.502C92.5081 24.502 91.2452 23.7686 90.6171 22.7531L90.4679 22.512V22.7955ZM93.582 14.6225C92.7303 14.6225 91.9452 14.9343 91.3736 15.5349C90.8015 16.1357 90.4485 17.0193 90.4485 18.153C90.4485 19.2749 90.8015 20.1646 91.3729 20.7745C91.9442 21.3845 92.7292 21.7094 93.582 21.7094C94.4471 21.7094 95.2265 21.3913 95.7897 20.7838C96.3523 20.1766 96.6929 19.2867 96.6929 18.153C96.6929 17.0193 96.3523 16.1357 95.7894 15.5348C95.2262 14.9337 94.4464 14.6225 93.582 14.6225Z" fill="#6E6E78" stroke="#6E6E78" stroke-width="0.16117"/>
<path d="M109.901 22.622L109.747 22.5892C109.241 23.7234 108.005 24.5524 106.394 24.5524C104.616 24.5524 103.142 23.8603 102.112 22.7142C101.082 21.5672 100.492 19.9613 100.492 18.1294C100.492 14.5891 102.798 11.8047 106.296 11.8047C108.448 11.8047 109.437 12.9512 109.722 13.617L109.877 13.5852V12.1527H112.919V22.079C112.919 23.0773 112.982 23.8665 113.011 24.2092H110.015C109.942 23.7346 109.904 23.2551 109.901 22.7748C109.901 22.7747 109.901 22.7747 109.901 22.7746V22.622ZM106.792 21.8598C107.673 21.8598 108.446 21.4953 108.998 20.844C109.55 20.1934 109.877 19.2613 109.877 18.1294C109.877 16.9977 109.556 16.0911 109.006 15.4661C108.456 14.8403 107.682 14.5037 106.792 14.5037C105.89 14.5037 105.103 14.8409 104.544 15.4668C103.984 16.0921 103.657 16.9989 103.657 18.1294C103.657 19.2491 103.978 20.1812 104.533 20.8349C105.089 21.4896 105.875 21.8598 106.792 21.8598Z" fill="#6E6E78" stroke="#6E6E78" stroke-width="0.16117"/>
<path d="M118.059 19.2673V19.2672V19.2671C116.892 19.0088 116.052 18.5322 115.504 17.9151C114.956 17.2988 114.695 16.5365 114.695 15.696C114.695 13.5637 116.584 11.7803 119.184 11.7803C120.904 11.7803 122.044 12.3261 122.772 13.0267C123.475 13.7031 123.799 14.5287 123.887 15.1613L121.286 15.7467C121.223 15.3958 121.062 15.0082 120.756 14.6994C120.423 14.3632 119.923 14.1265 119.208 14.1265C118.316 14.1265 117.564 14.6646 117.564 15.4236C117.564 15.7433 117.685 16.0063 117.897 16.2044C118.106 16.4006 118.401 16.5296 118.746 16.5936L120.484 16.9656V16.9657H120.485C121.676 17.2121 122.566 17.6962 123.157 18.3331C123.748 18.9693 124.045 19.7624 124.045 20.6365C124.045 21.6085 123.669 22.5943 122.9 23.3373C122.132 24.0797 120.967 24.5845 119.382 24.5845C117.563 24.5845 116.349 23.9954 115.571 23.2417C114.818 22.5125 114.469 21.6248 114.381 20.954L117.05 20.3626C117.105 20.8308 117.309 21.2788 117.671 21.6164C118.057 21.9767 118.619 22.2061 119.356 22.2061C119.916 22.2061 120.339 22.0598 120.624 21.8212C120.909 21.5818 121.049 21.2547 121.049 20.9089C121.049 20.6155 120.948 20.346 120.72 20.1251C120.495 19.9063 120.15 19.7403 119.67 19.6393L118.059 19.2673Z" fill="#6E6E78" stroke="#6E6E78" stroke-width="0.16117"/>
<path d="M136.54 18.9661H127.874H127.79L127.794 19.0504C127.87 20.7101 129.276 21.9069 130.953 21.9069C131.737 21.9069 132.35 21.7111 132.819 21.3707C133.268 21.0451 133.579 20.5914 133.782 20.064L136.391 20.8443C135.755 22.8868 133.861 24.577 130.929 24.577C127.618 24.577 124.701 22.2013 124.701 18.1282C124.701 14.2741 127.545 11.7793 130.631 11.7793C132.5 11.7793 133.985 12.375 135.004 13.4481C136.023 14.5218 136.583 16.0824 136.583 18.0283C136.583 18.2619 136.571 18.5017 136.559 18.6901C136.553 18.7841 136.547 18.8652 136.542 18.9262V18.9357C136.541 18.9463 136.54 18.9565 136.54 18.9661ZM133.411 16.8745H133.495L133.492 16.7906C133.466 16.1665 133.249 15.5419 132.791 15.0728C132.331 14.6026 131.636 14.2962 130.671 14.2962C128.91 14.2962 127.937 15.6239 127.86 16.7886L127.854 16.8745H127.94H133.411Z" fill="#6E6E78" stroke="#6E6E78" stroke-width="0.16117"/>
<path d="M137.779 5.02193H137.699V5.10252V6.60272H137.329V5.10252V5.02193H137.249H136.744V4.71094H138.277V5.02193H137.779ZM139.948 5.86415L140.411 4.71094H140.985V6.60272H140.634V5.43445L140.478 5.40444L139.997 6.60272H139.724L139.238 5.42154L139.083 5.45219V6.60272H138.732V4.71094H139.318L139.798 5.86507L139.874 6.04694L139.948 5.86415Z" fill="#6E6E78" stroke="#6E6E78" stroke-width="0.16117"/>
</g>
<defs>
<clipPath id="clip0_3868_8065">
<rect width="142" height="31" fill="white"/>
</clipPath>
</defs>
</svg>
