<svg width="137" height="30" viewBox="0 0 137 30" fill="none" xmlns="http://www.w3.org/2000/svg">
<g clip-path="url(#clip0_3868_8059)">
<path d="M37.2318 22.6548V7.19882H47.2616V9.91611H40.2332V13.4412H45.3031V16.115H40.2332V22.6548L37.2318 22.6548V22.6548ZM50.218 14.7891C50.218 15.4556 50.3271 16.0755 50.5487 16.6478C50.7667 17.22 51.0937 17.7456 51.5263 18.2203C52.0021 18.7348 52.5435 19.1333 53.1468 19.4124C53.7499 19.6909 54.3747 19.8325 55.018 19.8325C56.377 19.8321 57.5142 19.3506 58.4335 18.3869C59.3526 17.4265 59.8106 16.2276 59.8106 14.7893C59.8106 13.4703 59.349 12.3472 58.4225 11.4162C57.496 10.4846 56.3843 10.0212 55.0833 10.0212C53.7281 10.0207 52.5798 10.485 51.6351 11.4125C50.6905 12.3398 50.218 13.4667 50.218 14.7891V14.7891ZM47.035 14.8942C47.035 14.0464 47.1478 13.2458 47.3767 12.4922C47.6021 11.7384 47.9398 11.0322 48.3868 10.3727C49.1534 9.26005 50.1164 8.40537 51.2718 7.80039C52.4274 7.19498 53.6918 6.89103 55.0615 6.89103C56.0898 6.89089 57.0819 7.0903 58.0374 7.48517C58.993 7.87966 59.8469 8.45246 60.599 9.19517C61.3731 9.9668 61.9616 10.833 62.3649 11.7966C62.7682 12.7565 62.9718 13.7712 62.9718 14.8328C62.9718 15.9337 62.7829 16.974 62.4012 17.9415C62.0234 18.9122 61.4638 19.7711 60.7262 20.5211C59.9814 21.3069 59.113 21.9087 58.1209 22.3325C57.1327 22.7527 56.0971 22.963 55.018 22.963C53.8626 22.9626 52.798 22.7566 51.8241 22.347C50.854 21.9374 49.9928 21.3291 49.2371 20.521C48.5141 19.7562 47.9654 18.8979 47.5948 17.9487C47.2204 16.9952 47.035 15.9777 47.035 14.8942V14.8942ZM74.129 7.19877V9.91606H69.6683V22.6548H66.6452V9.91606H62.8967V7.19877H74.129V7.19877ZM76.5139 14.7891C76.5139 15.4556 76.6229 16.0754 76.8445 16.6478C77.0625 17.22 77.3895 17.7456 77.822 18.2203C78.2979 18.7347 78.8392 19.1333 79.4425 19.4123C80.0457 19.6909 80.6705 19.8325 81.3137 19.8325C82.6728 19.8321 83.81 19.3506 84.7293 18.3869C85.6484 17.4265 86.1064 16.2275 86.1064 14.7892C86.1064 13.4703 85.6449 12.3472 84.7184 11.4161C83.7918 10.4846 82.68 10.0212 81.379 10.0212C80.0239 10.0207 78.8756 10.485 77.9309 11.4125C76.9862 12.3398 76.5139 13.4667 76.5139 14.7891V14.7891ZM73.3308 14.8942C73.3308 14.0464 73.4436 13.2458 73.6724 12.4922C73.8978 11.7384 74.2355 11.0322 74.6825 10.3727C75.4492 9.26005 76.4122 8.40532 77.5675 7.80034C78.7231 7.19498 79.9875 6.89098 81.3573 6.89098C82.3856 6.89084 83.3776 7.09025 84.3332 7.48512C85.2887 7.87961 86.1426 8.45241 86.8947 9.19512C87.6688 9.96675 88.2574 10.8329 88.6606 11.7966C89.0639 12.7564 89.2676 13.7711 89.2676 14.8328C89.2676 15.9336 89.0787 16.9739 88.6969 17.9415C88.3191 18.9121 87.7596 19.771 87.022 20.521C86.2771 21.3068 85.4087 21.9087 84.4167 22.3324C83.4285 22.7527 82.3928 22.963 81.3137 22.963C80.1583 22.9625 79.0937 22.7565 78.1198 22.3469C77.1498 21.9374 76.2886 21.329 75.5329 20.521C74.8098 19.7561 74.2612 18.8978 73.8906 17.9486C73.5161 16.9952 73.3308 15.9777 73.3308 14.8942V14.8942ZM100.347 22.6548H90.7005V7.19882H93.7018V19.9373H100.347V22.6548ZM102.49 14.7891C102.49 15.4556 102.599 16.0755 102.821 16.6478C103.039 17.22 103.366 17.7456 103.798 18.2203C104.274 18.7348 104.815 19.1333 105.419 19.4124C106.022 19.6909 106.647 19.8325 107.29 19.8325C108.649 19.8321 109.786 19.3506 110.705 18.3869C111.625 17.4265 112.083 16.2276 112.083 14.7893C112.083 13.4703 111.621 12.3472 110.694 11.4162C109.768 10.4846 108.656 10.0212 107.355 10.0212C106 10.0207 104.852 10.485 103.907 11.4125C102.962 12.3398 102.49 13.4667 102.49 14.7891V14.7891ZM99.3071 14.8942C99.3071 14.0464 99.4198 13.2458 99.6486 12.4922C99.874 11.7384 100.212 11.0322 100.659 10.3727C101.425 9.26005 102.388 8.40537 103.544 7.80039C104.699 7.19498 105.964 6.89103 107.333 6.89103C108.362 6.89089 109.354 7.0903 110.309 7.48517C111.265 7.87966 112.119 8.45246 112.871 9.19517C113.645 9.9668 114.234 10.833 114.637 11.7966C115.04 12.7565 115.244 13.7712 115.244 14.8328C115.244 15.9337 115.055 16.974 114.673 17.9415C114.295 18.9122 113.736 19.7711 112.998 20.5211C112.253 21.3069 111.385 21.9087 110.393 22.3325C109.405 22.7527 108.369 22.963 107.29 22.963C106.134 22.9626 105.07 22.7566 104.096 22.347C103.126 21.9374 102.265 21.3291 101.509 20.521C100.786 19.7562 100.237 18.8979 99.8668 17.9487C99.4923 16.9952 99.3071 15.9777 99.3071 14.8942ZM132.405 14.4376C132.405 14.4955 132.409 14.5828 132.416 14.6986C132.423 14.8144 132.427 14.9014 132.427 14.9596C132.427 15.6224 132.365 16.2421 132.245 16.8108C132.125 17.3797 131.94 17.9159 131.693 18.4195C130.962 19.8685 129.967 20.9884 128.706 21.7782C127.445 22.5681 126.021 22.963 124.433 22.963C123.259 22.9626 122.176 22.7382 121.185 22.2927C120.189 21.8467 119.295 21.1877 118.503 20.3072C117.842 19.5715 117.337 18.7384 116.991 17.8037C116.642 16.869 116.468 15.8798 116.468 14.8327C116.468 13.7566 116.679 12.7348 117.097 11.7676C117.515 10.8035 118.129 9.9235 118.939 9.12995C119.706 8.37256 120.556 7.81123 121.497 7.44172C122.438 7.07532 123.481 6.89098 124.622 6.89098C126.29 6.89084 127.729 7.30202 128.946 8.11177C129.804 8.68315 130.573 9.52527 131.038 10.1121L128.564 12.1933C128.117 11.6352 127.287 10.7322 126.489 10.4198C125.868 10.1758 125.203 9.99951 124.451 9.99951C123.125 9.99936 122.002 10.4778 121.079 11.4343C120.156 12.3868 119.695 13.5502 119.695 14.9162C119.695 16.3034 120.16 17.474 121.094 18.4268C122.028 19.3794 123.176 19.8543 124.538 19.8543C125.483 19.8541 126.341 19.6008 127.111 19.0899C127.881 18.579 128.448 17.8906 128.819 17.0282H122.729V14.4376H132.405V14.4376ZM132.855 8.21887H132.561V5.53098H131.714V5.23832H133.726V5.53098H132.855V8.21887V8.21887ZM134.07 8.21887V5.23828H134.502L135.537 7.82931L136.567 5.23828H137V8.21887H136.719V5.58635L135.668 8.21887H135.403L134.353 5.58635V8.21887H134.07V8.21887ZM0 0H30.0868V30H0V0Z" fill="#6E6E78"/>
<path d="M15.043 7.5H22.5646V22.5H7.52148V7.5H15.043Z" fill="white"/>
</g>
<defs>
<clipPath id="clip0_3868_8059">
<rect width="137" height="30" fill="white"/>
</clipPath>
</defs>
</svg>
