<svg width="48" height="48" viewBox="0 0 48 48" fill="none" xmlns="http://www.w3.org/2000/svg">
<g clip-path="url(#clip0_3868_8156)">
<path d="M21.1875 26.4922V32.4377H26.8125V26.4922C25.8947 26.6425 24.9551 26.7212 24 26.7212C23.0449 26.7212 22.1053 26.6425 21.1875 26.4922Z" fill="#F1554C"/>
<path d="M28.19 35.25H19.8089C18.5305 35.25 17.3401 35.9013 16.6508 36.978L14.9961 39.5625H33.0029L31.3482 36.978C30.6588 35.9013 29.4685 35.25 28.19 35.25Z" fill="#F1554C"/>
<path d="M5.32969 15.6611C3.80053 14.9872 2.8125 13.4719 2.8125 11.8008V7.07812C2.8125 6.81966 3.02278 6.60938 3.28125 6.60938H5.95106L5.49384 3.79688H3.28125C1.47197 3.79688 0 5.26884 0 7.07812V11.8008C0 14.5859 1.64672 17.1113 4.19531 18.2347L11.5711 21.4858C10.298 20.1845 9.22491 18.6795 8.40572 17.0169L5.32969 15.6611Z" fill="#F1554C"/>
<path d="M44.7186 3.79688H42.5061L42.0489 6.60938H44.7186C44.9771 6.60938 45.1874 6.81966 45.1874 7.07812V11.8008C45.1874 13.4719 44.1994 14.9872 42.6702 15.6611L39.5941 17.017C38.7749 18.6796 37.7018 20.1845 36.4287 21.4858L43.8045 18.2347C46.3531 17.1113 47.9998 14.5859 47.9998 11.8008V7.07812C47.9999 5.26884 46.5279 3.79688 44.7186 3.79688Z" fill="#F1554C"/>
<path d="M38.3152 12.0487L39.9975 1.70053C39.9994 1.68909 40.0014 1.67766 40.0035 1.66631C40.1097 1.10137 39.8613 0.698437 39.7038 0.5085C39.5464 0.318562 39.1963 0 38.6216 0H9.37833C8.80355 0 8.45349 0.318562 8.29599 0.5085C8.13849 0.698344 7.89005 1.10128 7.99636 1.66622C7.99842 1.67766 8.00049 1.68909 8.00236 1.70053L9.68461 12.0488C10.9854 18.9221 17.0031 23.9085 23.9999 23.9085C30.9968 23.9085 37.0145 18.9219 38.3152 12.0487ZM16.657 9.93703C16.8224 9.42797 17.2624 9.05691 17.7921 8.97994L21.2102 8.48325L22.7388 5.38584C22.9757 4.90584 23.4646 4.602 23.9998 4.602C24.5352 4.602 25.024 4.90594 25.2609 5.38594L26.7895 8.48325L30.2076 8.97994C30.7373 9.05691 31.1774 9.42797 31.3427 9.93703C31.5082 10.4461 31.3702 11.0049 30.9868 11.3785L28.5135 13.7894L29.0975 17.1937C29.188 17.7213 28.971 18.2545 28.538 18.5692C28.2931 18.7471 28.0029 18.8377 27.7113 18.8377C27.4875 18.8377 27.2629 18.7844 27.057 18.6762L23.9999 17.0689L20.9427 18.6761C20.4689 18.9252 19.8948 18.8837 19.4617 18.5691C19.0287 18.2544 18.8117 17.7213 18.9023 17.1937L19.4863 13.7893L17.0129 11.3784C16.6295 11.0049 16.4916 10.4461 16.657 9.93703Z" fill="#F1554C"/>
<path d="M21.9789 12.2913C22.3104 12.6144 22.4616 13.0798 22.3834 13.536L22.1562 14.8606L23.3457 14.2353C23.5506 14.1276 23.7754 14.0738 24.0001 14.0738C24.2248 14.0738 24.4496 14.1276 24.6545 14.2353L25.844 14.8606L25.6167 13.536C25.5384 13.0798 25.6897 12.6144 26.0212 12.2913L26.9835 11.3532L25.6535 11.1599C25.1954 11.0934 24.7995 10.8056 24.5947 10.3906L24.0001 9.18555L23.4054 10.3907C23.2005 10.8057 22.8045 11.0935 22.3465 11.16L21.0166 11.3532L21.9789 12.2913Z" fill="#F1554C"/>
<path d="M36.1583 42.375H11.8398C10.5613 42.375 9.37095 43.0263 8.68161 44.103L7.11045 46.557C6.71089 47.181 7.15901 48 7.90001 48H40.0982C40.8391 48 41.2872 47.181 40.8877 46.557L39.3166 44.103C38.6271 43.0263 37.4368 42.375 36.1583 42.375Z" fill="#F1554C"/>
</g>
<defs>
<clipPath id="clip0_3868_8156">
<rect width="48" height="48" fill="white"/>
</clipPath>
</defs>
</svg>
