<svg width="48" height="48" viewBox="0 0 48 48" fill="none" xmlns="http://www.w3.org/2000/svg">
<g clip-path="url(#clip0_3868_8177)">
<path d="M43.7809 36.6559C44.5584 36.6559 45.1872 36.0271 45.1872 35.2496V11.25H2.8125V35.2496C2.8125 36.0271 3.44128 36.6559 4.21875 36.6559H22.5938V42.7679L15.1176 45.26C14.3815 45.5043 13.983 46.3008 14.2288 47.0383C14.4749 47.7744 15.2659 48.1739 16.0075 47.9267L24 45.2626L31.9922 47.9267C32.7341 48.1739 33.5266 47.7707 33.7709 47.0383C34.0166 46.3008 33.6182 45.5043 32.8821 45.26L25.4059 42.7679V36.6559H43.7809ZM32.4371 15.5625H38.1559C38.9334 15.5625 39.5622 16.1913 39.5622 16.9687C39.5622 17.7458 38.9334 18.375 38.1559 18.375H32.4371C31.66 18.375 31.0309 17.7458 31.0309 16.9687C31.0309 16.1913 31.66 15.5625 32.4371 15.5625ZM32.4371 21.1875H38.1559C38.9334 21.1875 39.5622 21.8163 39.5622 22.5937C39.5622 23.3708 38.9334 23.9996 38.1559 23.9996H32.4371C31.66 23.9996 31.0309 23.3708 31.0309 22.5937C31.0309 21.8163 31.66 21.1875 32.4371 21.1875ZM9.9375 32.4371C9.16004 32.4371 8.53125 31.8083 8.53125 31.0309V16.9687C8.53125 16.1913 9.16004 15.5625 9.9375 15.5625C10.7146 15.5625 11.3438 16.1913 11.3438 16.9687V29.6246H14.1563V25.4059C14.1563 24.6288 14.785 23.9996 15.5625 23.9996C16.3396 23.9996 16.9688 24.6288 16.9688 25.4059V29.6246H19.7813V22.5937C19.7813 21.8163 20.41 21.1875 21.1875 21.1875C21.9646 21.1875 22.5938 21.8163 22.5938 22.5937V29.6246H25.4059V19.7812C25.4059 19.0038 26.035 18.375 26.8121 18.375C27.5896 18.375 28.2184 19.0038 28.2184 19.7812V29.6246H29.6246C30.4021 29.6246 31.0309 30.2538 31.0309 31.0309C31.0309 31.8083 30.4021 32.4371 29.6246 32.4371H9.9375Z" fill="#8A64F9"/>
<path d="M45.1871 2.8125H25.4059V1.40625C25.4059 0.628784 24.7771 0 24 0C23.2225 0 22.5938 0.628784 22.5938 1.40625V2.8125H2.8125C1.25903 2.8125 0 4.07153 0 5.625C0 7.17846 1.25903 8.4375 2.8125 8.4375H45.1871C46.7406 8.4375 47.9996 7.17846 47.9996 5.625C47.9996 4.07153 46.7406 2.8125 45.1871 2.8125Z" fill="#8A64F9"/>
</g>
<defs>
<clipPath id="clip0_3868_8177">
<rect width="48" height="48" fill="white"/>
</clipPath>
</defs>
</svg>
