<svg width="48" height="48" viewBox="0 0 48 48" fill="none" xmlns="http://www.w3.org/2000/svg">
<g clip-path="url(#clip0_3868_8163)">
<path d="M22.5938 5.97766V0H1.40625C0.629151 0 0 0.629151 0 1.40625V24C0 24.5684 0.342041 25.0822 0.86792 25.299C1.38611 25.5154 1.99438 25.4 2.40051 24.9943L7.61353 19.7812H22.5938V13.8973C20.9604 13.3147 19.7812 11.7686 19.7812 9.9375C19.7812 8.10645 20.9604 6.5603 22.5938 5.97766Z" fill="#3CC3A3"/>
<path d="M2.8125 45.1875V46.5938C2.8125 47.3708 3.44165 48 4.21875 48H18.375C19.1521 48 19.7812 47.3708 19.7812 46.5938V45.1875C19.7812 40.5348 15.9965 36.6562 11.3438 36.6562C6.69104 36.6562 2.8125 40.5348 2.8125 45.1875Z" fill="#3CC3A3"/>
<path d="M16.9688 31.0312C16.9688 27.9291 14.4459 25.4062 11.3438 25.4062C8.24158 25.4062 5.625 27.9291 5.625 31.0312C5.625 34.1334 8.24158 36.6562 11.3438 36.6562C14.4459 36.6562 16.9688 34.1334 16.9688 31.0312Z" fill="#3CC3A3"/>
<path d="M28.2188 45.1875V46.5938C28.2188 47.3708 28.8479 48 29.625 48H43.6875C44.4646 48 45.0938 47.3708 45.0938 46.5938V45.1875C45.0938 40.5348 41.309 36.6562 36.6562 36.6562C32.0035 36.6562 28.2188 40.5348 28.2188 45.1875Z" fill="#3CC3A3"/>
<path d="M42.2812 31.0312C42.2812 27.9291 39.7584 25.4062 36.6562 25.4062C33.5541 25.4062 31.0312 27.9291 31.0312 31.0312C31.0312 34.1334 33.5541 36.6562 36.6562 36.6562C39.7584 36.6562 42.2812 34.1334 42.2812 31.0312Z" fill="#3CC3A3"/>
<path d="M46.5938 0H25.4062V7.125C25.4062 7.9021 24.7771 8.53125 24 8.53125C23.224 8.53125 22.5938 9.1615 22.5938 9.9375C22.5938 10.7135 23.224 11.3438 24 11.3438C24.7771 11.3438 25.4062 11.9729 25.4062 12.75V19.7812H40.2927L45.5995 24.9943C46.0049 25.3997 46.6132 25.5154 47.1321 25.299C47.658 25.0822 48 24.5684 48 24V1.40625C48 0.629151 47.3708 0 46.5938 0V0ZM31.0312 11.3438C30.2545 11.3438 29.625 10.7142 29.625 9.9375C29.625 9.16077 30.2545 8.53125 31.0312 8.53125C31.808 8.53125 32.4375 9.16077 32.4375 9.9375C32.4375 10.7142 31.808 11.3438 31.0312 11.3438ZM36.6562 11.3438C35.8795 11.3438 35.25 10.7142 35.25 9.9375C35.25 9.16077 35.8795 8.53125 36.6562 8.53125C37.433 8.53125 38.0625 9.16077 38.0625 9.9375C38.0625 10.7142 37.433 11.3438 36.6562 11.3438ZM42.2812 11.3438C41.5045 11.3438 40.875 10.7142 40.875 9.9375C40.875 9.16077 41.5045 8.53125 42.2812 8.53125C43.058 8.53125 43.6875 9.16077 43.6875 9.9375C43.6875 10.7142 43.058 11.3438 42.2812 11.3438Z" fill="#3CC3A3"/>
</g>
<defs>
<clipPath id="clip0_3868_8163">
<rect width="48" height="48" fill="white"/>
</clipPath>
</defs>
</svg>
