<svg width="48" height="48" viewBox="0 0 48 48" fill="none" xmlns="http://www.w3.org/2000/svg">
<g clip-path="url(#clip0_3868_8170)">
<path d="M28.2188 31.0312V22.5938H19.7812V31.0312H22.5938V26.8125C22.5938 26.0354 23.2229 25.4062 24 25.4062C24.7771 25.4062 25.4062 26.0354 25.4062 26.8125V31.0312H28.2188Z" fill="#FDB12E"/>
<path d="M22.5938 8.4375H25.4062V19.7812H22.5938V8.4375Z" fill="#FDB12E"/>
<path d="M22.5938 33.8438H25.4062V48H22.5938V33.8438Z" fill="#FDB12E"/>
<path d="M46.5938 8.4375H33.8438V4.21875C33.8438 1.88892 31.9548 0 29.625 0H18.375C16.0452 0 14.1562 1.88892 14.1562 4.21875V8.4375H1.40625C0.629517 8.4375 0 9.06702 0 9.84375V21.1875C0 23.5173 1.88892 25.4062 4.21875 25.4062H16.9688V21.1875C16.9688 20.4104 17.5979 19.7812 18.375 19.7812H19.7812V8.4375H16.9688V4.21875C16.9688 3.44202 17.5983 2.8125 18.375 2.8125H29.625C30.4017 2.8125 31.0312 3.44202 31.0312 4.21875V8.4375H28.2188V19.7812H29.625C30.4021 19.7812 31.0312 20.4104 31.0312 21.1875V25.4062H43.7812C46.1111 25.4062 48 23.5173 48 21.1875V9.84375C48 9.06702 47.3705 8.4375 46.5938 8.4375Z" fill="#FDB12E"/>
<path d="M31.0312 28.2185V32.4373C31.0312 33.2144 30.4021 33.8435 29.625 33.8435H28.2188V47.9998H43.7812C46.1074 47.9998 48 46.0134 48 43.6873V26.7764C46.8212 27.6688 45.3702 28.2185 43.7812 28.2185H31.0312Z" fill="#FDB12E"/>
<path d="M16.9688 32.4373V28.2185H4.21875C2.62976 28.2185 1.17883 27.6688 0 26.7764V43.6873C0 46.0134 1.89258 47.9998 4.21875 47.9998H19.7812V33.8435H18.375C17.5979 33.8435 16.9688 33.2144 16.9688 32.4373Z" fill="#FDB12E"/>
</g>
<defs>
<clipPath id="clip0_3868_8170">
<rect width="48" height="48" fill="white"/>
</clipPath>
</defs>
</svg>
