<svg width="40" height="40" viewBox="0 0 40 40" fill="none" xmlns="http://www.w3.org/2000/svg">
<path opacity="0.4" d="M26.982 3.33398H13.0154C6.9487 3.33398 3.33203 6.95065 3.33203 13.0173V26.9673C3.33203 33.0507 6.9487 36.6673 13.0154 36.6673H26.9654C33.032 36.6673 36.6487 33.0507 36.6487 26.984V13.0173C36.6654 6.95065 33.0487 3.33398 26.982 3.33398Z" fill="#FDB12E"/>
<path d="M25.9668 32.084C25.2835 32.084 24.7168 31.5173 24.7168 30.834V24.334C24.7168 23.6507 25.2835 23.084 25.9668 23.084C26.6501 23.084 27.2168 23.6507 27.2168 24.334V30.834C27.2168 31.5173 26.6501 32.084 25.9668 32.084Z" fill="#FDB12E"/>
<path d="M25.9668 13.666C25.2835 13.666 24.7168 13.0993 24.7168 12.416V9.16602C24.7168 8.48268 25.2835 7.91602 25.9668 7.91602C26.6501 7.91602 27.2168 8.48268 27.2168 9.16602V12.416C27.2168 13.0993 26.6501 13.666 25.9668 13.666Z" fill="#FDB12E"/>
<path d="M14.0332 32.084C13.3499 32.084 12.7832 31.5173 12.7832 30.834V27.584C12.7832 26.9006 13.3499 26.334 14.0332 26.334C14.7165 26.334 15.2832 26.9006 15.2832 27.584V30.834C15.2832 31.5173 14.7332 32.084 14.0332 32.084Z" fill="#FDB12E"/>
<path d="M14.0332 16.916C13.3499 16.916 12.7832 16.3493 12.7832 15.666V9.16602C12.7832 8.48268 13.3499 7.91602 14.0332 7.91602C14.7165 7.91602 15.2832 8.48268 15.2832 9.16602V15.666C15.2832 16.3493 14.7332 16.916 14.0332 16.916Z" fill="#FDB12E"/>
<path d="M25.968 12.2168C23.468 12.2168 21.418 14.2501 21.418 16.7501C21.418 19.2501 23.4513 21.3001 25.968 21.3001C28.468 21.3001 30.5013 19.2668 30.5013 16.7501C30.5013 14.2335 28.468 12.2168 25.968 12.2168Z" fill="#FDB12E"/>
<path d="M14.0333 18.7168C11.5333 18.7168 9.5 20.7501 9.5 23.2668C9.5 25.7835 11.5333 27.8001 14.0333 27.8001C16.5333 27.8001 18.5833 25.7668 18.5833 23.2668C18.5833 20.7668 16.55 18.7168 14.0333 18.7168Z" fill="#FDB12E"/>
</svg>
