<svg width="40" height="40" viewBox="0 0 40 40" fill="none" xmlns="http://www.w3.org/2000/svg">
<path opacity="0.4" d="M24.9997 37.9167C24.5497 37.9167 24.133 37.6667 23.9163 37.2833C23.6997 36.9 23.6997 36.4167 23.933 36.0333L25.683 33.1167C26.033 32.5167 26.7997 32.3333 27.3997 32.6833C27.9997 33.0333 28.183 33.8 27.833 34.4L27.383 35.15C31.983 34.0667 35.433 29.9333 35.433 25C35.433 24.3167 35.9997 23.75 36.683 23.75C37.3663 23.75 37.933 24.3167 37.933 25C37.9163 32.1167 32.1163 37.9167 24.9997 37.9167Z" fill="#8A64F9"/>
<path opacity="0.4" d="M3.33203 16.2507C2.6487 16.2507 2.08203 15.684 2.08203 15.0007C2.08203 7.88398 7.88203 2.08398 14.9987 2.08398C15.4487 2.08398 15.8654 2.33399 16.082 2.71733C16.2987 3.10066 16.2987 3.58399 16.0654 3.96733L14.3154 6.88399C13.9654 7.48399 13.1987 7.66734 12.5987 7.31734C11.9987 6.96734 11.8154 6.20063 12.1654 5.60063L12.6154 4.85061C8.01538 5.93394 4.56537 10.0673 4.56537 15.0007C4.58204 15.684 4.01536 16.2507 3.33203 16.2507Z" fill="#8A64F9"/>
<path d="M17.7836 23.0827L12.5502 20.266C12.0002 19.966 11.3336 19.966 10.7836 20.266L5.55025 23.0827C5.16692 23.2827 4.93359 23.6994 4.93359 24.1494C4.93359 24.5994 5.16692 25.0161 5.55025 25.2161L10.7836 28.0327C11.0669 28.1827 11.3669 28.2494 11.6669 28.2494C11.9669 28.2494 12.2669 28.1827 12.5502 28.0327L17.7836 25.2161C18.1669 25.0161 18.4002 24.5994 18.4002 24.1494C18.4002 23.6994 18.1502 23.2994 17.7836 23.0827Z" fill="#8A64F9"/>
<path d="M9.91639 29.0164L5.04973 26.5831C4.68306 26.3998 4.24973 26.4164 3.88307 26.633C3.53307 26.8497 3.31641 27.2331 3.31641 27.6498V32.2497C3.31641 33.0497 3.74972 33.7664 4.46639 34.1164L9.33307 36.5497C9.49974 36.6331 9.68306 36.6831 9.86639 36.6831C10.0831 36.6831 10.2997 36.6164 10.4997 36.4998C10.8497 36.2831 11.0664 35.8997 11.0664 35.483V30.8831C11.0831 30.0831 10.6331 29.3664 9.91639 29.0164Z" fill="#8A64F9"/>
<path d="M19.4333 26.633C19.0833 26.4164 18.65 26.3998 18.2667 26.5831L13.4 29.0164C12.6833 29.3664 12.25 30.0831 12.25 30.8831V35.483C12.25 35.8997 12.4667 36.2831 12.8167 36.4998C13.0167 36.6164 13.2333 36.6831 13.45 36.6831C13.6333 36.6831 13.8167 36.6331 13.9833 36.5497L18.85 34.1164C19.5667 33.7664 20 33.0497 20 32.2497V27.6498C20 27.2331 19.7833 26.8497 19.4333 26.633Z" fill="#8A64F9"/>
<path d="M34.4515 6.38347L29.2182 3.5668C28.6682 3.2668 28.0016 3.2668 27.4516 3.5668L22.2182 6.38347C21.8349 6.58347 21.6016 7.00006 21.6016 7.45006C21.6016 7.90006 21.8349 8.31675 22.2182 8.51675L27.4516 11.3334C27.7349 11.4834 28.0349 11.5501 28.3349 11.5501C28.6349 11.5501 28.9349 11.4834 29.2182 11.3334L34.4515 8.51675C34.8349 8.31675 35.0682 7.90006 35.0682 7.45006C35.0682 6.98339 34.8182 6.58347 34.4515 6.38347Z" fill="#8A64F9"/>
<path d="M26.5844 12.2996L21.7177 9.86625C21.351 9.68292 20.9177 9.69964 20.551 9.9163C20.201 10.133 19.9844 10.5163 19.9844 10.9329V15.533C19.9844 16.333 20.4177 17.0496 21.1344 17.3996L26.001 19.833C26.1677 19.9163 26.351 19.9663 26.5344 19.9663C26.751 19.9663 26.9677 19.8996 27.1677 19.7829C27.5177 19.5663 27.7344 19.183 27.7344 18.7663V14.1663C27.751 13.3663 27.301 12.6496 26.5844 12.2996Z" fill="#8A64F9"/>
<path d="M36.1013 9.9163C35.7513 9.69964 35.318 9.68292 34.9346 9.86625L30.0679 12.2996C29.3513 12.6496 28.918 13.3663 28.918 14.1663V18.7663C28.918 19.183 29.1346 19.5663 29.4846 19.7829C29.6846 19.8996 29.9013 19.9663 30.118 19.9663C30.3013 19.9663 30.4846 19.9163 30.6513 19.833L35.518 17.3996C36.2346 17.0496 36.668 16.333 36.668 15.533V10.9329C36.668 10.5163 36.4513 10.133 36.1013 9.9163Z" fill="#8A64F9"/>
</svg>
