<svg width="40" height="40" viewBox="0 0 40 40" fill="none" xmlns="http://www.w3.org/2000/svg">
<path d="M35.0672 22.1328L33.5339 20.6328L20.6172 33.5328L22.1672 35.0828C23.4672 36.3828 24.8172 37.0328 26.1505 37.0328C27.4839 37.0328 28.8339 36.3828 30.1339 35.0828L35.0672 30.1495C37.7172 27.4828 37.7172 24.7995 35.0672 22.1328Z" fill="#3CC3A3"/>
<path d="M17.8169 4.88438C15.2003 2.26771 12.4503 2.26771 9.83359 4.88438L4.88359 9.81771C2.28359 12.4344 2.28359 15.1844 4.88359 17.801L6.41693 19.3344L19.3336 6.41771L17.8169 4.88438Z" fill="#3CC3A3"/>
<path opacity="0.4" d="M36.3491 6.56616C34.1658 12.0162 29.1824 19.1328 24.4324 23.7828C23.7491 19.4828 20.3158 16.1162 15.9824 15.5162C20.6491 10.7495 27.8158 5.6995 33.2824 3.4995C34.2491 3.13283 35.2158 3.41617 35.8158 4.01617C36.4491 4.6495 36.7491 5.5995 36.3491 6.56616Z" fill="#3CC3A3"/>
<path d="M24.4325 23.7823C23.5992 24.599 22.7659 25.349 21.9659 25.9823L18.6826 28.6156C18.2659 28.9156 17.8492 29.1656 17.3826 29.3656C17.3826 29.049 17.3492 28.7323 17.3159 28.399C17.1326 27.0156 16.4992 25.699 15.3826 24.5823C14.2326 23.449 12.8659 22.799 11.4492 22.6156C11.1159 22.5823 10.7659 22.5656 10.4492 22.5823C10.6326 22.0656 10.9159 21.5823 11.2659 21.1823L13.8659 17.899C14.4826 17.1156 15.1992 16.3156 15.9826 15.5156C20.3159 16.1156 23.7492 19.4823 24.4325 23.7823Z" fill="#3CC3A3"/>
<path opacity="0.4" d="M17.3836 29.366C17.3836 31.1994 16.6836 32.9494 15.3503 34.266C14.3336 35.2994 12.9669 35.9994 11.3003 36.1994L7.21693 36.6494C4.98359 36.8994 3.06693 34.9827 3.31693 32.7327L3.76693 28.6327C4.16693 24.9827 7.21693 22.6494 10.4503 22.5827C10.7669 22.566 11.1169 22.5827 11.4503 22.616C12.8669 22.7994 14.2336 23.4494 15.3836 24.5827C16.5003 25.6994 17.1336 27.016 17.3169 28.3994C17.3503 28.7327 17.3836 29.0494 17.3836 29.366Z" fill="#3CC3A3"/>
</svg>
