<svg width="40" height="40" viewBox="0 0 40 40" fill="none" xmlns="http://www.w3.org/2000/svg">
<path opacity="0.4" d="M35.7839 8.33398V31.6673C35.7839 34.434 33.5339 36.6673 30.7839 36.6673H24.1172C21.3505 36.6673 19.1172 34.434 19.1172 31.6673V8.33398C19.1172 5.56732 21.3505 3.33398 24.1172 3.33398H30.7839C33.5339 3.33398 35.7839 5.56732 35.7839 8.33398Z" fill="#F1554C"/>
<path d="M28.7005 10C28.7005 10.6833 28.1339 11.25 27.4505 11.25H19.1172V8.75H27.4505C28.1339 8.75 28.7005 9.31667 28.7005 10Z" fill="#F1554C"/>
<path d="M26.8672 30C26.8672 30.6833 26.3172 31.25 25.6172 31.25H19.1172V28.75H25.6172C26.3172 28.75 26.8672 29.3167 26.8672 30Z" fill="#F1554C"/>
<path d="M28.7005 23.35C28.6839 24.0333 28.1339 24.5833 27.4505 24.5833C27.4339 24.5833 27.4339 24.5833 27.4339 24.5833L19.1172 24.5V22L27.4505 22.0833C28.1505 22.0833 28.7005 22.65 28.7005 23.35Z" fill="#F1554C"/>
<path d="M25.0505 16.666C25.0505 17.3493 24.4839 17.916 23.8005 17.916H19.1172V15.416H23.8005C24.4839 15.416 25.0505 15.9827 25.0505 16.666Z" fill="#F1554C"/>
<path opacity="0.4" d="M14.0668 8.25065V29.8507C14.0668 30.6007 13.7501 31.7507 13.3668 32.384L12.0001 34.6507C10.4335 37.284 7.8668 37.284 6.28346 34.6507L4.93346 32.384C4.53346 31.7507 4.2168 30.6007 4.2168 29.8507V8.25065C4.2168 5.55065 6.43346 3.33398 9.15013 3.33398C11.8501 3.33398 14.0668 5.55065 14.0668 8.25065Z" fill="#F1554C"/>
<path d="M14.0668 10.416H4.2168V12.916H14.0668V10.416Z" fill="#F1554C"/>
</svg>
