<svg width="114" height="47" viewBox="0 0 114 47" fill="none" xmlns="http://www.w3.org/2000/svg">
<g clip-path="url(#clip0_2894_20654)">
<path d="M48.4505 34.2413V29.2445H55.031V26.0264H48.4505V23.648H55.7268V20.25H44.5938V34.2413H48.4505ZM60.339 34.4812C61.0548 34.4812 61.6677 34.3579 62.178 34.1114C62.6883 33.8649 63.129 33.5351 63.5001 33.122V34.2413H67.2376V28.0252C67.2376 27.2657 67.1481 26.6027 66.9691 26.0364C66.7902 25.4701 66.4954 24.9871 66.0845 24.5874C65.6604 24.1609 65.1137 23.8345 64.4444 23.608C63.775 23.3814 62.9566 23.2682 61.9891 23.2682C61.0614 23.2682 60.2562 23.3448 59.5737 23.4981C58.8911 23.6513 58.245 23.8545 57.6353 24.1076L58.4106 26.786C58.8877 26.5994 59.3583 26.4528 59.8222 26.3463C60.286 26.2396 60.8029 26.1864 61.3729 26.1864C62.1018 26.1864 62.6418 26.3396 62.9931 26.646C63.3443 26.9526 63.5199 27.3856 63.5199 27.9453V28.1252C63.2151 28.0185 62.834 27.922 62.3768 27.8353C61.9195 27.7487 61.4391 27.7054 60.9355 27.7054C60.2993 27.7054 59.7227 27.7787 59.2058 27.9253C58.689 28.0719 58.2483 28.2851 57.8838 28.5648C57.5193 28.8447 57.2344 29.1978 57.0289 29.6242C56.8235 30.0506 56.7208 30.5436 56.7208 31.1033V31.1433C56.7208 31.6896 56.8136 32.1693 56.9992 32.5824C57.1847 32.9954 57.4398 33.3419 57.7645 33.6217C58.0892 33.9016 58.4703 34.1148 58.9076 34.2613C59.345 34.4079 59.8222 34.4812 60.339 34.4812ZM61.6909 32.1027C61.3066 32.1027 60.9885 31.9994 60.7367 31.7929C60.4848 31.5863 60.3589 31.2965 60.3589 30.9234V30.8834C60.3589 30.4836 60.5081 30.1605 60.8063 29.914C61.1044 29.6675 61.5319 29.5442 62.0885 29.5442C62.3669 29.5442 62.6353 29.5709 62.8936 29.6242C63.1521 29.6775 63.3741 29.7441 63.5597 29.8241V30.3237C63.5597 30.8701 63.3874 31.3031 63.0428 31.623C62.6982 31.9428 62.2476 32.1027 61.6909 32.1027ZM73.1023 22.4487V19.6504H69.1659V22.4487H73.1023ZM73.0227 34.2413V23.4281H69.2455V34.2413H73.0227ZM78.9869 34.2413V19.6504H75.2096V34.2413H78.9869ZM86.5815 34.5012C87.4424 34.5012 88.2379 34.3512 88.967 34.0514C89.6961 33.7516 90.3256 33.3453 90.8556 32.8322C91.3856 32.3192 91.8 31.7196 92.0977 31.0334C92.3963 30.3471 92.5452 29.6176 92.5452 28.8447V28.8047C92.5452 28.0319 92.3997 27.3057 92.1079 26.626C91.8161 25.9465 91.4052 25.3535 90.8752 24.8472C90.3452 24.3408 89.719 23.9377 88.9968 23.638C88.2745 23.3381 87.4824 23.1882 86.6206 23.1882C85.7597 23.1882 84.9643 23.3381 84.2353 23.638C83.5064 23.9377 82.8768 24.3442 82.3467 24.8571C81.8165 25.3702 81.4024 25.9698 81.1041 26.656C80.8059 27.3423 80.6568 28.0719 80.6568 28.8447V28.8847C80.6568 29.6575 80.8026 30.3837 81.0942 31.0633C81.3858 31.7429 81.7966 32.3392 82.3268 32.8522C82.8569 33.3652 83.4832 33.7683 84.2055 34.0614C84.9278 34.3546 85.7197 34.5012 86.5815 34.5012ZM86.6206 31.2831C86.2897 31.2831 85.9851 31.2166 85.7061 31.0833C85.4279 30.95 85.1863 30.7735 84.9808 30.5536C84.7754 30.3337 84.6163 30.0772 84.5037 29.7841C84.3911 29.491 84.3347 29.1778 84.3347 28.8447V28.8047C84.3347 28.4849 84.3878 28.1784 84.4938 27.8853C84.5998 27.5921 84.7489 27.3357 84.9411 27.1158C85.1335 26.8959 85.3683 26.7227 85.6465 26.5961C85.9256 26.4695 86.2369 26.4062 86.5815 26.4062C86.9124 26.4062 87.217 26.4728 87.496 26.606C87.7742 26.7394 88.0158 26.9159 88.2217 27.1358C88.4268 27.3557 88.5858 27.6121 88.6981 27.9053C88.8113 28.1984 88.8674 28.5116 88.8674 28.8447V28.8847C88.8674 29.2045 88.8147 29.5109 88.7084 29.8041C88.602 30.0972 88.4531 30.3537 88.2609 30.5736C88.0686 30.7935 87.8338 30.9667 87.5556 31.0933C87.2774 31.2199 86.9652 31.2831 86.6206 31.2831ZM97.9134 34.2413V30.8834C97.9134 29.6309 98.178 28.7115 98.708 28.1252C99.238 27.5389 100 27.2457 100.995 27.2457H101.313V23.2482C100.411 23.2082 99.6957 23.4081 99.1657 23.8478C98.6357 24.2875 98.218 24.8738 97.9134 25.6067V23.4281H94.1361V34.2413H97.9134ZM105.825 37.4993C106.355 37.4993 106.826 37.4326 107.237 37.2994C107.648 37.1662 108.013 36.9596 108.331 36.6798C108.648 36.4 108.933 36.0369 109.185 35.5905C109.437 35.1441 109.683 34.6078 109.921 33.9815L113.857 23.4281H109.98L107.953 29.944L105.806 23.4281H101.849L106.064 34.0414C105.944 34.2147 105.815 34.3312 105.676 34.3912C105.537 34.4512 105.374 34.4812 105.189 34.4812C104.977 34.4812 104.725 34.4312 104.434 34.3312C104.143 34.2313 103.844 34.0881 103.539 33.9016L102.366 36.5599C102.87 36.8397 103.403 37.0662 103.966 37.2394C104.53 37.4127 105.15 37.4993 105.825 37.4993Z" fill="#6E6E78"/>
<path d="M33.8446 16.168H0.851562V41.4713H33.8446V16.168Z" fill="#6E6E78"/>
<path fill-rule="evenodd" clip-rule="evenodd" d="M1.37891 16.5389V40.7616L25.4892 33.6322V7.57617L1.37891 16.5389Z" fill="#6E6E78" stroke="#F2F2F2" stroke-width="2"/>
<path fill-rule="evenodd" clip-rule="evenodd" d="M1.27344 16.3621V40.6604L16.924 29.767V2.64453L1.27344 16.3621Z" fill="#6E6E78" stroke="#F2F2F2" stroke-width="2"/>
<path fill-rule="evenodd" clip-rule="evenodd" d="M23.0586 41.0469L28.8757 46.8953V41.1397" fill="#6E6E78"/>
</g>
<defs>
<clipPath id="clip0_2894_20654">
<rect width="114" height="47" fill="white"/>
</clipPath>
</defs>
</svg>
