<svg width="320" height="64" viewBox="0 0 320 64" fill="none" xmlns="http://www.w3.org/2000/svg">
<path d="M113.077 46.7045C112.351 46.7045 111.998 46.4458 111.998 45.9189V45.7847C111.998 45.4781 112.302 44.9991 112.92 44.338C113.538 43.6769 113.842 42.9966 113.842 42.2876V18.4687C113.842 17.7309 113.538 17.0411 112.92 16.3992C112.302 15.7572 111.998 15.2782 111.998 14.9716V14.7895C111.998 14.3009 112.341 14.0518 113.038 14.0518H134.366C135.209 14.0518 135.7 14.4925 135.827 15.3835L136.955 20.7682C137.112 21.5634 136.779 21.9658 135.965 21.9658H135.729C135.258 21.9658 134.748 21.6976 134.199 21.161C133.649 20.6245 133.169 20.04 132.737 19.4172C132.315 18.7849 131.776 18.21 131.109 17.6735C130.451 17.1369 129.774 16.8686 129.088 16.8686H122.868C121.642 16.8686 121.033 17.5106 121.033 18.804V30.0141H127.341C127.783 30.0141 128.195 29.8416 128.587 29.4871C128.98 29.1326 129.284 28.7398 129.509 28.3182C129.725 27.887 129.98 27.4942 130.265 27.1493C130.549 26.7948 130.834 26.6223 131.109 26.6223H131.481C132.011 26.6223 132.286 26.9576 132.286 27.6379V35.0442C132.286 35.6861 132.021 36.0119 131.481 36.0119H131.109C130.824 36.0119 130.54 35.8394 130.265 35.5041C129.98 35.1687 129.735 34.7951 129.509 34.4022C129.294 33.9998 128.98 33.6357 128.587 33.3004C128.195 32.9651 127.783 32.7926 127.341 32.7926H121.043V42.3163C121.043 43.0253 121.377 43.7056 122.054 44.3667C122.731 45.0278 123.064 45.5069 123.064 45.8135V45.9476C123.064 46.465 122.691 46.7333 121.936 46.7333H113.077V46.7045Z" fill="white"/>
<path d="M149.199 47.1656C145.462 47.1656 142.381 46.035 139.948 43.7835C137.515 41.5319 136.299 38.7821 136.299 35.5244C136.299 32.2477 137.496 29.5266 139.88 27.3804C142.263 25.2342 145.138 24.1611 148.493 24.1611C152.103 24.1611 155.115 25.2726 157.538 27.4954C159.951 29.7182 161.168 32.468 161.168 35.7544C161.168 39.0312 160.03 41.7522 157.754 43.9176C155.468 46.0925 152.623 47.1656 149.199 47.1656ZM150.043 45.144C151.328 45.144 152.329 44.5595 153.035 43.4002C153.742 42.2313 154.095 40.5929 154.095 38.4755C154.095 36.7317 153.84 34.9304 153.32 33.0717C152.8 31.2129 152.025 29.6033 150.985 28.2427C149.945 26.8822 148.807 26.1924 147.551 26.1924C144.667 26.1924 143.215 28.4344 143.215 32.9088C143.215 34.5663 143.47 36.3101 143.99 38.1497C144.51 39.9893 145.305 41.6181 146.394 43.0265C147.483 44.435 148.699 45.144 150.043 45.144Z" fill="white"/>
<path d="M164.737 46.7053C164.011 46.7053 163.658 46.4466 163.658 45.9197V45.7376C163.658 45.431 163.962 44.952 164.58 44.31C165.198 43.6681 165.503 42.9878 165.503 42.2884V19.6671C165.503 18.8719 165.198 18.1533 164.58 17.5018C163.972 16.8599 163.658 16.4191 163.658 16.17V15.988C163.658 15.6239 163.972 15.3173 164.6 15.0682L170.535 12.213C171.163 11.9639 171.644 11.9351 171.968 12.1172C172.301 12.2992 172.458 12.6058 172.458 13.0369V42.2884C172.458 42.9974 172.792 43.6681 173.468 44.31C174.145 44.952 174.479 45.431 174.479 45.7376V45.9197C174.479 46.437 174.116 46.7053 173.4 46.7053H164.737Z" fill="white"/>
<path d="M178.208 46.705C177.521 46.705 177.168 46.4463 177.168 45.9193V45.7373C177.168 45.4307 177.462 44.9516 178.061 44.3097C178.659 43.6677 178.953 42.9779 178.953 42.2401V31.8541C178.953 31.0876 178.659 30.369 178.061 29.6887C177.462 29.0181 177.168 28.5582 177.168 28.309V28.1749C177.168 27.8683 177.502 27.5425 178.159 27.2072L184.045 24.352C184.643 24.1029 185.114 24.0837 185.458 24.2849C185.801 24.4861 185.978 24.8119 185.978 25.2718V42.2401C185.978 42.9779 186.311 43.6677 186.968 44.3097C187.626 44.9516 187.959 45.4307 187.959 45.7373V45.9193C187.959 46.4367 187.596 46.705 186.88 46.705H178.208ZM185.811 20.2417C184.977 20.989 183.868 21.3723 182.495 21.3723C181.112 21.3723 179.993 20.9986 179.13 20.2417C178.267 19.4943 177.835 18.5171 177.835 17.3194C177.835 16.1505 178.267 15.1924 179.13 14.445C179.993 13.6977 181.112 13.3145 182.495 13.3145C183.878 13.3145 184.987 13.6881 185.811 14.445C186.645 15.1924 187.057 16.1505 187.057 17.3194C187.057 18.5171 186.645 19.4943 185.811 20.2417Z" fill="white"/>
<path d="M203.254 47.1656C199.516 47.1656 196.436 46.035 194.003 43.7835C191.57 41.5319 190.354 38.7821 190.354 35.5244C190.354 32.2477 191.55 29.5266 193.934 27.3804C196.318 25.2342 199.193 24.1611 202.548 24.1611C206.158 24.1611 209.17 25.2726 211.593 27.4954C214.006 29.7182 215.223 32.468 215.223 35.7544C215.223 39.0312 214.085 41.7522 211.809 43.9176C209.533 46.0925 206.678 47.1656 203.254 47.1656ZM204.108 45.144C205.393 45.144 206.393 44.5595 207.1 43.4002C207.806 42.2313 208.159 40.5929 208.159 38.4755C208.159 36.7317 207.904 34.9304 207.384 33.0717C206.864 31.2129 206.089 29.6033 205.049 28.2427C204.009 26.8822 202.871 26.1924 201.616 26.1924C198.732 26.1924 197.28 28.4344 197.28 32.9088C197.28 34.5663 197.535 36.3101 198.055 38.1497C198.575 39.9893 199.369 41.6181 200.458 43.0265C201.547 44.435 202.754 45.144 204.108 45.144Z" fill="white"/>
<path d="M218.94 46.7045C218.214 46.7045 217.861 46.4458 217.861 45.9189V45.7847C217.861 45.4781 218.165 44.9991 218.783 44.338C219.402 43.6769 219.706 42.9774 219.706 42.2493V18.5166C219.706 17.7501 219.402 17.0411 218.783 16.3992C218.165 15.7572 217.861 15.2782 217.861 14.9716V14.7895C217.861 14.3009 218.205 14.0518 218.901 14.0518H239.905C240.749 14.0518 241.239 14.4829 241.367 15.3356L242.495 20.7203C242.652 21.5155 242.338 21.9179 241.553 21.9179H241.269C240.798 21.9179 240.288 21.6497 239.738 21.1131C239.189 20.5766 238.698 19.9921 238.277 19.3693C237.855 18.737 237.315 18.1621 236.677 17.6255C236.03 17.089 235.363 16.8207 234.676 16.8207H228.653C227.397 16.8207 226.769 17.4818 226.769 18.7945V28.6823H232.842C233.371 28.6823 233.842 28.5098 234.235 28.1553C234.627 27.8008 234.921 27.4175 235.108 27.0056C235.294 26.5936 235.52 26.2103 235.795 25.8558C236.059 25.5013 236.324 25.3288 236.57 25.3288H236.942C237.472 25.3288 237.747 25.6546 237.747 26.2965V33.7028C237.747 34.3448 237.482 34.6705 236.942 34.6705H236.57C236.314 34.6705 236.059 34.4981 235.795 34.1627C235.53 33.8274 235.304 33.4633 235.108 33.08C234.921 32.6968 234.627 32.3327 234.235 31.9974C233.842 31.662 233.381 31.4896 232.842 31.4896H226.769L226.72 41.0995C226.72 41.866 226.926 42.5367 227.328 43.102C227.74 43.6673 228.368 43.9547 229.212 43.9547H236.138C236.825 43.9547 237.482 43.6769 238.09 43.1307C238.698 42.5846 239.189 41.9618 239.552 41.2911C239.915 40.6205 240.356 40.0073 240.896 39.4515C241.426 38.8958 241.965 38.6276 242.495 38.6276H242.868C243.182 38.6276 243.417 38.7521 243.574 38.9916C243.731 39.2408 243.78 39.509 243.711 39.8156L242.672 45.3823C242.485 46.2734 241.985 46.7141 241.161 46.7141H218.94V46.7045Z" fill="white"/>
<path d="M269.09 42.2975C269.09 43.0066 269.404 43.6868 270.032 44.3479C270.66 45.009 270.974 45.4881 270.974 45.7947V45.9288C270.974 46.4462 270.66 46.7145 270.032 46.7145H264.195C263.469 46.7145 263.116 46.3791 263.116 45.6989L263.018 44.6833C261.576 46.3408 259.535 47.1648 256.896 47.1648C253.855 47.1648 251.245 46.13 249.077 44.0605C246.909 41.9909 245.83 39.1741 245.83 35.6194C245.83 32.2756 246.909 29.5354 249.077 27.3892C251.245 25.243 253.865 24.1699 256.945 24.1699C259.143 24.1699 260.977 24.7639 262.459 25.9616V18.6128C262.459 17.9996 262.262 17.4918 261.87 17.099C261.477 16.6966 261.085 16.3612 260.693 16.0834C260.3 15.8055 260.104 15.5181 260.104 15.2115V15.0678C260.104 14.5504 260.438 14.1959 261.095 14.0138L267.266 12.1742C268.492 11.7718 269.1 12.0784 269.1 13.094V42.2975H269.09ZM258.446 45.1911C259.515 45.1911 260.447 44.7503 261.252 43.8784C262.056 43.0066 262.449 41.7993 262.449 40.2663V32.1702C262.449 30.666 261.929 29.2863 260.899 28.0311C259.859 26.776 258.672 26.1436 257.318 26.1436C255.876 26.1436 254.728 26.7377 253.884 27.9162C253.041 29.0946 252.599 30.7618 252.57 32.908C252.511 34.6517 252.687 36.453 253.109 38.2926C253.531 40.1322 254.228 41.7323 255.179 43.1024C256.131 44.4629 257.22 45.1623 258.446 45.1911Z" fill="white"/>
<path d="M293.901 24.631C295.097 24.631 295.882 24.746 296.275 24.9759C296.667 25.2059 296.785 25.5508 296.628 26.0107C296.53 26.4706 296.334 26.7963 296.02 26.9975C295.706 27.1987 295.176 27.3616 294.421 27.4766C293.665 27.6012 293.214 27.6874 293.057 27.7545C294.813 29.5366 295.696 31.5007 295.696 33.6373C295.696 35.4194 295.235 37.0003 294.303 38.3992C293.381 39.798 292.086 40.8711 290.418 41.6376C294.185 42.4616 296.069 44.215 296.069 46.8785C296.069 48.814 294.95 50.3661 292.704 51.5446C290.457 52.7231 287.642 53.3171 284.247 53.3171C280.853 53.3171 278.184 52.7231 276.222 51.5254C274.26 50.3278 273.279 48.814 273.279 46.9744C273.279 46.2653 273.515 45.6617 273.986 45.1539C274.457 44.6461 275.143 44.397 276.056 44.397C276.899 44.397 277.625 44.7611 278.224 45.4797C278.822 46.1983 279.283 46.9935 279.617 47.875C279.95 48.7565 280.519 49.5421 281.334 50.2703C282.148 50.9889 283.168 51.3626 284.394 51.4009C285.836 51.4009 286.994 50.9985 287.857 50.2032C288.721 49.408 289.152 48.3636 289.152 47.0798C289.152 44.6557 288.181 43.2473 286.229 42.8449C285.415 42.9023 284.797 42.9407 284.394 42.9407C281.226 42.9407 278.596 42.0784 276.507 40.3442C274.417 38.61 273.377 36.4446 273.377 33.8385C273.377 30.9546 274.417 28.6263 276.487 26.8442C278.557 25.0621 281.245 24.1807 284.542 24.1807C285.385 24.1807 286.719 24.2573 288.544 24.4106C290.359 24.5639 292.145 24.631 293.901 24.631ZM280.009 30.8013C280.009 33.3211 280.549 35.6206 281.638 37.7189C282.717 39.8172 283.982 40.8711 285.424 40.8711C286.523 40.8711 287.396 40.4496 288.034 39.6064C288.681 38.7633 288.995 37.6518 288.995 36.2721C288.995 34.7679 288.78 33.2541 288.338 31.7211C287.897 30.1881 287.239 28.885 286.356 27.8119C285.474 26.7388 284.522 26.2023 283.482 26.2023C282.413 26.2023 281.569 26.6143 280.941 27.4479C280.323 28.2718 280.009 29.3928 280.009 30.8013Z" fill="white"/>
<path d="M318.389 39.7214C318.673 39.3573 319.017 39.2327 319.429 39.3573C319.841 39.4819 320.027 39.7693 319.998 40.2292C319.841 41.8197 318.899 43.3814 317.172 44.8952C315.446 46.4091 313.199 47.1756 310.443 47.1756C307.117 47.1756 304.38 46.1025 302.251 43.9563C300.112 41.8101 299.053 38.9932 299.053 35.4961C299.053 32.2193 300.171 29.5078 302.398 27.3808C304.625 25.2538 307.313 24.1807 310.452 24.1807C313.307 24.1807 315.505 24.8418 317.045 26.1544C318.585 27.4766 319.35 28.9904 319.35 30.7055C319.35 32.1139 318.664 33.1295 317.28 33.7427L306.822 38.3896C308.108 41.0532 310.178 42.3945 313.042 42.3945C314.239 42.3945 315.308 42.1454 316.27 41.6376C317.202 41.1202 317.918 40.4879 318.389 39.7214ZM309.589 26.2023C308.363 26.2023 307.391 26.7772 306.666 27.9269C305.94 29.0767 305.586 30.5426 305.586 32.3151C305.586 33.8194 305.743 35.1416 306.057 36.2722L312.13 33.2828C312.944 32.8804 313.356 32.1618 313.356 31.1175C313.356 30.0731 313.013 29 312.316 27.879C311.63 26.758 310.717 26.2023 309.589 26.2023Z" fill="white"/>
<g clip-path="url(#clip0_2894_20164)">
<path d="M51.5132 15.2387C53.0858 13.6235 54.063 11.3926 54.063 8.93008C54.063 3.99834 50.1542 0 45.3329 0C42.2848 0 39.6056 1.60199 38.046 4.02482C37.6253 4.44849 2.87335 48.2648 2.54977 48.7679C0.977197 50.3831 0 52.6074 0 55.0699C0 60.0017 3.90879 64 8.73006 64C11.7781 64 14.4573 62.398 16.017 59.9752C16.4312 59.5581 51.1896 15.7418 51.5132 15.2387Z" fill="white"/>
<path d="M71.6195 36.0246C73.1985 34.4094 74.1757 32.1786 74.1757 29.7094C74.1757 24.7776 70.2669 20.7793 65.4457 20.7793C62.3976 20.7793 59.7184 22.3813 58.1523 24.8041C57.7316 25.2344 39.482 48.2448 39.1519 48.7545C37.5729 50.3697 36.5957 52.6006 36.5957 55.0697C36.5957 60.0015 40.5045 63.9998 45.3258 63.9998C48.3738 63.9998 51.053 62.3978 52.6192 59.975C53.0398 59.5513 71.2959 36.5344 71.6195 36.0246Z" fill="white"/>
<path d="M90.6652 8.93008C90.6652 13.8618 86.7564 17.8602 81.9351 17.8602C77.1139 17.8602 73.2051 13.8618 73.2051 8.93008C73.2051 3.99835 77.1139 0 81.9351 0C86.7564 0 90.6652 3.99835 90.6652 8.93008Z" fill="white"/>
<path d="M17.4601 8.93008C17.4601 13.8618 13.5513 17.8602 8.73006 17.8602C3.90879 17.8602 0 13.8618 0 8.93008C0 3.99835 3.90879 0 8.73006 0C13.5513 0 17.4601 3.99835 17.4601 8.93008Z" fill="white"/>
</g>
<defs>
<clipPath id="clip0_2894_20164">
<rect width="90.6658" height="64" fill="white"/>
</clipPath>
</defs>
</svg>
