<svg width="70" height="61" viewBox="0 0 70 61" fill="none" xmlns="http://www.w3.org/2000/svg">
<g opacity="0.3">
<path fill-rule="evenodd" clip-rule="evenodd" d="M30.6639 21.0754C23.3984 31.8498 16.668 42.9943 9.63123 53.9207C9.15479 54.6648 9.35475 55.6605 10.0737 56.1483C10.7989 56.6372 11.7681 56.4383 12.2507 55.6953C19.2719 44.7857 25.9865 33.6581 33.2416 22.9079C33.7355 22.1734 33.5553 21.1747 32.8457 20.669C32.1299 20.1622 31.1567 20.3473 30.6639 21.0754Z" fill="#3CC3A3"/>
<path fill-rule="evenodd" clip-rule="evenodd" d="M56.4651 28.4279C59.8975 38.9294 63.6215 49.3487 66.9394 59.8892C67.2088 60.7302 68.0906 61.1931 68.9112 60.923C69.7381 60.6519 70.1881 59.7407 69.9249 58.8986C66.5988 48.3464 62.8727 37.9145 59.4321 27.4013C59.1565 26.5614 58.2695 26.1058 57.4509 26.3886C56.6261 26.6724 56.1885 27.5816 56.4651 28.4279Z" fill="#3CC3A3"/>
<path fill-rule="evenodd" clip-rule="evenodd" d="M12.9363 0.0413606C8.99647 0.963267 5.09107 1.83977 1.17947 2.87902C0.337142 3.09946 -0.166014 3.97347 0.0500548 4.83147C0.264891 5.69577 1.1228 6.21347 1.95898 5.99177C5.84968 4.96134 9.7218 4.09115 13.6346 3.17681C14.4794 2.97655 15.0061 2.11381 14.8159 1.25457C14.6207 0.387747 13.7811 -0.158894 12.9363 0.0413606Z" fill="#3CC3A3"/>
</g>
</svg>
