<svg width="106" height="105" viewBox="0 0 106 105" fill="none" xmlns="http://www.w3.org/2000/svg">
<g opacity="0.7">
<path d="M3.17174 0.000976817L0.00195312 3.17076L0.417662 3.58647L3.58744 0.416686L3.17174 0.000976817Z" fill="#FDB12E"/>
<path d="M14.4413 7.88875e-07L11.2715 3.16978L11.6872 3.58549L14.857 0.41571L14.4413 7.88875e-07Z" fill="#FDB12E"/>
<path d="M25.7088 0.000488326L22.5391 3.17027L22.9548 3.58598L26.1246 0.416197L25.7088 0.000488326Z" fill="#FDB12E"/>
<path d="M36.9764 0.000976607L33.8066 3.17076L34.2224 3.58647L37.3921 0.416686L36.9764 0.000976607Z" fill="#FDB12E"/>
<path d="M48.245 0L45.0752 3.16978L45.4909 3.58549L48.6607 0.415709L48.245 0Z" fill="#FDB12E"/>
<path d="M59.5135 0.000976607L56.3438 3.17076L56.7595 3.58647L59.9292 0.416686L59.5135 0.000976607Z" fill="#FDB12E"/>
<path d="M70.7801 0.00146489L67.6104 3.17125L68.0261 3.58696L71.1958 0.417174L70.7801 0.00146489Z" fill="#FDB12E"/>
<path d="M82.0506 0.000488326L78.8809 3.17027L79.2966 3.58598L82.4664 0.416197L82.0506 0.000488326Z" fill="#FDB12E"/>
<path d="M93.3172 0.000977052L90.1475 3.17076L90.5632 3.58647L93.7329 0.416686L93.3172 0.000977052Z" fill="#FDB12E"/>
<path d="M104.586 0.00195317L101.416 3.17174L101.832 3.58744L105.002 0.417662L104.586 0.00195317Z" fill="#FDB12E"/>
<path d="M3.17174 11.2686L0.00195312 14.4383L0.417662 14.854L3.58744 11.6843L3.17174 11.2686Z" fill="#FDB12E"/>
<path d="M14.4403 11.2671L11.2705 14.4369L11.6862 14.8526L14.856 11.6828L14.4403 11.2671Z" fill="#FDB12E"/>
<path d="M25.7079 11.2681L22.5381 14.4378L22.9538 14.8536L26.1236 11.6838L25.7079 11.2681Z" fill="#FDB12E"/>
<path d="M36.9764 11.2686L33.8066 14.4383L34.2224 14.854L37.3921 11.6843L36.9764 11.2686Z" fill="#FDB12E"/>
<path d="M48.245 11.2676L45.0752 14.4374L45.4909 14.8531L48.6607 11.6833L48.245 11.2676Z" fill="#FDB12E"/>
<path d="M59.5116 11.2686L56.3418 14.4383L56.7575 14.854L59.9273 11.6843L59.5116 11.2686Z" fill="#FDB12E"/>
<path d="M70.7801 11.2686L67.6104 14.4383L68.0261 14.854L71.1958 11.6843L70.7801 11.2686Z" fill="#FDB12E"/>
<path d="M82.0497 11.2676L78.8799 14.4374L79.2956 14.8531L82.4654 11.6833L82.0497 11.2676Z" fill="#FDB12E"/>
<path d="M93.3163 11.2686L90.1465 14.4383L90.5622 14.854L93.732 11.6843L93.3163 11.2686Z" fill="#FDB12E"/>
<path d="M104.584 11.269L101.414 14.4388L101.83 14.8545L105 11.6848L104.584 11.269Z" fill="#FDB12E"/>
<path d="M3.17076 22.5361L0.000976562 25.7059L0.416686 26.1216L3.58647 22.9518L3.17076 22.5361Z" fill="#FDB12E"/>
<path d="M14.4403 22.5347L11.2705 25.7045L11.6862 26.1202L14.856 22.9504L14.4403 22.5347Z" fill="#FDB12E"/>
<path d="M25.7069 22.5352L22.5371 25.7049L22.9528 26.1206L26.1226 22.9509L25.7069 22.5352Z" fill="#FDB12E"/>
<path d="M36.9754 22.5366L33.8057 25.7064L34.2214 26.1221L37.3912 22.9523L36.9754 22.5366Z" fill="#FDB12E"/>
<path d="M48.244 22.5347L45.0742 25.7045L45.4899 26.1202L48.6597 22.9504L48.244 22.5347Z" fill="#FDB12E"/>
<path d="M59.5116 22.5356L56.3418 25.7054L56.7575 26.1211L59.9273 22.9514L59.5116 22.5356Z" fill="#FDB12E"/>
<path d="M70.7792 22.5366L67.6094 25.7064L68.0251 26.1221L71.1949 22.9523L70.7792 22.5366Z" fill="#FDB12E"/>
<path d="M82.0487 22.5352L78.8789 25.7049L79.2946 26.1206L82.4644 22.9509L82.0487 22.5352Z" fill="#FDB12E"/>
<path d="M93.3163 22.5361L90.1465 25.7059L90.5622 26.1216L93.732 22.9518L93.3163 22.5361Z" fill="#FDB12E"/>
<path d="M104.584 22.5366L101.414 25.7064L101.83 26.1221L105 22.9523L104.584 22.5366Z" fill="#FDB12E"/>
<path d="M3.17174 33.8057L0.00195312 36.9754L0.417662 37.3912L3.58744 34.2214L3.17174 33.8057Z" fill="#FDB12E"/>
<path d="M14.4413 33.8042L11.2715 36.974L11.6872 37.3897L14.857 34.2199L14.4413 33.8042Z" fill="#FDB12E"/>
<path d="M25.7079 33.8047L22.5381 36.9745L22.9538 37.3902L26.1236 34.2204L25.7079 33.8047Z" fill="#FDB12E"/>
<path d="M36.9764 33.8057L33.8066 36.9754L34.2224 37.3912L37.3921 34.2214L36.9764 33.8057Z" fill="#FDB12E"/>
<path d="M48.245 33.8047L45.0752 36.9745L45.4909 37.3902L48.6607 34.2204L48.245 33.8047Z" fill="#FDB12E"/>
<path d="M59.5126 33.8052L56.3428 36.975L56.7585 37.3907L59.9283 34.2209L59.5126 33.8052Z" fill="#FDB12E"/>
<path d="M70.7801 33.8057L67.6104 36.9754L68.0261 37.3912L71.1958 34.2214L70.7801 33.8057Z" fill="#FDB12E"/>
<path d="M82.0506 33.8047L78.8809 36.9745L79.2966 37.3902L82.4664 34.2204L82.0506 33.8047Z" fill="#FDB12E"/>
<path d="M93.3172 33.8057L90.1475 36.9754L90.5632 37.3912L93.733 34.2214L93.3172 33.8057Z" fill="#FDB12E"/>
<path d="M104.585 33.8062L101.415 36.9759L101.831 37.3916L105.001 34.2219L104.585 33.8062Z" fill="#FDB12E"/>
<path d="M3.17174 45.0728L0.00195312 48.2425L0.417662 48.6582L3.58744 45.4885L3.17174 45.0728Z" fill="#FDB12E"/>
<path d="M14.4403 45.0718L11.2705 48.2416L11.6862 48.6573L14.856 45.4875L14.4403 45.0718Z" fill="#FDB12E"/>
<path d="M25.7079 45.0723L22.5381 48.242L22.9538 48.6578L26.1236 45.488L25.7079 45.0723Z" fill="#FDB12E"/>
<path d="M36.9754 45.0732L33.8057 48.243L34.2214 48.6587L37.3912 45.489L36.9754 45.0732Z" fill="#FDB12E"/>
<path d="M48.245 45.0718L45.0752 48.2416L45.4909 48.6573L48.6607 45.4875L48.245 45.0718Z" fill="#FDB12E"/>
<path d="M59.5116 45.0723L56.3418 48.242L56.7575 48.6578L59.9273 45.488L59.5116 45.0723Z" fill="#FDB12E"/>
<path d="M70.7801 45.0732L67.6104 48.243L68.0261 48.6587L71.1958 45.489L70.7801 45.0732Z" fill="#FDB12E"/>
<path d="M82.0497 45.0723L78.8799 48.242L79.2956 48.6578L82.4654 45.488L82.0497 45.0723Z" fill="#FDB12E"/>
<path d="M93.3163 45.0728L90.1465 48.2425L90.5622 48.6582L93.732 45.4885L93.3163 45.0728Z" fill="#FDB12E"/>
<path d="M104.584 45.0732L101.414 48.243L101.83 48.6587L105 45.489L104.584 45.0732Z" fill="#FDB12E"/>
<path d="M3.16978 56.3408L0 59.5106L0.415709 59.9263L3.58549 56.7565L3.16978 56.3408Z" fill="#FDB12E"/>
<path d="M14.4403 56.3394L11.2705 59.5091L11.6862 59.9248L14.856 56.7551L14.4403 56.3394Z" fill="#FDB12E"/>
<path d="M25.7069 56.3398L22.5371 59.5096L22.9528 59.9253L26.1226 56.7556L25.7069 56.3398Z" fill="#FDB12E"/>
<path d="M36.9745 56.3408L33.8047 59.5106L34.2204 59.9263L37.3902 56.7565L36.9745 56.3408Z" fill="#FDB12E"/>
<path d="M48.244 56.3394L45.0742 59.5091L45.4899 59.9248L48.6597 56.7551L48.244 56.3394Z" fill="#FDB12E"/>
<path d="M59.5116 56.3403L56.3418 59.5101L56.7575 59.9258L59.9273 56.756L59.5116 56.3403Z" fill="#FDB12E"/>
<path d="M70.7792 56.3408L67.6094 59.5106L68.0251 59.9263L71.1949 56.7565L70.7792 56.3408Z" fill="#FDB12E"/>
<path d="M82.0477 56.3394L78.8779 59.5091L79.2936 59.9248L82.4634 56.7551L82.0477 56.3394Z" fill="#FDB12E"/>
<path d="M93.3163 56.3403L90.1465 59.5101L90.5622 59.9258L93.732 56.756L93.3163 56.3403Z" fill="#FDB12E"/>
<path d="M104.583 56.3408L101.413 59.5106L101.829 59.9263L104.999 56.7565L104.583 56.3408Z" fill="#FDB12E"/>
<path d="M3.17174 67.6104L0.00195312 70.7801L0.417662 71.1958L3.58744 68.0261L3.17174 67.6104Z" fill="#FDB12E"/>
<path d="M14.4403 67.6084L11.2705 70.7782L11.6862 71.1939L14.856 68.0241L14.4403 67.6084Z" fill="#FDB12E"/>
<path d="M25.7079 67.6094L22.5381 70.7792L22.9538 71.1949L26.1236 68.0251L25.7079 67.6094Z" fill="#FDB12E"/>
<path d="M36.9764 67.6104L33.8066 70.7801L34.2224 71.1958L37.3921 68.0261L36.9764 67.6104Z" fill="#FDB12E"/>
<path d="M48.245 67.6084L45.0752 70.7782L45.4909 71.1939L48.6607 68.0241L48.245 67.6084Z" fill="#FDB12E"/>
<path d="M59.5126 67.6099L56.3428 70.7796L56.7585 71.1954L59.9283 68.0256L59.5126 67.6099Z" fill="#FDB12E"/>
<path d="M70.7801 67.6104L67.6104 70.7801L68.0261 71.1958L71.1958 68.0261L70.7801 67.6104Z" fill="#FDB12E"/>
<path d="M82.0497 67.6089L78.8799 70.7787L79.2956 71.1944L82.4654 68.0246L82.0497 67.6089Z" fill="#FDB12E"/>
<path d="M93.3172 67.6099L90.1475 70.7796L90.5632 71.1954L93.733 68.0256L93.3172 67.6099Z" fill="#FDB12E"/>
<path d="M104.584 67.6104L101.414 70.7801L101.83 71.1958L105 68.0261L104.584 67.6104Z" fill="#FDB12E"/>
<path d="M3.17174 78.8774L0.00195312 82.0472L0.417662 82.4629L3.58744 79.2932L3.17174 78.8774Z" fill="#FDB12E"/>
<path d="M14.4403 78.8765L11.2705 82.0462L11.6862 82.462L14.856 79.2922L14.4403 78.8765Z" fill="#FDB12E"/>
<path d="M25.7079 78.877L22.5381 82.0467L22.9538 82.4624L26.1236 79.2927L25.7079 78.877Z" fill="#FDB12E"/>
<path d="M36.9754 78.8779L33.8057 82.0477L34.2214 82.4634L37.3912 79.2936L36.9754 78.8779Z" fill="#FDB12E"/>
<path d="M48.244 78.8765L45.0742 82.0462L45.4899 82.462L48.6597 79.2922L48.244 78.8765Z" fill="#FDB12E"/>
<path d="M59.5116 78.877L56.3418 82.0467L56.7575 82.4624L59.9273 79.2927L59.5116 78.877Z" fill="#FDB12E"/>
<path d="M70.7801 78.8779L67.6104 82.0477L68.0261 82.4634L71.1958 79.2936L70.7801 78.8779Z" fill="#FDB12E"/>
<path d="M82.0497 78.8765L78.8799 82.0462L79.2956 82.462L82.4654 79.2922L82.0497 78.8765Z" fill="#FDB12E"/>
<path d="M93.3163 78.877L90.1465 82.0467L90.5622 82.4624L93.732 79.2927L93.3163 78.877Z" fill="#FDB12E"/>
<path d="M104.584 78.8779L101.414 82.0477L101.83 82.4634L105 79.2936L104.584 78.8779Z" fill="#FDB12E"/>
<path d="M3.16978 90.1445L0 93.3143L0.415709 93.73L3.58549 90.5602L3.16978 90.1445Z" fill="#FDB12E"/>
<path d="M14.4393 90.1436L11.2695 93.3133L11.6852 93.729L14.855 90.5593L14.4393 90.1436Z" fill="#FDB12E"/>
<path d="M25.7069 90.1445L22.5371 93.3143L22.9528 93.73L26.1226 90.5602L25.7069 90.1445Z" fill="#FDB12E"/>
<path d="M36.9745 90.145L33.8047 93.3148L34.2204 93.7305L37.3902 90.5607L36.9745 90.145Z" fill="#FDB12E"/>
<path d="M48.244 90.1441L45.0742 93.3138L45.4899 93.7295L48.6597 90.5598L48.244 90.1441Z" fill="#FDB12E"/>
<path d="M59.5116 90.1445L56.3418 93.3143L56.7575 93.73L59.9273 90.5602L59.5116 90.1445Z" fill="#FDB12E"/>
<path d="M70.7792 90.1455L67.6094 93.3153L68.0251 93.731L71.1949 90.5612L70.7792 90.1455Z" fill="#FDB12E"/>
<path d="M82.0477 90.1445L78.8779 93.3143L79.2936 93.73L82.4634 90.5602L82.0477 90.1445Z" fill="#FDB12E"/>
<path d="M93.3163 90.1445L90.1465 93.3143L90.5622 93.73L93.732 90.5602L93.3163 90.1445Z" fill="#FDB12E"/>
<path d="M104.583 90.146L101.413 93.3158L101.829 93.7315L104.999 90.5617L104.583 90.146Z" fill="#FDB12E"/>
<path d="M3.17174 101.415L0.00195312 104.584L0.417662 105L3.58744 101.83L3.17174 101.415Z" fill="#FDB12E"/>
<path d="M14.4403 101.413L11.2705 104.583L11.6862 104.999L14.856 101.829L14.4403 101.413Z" fill="#FDB12E"/>
<path d="M25.7079 101.414L22.5381 104.583L22.9538 104.999L26.1236 101.829L25.7079 101.414Z" fill="#FDB12E"/>
<path d="M36.9764 101.415L33.8066 104.585L34.2224 105.001L37.3921 101.831L36.9764 101.415Z" fill="#FDB12E"/>
<path d="M48.245 101.414L45.0752 104.583L45.4909 104.999L48.6607 101.829L48.245 101.414Z" fill="#FDB12E"/>
<path d="M59.5116 101.414L56.3418 104.584L56.7575 105L59.9273 101.83L59.5116 101.414Z" fill="#FDB12E"/>
<path d="M70.7801 101.415L67.6104 104.585L68.0261 105.001L71.1958 101.831L70.7801 101.415Z" fill="#FDB12E"/>
<path d="M82.0497 101.414L78.8799 104.583L79.2956 104.999L82.4654 101.829L82.0497 101.414Z" fill="#FDB12E"/>
<path d="M93.3163 101.415L90.1465 104.584L90.5622 105L93.732 101.83L93.3163 101.415Z" fill="#FDB12E"/>
<path d="M104.584 101.415L101.414 104.585L101.83 105.001L105 101.831L104.584 101.415Z" fill="#FDB12E"/>
</g>
</svg>
