<svg width="87" height="98" viewBox="0 0 87 98" fill="none" xmlns="http://www.w3.org/2000/svg">
<path d="M86.9556 44.7196C86.6823 48.3717 86.4588 52.0734 86.1358 55.7504C85.8377 59.1043 85.3408 62.4583 84.2974 65.688C82.5833 70.9798 79.7264 75.6257 76.1738 79.874C72.1245 84.7186 67.0317 88.0477 61.144 90.2588C56.8462 91.8489 52.449 93.0662 48.027 94.1842C44.077 95.178 40.0773 95.8985 36.0776 96.6935C33.6678 97.1655 31.2829 97.6375 28.8483 97.8114C27.01 97.9605 25.1716 98.1096 23.3084 97.886C21.4204 97.6375 19.6068 97.2152 17.8678 96.445C17.4455 96.2463 16.9983 96.0475 16.576 95.8488C13.6694 94.6066 11.1106 92.8923 8.77538 90.7806C7.60777 89.7123 6.48984 88.6191 5.54582 87.3521C5.34707 87.0788 5.12349 86.8303 4.94959 86.5322C3.85651 84.6192 2.6889 82.7311 1.79456 80.7187C1.1238 79.2032 0.651788 77.638 0.477888 75.9735C0.179775 73.2158 -0.0934959 70.4829 0.030718 67.7004C0.179775 64.7936 0.626945 61.9365 1.32254 59.1043C2.14235 55.8 3.06154 52.5455 3.93103 49.2661C4.62663 46.6077 5.32223 43.9246 5.69487 41.1669C5.91846 39.5768 6.06751 37.962 6.1172 36.372C6.16688 34.2105 6.09236 32.0491 6.04267 29.8628C5.99299 27.2045 6.06751 24.5462 6.56437 21.9127C7.70714 15.8259 10.7628 10.8571 15.5078 6.93168C18.7373 4.24852 22.4389 2.48459 26.5131 1.44113C31.2084 0.223772 35.9782 -0.248267 40.7729 0.124395C44.549 0.39768 48.2506 1.16785 51.8528 2.36037C57.7405 4.32305 63.4792 6.6584 68.9694 9.54031C71.4289 10.8322 73.7393 12.3477 75.8757 14.0868C80.4468 17.8382 83.4279 22.6083 85.0924 28.2479C86.5581 33.1671 87.1792 38.1856 86.9556 43.3283C86.9308 43.7755 86.9556 44.2475 86.9556 44.7196Z" fill="#F1554C"/>
<mask id="mask0_3471_9723" style="mask-type:alpha" maskUnits="userSpaceOnUse" x="0" y="0" width="87" height="98">
<path d="M86.9556 44.7196C86.6823 48.3717 86.4588 52.0734 86.1358 55.7504C85.8377 59.1043 85.3408 62.4583 84.2974 65.688C82.5833 70.9798 79.7264 75.6257 76.1738 79.874C72.1245 84.7186 67.0317 88.0477 61.144 90.2588C56.8462 91.8489 52.449 93.0662 48.027 94.1842C44.077 95.178 40.0773 95.8985 36.0776 96.6935C33.6678 97.1655 31.2829 97.6375 28.8483 97.8114C27.01 97.9605 25.1716 98.1096 23.3084 97.886C21.4204 97.6375 19.6068 97.2152 17.8678 96.445C17.4455 96.2463 16.9983 96.0475 16.576 95.8488C13.6694 94.6066 11.1106 92.8923 8.77538 90.7806C7.60777 89.7123 6.48984 88.6191 5.54582 87.3521C5.34707 87.0788 5.12349 86.8303 4.94959 86.5322C3.85651 84.6192 2.6889 82.7311 1.79456 80.7187C1.1238 79.2032 0.651788 77.638 0.477888 75.9735C0.179775 73.2158 -0.0934959 70.4829 0.030718 67.7004C0.179775 64.7936 0.626945 61.9365 1.32254 59.1043C2.14235 55.8 3.06154 52.5455 3.93103 49.2661C4.62663 46.6077 5.32223 43.9246 5.69487 41.1669C5.91846 39.5768 6.06751 37.962 6.1172 36.372C6.16688 34.2105 6.09236 32.0491 6.04267 29.8628C5.99299 27.2045 6.06751 24.5462 6.56437 21.9127C7.70714 15.8259 10.7628 10.8571 15.5078 6.93168C18.7373 4.24852 22.4389 2.48459 26.5131 1.44113C31.2084 0.223772 35.9782 -0.248267 40.7729 0.124395C44.549 0.39768 48.2506 1.16785 51.8528 2.36037C57.7405 4.32305 63.4792 6.6584 68.9694 9.54031C71.4289 10.8322 73.7393 12.3477 75.8757 14.0868C80.4468 17.8382 83.4279 22.6083 85.0924 28.2479C86.5581 33.1671 87.1792 38.1856 86.9556 43.3283C86.9308 43.7755 86.9556 44.2475 86.9556 44.7196Z" fill="black"/>
</mask>
<g mask="url(#mask0_3471_9723)">
<path fill-rule="evenodd" clip-rule="evenodd" d="M29.2705 14.9811C29.2705 13.9625 29.4692 13.0929 29.9661 12.3228C30.1897 11.9749 30.5126 11.6271 30.8604 11.3787C31.3573 11.0309 32.0777 11.1302 32.4255 11.6768C32.5 11.801 32.6739 11.9004 32.823 11.9749C32.9031 12.0207 32.9885 12.0559 33.0718 12.0903C33.1694 12.1306 33.2643 12.1698 33.3447 12.2234C34.4875 12.9935 35.1085 14.9314 34.6365 16.1984C34.2142 17.3413 32.7236 18.2853 31.5312 18.1611C30.8356 18.0866 30.3139 17.7139 29.9164 17.1425C29.4692 16.4717 29.2705 15.7016 29.2705 14.9811ZM49.9149 14.8571C48.8467 15.6024 48.4741 16.6956 48.4492 17.9378C48.4492 18.6086 48.5983 19.2297 48.8715 19.8508C49.3436 20.7948 50.2131 21.2669 51.2565 21.1427C52.3247 21.0184 53.1693 20.4967 53.8401 19.7017C55.6039 17.5651 54.2624 14.9068 51.9272 14.4099C51.1819 14.2608 50.536 14.4099 49.9149 14.8571ZM60.87 32.173C60.8949 30.9556 61.2427 29.8376 61.9383 28.819C62.2364 28.3967 62.5842 28.024 63.0562 27.7756C63.4288 27.5768 63.7766 27.4775 64.199 27.6762C64.3232 27.7259 64.4722 27.7507 64.5964 27.7507C66.1864 27.8501 67.4285 29.0426 67.5776 30.6327C67.7018 32.0239 67.2049 33.2164 66.2112 34.1605C65.5653 34.7816 64.7952 35.1791 63.9257 35.353C62.9817 35.5269 62.2115 35.204 61.6153 34.4587C61.0688 33.7879 60.8452 33.0177 60.87 32.173ZM46.5621 75.8493C46.5372 74.9797 46.736 73.986 47.2328 73.0667C47.3588 72.8147 47.5736 72.5805 47.772 72.364C47.8084 72.3243 47.8441 72.2853 47.8787 72.2469C48.1023 71.9984 48.3507 71.7749 48.5991 71.5513L48.5992 71.5512C49.6426 70.5326 50.9592 70.6071 51.8287 71.7748C52.2262 72.2965 52.5989 72.868 52.3504 73.5884C52.3198 73.6649 52.3363 73.7508 52.3535 73.8404C52.3643 73.8962 52.3753 73.9535 52.3753 74.0108C52.4995 75.6505 51.9281 77.0418 50.8102 78.2343C50.363 78.7063 49.8165 79.0045 49.1706 79.1784C48.1768 79.4517 47.357 79.0541 46.9099 78.1349C46.6117 77.4144 46.5372 76.7188 46.5621 75.8493ZM67.9592 47.8345L67.9592 47.8348L67.9592 47.8349L67.9592 47.8351C67.9491 47.9985 67.9387 48.1683 67.9268 48.3467L67.9336 48.4179L67.94 48.4867C67.9618 48.7233 67.9894 49.024 68.051 49.2908C68.2994 50.5081 69.2186 51.2535 70.4607 51.2783C71.3302 51.3031 72.0755 51.005 72.6966 50.4336C73.8393 49.3653 74.361 48.0486 74.212 46.4834C74.0381 44.8685 72.8208 43.8251 71.1066 43.8002C69.5167 43.7754 68.2746 44.8437 68.0758 46.4089C68.0192 46.8622 67.9912 47.3155 67.9592 47.8344V47.8345V47.8345ZM19.8307 64.5701C19.8307 65.7378 19.5823 66.8061 18.9612 67.775C18.837 67.9489 18.7128 68.1228 18.5637 68.2967C17.0732 69.9861 15.1354 69.1911 14.415 67.775C13.943 66.8309 13.8685 65.8372 14.1169 64.8186C14.1343 64.7533 14.1517 64.6887 14.169 64.6247L14.169 64.6246C14.2503 64.3232 14.3287 64.0327 14.3902 63.7254C14.6137 62.8559 15.0609 62.1106 15.8062 61.5888C16.9738 60.7441 18.365 60.9926 19.1848 62.1851C19.6817 62.8807 19.8059 63.7254 19.8307 64.5701ZM20.3267 80.3703C19.8299 81.4883 19.5566 82.7057 19.5069 83.6249C19.4821 84.6684 19.6063 85.3889 20.0286 86.01C20.5752 86.805 21.4198 87.1279 22.3639 86.954C23.1091 86.8298 23.6805 86.4075 24.1525 85.8609C25.6183 84.1715 25.8915 81.6125 24.0532 79.5753C23.5066 78.9542 22.7116 78.8052 21.9415 79.1281C21.9126 79.1426 21.8815 79.1613 21.8495 79.1806C21.7718 79.2273 21.689 79.2772 21.6186 79.2772C20.8981 79.3269 20.5752 79.7989 20.3267 80.3703ZM51.7783 57.2658C51.828 56.2968 52.2006 55.2534 52.8962 54.3093C53.2192 53.8621 53.5918 53.4895 54.2129 53.5392C54.3255 53.5392 54.4522 53.4683 54.5716 53.4016C54.6104 53.3799 54.6484 53.3587 54.6849 53.3404C55.5047 52.9429 56.2749 53.0423 56.9208 53.6882C57.7406 54.5329 58.0139 55.5515 57.8648 56.6944C57.7654 57.5142 57.4922 58.2844 57.045 58.98C56.4984 59.8496 55.7035 60.3961 54.7098 60.57C53.8154 60.7439 53.0701 60.4458 52.4988 59.7253C51.9771 59.0794 51.7783 58.3092 51.7783 57.2658ZM26.8676 47.6977C26.8494 47.8323 26.8313 47.9662 26.8115 48.0982C26.8861 49.1914 27.06 50.2597 27.6313 51.2038C27.8798 51.6509 28.2027 52.0236 28.8238 51.8249C28.8569 51.8083 28.9121 51.8138 28.9673 51.8193C28.9949 51.8221 29.0225 51.8249 29.0474 51.8249C29.892 51.9491 30.5628 51.5764 31.0845 50.9553C32.0285 49.8125 32.4011 48.4957 32.3266 47.0299C32.3018 46.4834 32.1776 45.9368 31.9043 45.4399C31.1342 44.0238 29.6933 43.7008 28.4015 44.6698C27.7555 45.1666 27.2587 45.7877 27.06 46.5827C26.9688 46.9476 26.9177 47.3258 26.8676 47.6977ZM38.7352 63.5019C38.7104 64.6944 38.2881 65.7627 37.4186 66.6074C37.2198 66.8062 36.9962 66.9801 36.7727 67.1292C35.3566 67.9987 33.8661 67.4521 33.3444 65.8621C33.0959 65.0919 33.0462 64.2969 33.2201 63.5019C33.3394 62.9057 33.5222 62.3094 33.7051 61.7132C33.7508 61.5641 33.7965 61.415 33.8412 61.266C33.8909 61.092 33.9903 60.943 34.0896 60.7939C34.661 59.8498 35.3069 59.6759 36.3006 60.148C36.3706 60.178 36.4405 60.212 36.5121 60.2467C36.6185 60.2984 36.7284 60.3519 36.8472 60.3964C37.5676 60.62 38.0396 61.092 38.3626 61.738C38.6359 62.2846 38.7601 62.8808 38.7352 63.5019ZM12.9492 43.3035C12.9492 42.6327 13.0237 41.9868 13.297 41.3905C13.6697 40.4713 14.3653 39.9993 15.359 39.9247C17.8681 39.7757 19.1599 42.3098 18.4146 44.2476C18.2904 44.5457 18.1414 44.819 17.9675 45.0675C17.6197 45.5395 17.247 46.0115 16.8744 46.4587C16.0049 47.5022 15.036 47.4028 14.1168 46.4339C13.2225 45.5147 12.9741 44.4712 12.9492 43.3035ZM37.0969 33.887C38.8111 33.5392 40.0284 32.0734 40.0284 30.3343C40.0284 29.4151 39.7303 28.471 39.2831 27.8002C38.4633 26.6574 37.1218 26.3841 35.9293 27.1543C35.3083 27.5518 34.8859 28.0983 34.6623 28.7691C34.3642 29.6635 34.3642 30.5579 34.6375 31.4523C34.8859 32.2225 35.2586 32.9181 35.8548 33.4647C36.2026 33.7876 36.6001 33.9864 37.0969 33.887ZM66.163 63.5763C64.8215 64.3217 64.1508 65.5142 64.0762 67.0297C64.0514 67.9489 64.4737 68.6197 65.1693 69.1663C65.7407 69.6135 66.3618 69.7874 67.0574 69.6632C68.9703 69.3153 70.3118 67.1291 69.7652 65.2657C69.2932 63.626 67.5542 62.7813 66.163 63.5763ZM23.6565 26.4589C23.6565 27.8005 22.5882 28.9185 21.1722 29.0675C19.9052 29.2166 18.7128 28.347 18.4643 27.0552C18.2407 25.8875 18.4395 24.7447 19.0854 23.726C19.2841 23.4279 19.5823 23.1546 19.8804 22.931C20.253 22.6826 20.6505 22.6826 21.048 22.9807C21.2716 23.1546 21.5076 23.3223 21.7435 23.49L21.7436 23.49L21.7436 23.4901C21.9796 23.6577 22.2156 23.8254 22.4392 23.9993C23.2341 24.6453 23.6068 25.49 23.6565 26.4589ZM46.8352 39.8006C46.1893 40.4714 45.916 41.2664 45.916 42.1856C45.916 43.2042 46.3383 44.1731 46.9594 44.7197C47.6799 45.3408 48.599 45.3905 49.2201 44.7445C49.6921 44.2725 50.0896 43.7259 50.4374 43.1545C50.8597 42.4589 50.8846 41.6639 50.7107 40.8937C50.5119 40.0242 50.0151 39.3782 49.1207 39.1298C48.2512 38.9062 47.4563 39.1546 46.8352 39.8006Z" fill="#FBE8DE"/>
</g>
</svg>
