<svg width="181" height="36" viewBox="0 0 181 36" fill="none" xmlns="http://www.w3.org/2000/svg">
<path d="M63.607 26.2715C63.1987 26.2715 63 26.126 63 25.8295V25.7541C63 25.5816 63.1711 25.3122 63.5187 24.9403C63.8664 24.5684 64.0374 24.1858 64.0374 23.7869V10.3888C64.0374 9.97384 63.8664 9.5858 63.5187 9.22471C63.1711 8.86362 63 8.59414 63 8.42168V8.31928C63 8.04442 63.1931 7.9043 63.5849 7.9043H75.5818C76.0564 7.9043 76.3323 8.15221 76.4041 8.65343L77.0387 11.6823C77.127 12.1296 76.9393 12.356 76.4813 12.356H76.3489C76.084 12.356 75.797 12.2051 75.488 11.9033C75.179 11.6014 74.9086 11.2727 74.6658 10.9224C74.4285 10.5667 74.125 10.2433 73.7497 9.9415C73.38 9.63969 72.9992 9.48879 72.613 9.48879H69.1143C68.4245 9.48879 68.0824 9.84988 68.0824 10.5775V16.8831H71.6307C71.879 16.8831 72.1108 16.7861 72.3315 16.5867C72.5523 16.3873 72.7233 16.1663 72.8503 15.9292C72.9717 15.6866 73.1151 15.4657 73.2752 15.2716C73.4352 15.0722 73.5952 14.9752 73.7497 14.9752H73.9594C74.2574 14.9752 74.4119 15.1639 74.4119 15.5465V19.7125C74.4119 20.0736 74.2629 20.2569 73.9594 20.2569H73.7497C73.5897 20.2569 73.4297 20.1599 73.2752 19.9712C73.1151 19.7826 72.9772 19.5724 72.8503 19.3514C72.7288 19.1251 72.5523 18.9203 72.3315 18.7317C72.1108 18.543 71.879 18.446 71.6307 18.446H68.0879V23.8031C68.0879 24.2019 68.2755 24.5846 68.6563 24.9565C69.0371 25.3283 69.2247 25.5978 69.2247 25.7703V25.8457C69.2247 26.1367 69.015 26.2876 68.5901 26.2876H63.607V26.2715Z" fill="white"/>
<path d="M83.9246 26.5308C81.8221 26.5308 80.0893 25.8949 78.7208 24.6284C77.3522 23.3619 76.668 21.8151 76.668 19.9827C76.668 18.1395 77.3412 16.6089 78.6822 15.4017C80.0231 14.1944 81.64 13.5908 83.5273 13.5908C85.558 13.5908 87.2522 14.216 88.6152 15.4663C89.9727 16.7167 90.657 18.2635 90.657 20.112C90.657 21.9552 90.0169 23.4858 88.7366 24.7038C87.4508 25.9272 85.8505 26.5308 83.9246 26.5308ZM84.3992 25.3937C85.1221 25.3937 85.685 25.0649 86.0823 24.4128C86.4796 23.7553 86.6783 22.8337 86.6783 21.6426C86.6783 20.6618 86.5348 19.6485 86.2423 18.603C85.9498 17.5574 85.5139 16.652 84.9289 15.8867C84.344 15.1214 83.7039 14.7334 82.9975 14.7334C81.3751 14.7334 80.5584 15.9945 80.5584 18.5114C80.5584 19.4437 80.7019 20.4246 80.9944 21.4594C81.2868 22.4942 81.7338 23.4104 82.3464 24.2026C82.9589 24.9949 83.6432 25.3937 84.3992 25.3937Z" fill="white"/>
<path d="M92.6676 26.2717C92.2592 26.2717 92.0605 26.1262 92.0605 25.8298V25.7274C92.0605 25.5549 92.2316 25.2855 92.5793 24.9244C92.9269 24.5633 93.098 24.1806 93.098 23.7872V11.0628C93.098 10.6154 92.9269 10.2112 92.5793 9.84476C92.2371 9.48367 92.0605 9.23575 92.0605 9.09563V8.99323C92.0605 8.78843 92.2371 8.61597 92.5903 8.47584L95.9289 6.86979C96.2821 6.72967 96.5525 6.7135 96.7346 6.8159C96.9222 6.9183 97.0105 7.09076 97.0105 7.33328V23.7872C97.0105 24.186 97.1981 24.5633 97.5789 24.9244C97.9597 25.2855 98.1473 25.5549 98.1473 25.7274V25.8298C98.1473 26.1208 97.9431 26.2717 97.5403 26.2717H92.6676Z" fill="white"/>
<path d="M100.243 26.2714C99.8569 26.2714 99.6582 26.1259 99.6582 25.8295V25.7271C99.6582 25.5546 99.8238 25.2852 100.16 24.9241C100.497 24.563 100.663 24.1749 100.663 23.7599V17.9178C100.663 17.4866 100.497 17.0824 100.16 16.6998C99.8238 16.3225 99.6582 16.0638 99.6582 15.9237V15.8483C99.6582 15.6758 99.8458 15.4926 100.216 15.3039L103.527 13.6979C103.863 13.5578 104.128 13.547 104.321 13.6602C104.514 13.7733 104.614 13.9566 104.614 14.2153V23.7599C104.614 24.1749 104.801 24.563 105.171 24.9241C105.541 25.2852 105.728 25.5546 105.728 25.7271V25.8295C105.728 26.1205 105.524 26.2714 105.121 26.2714H100.243ZM104.52 11.3858C104.051 11.8062 103.427 12.0218 102.655 12.0218C101.877 12.0218 101.247 11.8116 100.762 11.3858C100.276 10.9654 100.033 10.4157 100.033 9.74204C100.033 9.08453 100.276 8.54559 100.762 8.12521C101.247 7.70483 101.877 7.48926 102.655 7.48926C103.433 7.48926 104.056 7.69945 104.52 8.12521C104.989 8.54559 105.221 9.08453 105.221 9.74204C105.221 10.4157 104.989 10.9654 104.52 11.3858Z" fill="white"/>
<path d="M114.331 26.5308C112.228 26.5308 110.496 25.8949 109.127 24.6284C107.758 23.3619 107.074 21.8151 107.074 19.9827C107.074 18.1395 107.747 16.6089 109.088 15.4017C110.429 14.1944 112.046 13.5908 113.934 13.5908C115.964 13.5908 117.658 14.216 119.021 15.4663C120.379 16.7167 121.063 18.2635 121.063 20.112C121.063 21.9552 120.423 23.4858 119.143 24.7038C117.863 25.9272 116.257 26.5308 114.331 26.5308ZM114.811 25.3937C115.534 25.3937 116.097 25.0649 116.494 24.4128C116.891 23.7553 117.09 22.8337 117.09 21.6426C117.09 20.6618 116.947 19.6485 116.654 18.603C116.362 17.5574 115.926 16.652 115.341 15.8867C114.756 15.1214 114.116 14.7334 113.409 14.7334C111.787 14.7334 110.97 15.9945 110.97 18.5114C110.97 19.4437 111.114 20.4246 111.406 21.4594C111.699 22.4942 112.146 23.4104 112.758 24.2026C113.371 24.9949 114.049 25.3937 114.811 25.3937Z" fill="white"/>
<path d="M123.156 26.2715C122.747 26.2715 122.549 26.126 122.549 25.8295V25.7541C122.549 25.5816 122.72 25.3122 123.068 24.9403C123.415 24.5684 123.586 24.175 123.586 23.7654V10.4158C123.586 9.98462 123.415 9.5858 123.068 9.22471C122.72 8.86362 122.549 8.59414 122.549 8.42168V8.31928C122.549 8.04442 122.742 7.9043 123.134 7.9043H134.949C135.423 7.9043 135.699 8.14682 135.771 8.62648L136.405 11.6553C136.494 12.1027 136.317 12.329 135.876 12.329H135.716C135.451 12.329 135.164 12.1781 134.855 11.8763C134.546 11.5745 134.27 11.2457 134.032 10.8954C133.795 10.5397 133.492 10.2164 133.133 9.91455C132.769 9.61275 132.394 9.46184 132.007 9.46184H128.619C127.913 9.46184 127.559 9.83371 127.559 10.5721V16.134H130.975C131.273 16.134 131.538 16.0369 131.759 15.8375C131.98 15.6381 132.145 15.4226 132.25 15.1908C132.355 14.9591 132.482 14.7435 132.636 14.5441C132.785 14.3447 132.934 14.2477 133.072 14.2477H133.282C133.58 14.2477 133.735 14.4309 133.735 14.792V18.958C133.735 19.3191 133.586 19.5024 133.282 19.5024H133.072C132.929 19.5024 132.785 19.4053 132.636 19.2167C132.487 19.0281 132.36 18.8233 132.25 18.6077C132.145 18.3921 131.98 18.1873 131.759 17.9987C131.538 17.8101 131.279 17.7131 130.975 17.7131H127.559L127.532 23.1187C127.532 23.5498 127.648 23.9271 127.874 24.2451C128.106 24.563 128.459 24.7247 128.934 24.7247H132.83C133.216 24.7247 133.586 24.5684 133.928 24.2612C134.27 23.954 134.546 23.6037 134.75 23.2264C134.954 22.8492 135.202 22.5043 135.506 22.1917C135.804 21.8791 136.107 21.7282 136.405 21.7282H136.615C136.792 21.7282 136.924 21.7982 137.012 21.933C137.101 22.0731 137.128 22.224 137.09 22.3965L136.505 25.5277C136.4 26.029 136.118 26.2769 135.655 26.2769H123.156V26.2715Z" fill="white"/>
<path d="M151.365 23.7927C151.365 24.1915 151.542 24.5741 151.895 24.946C152.248 25.3179 152.425 25.5874 152.425 25.7598V25.8353C152.425 26.1263 152.248 26.2772 151.895 26.2772H148.612C148.203 26.2772 148.005 26.0886 148.005 25.7059L147.949 25.1346C147.138 26.067 145.99 26.5305 144.506 26.5305C142.795 26.5305 141.327 25.9484 140.108 24.7843C138.888 23.6202 138.281 22.0357 138.281 20.0362C138.281 18.1553 138.888 16.614 140.108 15.4067C141.327 14.1995 142.801 13.5959 144.534 13.5959C145.77 13.5959 146.802 13.93 147.635 14.6037V10.47C147.635 10.1251 147.524 9.83944 147.304 9.61847C147.083 9.39212 146.862 9.20349 146.642 9.04719C146.421 8.8909 146.31 8.72922 146.31 8.55676V8.47592C146.31 8.18489 146.498 7.98548 146.868 7.88308L150.339 6.84831C151.029 6.62195 151.371 6.79441 151.371 7.36569V23.7927H151.365ZM145.378 25.4203C145.979 25.4203 146.504 25.1724 146.956 24.6819C147.409 24.1915 147.629 23.5124 147.629 22.6501V18.096C147.629 17.2499 147.337 16.4738 146.757 15.7678C146.172 15.0618 145.505 14.7061 144.743 14.7061C143.932 14.7061 143.286 15.0402 142.812 15.7031C142.337 16.366 142.089 17.3038 142.072 18.511C142.039 19.4919 142.139 20.5051 142.376 21.5399C142.613 22.5747 143.005 23.4747 143.54 24.2454C144.076 25.0107 144.688 25.4041 145.378 25.4203Z" fill="white"/>
<path d="M165.322 13.8549C165.995 13.8549 166.437 13.9195 166.658 14.0489C166.878 14.1782 166.945 14.3723 166.856 14.6309C166.801 14.8896 166.691 15.0729 166.514 15.1861C166.338 15.2992 166.04 15.3909 165.615 15.4555C165.19 15.5256 164.936 15.5741 164.848 15.6118C165.835 16.6143 166.332 17.7191 166.332 18.9209C166.332 19.9234 166.073 20.8126 165.548 21.5995C165.03 22.3863 164.301 22.99 163.363 23.4211C165.482 23.8846 166.542 24.8709 166.542 26.3691C166.542 27.4578 165.913 28.3309 164.649 28.9938C163.385 29.6567 161.802 29.9908 159.892 29.9908C157.983 29.9908 156.482 29.6567 155.378 28.983C154.274 28.3093 153.723 27.4578 153.723 26.423C153.723 26.0242 153.855 25.6847 154.12 25.399C154.385 25.1134 154.771 24.9733 155.284 24.9733C155.759 24.9733 156.167 25.1781 156.504 25.5823C156.841 25.9865 157.1 26.4338 157.288 26.9296C157.475 27.4255 157.795 27.8674 158.253 28.277C158.711 28.6812 159.285 28.8914 159.975 28.9129C160.786 28.9129 161.437 28.6866 161.923 28.2393C162.409 27.7919 162.651 27.2045 162.651 26.4823C162.651 25.1188 162.105 24.3265 161.007 24.1002C160.549 24.1325 160.201 24.1541 159.975 24.1541C158.193 24.1541 156.714 23.669 155.538 22.6935C154.363 21.718 153.778 20.5 153.778 19.0341C153.778 17.4119 154.363 16.1023 155.527 15.0998C156.692 14.0974 158.204 13.6016 160.058 13.6016C160.532 13.6016 161.283 13.6447 162.309 13.7309C163.33 13.8171 164.334 13.8549 165.322 13.8549ZM157.508 17.3257C157.508 18.7431 157.812 20.0365 158.424 21.2168C159.031 22.3971 159.743 22.9899 160.554 22.9899C161.172 22.9899 161.664 22.7528 162.022 22.2785C162.386 21.8043 162.563 21.1791 162.563 20.403C162.563 19.5569 162.442 18.7054 162.193 17.843C161.945 16.9807 161.575 16.2478 161.079 15.6442C160.582 15.0405 160.047 14.7387 159.462 14.7387C158.86 14.7387 158.386 14.9705 158.032 15.4394C157.685 15.9028 157.508 16.5334 157.508 17.3257Z" fill="white"/>
<path d="M179.095 22.3432C179.255 22.1384 179.449 22.0684 179.68 22.1384C179.912 22.2085 180.017 22.3702 180 22.6289C179.912 23.5235 179.382 24.402 178.411 25.2535C177.44 26.105 176.176 26.5362 174.626 26.5362C172.755 26.5362 171.215 25.9326 170.018 24.7253C168.815 23.5181 168.219 21.9336 168.219 19.9665C168.219 18.1233 168.848 16.5981 170.101 15.4016C171.353 14.2052 172.865 13.6016 174.631 13.6016C176.237 13.6016 177.473 13.9734 178.339 14.7118C179.206 15.4555 179.636 16.3071 179.636 17.2718C179.636 18.064 179.25 18.6353 178.472 18.9802L172.589 21.5941C173.312 23.0924 174.477 23.8469 176.088 23.8469C176.761 23.8469 177.363 23.7067 177.903 23.4211C178.428 23.1301 178.831 22.7744 179.095 22.3432ZM174.145 14.7387C173.456 14.7387 172.909 15.0621 172.501 15.7088C172.093 16.3556 171.894 17.1801 171.894 18.1772C171.894 19.0233 171.982 19.7671 172.159 20.403L175.575 18.7215C176.033 18.4952 176.265 18.091 176.265 17.5035C176.265 16.9161 176.071 16.3124 175.68 15.6819C175.293 15.0513 174.78 14.7387 174.145 14.7387Z" fill="white"/>
<g clip-path="url(#clip0_3471_7152)">
<path d="M28.9764 8.57178C29.861 7.66322 30.4107 6.40836 30.4107 5.02317C30.4107 2.24907 28.212 0 25.5 0C23.7854 0 22.2784 0.901117 21.4011 2.26396C21.1645 2.50228 1.61627 27.1489 1.43426 27.4319C0.549679 28.3405 0 29.5916 0 30.9768C0 33.7509 2.19871 36 4.91071 36C6.62527 36 8.13233 35.0989 9.00963 33.736C9.24261 33.5014 28.7944 8.85478 28.9764 8.57178Z" fill="#3CC3A3"/>
<path d="M40.287 20.264C41.1752 19.3554 41.7249 18.1006 41.7249 16.7116C41.7249 13.9375 39.5262 11.6885 36.8142 11.6885C35.0996 11.6885 33.5926 12.5896 32.7116 13.9524C32.475 14.1945 22.2095 27.1378 22.0238 27.4245C21.1356 28.3331 20.5859 29.5879 20.5859 30.9769C20.5859 33.7509 22.7847 36 25.4966 36C27.2112 36 28.7183 35.0989 29.5992 33.7361C29.8358 33.4977 40.105 20.5507 40.287 20.264Z" fill="#3CC3A3"/>
<path d="M50.9991 5.02317C50.9991 7.79727 48.8004 10.0463 46.0884 10.0463C43.3764 10.0463 41.1777 7.79727 41.1777 5.02317C41.1777 2.24907 43.3764 0 46.0884 0C48.8004 0 50.9991 2.24907 50.9991 5.02317Z" fill="#3CC3A3"/>
<path d="M9.82141 5.02317C9.82141 7.79727 7.6227 10.0463 4.91071 10.0463C2.19871 10.0463 0 7.79727 0 5.02317C0 2.24907 2.19871 0 4.91071 0C7.6227 0 9.82141 2.24907 9.82141 5.02317Z" fill="#3CC3A3"/>
</g>
<defs>
<clipPath id="clip0_3471_7152">
<rect width="51" height="36" fill="white"/>
</clipPath>
</defs>
</svg>
