<svg width="108" height="97" viewBox="0 0 108 97" fill="none" xmlns="http://www.w3.org/2000/svg">
<g opacity="0.3">
<path fill-rule="evenodd" clip-rule="evenodd" d="M24.4844 63.4362C26.0824 63.8099 27.5955 63.5762 29.0285 62.7545C27.4559 62.5648 25.9863 63.1185 24.4844 63.4362ZM37.1855 48.0016C37.294 53.1931 35.7247 57.0141 33.5996 60.602C32.1101 63.1171 29.6773 64.3754 26.7433 64.5244C24.2444 64.6515 21.7838 64.4578 19.4006 63.5554C17.6039 62.8758 16.4129 61.5624 15.4189 60.0465C13.5711 57.2277 11.4011 54.5132 11.3267 50.9289C11.2331 46.4536 12.1589 42.2439 15.1275 38.7102C16.3846 37.2143 17.8766 36.2101 20.0437 36.5466C22.1946 36.8806 23.0626 39.4888 23.0463 41.0514C23.0389 41.7745 22.4328 42.1388 22.0752 42.563C20.4469 44.4961 20.1148 46.9155 19.3469 49.1714C19.1886 49.6358 19.5099 49.7637 19.8674 49.8411C22.1871 50.3428 24.2935 50.195 25.8711 48.089C26.7075 46.973 27.6121 45.915 28.165 44.6141C28.4281 43.9956 28.4406 43.4286 28.2095 42.77C27.9363 41.9893 27.3834 41.029 28.7615 40.6018C29.0434 40.5145 28.9856 40.2757 28.8538 40.0472C28.2756 39.048 28.6094 38.0744 29.6985 37.5475C31.9043 36.4799 35.3322 38.4308 35.5451 40.8684C35.5675 41.1246 35.5837 41.4222 35.7205 41.6209C37.2516 43.8412 36.9514 46.4308 37.1855 48.0016Z" fill="#8A64F9"/>
<path fill-rule="evenodd" clip-rule="evenodd" d="M67.4961 48.5668C66.2365 48.3709 65.0101 48.4599 63.8516 49.0009C65.1033 49.1574 66.3504 49.2966 67.4961 48.5668ZM60.5487 23.613C60.0216 24.0671 59.2891 23.8423 58.9777 24.4926C59.3888 24.8055 59.7667 24.3701 60.1251 24.4475C60.6248 24.5559 61.6499 24.3804 60.8393 25.4467C60.7794 25.5258 60.6397 25.6048 60.8093 25.688C62.2132 26.3784 61.1623 27.2663 60.9415 28.0176C60.7121 28.8028 60.3591 29.5549 60.3404 30.3873C60.3146 31.5517 60.303 32.7165 60.3188 33.8801C60.3379 35.3085 60.5607 35.4919 61.9829 35.3574C64.436 35.1252 66.1574 33.3647 66.098 30.9172C66.0489 28.9104 66.4493 26.9902 66.9032 25.075C67.1373 24.0882 67.7592 23.2972 68.8604 23.1088C70.157 22.8865 72.0381 23.6809 72.5211 24.827C73.3343 26.756 74.0667 28.7494 74.3548 30.8216C74.9231 34.9124 74.8063 38.9929 73.6548 43.0031C73.205 44.569 72.5914 46.0951 71.6415 47.3874C70.3923 49.0866 68.5162 49.8511 66.4235 50.0688C63.7796 50.3437 61.2321 50.258 59.0218 48.462C58.5375 48.0683 58.2319 47.5542 57.9023 47.1001C55.7314 44.1087 53.1308 41.2985 52.6161 37.4432C52.0233 33.0034 52.7101 28.7449 55.0073 24.8337C55.8042 23.4764 56.8946 22.4573 58.6593 22.6556C59.3797 22.7367 60.0507 22.9495 60.5487 23.613Z" fill="#8A64F9"/>
<path fill-rule="evenodd" clip-rule="evenodd" d="M51.3115 84.1769C52.4975 84.777 54.5162 84.712 55.4769 84.0866C54.0926 84.0099 52.7715 83.9101 51.3115 84.1769ZM64.2594 71.6304C64.3737 75.4435 63.2733 79.2703 60.7001 82.6339C59.6305 84.0317 58.1746 84.9072 56.4715 85.2859C53.5457 85.9362 50.6989 85.6634 47.9748 84.3521C46.3901 83.5896 45.3783 82.2907 44.3436 80.9186C42.4209 78.3683 41.4714 75.4212 40.6728 72.4421C39.7591 69.0343 40.4047 65.7489 41.9823 62.5795C42.5244 61.49 42.8956 60.3935 44.0206 59.7411C44.8769 59.2444 45.6938 59.4597 46.5161 59.7581C46.7131 59.8297 47.0199 60.0632 47.0037 60.1865C46.7742 61.9333 48.2691 63.3924 47.8147 65.174C47.6389 65.864 47.5429 66.5755 47.4323 67.2804C47.1251 69.2387 48.1955 70.6838 50.2155 70.9023C52.1826 71.1151 53.9086 70.5174 55.1217 68.9142C56.1215 67.5938 56.8386 66.1024 57.2218 64.4744C57.5399 63.1234 58.6103 62.3965 59.9938 62.6026C62.2922 62.9449 62.8634 63.5584 63.1104 65.9434C63.1253 66.0916 63.1178 66.2767 63.2027 66.3768C64.4136 67.8202 64.0428 69.586 64.2594 71.6304Z" fill="#8A64F9"/>
<path fill-rule="evenodd" clip-rule="evenodd" d="M95.9111 31.0871C96.7002 31.2806 97.4875 31.5962 98.215 31.0109C97.4372 30.933 96.6602 30.7351 95.9111 31.0871ZM94.323 14.0705C96.0175 14.5957 94.6743 15.5867 94.6806 16.3405C94.6835 16.7105 94.2536 17.129 94.6598 17.521C95.0555 17.9026 95.556 17.8741 96.0399 17.6808C98.2 16.8185 99.3681 15.0817 99.8241 12.9487C100.159 11.3816 100.71 9.88399 101.045 8.32183C101.346 6.92027 102.781 6.17809 104.198 6.49723C105.89 6.87846 106.948 7.79779 107.182 9.57231C107.461 11.6817 108.059 13.7186 107.995 15.9091C107.848 21.0034 106.4 25.5785 103.224 29.5907C100.261 33.333 94.582 33.4957 91.5324 29.7969C90.5434 28.5969 89.6268 27.2201 89.4476 25.5483C89.4181 25.2726 89.2327 24.9998 89.0764 24.7523C86.4707 20.6362 86.7397 16.3905 88.6706 12.1697C89.9926 9.28131 92.2653 9.42081 94.1131 10.7967C94.3442 10.9689 94.6635 11.1742 94.6103 11.5033C94.5421 11.9259 94.1177 11.716 93.8583 11.8038C93.6118 11.8874 93.2705 11.8982 93.3129 12.2467C93.3565 12.611 93.7036 12.5025 93.9531 12.5286C94.4066 12.5758 94.883 12.6056 95.0576 13.1379C95.2455 13.7116 94.5916 13.7132 94.323 14.0705Z" fill="#8A64F9"/>
<path fill-rule="evenodd" clip-rule="evenodd" d="M15.3125 90.2088C15.0648 90.5737 15.2211 90.8976 15.5902 90.9341C16.1701 90.9908 15.8106 90.5613 15.8301 90.3165C15.858 89.9673 16.0217 90.1889 16.1959 90.2212C16.5788 90.2925 16.5476 89.9375 16.3909 89.8352C16.1307 89.6646 15.7707 89.5246 15.4742 89.5589C15.1251 89.5987 15.2198 89.9412 15.3125 90.2088ZM13.8584 94.7756C12.9729 94.5026 11.9632 95.5634 11.4219 94.1837C11.4194 94.7801 11.0681 95.6632 11.764 95.628C12.3996 95.5957 13.3558 95.6504 13.8584 94.7756ZM19.1939 91.5638C19.8503 91.9529 19.9808 91.1478 20.6742 91.1818C19.7351 91.9107 19.1968 92.7058 18.8314 93.7051C18.5899 94.3653 17.5834 94.7676 16.9416 95.0806C14.6672 96.1895 12.2166 96.9279 9.64961 96.9999C8.87264 97.0219 8.1227 96.5368 7.30666 96.4809C7.05391 96.4639 6.81613 96.259 6.834 95.9428C6.83816 95.8637 6.97825 95.7192 7.03604 95.7284C7.50537 95.8033 7.83462 95.7644 7.60307 95.1621C7.49955 94.893 7.53738 94.5205 7.17738 94.4199C6.54508 94.2432 7.04144 95.1369 6.55465 95.0955C6.08988 95.4879 6.69682 93.5585 5.85417 94.7929C5.80096 94.7511 5.72156 94.7192 5.6987 94.6646C5.19818 93.4629 4.02422 92.794 3.37155 91.6685C2.74965 90.5965 1.95107 89.6266 1.48174 88.4486C0.0704021 84.9107 -0.376486 81.269 0.330637 77.5254C0.698124 75.5783 1.93943 74.7852 3.73031 75.1317C4.34348 75.2501 4.81781 75.5555 5.06183 76.0763C5.98429 78.0457 7.37609 79.8794 6.65317 82.3109C6.42952 83.063 6.85853 83.8668 7.39604 84.4815C7.72819 84.8611 8.13393 85.0871 8.69514 84.8019C9.7685 84.2563 10.8352 83.7339 11.5943 82.7364C12.1364 82.024 12.7824 81.3899 13.3598 80.7027C14.1571 79.7536 14.375 78.5487 14.4639 77.4079C14.5999 75.6685 15.7248 74.8531 17.3556 75.5862C18.0187 75.8842 18.6643 76.3292 18.9436 76.9803C19.6832 78.7014 20.5237 80.3559 20.9228 82.2521C21.3128 84.1044 21.4238 85.9033 21.329 87.7544C21.2878 88.5599 20.7686 89.2611 20.8405 90.1043C20.8538 90.2604 20.4909 90.5828 20.2847 90.5981C19.6171 90.6478 19.5759 91.2393 19.1939 91.5638Z" fill="#8A64F9"/>
<path fill-rule="evenodd" clip-rule="evenodd" d="M85.6541 57.5875C84.9673 58.2929 84.7645 58.3608 84.5333 57.9118C84.2203 57.3037 83.3265 57.0966 82.8651 57.5374C82.582 57.8074 82.587 58.1595 82.8322 58.4113C83.2135 58.8032 85.4446 58.1694 85.6541 57.5875ZM87.4369 66.0276C87.0054 65.6224 86.2945 65.9067 86.0729 65.629C85.301 64.6608 84.7821 65.8525 84.1311 65.7776C84.0168 65.7644 83.5795 66.1849 83.705 66.4776C83.8331 66.7752 84.3893 67.0057 84.551 66.8679C85.382 66.1584 86.5111 66.5781 87.4369 66.0276ZM85.0244 61.455C84.5655 61.4488 84.0309 61.4633 83.9569 62.0875C83.8696 62.8222 84.5493 62.4906 84.8856 62.6504C85.303 62.8495 85.6738 62.4567 86.0196 62.5763C86.3971 62.7063 86.6262 62.5966 86.7629 62.3197C86.9616 61.9173 86.5896 61.6272 86.4233 61.3254C86.247 61.0071 85.9535 61.2451 85.7411 61.3573C85.5233 61.4728 85.362 61.7547 85.0244 61.455ZM94.1964 49.7992C94.7863 50.0484 95.2835 50.3547 95.3745 50.9499C95.4452 51.4123 94.9035 51.1751 94.642 51.4768C95.8917 51.5058 95.6439 52.5994 95.5117 53.0535C95.1625 54.2498 95.6052 55.3934 95.4647 56.5624C95.372 57.3306 95.1945 58.1084 95.1305 58.8853C95.0644 59.6913 94.5223 58.5807 94.1016 58.6391C93.8809 58.8787 93.8971 59.1304 94.1798 59.2732C94.4699 59.4201 94.985 59.3903 94.9443 59.7976C94.8948 60.2923 94.751 61.051 94.4271 61.1917C93.5545 61.5709 93.7566 62.4327 93.8102 62.8317C93.9258 63.6927 93.5313 63.5872 93.0719 63.458C92.4076 63.2705 92.0089 63.4816 91.8755 64.1232C91.7055 64.9419 90.7813 64.807 90.3685 65.3836C89.9636 65.9486 89.3297 66.3481 89.385 67.1933C88.2439 67.0571 88.7714 66.0562 88.3187 65.4486C88.1574 67.4334 86.6845 67.399 85.3505 67.5468C84.9074 67.5965 84.4052 67.4268 84.0161 67.5774C83.1996 67.8928 83.2591 67.4996 83.4657 66.7583C83.0105 67.6416 82.5902 67.9425 81.9496 67.2082C81.7172 66.942 81.3327 66.9826 81.0034 66.9093C80.3973 66.774 80.3233 66.6333 80.3395 65.8563C80.3441 65.6373 80.2049 65.6597 80.0697 65.598C78.6792 64.9639 78.0752 63.8045 78.0648 62.2858C78.0598 61.5626 78.3566 60.4098 76.9232 60.4852C76.7258 60.4951 76.6863 60.3457 76.6227 60.2112C75.3065 57.4225 75.7351 54.7411 77.2155 52.1756C77.8989 50.9917 79.6478 50.4027 80.9772 50.868C81.4121 51.0203 81.8789 51.4326 82.0635 51.8448C82.2472 52.2542 81.785 52.4177 81.3634 52.4715C81.0354 52.5133 81.1369 52.7936 81.2067 53.0084C81.3239 53.3681 81.568 53.4612 81.913 53.3341C82.7527 53.0241 82.9419 53.1628 82.8434 54.1537C82.7714 54.8798 83.8103 55.1687 84.3919 55.5619C84.786 55.8285 84.9959 55.2573 85.1119 54.929C85.1963 54.6922 85.3264 54.5151 85.5168 54.4186C87.3563 53.4803 87.5588 51.6838 87.8439 49.9602C87.9778 49.1518 87.9982 48.2805 88.1553 47.516C88.3145 46.7407 88.561 45.9281 88.7643 45.1288C89.0907 43.8477 90.1503 43.8068 91.1659 43.8639C91.8223 43.9007 92.472 44.1259 93.1131 44.3088C93.2681 44.3531 93.5005 44.5767 93.4864 44.6926C93.3633 45.7005 94.5489 46.4203 94.063 47.552C93.9403 47.8376 94.3332 48.4072 94.5892 48.7776C95.0765 49.4805 95.0948 49.5028 94.1964 49.7992Z" fill="#8A64F9"/>
<path fill-rule="evenodd" clip-rule="evenodd" d="M44.9099 28.8301C43.9899 29.2444 43.3422 29.7134 42.9561 30.4812C43.5871 29.994 44.643 29.994 44.9099 28.8301ZM41.3201 15.2149C42.1756 15.0563 42.5934 14.5497 43.0736 14.1606C44.0043 13.4056 44.7651 13.6465 45.0407 14.8614C45.1604 15.3883 45.1899 15.6818 45.9095 15.8279C46.6196 15.9724 46.7784 16.9823 47.1005 17.6392C48.0937 19.6658 48.4753 21.8435 48.3464 24.082C48.1747 27.0681 46.6828 29.3079 44.2292 30.9731C43.1047 31.7364 41.9486 32.1859 40.5311 32.02C39.8564 31.9409 39.4677 31.5121 38.9476 31.2546C37.1593 30.3704 35.3123 29.6047 33.6428 28.4792C31.8465 27.2689 29.7559 22.7359 30.6318 20.3327C31.193 18.7925 32.1396 17.864 33.7118 17.5382C34.6159 17.3507 35.0296 17.7245 35.0957 18.826C35.582 18.4857 35.8173 18.0904 35.9516 17.561C36.2667 16.3213 36.7298 15.1354 37.3151 13.9888C38.0094 12.6274 39.1626 11.9626 40.5822 11.6294C41.1397 11.4986 41.6955 11.5677 42.0343 12.0111C42.3635 12.4415 42.3353 12.9619 42.0364 13.4826C41.7603 13.9631 41.6036 14.5116 41.3201 15.2149Z" fill="#8A64F9"/>
<path fill-rule="evenodd" clip-rule="evenodd" d="M67.3154 5.33745C68.0179 3.75128 68.3364 2.11378 69.5764 0.957259C69.7664 0.780098 69.9319 0.549126 70.1564 0.44109C70.6905 0.184041 71.369 -0.233199 71.8312 0.163758C72.232 0.508147 72.1659 1.23583 71.9622 1.82775C71.8637 2.11212 71.4987 2.50245 71.9173 2.71232C72.2715 2.88906 72.4739 2.4325 72.7001 2.1978C72.8306 2.06203 72.9279 1.89357 73.0647 1.76649C73.3199 1.52931 73.4434 1.01562 73.9239 1.2052C74.3076 1.35587 74.646 1.63114 74.7026 2.10012C74.7549 2.53516 74.7512 2.93998 75.4309 2.64526C75.7768 2.49542 76.0191 2.94246 76.2066 3.19496C78.2781 5.98401 78.7071 8.8695 76.0145 11.712C75.191 12.5808 74.345 13.4281 73.5107 14.2866C73.0522 14.7585 72.4951 14.7523 71.9389 14.5556C71.3112 14.3338 71.988 13.8267 71.7078 13.4206C71.0693 14.4426 70.4548 14.3069 69.638 13.5697C69.1316 13.1131 68.5247 12.5423 67.5719 12.9243C67.221 13.0651 66.5534 12.6768 66.1439 12.3767C64.0916 10.8729 62.8561 8.88234 62.8074 6.29197C62.7879 5.2646 63.1267 4.35354 64.1701 3.89077C64.3701 3.80219 64.7737 3.70036 64.7891 3.73472C65.2676 4.80638 66.6623 4.37838 67.3154 5.33745Z" fill="#8A64F9"/>
</g>
</svg>
