<svg width="48" height="48" viewBox="0 0 48 48" fill="none" xmlns="http://www.w3.org/2000/svg">
<g clip-path="url(#clip0_2894_24847)">
<path d="M0.800781 7.19922H47.2008V43.9992C47.1997 44.8476 46.8622 45.6609 46.2624 46.2608C45.6625 46.8607 44.8492 47.1982 44.0008 47.1992H4.00078C3.15241 47.1982 2.3391 46.8607 1.73921 46.2608C1.13932 45.6609 0.80184 44.8476 0.800781 43.9992V7.19922Z" fill="#2783EC"/>
<path d="M47.2008 4.00078V44.0008C47.2008 43.8968 47.1928 43.7928 47.1848 43.6888C47.085 42.8827 46.6909 42.1419 46.078 41.6088C45.4652 41.0757 44.6769 40.7879 43.8648 40.8008H41.6008C41.3886 40.8008 41.1851 40.7165 41.0351 40.5665C40.8851 40.4164 40.8008 40.2129 40.8008 40.0008V1.60078C40.8008 1.38861 40.8851 1.18512 41.0351 1.0351C41.1851 0.885067 41.3886 0.800781 41.6008 0.800781H44.0008C44.8495 0.800781 45.6634 1.13792 46.2635 1.73804C46.8636 2.33816 47.2008 3.15209 47.2008 4.00078Z" fill="#439AF6"/>
<path d="M7.20078 1.60078V40.0008C7.20078 40.2129 7.1165 40.4164 6.96647 40.5665C6.81644 40.7165 6.61296 40.8008 6.40078 40.8008H4.13678C3.32463 40.7879 2.53638 41.0757 1.92355 41.6088C1.31071 42.1419 0.916534 42.8827 0.816781 43.6888C0.808781 43.7928 0.800781 43.8968 0.800781 44.0008V4.00078C0.800781 3.15209 1.13792 2.33816 1.73804 1.73804C2.33816 1.13792 3.15209 0.800781 4.00078 0.800781H6.40078C6.61296 0.800781 6.81644 0.885067 6.96647 1.0351C7.1165 1.18512 7.20078 1.38861 7.20078 1.60078Z" fill="#439AF6"/>
<path d="M18.9112 18.9128C17.6454 20.1734 16.895 21.8606 16.8062 23.6448C16.7175 25.429 17.2968 27.1823 18.4312 28.5624C18.5547 28.7149 18.6173 28.9079 18.6066 29.1039C18.596 29.2999 18.5129 29.4849 18.3736 29.6232L14.9648 33.032C14.8862 33.1096 14.7924 33.1702 14.6894 33.2102C14.5864 33.2501 14.4763 33.2684 14.3659 33.2641C14.2555 33.2597 14.1472 33.2328 14.0476 33.1849C13.9481 33.137 13.8594 33.0691 13.7872 32.9856C11.5039 30.39 10.2947 27.0224 10.4054 23.5673C10.5161 20.1121 11.9384 16.8288 14.3832 14.3848L17.5992 15.2008L18.9112 18.9128Z" fill="#E85D5D"/>
<path d="M33.6152 14.3848C36.0595 16.8292 37.4812 20.1128 37.5913 23.5679C37.7014 27.023 36.4917 30.3904 34.208 32.9856C34.1357 33.0691 34.0471 33.137 33.9475 33.1849C33.848 33.2328 33.7396 33.2597 33.6292 33.2641C33.5189 33.2684 33.4087 33.2501 33.3057 33.2102C33.2027 33.1702 33.109 33.1096 33.0304 33.032L29.6216 29.6232C29.4822 29.4849 29.3992 29.2999 29.3885 29.1039C29.3779 28.9079 29.4404 28.7149 29.564 28.5624C30.6984 27.1823 31.2777 25.429 31.189 23.6448C31.1002 21.8606 30.3497 20.1734 29.084 18.9128L30.3992 16.0008L33.6152 14.3848Z" fill="#3CC3A3"/>
<path d="M25.5048 16.9591C26.863 17.2496 28.1079 17.9276 29.0888 18.9111L33.6168 14.3831C31.0663 11.833 27.6074 10.4004 24.0008 10.4004C20.3941 10.4004 16.9352 11.833 14.3848 14.3831L18.9128 18.9111C19.8936 17.9276 21.1385 17.2496 22.4968 16.9591H25.5048Z" fill="#FCCB55"/>
<path d="M27.2008 23.8791C27.2008 24.7278 26.8636 25.5417 26.2635 26.1418C25.6634 26.742 24.8495 27.0791 24.0008 27.0791C23.1521 27.0791 22.3382 26.742 21.738 26.1418C21.1379 25.5417 20.8008 24.7278 20.8008 23.8791C20.8008 21.5951 22.3152 17.3471 23.2608 14.9191C23.3159 14.7671 23.4165 14.6358 23.5489 14.543C23.6813 14.4502 23.8391 14.4004 24.0008 14.4004C24.1625 14.4004 24.3202 14.4502 24.4526 14.543C24.585 14.6358 24.6856 14.7671 24.7408 14.9191C25.6864 17.3471 27.2008 21.5991 27.2008 23.8791Z" fill="white"/>
<path d="M34.3988 37.6H13.5988C13.3867 37.6 13.1832 37.5157 13.0331 37.3657C12.8831 37.2157 12.7988 37.0122 12.7988 36.8C12.7988 36.5878 12.8831 36.3843 13.0331 36.2343C13.1832 36.0843 13.3867 36 13.5988 36H34.3988C34.611 36 34.8145 36.0843 34.9645 36.2343C35.1145 36.3843 35.1988 36.5878 35.1988 36.8C35.1988 37.0122 35.1145 37.2157 34.9645 37.3657C34.8145 37.5157 34.611 37.6 34.3988 37.6Z" fill="#1F61A3"/>
<path d="M21.5988 40.8012H13.5988C13.3867 40.8012 13.1832 40.7169 13.0331 40.5669C12.8831 40.4168 12.7988 40.2134 12.7988 40.0012C12.7988 39.789 12.8831 39.5855 13.0331 39.4355C13.1832 39.2855 13.3867 39.2012 13.5988 39.2012H21.5988C21.811 39.2012 22.0145 39.2855 22.1645 39.4355C22.3145 39.5855 22.3988 39.789 22.3988 40.0012C22.3988 40.2134 22.3145 40.4168 22.1645 40.5669C22.0145 40.7169 21.811 40.8012 21.5988 40.8012Z" fill="#1F61A3"/>
<path d="M27.1988 44.0004H13.5988C13.3867 44.0004 13.1832 43.9161 13.0331 43.7661C12.8831 43.6161 12.7988 43.4126 12.7988 43.2004C12.7988 42.9882 12.8831 42.7847 13.0331 42.6347C13.1832 42.4847 13.3867 42.4004 13.5988 42.4004H27.1988C27.411 42.4004 27.6145 42.4847 27.7645 42.6347C27.9145 42.7847 27.9988 42.9882 27.9988 43.2004C27.9988 43.4126 27.9145 43.6161 27.7645 43.7661C27.6145 43.9161 27.411 44.0004 27.1988 44.0004Z" fill="#1F61A3"/>
<path d="M34.4 40.8012H24.8C24.5878 40.8012 24.3843 40.7169 24.2343 40.5669C24.0843 40.4168 24 40.2134 24 40.0012C24 39.789 24.0843 39.5855 24.2343 39.4355C24.3843 39.2855 24.5878 39.2012 24.8 39.2012H34.4C34.6122 39.2012 34.8157 39.2855 34.9657 39.4355C35.1157 39.5855 35.2 39.789 35.2 40.0012C35.2 40.2134 35.1157 40.4168 34.9657 40.5669C34.8157 40.7169 34.6122 40.8012 34.4 40.8012Z" fill="#1F61A3"/>
<path d="M34.1834 13.8167C31.5389 11.1726 27.9696 9.66086 24.2304 9.60143C20.4913 9.542 16.8757 10.9395 14.1486 13.4983C11.4214 16.057 9.79666 19.5764 9.61802 23.3117C9.43937 27.047 10.7209 30.7054 13.1914 33.5127C13.3356 33.6786 13.5124 33.8131 13.7107 33.908C13.909 34.0028 14.1246 34.056 14.3443 34.0643C14.564 34.0725 14.783 34.0357 14.9879 33.9559C15.1927 33.8762 15.3791 33.7553 15.5354 33.6007L18.9434 30.1927C19.2256 29.9147 19.393 29.5407 19.4122 29.145C19.4315 28.7493 19.3013 28.3608 19.0474 28.0567C18.1121 26.9118 17.6006 25.4791 17.5994 24.0007C17.6044 22.6216 18.0528 21.2806 18.8782 20.1758C19.7036 19.0709 20.8623 18.2607 22.1834 17.8647C22.3914 17.2407 22.6074 16.6407 22.8154 16.0807C22.5914 16.1207 22.3594 16.1687 22.3274 16.1767C21.0851 16.4422 19.9246 17.0019 18.9434 17.8087L15.5434 14.4087C17.8753 12.342 20.8834 11.2008 23.9994 11.2008C27.1154 11.2008 30.1234 12.342 32.4554 14.4087L29.0554 17.8087C28.0741 17.0019 26.9137 16.4422 25.6714 16.1767C25.6394 16.1687 25.4074 16.1207 25.1834 16.0807C25.3914 16.6407 25.6074 17.2407 25.8154 17.8647C26.8273 18.1634 27.7496 18.7078 28.5 19.4494C29.2504 20.1911 29.8056 21.1069 30.1161 22.1152C30.4266 23.1236 30.4827 24.1931 30.2795 25.2284C30.0763 26.2637 29.62 27.2326 28.9514 28.0487C28.6973 28.3543 28.567 28.744 28.5863 29.1409C28.6055 29.5379 28.7729 29.9132 29.0554 30.1927L32.4634 33.6007C32.765 33.8958 33.1694 34.0622 33.5914 34.0647H33.6394C33.8613 34.0568 34.0793 34.0037 34.2801 33.9088C34.4809 33.8139 34.6603 33.6792 34.8074 33.5127C37.2262 30.7653 38.5079 27.1999 38.392 23.5413C38.2761 19.8827 36.7712 16.4055 34.1834 13.8167V13.8167ZM17.8074 18.9447C16.6383 20.3704 15.9994 22.1571 15.9994 24.0007C15.9994 25.8444 16.6383 27.6311 17.8074 29.0567L14.3914 32.4567C12.3317 30.1205 11.1965 27.1122 11.1995 23.9977C11.2024 20.8832 12.3432 17.877 14.4074 15.5447L17.8074 18.9447ZM33.5994 32.4647L30.1834 29.0647C31.356 27.6396 31.9979 25.8517 31.9993 24.0062C32.0008 22.1606 31.3618 20.3717 30.1914 18.9447L33.5914 15.5447C35.664 17.8731 36.8061 20.8835 36.7994 24.0007C36.7982 27.1174 35.6605 30.1268 33.5994 32.4647V32.4647Z" fill="#1F61A3"/>
</g>
<defs>
<clipPath id="clip0_2894_24847">
<rect width="48" height="48" fill="white"/>
</clipPath>
</defs>
</svg>
