<svg width="48" height="48" viewBox="0 0 48 48" fill="none" xmlns="http://www.w3.org/2000/svg">
<path d="M42.9134 43.2295L37.1347 41.9577L35.3437 47.6118C35.2149 48.0183 34.6643 48.0779 34.4516 47.7083L27.3027 35.2898C30.8242 34.5268 33.9574 32.7184 36.3632 30.2051L43.4436 42.5063C43.656 42.8753 43.3293 43.321 42.9134 43.2295V43.2295Z" fill="#F1554C"/>
<path d="M42.9134 43.2296L37.572 42.0539C37.3243 41.9994 37.076 42.1428 36.9994 42.3846L35.3437 47.6118C35.2149 48.0183 34.6643 48.0779 34.4516 47.7083L28.3272 37.0686L27.3027 35.2898C30.8242 34.5268 33.9574 32.7184 36.3632 30.2051L37.3798 31.9701L43.4437 42.5063C43.6559 42.8755 43.3292 43.3211 42.9134 43.2296V43.2296Z" fill="#F1554C"/>
<path d="M42.9135 43.2293L37.5725 42.0539C37.3245 42 37.0765 42.1431 37 42.3843L37.5749 40.5979C37.6524 40.3569 37.9008 40.2147 38.1479 40.2696L42.7439 41.2912L43.4439 42.5068C43.6566 42.8754 43.3292 43.3215 42.9135 43.2293Z" fill="#F1554C"/>
<path d="M20.8108 35.1415L13.549 47.7544C13.3362 48.124 12.7857 48.0644 12.6568 47.6578L11.001 42.4306C10.9245 42.1888 10.676 42.0454 10.4284 42.0999L5.08714 43.2754C4.67127 43.367 4.34452 42.9212 4.55696 42.5522L11.3109 30.8184C13.8324 33.2089 17.2335 34.5525 20.8108 35.1415Z" fill="#F1554C"/>
<path d="M12.2666 32.5634L6.24816 43.019L5.08723 43.2747C4.67136 43.3664 4.34451 42.9206 4.55695 42.5515L10.3059 32.5634L11.8606 29.8555C12.2792 30.2517 12.7164 30.6284 13.1723 30.9824L12.2666 32.5634Z" fill="#F1554C"/>
<path d="M14.257 46.5232L13.5482 47.7546C13.3355 48.1242 12.7855 48.0653 12.6561 47.6585L11.0003 42.4313C10.9238 42.1891 10.6758 42.046 10.4277 42.0999L12.259 41.6971C12.5067 41.6426 12.755 41.786 12.8316 42.0277L14.257 46.5232Z" fill="#F1554C"/>
<path d="M11.4749 30.5195L16.2511 32.6734L20.8114 35.1412L19.5886 37.2637C16.179 36.5715 13.0154 34.9844 10.4008 32.647C10.3694 32.6195 10.338 32.5919 10.3066 32.5634L11.4749 30.5195Z" fill="#F1554C"/>
<path d="M37.3798 31.9701L36.3632 30.2051L30.9836 32.5795L27.3027 35.2898L27.7164 36.0081L28.7324 37.7725L34.4516 47.7082C34.6643 48.0778 35.2149 48.0182 35.3437 47.6116L35.7079 46.4619L30.0233 36.5602C32.7753 35.6026 35.2805 34.0446 37.3798 31.9701V31.9701Z" fill="#F1554C"/>
<path d="M41.7919 17.8462C41.7919 22.6428 39.9047 26.9989 36.8333 30.2055C34.4275 32.7188 31.2943 34.5272 27.7729 35.2902C26.5562 35.5537 25.2945 35.6923 23.9995 35.6923C23.0113 35.6923 22.0427 35.6117 21.0986 35.4564C17.7046 34.8979 14.6332 33.3757 12.1744 31.179C12.0411 31.061 11.9107 30.9411 11.7813 30.8181C11.3225 30.3835 10.8872 29.9242 10.4755 29.4435C10.0814 28.9813 9.71082 28.4985 9.36475 27.9971C8.32558 26.4936 7.5109 24.8209 6.96877 23.0293C6.47369 21.3892 6.20703 19.6496 6.20703 17.8463C6.20703 7.99038 14.1734 0 23.9995 0C25.7965 0 27.5317 0.267441 29.1659 0.765068C30.9531 1.30691 32.6197 2.12404 34.1197 3.16733C34.6196 3.51447 35.101 3.88612 35.5608 4.28238C36.1764 4.80942 36.7549 5.37881 37.2931 5.98447C40.092 9.13798 41.7919 13.2934 41.7919 17.8462Z" fill="#FAA515"/>
<path d="M23.9997 30.6292C31.0379 30.6292 36.7435 24.9063 36.7435 17.8468C36.7435 10.7873 31.0379 5.06445 23.9997 5.06445C16.9615 5.06445 11.2559 10.7873 11.2559 17.8468C11.2559 24.9063 16.9615 30.6292 23.9997 30.6292Z" fill="#FAD207"/>
<path d="M36.7431 17.8467C36.7431 24.9059 31.0374 30.6289 23.9995 30.6289C16.9615 30.6289 11.2559 24.9059 11.2559 17.8467C11.2559 17.3137 11.2882 16.7886 11.3519 16.2734C12.1245 22.5912 17.4929 27.4822 23.9995 27.4822C30.5061 27.4822 35.8745 22.5912 36.647 16.2734C36.7107 16.7887 36.7431 17.3138 36.7431 17.8467V17.8467Z" fill="#FAA515"/>
<path fill-rule="evenodd" clip-rule="evenodd" d="M23.9995 5.06445C16.9615 5.06445 11.2559 10.7874 11.2559 17.8466C11.2559 24.9059 16.9615 30.6288 23.9995 30.6288C31.0374 30.6288 36.7431 24.9059 36.7431 17.8466C36.7431 10.7874 31.0374 5.06445 23.9995 5.06445V5.06445ZM23.9995 29.1537C17.7831 29.1537 12.7264 24.0818 12.7264 17.8466C12.7264 11.6115 17.7831 6.5395 23.9995 6.5395C30.2159 6.5395 35.2726 11.6115 35.2726 17.8466C35.2726 24.0818 30.2159 29.1537 23.9995 29.1537Z" fill="#FAF063"/>
<path d="M24.441 10.7786L26.1916 14.3546C26.2629 14.5003 26.4016 14.6013 26.5622 14.6243L30.4965 15.1896C30.8991 15.2474 31.0602 15.7422 30.7687 16.0259L27.9152 18.8046C27.7993 18.9174 27.7466 19.08 27.7741 19.2393L28.4541 23.1681C28.5236 23.5695 28.1016 23.8755 27.7416 23.6849L24.2302 21.8241C24.0867 21.7481 23.9148 21.7481 23.7712 21.8241L20.2599 23.6849C19.8999 23.8756 19.4779 23.5696 19.5474 23.1681L20.2273 19.2393C20.2549 19.08 20.2022 18.9174 20.0863 18.8046L17.2328 16.0259C16.9413 15.7421 17.1024 15.2474 17.505 15.1896L21.4393 14.6243C21.5997 14.6013 21.7385 14.5003 21.8098 14.3546L23.5605 10.7786C23.7398 10.4123 24.2617 10.4123 24.441 10.7786V10.7786Z" fill="#FAA515"/>
</svg>
