<svg width="48" height="48" viewBox="0 0 48 48" fill="none" xmlns="http://www.w3.org/2000/svg">
<path d="M43.4854 8.55469H4.51483C2.02538 8.55469 0 10.5801 0 13.0695V23.5247C0 23.5307 0.000750003 23.5363 0.000843753 23.5423C0.00121875 23.5575 0.00178126 23.5727 0.00309376 23.5878C0.00393752 23.5981 0.00534377 23.6081 0.00675003 23.6182C0.00843753 23.6306 0.0100313 23.643 0.012375 23.6552C0.0145313 23.6673 0.0174376 23.6792 0.0202501 23.6911C0.0225938 23.701 0.0251251 23.7111 0.0279376 23.721C0.0316876 23.7339 0.0358126 23.7466 0.0402189 23.7591C0.0433127 23.768 0.0465002 23.777 0.0499689 23.7858C0.0549377 23.7983 0.060094 23.8105 0.065719 23.8225C0.069844 23.8315 0.0740628 23.8405 0.0785628 23.8493C0.0842816 23.8604 0.0902816 23.8712 0.0964691 23.8818C0.102094 23.8915 0.107813 23.9011 0.113907 23.9104C0.119813 23.9195 0.126001 23.9285 0.132282 23.9374C0.139594 23.9477 0.147094 23.9579 0.154969 23.9677C0.160969 23.9752 0.167157 23.9825 0.173438 23.9898C0.182251 24.0002 0.191438 24.0103 0.200907 24.02C0.207282 24.0267 0.213845 24.033 0.220501 24.0393C0.230345 24.0487 0.240376 24.058 0.250688 24.0668C0.258376 24.0733 0.266251 24.0796 0.27422 24.0857C0.28397 24.0933 0.293907 24.1009 0.304126 24.1081C0.314157 24.1152 0.324658 24.1217 0.335158 24.1283C0.343783 24.1337 0.352595 24.1393 0.361501 24.1443C0.37472 24.1518 0.388314 24.1585 0.402002 24.1652C0.407345 24.1677 0.412127 24.1708 0.417564 24.1732C0.777472 24.3369 9.36322 28.1885 20.6291 28.8843C20.6441 28.8852 20.6589 28.8857 20.6738 28.8857C20.6884 28.8857 20.7027 28.8845 20.7171 28.8836V28.8843H27.2973C27.3069 28.8846 27.3164 28.8857 27.326 28.8857C27.3408 28.8857 27.3557 28.8852 27.3707 28.8843C38.6365 28.1885 47.2222 24.3369 47.5822 24.1732C47.5876 24.1708 47.5925 24.1677 47.5977 24.1652C47.6115 24.1585 47.625 24.1517 47.6382 24.1443C47.6473 24.1391 47.6559 24.1337 47.6646 24.1283C47.6752 24.1217 47.6856 24.1152 47.6956 24.1081C47.706 24.1009 47.7158 24.0933 47.7255 24.0857C47.7334 24.0796 47.7413 24.0733 47.7489 24.0668C47.7594 24.0579 47.7694 24.0487 47.7791 24.0393C47.7858 24.033 47.7924 24.0267 47.7988 24.02C47.8083 24.0103 47.8174 24.0002 47.8263 23.9898C47.8326 23.9825 47.8388 23.9752 47.8448 23.9677C47.8526 23.9579 47.86 23.9477 47.8674 23.9374C47.8737 23.9286 47.8799 23.9195 47.8858 23.9104C47.8919 23.9011 47.8976 23.8914 47.9033 23.8818C47.9094 23.8711 47.9154 23.8604 47.9213 23.8493C47.9258 23.8405 47.93 23.8315 47.9341 23.8225C47.9397 23.8104 47.9451 23.7982 47.9498 23.7858C47.9534 23.777 47.9565 23.7681 47.9596 23.7591C47.964 23.7466 47.9681 23.7338 47.9719 23.721C47.9746 23.711 47.9772 23.701 47.9796 23.6911C47.9824 23.6792 47.9853 23.6673 47.9874 23.6552C47.9896 23.6429 47.9914 23.6305 47.9931 23.6182C47.9945 23.6081 47.9958 23.5981 47.9968 23.5878C47.9981 23.5727 47.9987 23.5576 47.999 23.5423C47.9992 23.5363 47.9999 23.5307 47.9999 23.5247V13.0695C48.0002 10.58 45.9748 8.55469 43.4854 8.55469Z" fill="#FF6B6B"/>
<path d="M27.3716 28.8849C27.3567 28.8858 27.3418 28.8863 27.3269 28.8863C27.3172 28.8863 27.3078 28.8854 27.2982 28.8849H20.718V28.8843C20.7036 28.8851 20.6893 28.8863 20.6748 28.8863C20.6599 28.8863 20.6451 28.8858 20.63 28.8849C10.8075 28.2783 3.02334 25.273 0.951172 24.4044V42.5352C0.951172 44.5007 2.55008 46.0996 4.51556 46.0996H43.4861C45.4516 46.0996 47.0505 44.5007 47.0505 42.5352V24.4043C44.9784 25.2729 37.1942 28.2782 27.3716 28.8849Z" fill="#EE5253"/>
<path d="M44.1972 25.4845V42.5352C44.1972 44.5007 42.5983 46.0996 40.6328 46.0996H43.4846C45.4501 46.0996 47.049 44.5007 47.049 42.5352V24.4043C46.4901 24.6386 45.5151 25.0285 44.1972 25.4845Z" fill="#D83941"/>
<path d="M29.2272 1.90039H18.7714C16.8059 1.90039 15.207 3.4994 15.207 5.46478C15.207 5.85844 15.5263 6.17766 15.9199 6.17766H32.0787C32.4725 6.17766 32.7916 5.85844 32.7916 5.46478C32.7916 3.4994 31.1927 1.90039 29.2272 1.90039Z" fill="#576574"/>
<path d="M15.9199 6.17772C15.5263 6.17772 15.207 5.8585 15.207 5.46484V8.55392H19.4844V6.17772H15.9199Z" fill="#CAD0D7"/>
<path d="M32.7909 5.46289C32.7909 5.46345 32.7909 5.46411 32.7909 5.46477C32.7909 5.85842 32.4718 6.17764 32.0781 6.17764H28.5137V8.55393H32.7909V5.46467C32.7909 5.46411 32.7909 5.46345 32.7909 5.46289Z" fill="#CAD0D7"/>
<path d="M27.3273 33.743H20.6738C20.2802 33.743 19.9609 33.4238 19.9609 33.0302V23.5254C19.9609 23.1317 20.2802 22.8125 20.6738 22.8125H27.3273C27.7209 22.8125 28.0402 23.1317 28.0402 23.5254V33.0302C28.0402 33.4239 27.721 33.743 27.3273 33.743Z" fill="#FECA57"/>
<path d="M24 30.8917C23.6063 30.8917 23.2871 30.5725 23.2871 30.1788V26.3769C23.2871 25.9833 23.6063 25.6641 24 25.6641C24.3936 25.6641 24.7129 25.9833 24.7129 26.3769V30.1788C24.7129 30.5726 24.3936 30.8917 24 30.8917Z" fill="#FF9F43"/>
<path d="M43.4846 8.55469H40.6328C43.1223 8.55469 45.1476 10.5801 45.1476 13.0695V25.1459C46.6093 24.6106 47.4726 24.223 47.5815 24.1735C47.5869 24.1711 47.5917 24.168 47.5971 24.1654C47.6108 24.1588 47.6243 24.1519 47.6376 24.1445C47.6467 24.1394 47.6553 24.1339 47.6639 24.1286C47.6745 24.122 47.6849 24.1155 47.6949 24.1083C47.7053 24.1012 47.7152 24.0936 47.7248 24.086C47.7327 24.0798 47.7407 24.0736 47.7483 24.0671C47.7588 24.0582 47.7687 24.049 47.7785 24.0396C47.7851 24.0333 47.7918 24.027 47.7982 24.0203C47.8076 24.0106 47.8167 24.0004 47.8256 23.9901C47.8319 23.9828 47.8381 23.9755 47.8441 23.968C47.852 23.9582 47.8594 23.9479 47.8668 23.9377C47.8731 23.9289 47.8792 23.9198 47.8852 23.9107C47.8912 23.9013 47.897 23.8917 47.9026 23.8821C47.9088 23.8713 47.9148 23.8607 47.9206 23.8496C47.9251 23.8408 47.9293 23.8318 47.9334 23.8228C47.9391 23.8107 47.9444 23.7985 47.9492 23.7861C47.9527 23.7773 47.9558 23.7684 47.9589 23.7594C47.9633 23.7468 47.9675 23.7341 47.9712 23.7212C47.9739 23.7113 47.9766 23.7013 47.9789 23.6913C47.9817 23.6794 47.9846 23.6676 47.9868 23.6554C47.9889 23.6432 47.9907 23.6308 47.9924 23.6185C47.9938 23.6084 47.9951 23.5983 47.9962 23.5881C47.9975 23.573 47.998 23.5578 47.9983 23.5426C47.9985 23.5366 47.9992 23.5309 47.9992 23.5249V13.0695C47.9994 10.58 45.9741 8.55469 43.4846 8.55469Z" fill="#EE5253"/>
</svg>
