<svg width="65" height="59" viewBox="0 0 65 59" fill="none" xmlns="http://www.w3.org/2000/svg">
<g opacity="0.3">
<path fill-rule="evenodd" clip-rule="evenodd" d="M14.7354 38.5854C15.6971 38.8127 16.6078 38.6705 17.4703 38.1705C16.5238 38.0551 15.6393 38.392 14.7354 38.5854ZM22.3796 29.1966C22.4449 32.3543 21.5004 34.6784 20.2214 36.8607C19.325 38.3905 17.8608 39.1559 16.0949 39.2465C14.591 39.3238 13.11 39.206 11.6757 38.6571C10.5943 38.2437 9.87749 37.4448 9.27926 36.5229C8.16713 34.8083 6.8611 33.1572 6.81632 30.9771C6.76002 28.255 7.31721 25.6944 9.10388 23.5451C9.86047 22.6352 10.7584 22.0244 12.0627 22.2291C13.3572 22.4323 13.8797 24.0187 13.8699 24.9691C13.8654 25.4089 13.5006 25.6305 13.2854 25.8886C12.3054 27.0643 12.1055 28.5359 11.6434 29.9081C11.5481 30.1906 11.7415 30.2684 11.9566 30.3155C13.3527 30.6206 14.6205 30.5307 15.57 29.2497C16.0734 28.5709 16.6178 27.9274 16.9506 27.1361C17.109 26.7599 17.1165 26.415 16.9774 26.0144C16.813 25.5396 16.4802 24.9555 17.3096 24.6957C17.4792 24.6425 17.4445 24.4973 17.3652 24.3583C17.0171 23.7505 17.218 23.1584 17.8736 22.8379C19.2011 22.1885 21.2642 23.3751 21.3923 24.8578C21.4059 25.0137 21.4156 25.1947 21.4979 25.3155C22.4194 26.666 22.2388 28.2411 22.3796 29.1966Z" fill="#F1554C"/>
<path fill-rule="evenodd" clip-rule="evenodd" d="M40.6222 29.5404C39.8641 29.4211 39.126 29.4753 38.4287 29.8045C39.1821 29.8998 39.9326 29.9845 40.6222 29.5404ZM36.4408 14.363C36.1235 14.6392 35.6827 14.5025 35.4953 14.898C35.7427 15.0884 35.9702 14.8235 36.1858 14.8706C36.4866 14.9365 37.1036 14.8298 36.6157 15.4783C36.5797 15.5264 36.4956 15.5745 36.5977 15.6251C37.4426 16.0451 36.8101 16.5851 36.6772 17.0421C36.5391 17.5197 36.3267 17.9772 36.3154 18.4835C36.2999 19.1917 36.2929 19.9002 36.3024 20.6079C36.3139 21.4768 36.4481 21.5883 37.304 21.5065C38.7804 21.3653 39.8165 20.2945 39.7807 18.8058C39.7512 17.5852 39.9921 16.4172 40.2653 15.2523C40.4062 14.652 40.7805 14.1709 41.4433 14.0563C42.2236 13.9211 43.3558 14.4043 43.6465 15.1014C44.1359 16.2747 44.5767 17.4872 44.7501 18.7476C45.0921 21.2358 45.0218 23.7178 44.3288 26.157C44.0581 27.1094 43.6888 28.0377 43.1171 28.8237C42.3652 29.8572 41.2361 30.3223 39.9766 30.4547C38.3853 30.6219 36.8521 30.5697 35.5218 29.4773C35.2303 29.2379 35.0464 28.9252 34.848 28.649C33.5415 26.8294 31.9763 25.1202 31.6665 22.7752C31.3097 20.0747 31.7231 17.4845 33.1057 15.1055C33.5853 14.2799 34.2416 13.6601 35.3036 13.7807C35.7372 13.83 36.1411 13.9594 36.4408 14.363Z" fill="#F1554C"/>
<path fill-rule="evenodd" clip-rule="evenodd" d="M30.8818 51.1995C31.5957 51.5647 32.8106 51.5252 33.3888 51.1446C32.5557 51.098 31.7605 51.0372 30.8818 51.1995ZM38.6744 43.5678C38.7432 45.8871 38.081 48.2147 36.5322 50.2606C35.8885 51.1109 35.0123 51.6434 33.9872 51.8737C32.2263 52.2693 30.513 52.1033 28.8734 51.3057C27.9197 50.842 27.3107 50.0519 26.6879 49.2173C25.5308 47.6661 24.9593 45.8735 24.4787 44.0615C23.9288 41.9887 24.3173 39.9904 25.2668 38.0626C25.5931 37.3999 25.8165 36.733 26.4935 36.3362C27.0089 36.0341 27.5006 36.165 27.9955 36.3465C28.1141 36.3901 28.2987 36.5321 28.289 36.6071C28.1509 37.6696 29.0506 38.5571 28.7771 39.6407C28.6713 40.0604 28.6135 40.4932 28.5469 40.9219C28.362 42.1131 29.0063 42.992 30.222 43.1249C31.4059 43.2543 32.4447 42.8908 33.1748 41.9157C33.7766 41.1125 34.2081 40.2054 34.4388 39.2152C34.6302 38.3934 35.2745 37.9513 36.1071 38.0767C37.4905 38.2849 37.8343 38.658 37.9829 40.1087C37.9919 40.1989 37.9874 40.3114 38.0384 40.3723C38.7672 41.2503 38.5441 42.3243 38.6744 43.5678Z" fill="#F1554C"/>
<path fill-rule="evenodd" clip-rule="evenodd" d="M57.7246 18.9093C58.1995 19.027 58.6734 19.219 59.1112 18.8629C58.6431 18.8155 58.1755 18.695 57.7246 18.9093ZM56.7688 8.55925C57.7886 8.87875 56.9802 9.48149 56.984 9.93996C56.9857 10.165 56.727 10.4196 56.9715 10.658C57.2097 10.8901 57.5109 10.8728 57.8021 10.7552C59.1022 10.2308 59.8052 9.17433 60.0797 7.87695C60.2811 6.92375 60.6129 6.01284 60.8145 5.06266C60.9954 4.21016 61.8596 3.75873 62.712 3.95285C63.7303 4.18473 64.3671 4.74391 64.5082 5.82326C64.6758 7.10628 65.0359 8.34524 64.9976 9.67762C64.909 12.7762 64.0373 15.559 62.1258 17.9994C60.3426 20.2757 56.9247 20.3746 55.0892 18.1248C54.494 17.3949 53.9423 16.5575 53.8345 15.5406C53.8167 15.3729 53.7052 15.207 53.6111 15.0564C52.0428 12.5528 52.2047 9.97043 53.3669 7.40312C54.1625 5.64626 55.5303 5.73111 56.6425 6.56799C56.7816 6.67273 56.9737 6.79761 56.9417 6.99777C56.9007 7.25483 56.6452 7.12718 56.4891 7.18055C56.3407 7.23141 56.1353 7.23796 56.1608 7.44995C56.1871 7.67151 56.396 7.60554 56.5461 7.6214C56.8191 7.65011 57.1058 7.66823 57.2109 7.99201C57.324 8.34096 56.9305 8.34197 56.7688 8.55925Z" fill="#F1554C"/>
<path fill-rule="evenodd" clip-rule="evenodd" d="M9.21587 54.8689C9.06675 55.0909 9.16083 55.288 9.383 55.3102C9.73203 55.3447 9.51561 55.0833 9.52737 54.9344C9.54413 54.7219 9.64271 54.8568 9.74754 54.8764C9.97797 54.9198 9.95921 54.7038 9.86488 54.6415C9.70826 54.5377 9.49159 54.4525 9.3132 54.4734C9.10303 54.4976 9.16008 54.706 9.21587 54.8689ZM8.34042 57.6474C7.8075 57.4813 7.19977 58.1268 6.87401 57.2872C6.87251 57.6501 6.66109 58.1875 7.07992 58.1661C7.46248 58.1464 8.03793 58.1797 8.34042 57.6474ZM11.552 55.6932C11.947 55.9299 12.0256 55.4402 12.4429 55.4608C11.8777 55.9042 11.5537 56.3878 11.3338 56.9956C11.1884 57.3972 10.5827 57.6419 10.1964 57.8323C8.82757 58.5068 7.35265 58.9559 5.80768 58.9997C5.34006 59.0131 4.8887 58.718 4.39757 58.684C4.24545 58.6737 4.10233 58.549 4.11309 58.3567C4.11559 58.3086 4.19991 58.2207 4.23469 58.2263C4.51716 58.2718 4.71532 58.2482 4.57596 57.8819C4.51366 57.7182 4.53643 57.4916 4.31975 57.4304C3.9392 57.3229 4.23794 57.8665 3.94496 57.8413C3.66524 58.08 4.03053 56.9065 3.52337 57.6573C3.49135 57.6318 3.44356 57.6125 3.4298 57.5792C3.12856 56.8483 2.422 56.4415 2.02919 55.7569C1.6549 55.1048 1.17427 54.5149 0.891794 53.7984C0.042372 51.6465 -0.226591 49.4314 0.198996 47.1544C0.420171 45.9701 1.16726 45.4877 2.24511 45.6984C2.61416 45.7704 2.89963 45.9562 3.0465 46.273C3.60169 47.4709 4.43935 48.5862 4.00425 50.0651C3.86965 50.5226 4.12785 51.0115 4.45136 51.3854C4.65127 51.6163 4.89546 51.7538 5.23323 51.5803C5.87924 51.2484 6.52124 50.9307 6.97811 50.3239C7.30436 49.8906 7.69317 49.5049 8.0407 49.087C8.52058 48.5097 8.65168 47.7768 8.70522 47.0829C8.78704 46.025 9.46407 45.529 10.4456 45.9749C10.8447 46.1561 11.2332 46.4268 11.4014 46.8228C11.8465 47.8697 12.3524 48.876 12.5925 50.0294C12.8272 51.156 12.894 52.2502 12.837 53.3762C12.8122 53.8661 12.4997 54.2926 12.543 54.8055C12.551 54.9004 12.3326 55.0965 12.2085 55.1058C11.8067 55.136 11.7819 55.4958 11.552 55.6932Z" fill="#F1554C"/>
<path fill-rule="evenodd" clip-rule="evenodd" d="M51.55 35.0264C51.1367 35.4557 51.0146 35.497 50.8754 35.2238C50.687 34.8538 50.1491 34.7278 49.8714 34.9959C49.701 35.1603 49.704 35.3745 49.8516 35.5278C50.0811 35.7662 51.4239 35.3806 51.55 35.0264ZM52.6228 40.1597C52.3631 39.9132 51.9353 40.0862 51.8019 39.9172C51.3373 39.3283 51.025 40.0532 50.6332 40.0076C50.5644 39.9996 50.3012 40.2554 50.3768 40.4334C50.4538 40.6144 50.7886 40.7546 50.8859 40.6708C51.3861 40.2393 52.0656 40.4946 52.6228 40.1597ZM51.1706 37.3789C50.8943 37.3751 50.5726 37.3839 50.5281 37.7636C50.4755 38.2105 50.8846 38.0088 51.087 38.106C51.3382 38.2271 51.5614 37.9882 51.7695 38.0609C51.9967 38.14 52.1346 38.0733 52.2169 37.9048C52.3365 37.6601 52.1126 37.4836 52.0125 37.3001C51.9064 37.1065 51.7298 37.2512 51.6019 37.3195C51.4708 37.3897 51.3737 37.5612 51.1706 37.3789ZM56.691 30.2893C57.046 30.4409 57.3453 30.6272 57.4001 30.9893C57.4426 31.2705 57.1166 31.1262 56.9592 31.3098C57.7113 31.3274 57.5622 31.9926 57.4826 32.2688C57.2725 32.9964 57.5389 33.692 57.4543 34.403C57.3986 34.8703 57.2917 35.3434 57.2532 35.816C57.2134 36.3062 56.8871 35.6307 56.6339 35.6662C56.5011 35.8119 56.5109 35.965 56.681 36.0519C56.8556 36.1412 57.1656 36.1231 57.1411 36.3709C57.1113 36.6717 57.0248 37.1332 56.8299 37.2188C56.3047 37.4494 56.4263 37.9736 56.4586 38.2163C56.5281 38.74 56.2907 38.6758 56.0142 38.5973C55.6144 38.4832 55.3745 38.6116 55.2941 39.0019C55.1918 39.4999 54.6356 39.4178 54.3872 39.7685C54.1435 40.1122 53.7619 40.3551 53.7952 40.8693C53.1084 40.7864 53.4259 40.1776 53.1534 39.808C53.0564 41.0153 52.1699 40.9944 51.367 41.0843C51.1003 41.1145 50.7981 41.0112 50.5639 41.1029C50.0725 41.2947 50.1083 41.0556 50.2326 40.6046C49.9587 41.1419 49.7057 41.325 49.3202 40.8783C49.1803 40.7164 48.9489 40.7411 48.7507 40.6965C48.3859 40.6142 48.3414 40.5286 48.3512 40.056C48.3539 39.9228 48.2701 39.9364 48.1888 39.8989C47.3519 39.5132 46.9883 38.808 46.9821 37.8843C46.9791 37.4444 47.1577 36.7432 46.295 36.7891C46.1762 36.7951 46.1524 36.7042 46.1141 36.6224C45.322 34.9262 45.58 33.2952 46.4709 31.7348C46.8822 31.0147 47.9348 30.6564 48.735 30.9394C48.9967 31.0321 49.2776 31.2828 49.3887 31.5336C49.4993 31.7826 49.2211 31.882 48.9674 31.9148C48.77 31.9402 48.831 32.1106 48.8731 32.2413C48.9436 32.4601 49.0905 32.5168 49.2981 32.4395C49.8035 32.2509 49.9174 32.3352 49.8581 32.938C49.8148 33.3796 50.4401 33.5553 50.7901 33.7945C51.0273 33.9566 51.1536 33.6092 51.2234 33.4095C51.2742 33.2655 51.3525 33.1578 51.4671 33.0991C52.5742 32.5283 52.6961 31.4356 52.8677 30.3873C52.9483 29.8956 52.9605 29.3656 53.0551 28.9006C53.1509 28.429 53.2993 27.9348 53.4217 27.4486C53.6181 26.6694 54.2558 26.6444 54.8671 26.6792C55.2621 26.7016 55.6532 26.8386 56.039 26.9498C56.1323 26.9768 56.2722 27.1127 56.2637 27.1832C56.1896 27.7963 56.9032 28.2341 56.6107 28.9225C56.5369 29.0962 56.7733 29.4426 56.9274 29.668C57.2207 30.0955 57.2317 30.1091 56.691 30.2893Z" fill="#F1554C"/>
<path fill-rule="evenodd" clip-rule="evenodd" d="M27.0294 17.5376C26.4758 17.7896 26.0859 18.0749 25.8535 18.5419C26.2333 18.2456 26.8688 18.2456 27.0294 17.5376ZM24.8693 9.25585C25.3842 9.15942 25.6357 8.85126 25.9246 8.61459C26.4848 8.15536 26.9427 8.30189 27.1086 9.04084C27.1806 9.36134 27.1984 9.53985 27.6315 9.62873C28.0588 9.71659 28.1544 10.3309 28.3483 10.7305C28.946 11.9631 29.1757 13.2877 29.0982 14.6493C28.9948 16.4656 28.0969 17.8279 26.6202 18.8408C25.9434 19.305 25.2476 19.5785 24.3944 19.4775C23.9884 19.4294 23.7544 19.1686 23.4414 19.012C22.3651 18.4742 21.2535 18.0084 20.2487 17.3239C19.1676 16.5877 17.9093 13.8305 18.4365 12.3687C18.7742 11.4319 19.3439 10.8672 20.2902 10.669C20.8344 10.555 21.0833 10.7823 21.1231 11.4523C21.4158 11.2453 21.5574 11.0049 21.6383 10.6829C21.8279 9.92884 22.1066 9.20751 22.4589 8.51011C22.8767 7.68203 23.5708 7.27769 24.4252 7.07501C24.7607 6.99545 25.0952 7.0375 25.2992 7.30715C25.4973 7.56899 25.4803 7.88546 25.3004 8.20219C25.1343 8.4945 25.0399 8.82809 24.8693 9.25585Z" fill="#F1554C"/>
<path fill-rule="evenodd" clip-rule="evenodd" d="M40.5144 3.24649C40.9372 2.2817 41.1289 1.2857 41.8752 0.58225C41.9896 0.474492 42.0891 0.334004 42.2243 0.268292C42.5458 0.111942 42.9541 -0.141843 43.2323 0.0996055C43.4735 0.309079 43.4337 0.751692 43.3111 1.11172C43.2518 1.28469 43.0321 1.52211 43.2841 1.64976C43.4973 1.75727 43.6191 1.47956 43.7552 1.33681C43.8338 1.25423 43.8923 1.15176 43.9746 1.07446C44.1283 0.930198 44.2026 0.61775 44.4918 0.733061C44.7227 0.824706 44.9264 0.992133 44.9604 1.27739C44.9919 1.542 44.9897 1.78823 45.3988 1.60897C45.6069 1.51783 45.7528 1.78974 45.8656 1.94332C47.1124 3.63976 47.3706 5.39485 45.75 7.12376C45.2544 7.65223 44.7452 8.1676 44.2431 8.68978C43.9671 8.9768 43.6319 8.97302 43.2971 8.85343C42.9193 8.71848 43.3266 8.41006 43.158 8.16307C42.7737 8.78469 42.4039 8.70211 41.9123 8.25371C41.6075 7.97601 41.2422 7.62881 40.6688 7.8612C40.4576 7.9468 40.0558 7.71064 39.8093 7.52811C38.5741 6.61342 37.8305 5.40266 37.8013 3.82707C37.7895 3.20218 37.9934 2.64803 38.6214 2.36655C38.7418 2.31267 38.9847 2.25074 38.994 2.27163C39.2819 2.92347 40.1213 2.66314 40.5144 3.24649Z" fill="#F1554C"/>
</g>
</svg>
