<svg width="52" height="105" viewBox="0 0 52 105" fill="none" xmlns="http://www.w3.org/2000/svg">
<g opacity="0.15">
<path d="M51.6901 79.8196C51.6901 81.1596 50.6001 82.2496 49.2601 82.2496C47.9201 82.2496 46.8301 81.1596 46.8301 79.8196C46.8301 78.4796 47.9201 77.3896 49.2601 77.3896C50.6101 77.3896 51.6901 78.4796 51.6901 79.8196Z" fill="white"/>
<path d="M51.6901 90.8704C51.6901 92.2104 50.6001 93.3004 49.2601 93.3004C47.9201 93.3004 46.8301 92.2104 46.8301 90.8704C46.8301 89.5304 47.9201 88.4404 49.2601 88.4404C50.6101 88.4404 51.6901 89.5304 51.6901 90.8704Z" fill="white"/>
<path d="M51.6901 101.93C51.6901 103.27 50.6001 104.36 49.2601 104.36C47.9201 104.36 46.8301 103.27 46.8301 101.93C46.8301 100.59 47.9201 99.5 49.2601 99.5C50.6101 99.5 51.6901 100.59 51.6901 101.93Z" fill="white"/>
<path d="M40.2311 79.8196C40.2311 81.1596 39.1411 82.2496 37.8011 82.2496C36.4611 82.2496 35.3711 81.1596 35.3711 79.8196C35.3711 78.4796 36.4611 77.3896 37.8011 77.3896C39.1511 77.3896 40.2311 78.4796 40.2311 79.8196Z" fill="white"/>
<path d="M40.2311 90.8704C40.2311 92.2104 39.1411 93.3004 37.8011 93.3004C36.4611 93.3004 35.3711 92.2104 35.3711 90.8704C35.3711 89.5304 36.4611 88.4404 37.8011 88.4404C39.1511 88.4404 40.2311 89.5304 40.2311 90.8704Z" fill="white"/>
<path d="M40.2311 101.93C40.2311 103.27 39.1411 104.36 37.8011 104.36C36.4611 104.36 35.3711 103.27 35.3711 101.93C35.3711 100.59 36.4611 99.5 37.8011 99.5C39.1511 99.5 40.2311 100.59 40.2311 101.93Z" fill="white"/>
<path d="M28.7702 79.8196C28.7702 81.1596 27.6802 82.2496 26.3402 82.2496C25.0002 82.2496 23.9102 81.1596 23.9102 79.8196C23.9102 78.4796 25.0002 77.3896 26.3402 77.3896C27.6902 77.3896 28.7702 78.4796 28.7702 79.8196Z" fill="white"/>
<path d="M28.7702 90.8704C28.7702 92.2104 27.6802 93.3004 26.3402 93.3004C25.0002 93.3004 23.9102 92.2104 23.9102 90.8704C23.9102 89.5304 25.0002 88.4404 26.3402 88.4404C27.6902 88.4404 28.7702 89.5304 28.7702 90.8704Z" fill="white"/>
<path d="M28.7702 101.93C28.7702 103.27 27.6802 104.36 26.3402 104.36C25.0002 104.36 23.9102 103.27 23.9102 101.93C23.9102 100.59 25.0002 99.5 26.3402 99.5C27.6902 99.5 28.7702 100.59 28.7702 101.93Z" fill="white"/>
<path d="M17.3092 79.8196C17.3092 81.1596 16.2192 82.2496 14.8792 82.2496C13.5392 82.2496 12.4492 81.1596 12.4492 79.8196C12.4492 78.4796 13.5392 77.3896 14.8792 77.3896C16.2292 77.3896 17.3092 78.4796 17.3092 79.8196Z" fill="white"/>
<path d="M17.3092 90.8704C17.3092 92.2104 16.2192 93.3004 14.8792 93.3004C13.5392 93.3004 12.4492 92.2104 12.4492 90.8704C12.4492 89.5304 13.5392 88.4404 14.8792 88.4404C16.2292 88.4404 17.3092 89.5304 17.3092 90.8704Z" fill="white"/>
<path d="M17.3112 101.93C17.3112 103.27 16.2212 104.36 14.8812 104.36C13.5412 104.36 12.4512 103.27 12.4512 101.93C12.4512 100.59 13.5412 99.5 14.8812 99.5C16.2312 99.5 17.3112 100.59 17.3112 101.93Z" fill="white"/>
<path d="M5.85 79.8196C5.85 81.1596 4.76 82.2496 3.42 82.2496C2.09 82.2396 1 81.1596 1 79.8196C1 78.4796 2.09 77.3896 3.43 77.3896C4.77 77.3896 5.85 78.4796 5.85 79.8196Z" fill="white"/>
<path d="M5.85 90.8704C5.85 92.2104 4.76 93.3004 3.42 93.3004C2.09 93.3004 1 92.2104 1 90.8704C1 89.5304 2.09 88.4404 3.43 88.4404C4.77 88.4404 5.85 89.5304 5.85 90.8704Z" fill="white"/>
<path d="M5.85023 101.93C5.85023 103.27 4.76023 104.36 3.42023 104.36C2.08023 104.36 0.990234 103.27 0.990234 101.93C0.990234 100.59 2.08023 99.5 3.42023 99.5C4.77023 99.5 5.85023 100.59 5.85023 101.93Z" fill="white"/>
<path d="M46.8398 2.43C46.8398 1.09 47.9298 0 49.2698 0C50.6098 0 51.6998 1.09 51.6998 2.43C51.6998 3.77 50.6098 4.86 49.2698 4.86C47.9298 4.85 46.8398 3.77 46.8398 2.43Z" fill="white"/>
<path d="M49.2698 15.9098C50.6119 15.9098 51.6998 14.8219 51.6998 13.4798C51.6998 12.1378 50.6119 11.0498 49.2698 11.0498C47.9278 11.0498 46.8398 12.1378 46.8398 13.4798C46.8398 14.8219 47.9278 15.9098 49.2698 15.9098Z" fill="white"/>
<path d="M51.6901 24.5404C51.6901 25.8804 50.6001 26.9704 49.2601 26.9704C47.9201 26.9704 46.8301 25.8804 46.8301 24.5404C46.8301 23.2004 47.9201 22.1104 49.2601 22.1104C50.6101 22.1104 51.6901 23.2004 51.6901 24.5404Z" fill="white"/>
<path d="M49.2698 38.0202C50.6119 38.0202 51.6998 36.9322 51.6998 35.5902C51.6998 34.2481 50.6119 33.1602 49.2698 33.1602C47.9278 33.1602 46.8398 34.2481 46.8398 35.5902C46.8398 36.9322 47.9278 38.0202 49.2698 38.0202Z" fill="white"/>
<path d="M49.2698 49.0797C50.6119 49.0797 51.6998 47.9918 51.6998 46.6497C51.6998 45.3077 50.6119 44.2197 49.2698 44.2197C47.9278 44.2197 46.8398 45.3077 46.8398 46.6497C46.8398 47.9918 47.9278 49.0797 49.2698 49.0797Z" fill="white"/>
<path d="M51.6901 57.6995C51.6901 59.0395 50.6001 60.1295 49.2601 60.1295C47.9201 60.1295 46.8301 59.0395 46.8301 57.6995C46.8301 56.3595 47.9201 55.2695 49.2601 55.2695C50.6101 55.2795 51.6901 56.3595 51.6901 57.6995Z" fill="white"/>
<path d="M49.2698 71.1901C50.6119 71.1901 51.6998 70.1021 51.6998 68.7601C51.6998 67.418 50.6119 66.3301 49.2698 66.3301C47.9278 66.3301 46.8398 67.418 46.8398 68.7601C46.8398 70.1021 47.9278 71.1901 49.2698 71.1901Z" fill="white"/>
<path d="M40.2311 2.43C40.2311 3.77 39.1411 4.86 37.8011 4.86C36.4611 4.86 35.3711 3.77 35.3711 2.43C35.3711 1.09 36.4711 0 37.8111 0C39.1511 0 40.2311 1.09 40.2311 2.43Z" fill="white"/>
<path d="M37.8089 15.9098C39.151 15.9098 40.2389 14.8219 40.2389 13.4798C40.2389 12.1378 39.151 11.0498 37.8089 11.0498C36.4669 11.0498 35.3789 12.1378 35.3789 13.4798C35.3789 14.8219 36.4669 15.9098 37.8089 15.9098Z" fill="white"/>
<path d="M40.2311 24.5404C40.2311 25.8804 39.1411 26.9704 37.8011 26.9704C36.4611 26.9704 35.3711 25.8804 35.3711 24.5404C35.3711 23.2004 36.4611 22.1104 37.8011 22.1104C39.1511 22.1104 40.2311 23.2004 40.2311 24.5404Z" fill="white"/>
<path d="M37.8089 38.0202C39.151 38.0202 40.2389 36.9322 40.2389 35.5902C40.2389 34.2481 39.151 33.1602 37.8089 33.1602C36.4669 33.1602 35.3789 34.2481 35.3789 35.5902C35.3789 36.9322 36.4669 38.0202 37.8089 38.0202Z" fill="white"/>
<path d="M37.8089 49.0797C39.151 49.0797 40.2389 47.9918 40.2389 46.6497C40.2389 45.3077 39.151 44.2197 37.8089 44.2197C36.4669 44.2197 35.3789 45.3077 35.3789 46.6497C35.3789 47.9918 36.4669 49.0797 37.8089 49.0797Z" fill="white"/>
<path d="M40.2311 57.6995C40.2311 59.0395 39.1411 60.1295 37.8011 60.1295C36.4611 60.1295 35.3711 59.0395 35.3711 57.6995C35.3711 56.3595 36.4611 55.2695 37.8011 55.2695C39.1511 55.2795 40.2311 56.3595 40.2311 57.6995Z" fill="white"/>
<path d="M37.8089 71.1901C39.151 71.1901 40.2389 70.1021 40.2389 68.7601C40.2389 67.418 39.151 66.3301 37.8089 66.3301C36.4669 66.3301 35.3789 67.418 35.3789 68.7601C35.3789 70.1021 36.4669 71.1901 37.8089 71.1901Z" fill="white"/>
<path d="M28.7702 2.43C28.7702 3.77 27.6802 4.86 26.3402 4.86C25.0002 4.86 23.9102 3.77 23.9102 2.43C23.9102 1.09 25.0102 0 26.3502 0C27.6902 0 28.7702 1.09 28.7702 2.43Z" fill="white"/>
<path d="M28.7702 13.4798C28.7702 14.8198 27.6802 15.9098 26.3402 15.9098C25.0002 15.9098 23.9102 14.8198 23.9102 13.4798C23.9102 12.1398 25.0002 11.0498 26.3402 11.0498C27.6902 11.0598 28.7702 12.1398 28.7702 13.4798Z" fill="white"/>
<path d="M28.7702 24.5404C28.7702 25.8804 27.6802 26.9704 26.3402 26.9704C25.0002 26.9704 23.9102 25.8804 23.9102 24.5404C23.9102 23.2004 25.0002 22.1104 26.3402 22.1104C27.6902 22.1104 28.7702 23.2004 28.7702 24.5404Z" fill="white"/>
<path d="M28.7702 35.5902C28.7702 36.9302 27.6802 38.0202 26.3402 38.0202C25.0002 38.0202 23.9102 36.9302 23.9102 35.5902C23.9102 34.2502 25.0002 33.1602 26.3402 33.1602C27.6902 33.1702 28.7702 34.2502 28.7702 35.5902Z" fill="white"/>
<path d="M28.7702 46.6497C28.7702 47.9897 27.6802 49.0797 26.3402 49.0797C25.0002 49.0797 23.9102 47.9897 23.9102 46.6497C23.9102 45.3097 25.0002 44.2197 26.3402 44.2197C27.6902 44.2197 28.7702 45.3097 28.7702 46.6497Z" fill="white"/>
<path d="M28.7702 57.6995C28.7702 59.0395 27.6802 60.1295 26.3402 60.1295C25.0002 60.1295 23.9102 59.0395 23.9102 57.6995C23.9102 56.3595 25.0002 55.2695 26.3402 55.2695C27.6902 55.2795 28.7702 56.3595 28.7702 57.6995Z" fill="white"/>
<path d="M28.7702 68.7601C28.7702 70.1001 27.6802 71.1901 26.3402 71.1901C25.0002 71.1901 23.9102 70.1001 23.9102 68.7601C23.9102 67.4201 25.0002 66.3301 26.3402 66.3301C27.6902 66.3301 28.7702 67.4201 28.7702 68.7601Z" fill="white"/>
<path d="M17.3112 2.43C17.3112 3.77 16.2212 4.86 14.8812 4.86C13.5412 4.86 12.4512 3.77 12.4512 2.43C12.4512 1.09 13.5512 0 14.8912 0C16.2312 0 17.3112 1.09 17.3112 2.43Z" fill="white"/>
<path d="M17.3092 13.4798C17.3092 14.8198 16.2192 15.9098 14.8792 15.9098C13.5392 15.9098 12.4492 14.8198 12.4492 13.4798C12.4492 12.1398 13.5392 11.0498 14.8792 11.0498C16.2292 11.0598 17.3092 12.1398 17.3092 13.4798Z" fill="white"/>
<path d="M17.3092 24.5404C17.3092 25.8804 16.2192 26.9704 14.8792 26.9704C13.5392 26.9704 12.4492 25.8804 12.4492 24.5404C12.4492 23.2004 13.5392 22.1104 14.8792 22.1104C16.2292 22.1104 17.3092 23.2004 17.3092 24.5404Z" fill="white"/>
<path d="M17.3092 35.5902C17.3092 36.9302 16.2192 38.0202 14.8792 38.0202C13.5392 38.0202 12.4492 36.9302 12.4492 35.5902C12.4492 34.2502 13.5392 33.1602 14.8792 33.1602C16.2292 33.1702 17.3092 34.2502 17.3092 35.5902Z" fill="white"/>
<path d="M17.3092 46.6497C17.3092 47.9897 16.2192 49.0797 14.8792 49.0797C13.5392 49.0797 12.4492 47.9897 12.4492 46.6497C12.4492 45.3097 13.5392 44.2197 14.8792 44.2197C16.2292 44.2197 17.3092 45.3097 17.3092 46.6497Z" fill="white"/>
<path d="M17.3092 57.6995C17.3092 59.0395 16.2192 60.1295 14.8792 60.1295C13.5392 60.1295 12.4492 59.0395 12.4492 57.6995C12.4492 56.3595 13.5392 55.2695 14.8792 55.2695C16.2292 55.2795 17.3092 56.3595 17.3092 57.6995Z" fill="white"/>
<path d="M17.3112 68.7601C17.3112 70.1001 16.2212 71.1901 14.8812 71.1901C13.5412 71.1901 12.4512 70.1001 12.4512 68.7601C12.4512 67.4201 13.5412 66.3301 14.8812 66.3301C16.2312 66.3301 17.3112 67.4201 17.3112 68.7601Z" fill="white"/>
<path d="M5.85 2.43C5.85 3.77 4.76 4.86 3.42 4.86C2.09 4.85 1 3.77 1 2.43C1 1.09 2.09 0 3.43 0C4.77 0 5.85 1.09 5.85 2.43Z" fill="white"/>
<path d="M5.85 13.4798C5.85 14.8198 4.76 15.9098 3.42 15.9098C2.09 15.9098 1 14.8198 1 13.4798C1 12.1398 2.09 11.0498 3.43 11.0498C4.77 11.0598 5.85 12.1398 5.85 13.4798Z" fill="white"/>
<path d="M5.85 24.5404C5.85 25.8804 4.76 26.9704 3.42 26.9704C2.09 26.9604 1 25.8804 1 24.5404C1 23.2004 2.09 22.1104 3.43 22.1104C4.77 22.1104 5.85 23.2004 5.85 24.5404Z" fill="white"/>
<path d="M5.85 35.5902C5.85 36.9302 4.76 38.0202 3.42 38.0202C2.09 38.0202 1 36.9302 1 35.5902C1 34.2502 2.09 33.1602 3.43 33.1602C4.77 33.1702 5.85 34.2502 5.85 35.5902Z" fill="white"/>
<path d="M5.85 46.6497C5.85 47.9897 4.76 49.0797 3.42 49.0797C2.09 49.0797 1 47.9897 1 46.6497C1 45.3097 2.09 44.2197 3.43 44.2197C4.77 44.2197 5.85 45.3097 5.85 46.6497Z" fill="white"/>
<path d="M5.85 57.6995C5.85 59.0395 4.76 60.1295 3.42 60.1295C2.09 60.1295 1 59.0495 1 57.6995C1 56.3595 2.09 55.2695 3.43 55.2695C4.77 55.2795 5.85 56.3595 5.85 57.6995Z" fill="white"/>
<path d="M5.85 68.7601C5.85 70.1001 4.76 71.1901 3.42 71.1901C2.09 71.1901 1 70.1001 1 68.7601C1 67.4201 2.09 66.3301 3.43 66.3301C4.77 66.3301 5.85 67.4201 5.85 68.7601Z" fill="white"/>
</g>
</svg>
