<svg width="99" height="99" viewBox="0 0 99 99" fill="none" xmlns="http://www.w3.org/2000/svg">
<g opacity="0.15">
<path d="M92.4288 48.0291C93.7788 46.6791 95.9588 46.6791 97.2988 48.0291C98.6488 49.3791 98.6488 51.5591 97.2988 52.8991C95.9488 54.2491 93.7688 54.2491 92.4288 52.8991C91.0888 51.5591 91.0888 49.3791 92.4288 48.0291Z" fill="white"/>
<path d="M83.7684 65.0191C85.6737 65.0191 87.2184 63.4745 87.2184 61.5691C87.2184 59.6638 85.6737 58.1191 83.7684 58.1191C81.863 58.1191 80.3184 59.6638 80.3184 61.5691C80.3184 63.4745 81.863 65.0191 83.7684 65.0191Z" fill="white"/>
<path d="M70.2277 70.2293C71.5777 68.8793 73.7577 68.8793 75.0977 70.2293C76.4477 71.5793 76.4477 73.7593 75.0977 75.0993C73.7477 76.4493 71.5677 76.4493 70.2277 75.0993C68.8877 73.7593 68.8877 71.5793 70.2277 70.2293Z" fill="white"/>
<path d="M59.13 81.3299C60.48 79.9799 62.66 79.9799 64 81.3299C65.35 82.6799 65.35 84.8599 64 86.1999C62.65 87.5499 60.47 87.5499 59.13 86.1999C57.79 84.8599 57.79 82.6799 59.13 81.3299Z" fill="white"/>
<path d="M50.4695 98.3199C52.3749 98.3199 53.9195 96.7753 53.9195 94.8699C53.9195 92.9645 52.3749 91.4199 50.4695 91.4199C48.5641 91.4199 47.0195 92.9645 47.0195 94.8699C47.0195 96.7753 48.5641 98.3199 50.4695 98.3199Z" fill="white"/>
<path d="M80.9285 36.5291C82.2785 35.1791 84.4585 35.1791 85.7985 36.5291C87.1485 37.8791 87.1485 40.0591 85.7985 41.3991C84.4485 42.7491 82.2685 42.7491 80.9285 41.3991C79.5785 40.0491 79.5785 37.8691 80.9285 36.5291Z" fill="white"/>
<path d="M72.2586 53.5094C74.164 53.5094 75.7086 51.9648 75.7086 50.0594C75.7086 48.154 74.164 46.6094 72.2586 46.6094C70.3532 46.6094 68.8086 48.154 68.8086 50.0594C68.8086 51.9648 70.3532 53.5094 72.2586 53.5094Z" fill="white"/>
<path d="M58.7273 58.7293C60.0773 57.3793 62.2573 57.3793 63.5973 58.7293C64.9473 60.0793 64.9473 62.2593 63.5973 63.5993C62.2473 64.9493 60.0673 64.9493 58.7273 63.5993C57.3773 62.2493 57.3773 60.0693 58.7273 58.7293Z" fill="white"/>
<path d="M50.0594 75.7096C51.9648 75.7096 53.5094 74.165 53.5094 72.2596C53.5094 70.3542 51.9648 68.8096 50.0594 68.8096C48.154 68.8096 46.6094 70.3542 46.6094 72.2596C46.6094 74.165 48.154 75.7096 50.0594 75.7096Z" fill="white"/>
<path d="M41.3983 85.7997C40.0483 87.1497 37.8683 87.1497 36.5283 85.7997C35.1883 84.4497 35.1783 82.2697 36.5283 80.9297C37.8783 79.5897 40.0583 79.5797 41.3983 80.9297C42.7483 82.2697 42.7483 84.4497 41.3983 85.7997Z" fill="white"/>
<path d="M69.4191 25.0193C70.7691 23.6693 72.9491 23.6693 74.2891 25.0193C75.6391 26.3693 75.6391 28.5493 74.2891 29.8893C72.9391 31.2293 70.7591 31.2393 69.4191 29.8893C68.0791 28.5493 68.0791 26.3693 69.4191 25.0193Z" fill="white"/>
<path d="M58.3175 36.1199C59.6675 34.7699 61.8475 34.7699 63.1875 36.1199C64.5375 37.4699 64.5375 39.6499 63.1875 40.9899C61.8375 42.3399 59.6575 42.3399 58.3175 40.9899C56.9775 39.6499 56.9775 37.4699 58.3175 36.1199Z" fill="white"/>
<path d="M47.2198 47.2195C48.5698 45.8695 50.7498 45.8695 52.0898 47.2195C53.4398 48.5695 53.4398 50.7495 52.0898 52.0895C50.7398 53.4395 48.5598 53.4395 47.2198 52.0895C45.8798 50.7495 45.8798 48.5695 47.2198 47.2195Z" fill="white"/>
<path d="M36.1183 58.3191C37.4683 56.9691 39.6483 56.9691 40.9883 58.3191C42.3383 59.6691 42.3383 61.8491 40.9883 63.1891C39.6383 64.5391 37.4583 64.5391 36.1183 63.1891C34.7783 61.8491 34.7783 59.6691 36.1183 58.3191Z" fill="white"/>
<path d="M29.8884 74.2897C28.5384 75.6397 26.3584 75.6397 25.0184 74.2897C23.6684 72.9397 23.6684 70.7597 25.0184 69.4197C26.3684 68.0697 28.5484 68.0697 29.8884 69.4197C31.2384 70.7697 31.2384 72.9497 29.8884 74.2897Z" fill="white"/>
<path d="M57.9188 13.5193C59.2688 12.1693 61.4488 12.1693 62.7888 13.5193C64.1388 14.8693 64.1388 17.0493 62.7888 18.3893C61.4388 19.7393 59.2588 19.7393 57.9188 18.3893C56.5688 17.0393 56.5688 14.8593 57.9188 13.5193Z" fill="white"/>
<path d="M49.2488 30.4996C51.1542 30.4996 52.6988 28.955 52.6988 27.0496C52.6988 25.1442 51.1542 23.5996 49.2488 23.5996C47.3434 23.5996 45.7988 25.1442 45.7988 27.0496C45.7988 28.955 47.3434 30.4996 49.2488 30.4996Z" fill="white"/>
<path d="M38.1492 41.5992C40.0546 41.5992 41.5992 40.0546 41.5992 38.1492C41.5992 36.2438 40.0546 34.6992 38.1492 34.6992C36.2438 34.6992 34.6992 36.2438 34.6992 38.1492C34.6992 40.0546 36.2438 41.5992 38.1492 41.5992Z" fill="white"/>
<path d="M24.618 46.8191C25.968 45.4691 28.148 45.4691 29.488 46.8191C30.838 48.1691 30.838 50.3491 29.488 51.6891C28.138 53.0391 25.958 53.0391 24.618 51.6891C23.268 50.3391 23.268 48.1591 24.618 46.8191Z" fill="white"/>
<path d="M15.95 63.7994C17.8554 63.7994 19.4 62.2548 19.4 60.3494C19.4 58.444 17.8554 56.8994 15.95 56.8994C14.0446 56.8994 12.5 58.444 12.5 60.3494C12.5 62.2548 14.0446 63.7994 15.95 63.7994Z" fill="white"/>
<path d="M51.279 2.00957C52.629 3.35957 52.629 5.53957 51.279 6.87957C49.929 8.22957 47.749 8.22957 46.409 6.87957C45.059 5.52957 45.059 3.34957 46.409 2.00957C47.749 0.65957 49.939 0.65957 51.279 2.00957Z" fill="white"/>
<path d="M37.7488 18.9996C39.6542 18.9996 41.1988 17.455 41.1988 15.5496C41.1988 13.6442 39.6542 12.0996 37.7488 12.0996C35.8434 12.0996 34.2988 13.6442 34.2988 15.5496C34.2988 17.455 35.8434 18.9996 37.7488 18.9996Z" fill="white"/>
<path d="M29.0778 29.0798C27.7278 30.4298 25.5478 30.4298 24.2078 29.0798C22.8578 27.7298 22.8578 25.5498 24.2078 24.2098C25.5578 22.8598 27.7378 22.8598 29.0778 24.2098C30.4278 25.5498 30.4278 27.7398 29.0778 29.0798Z" fill="white"/>
<path d="M17.9782 40.1794C16.6282 41.5294 14.4482 41.5294 13.1082 40.1794C11.7582 38.8294 11.7582 36.6494 13.1082 35.3094C14.4582 33.9594 16.6382 33.9594 17.9782 35.3094C19.3282 36.6494 19.3282 38.8394 17.9782 40.1794Z" fill="white"/>
<path d="M6.87859 51.28C5.52859 52.63 3.34859 52.63 2.00859 51.28C0.658594 49.93 0.658594 47.75 2.00859 46.41C3.35859 45.06 5.53859 45.06 6.87859 46.41C8.22859 47.75 8.22859 49.94 6.87859 51.28Z" fill="white"/>
</g>
</svg>
