<svg width="255" height="152" viewBox="0 0 255 152" fill="none" xmlns="http://www.w3.org/2000/svg">
<g opacity="0.5">
<path fill-rule="evenodd" clip-rule="evenodd" d="M183.858 144.604C206.625 145.154 229.892 144.054 251.661 151.855C252.958 152.315 254.386 151.645 254.855 150.345C255.314 149.045 254.645 147.615 253.348 147.145C231.069 139.164 207.274 140.164 183.978 139.604C182.601 139.564 181.453 140.664 181.423 142.044C181.383 143.424 182.481 144.564 183.858 144.604Z" fill="#FDB12E"/>
<path fill-rule="evenodd" clip-rule="evenodd" d="M181.813 111.483C188.91 104.94 196.655 100.038 206.018 97.6086C207.355 97.2626 208.154 95.8973 207.814 94.5611C207.465 93.2249 206.098 92.4218 204.77 92.7679C194.589 95.4083 186.155 100.691 178.44 107.801C177.422 108.735 177.352 110.318 178.29 111.335C179.218 112.35 180.805 112.417 181.813 111.483Z" fill="#FDB12E"/>
<path fill-rule="evenodd" clip-rule="evenodd" d="M162.07 40.0481C165.324 28.8714 171.732 20.1282 181.553 13.8143C182.711 13.0692 183.051 11.521 182.302 10.3598C181.563 9.19864 180.016 8.86056 178.858 9.60567C167.989 16.5967 160.882 26.2721 157.279 38.6468C156.89 39.971 157.658 41.3613 158.976 41.7473C160.303 42.1344 161.691 41.3722 162.07 40.0481Z" fill="#FDB12E"/>
<path fill-rule="evenodd" clip-rule="evenodd" d="M49.931 24.8802C47.9946 27.1635 46.2579 29.6238 44.7806 32.2432C44.1219 33.4094 42.964 35.8877 42.7844 38.013C42.5848 40.2774 43.3532 42.1877 45.3295 43.1938C47.9546 44.528 50.0507 44.389 51.6677 43.5819C53.2248 42.8068 54.4424 41.2835 55.211 39.2412C56.6782 35.3377 56.4586 29.3718 55.69 25.9674C57.7562 23.831 60.0219 21.8937 62.4474 20.1715C80.5134 7.34462 107.014 12.0743 127.405 31.2531C134.542 37.9681 137.975 52.0701 139.762 67.2853C142.547 90.9757 140.96 117.436 140.74 125.188C140.69 127.102 140.87 128.238 140.97 128.465C141.439 129.581 142.267 129.871 142.846 129.981C143.685 130.131 144.353 129.971 144.892 129.691C145.621 129.307 146.22 128.631 146.499 127.588C146.649 127.012 146.689 126.21 146.669 125.355C146.649 124.762 146.529 124.113 146.649 123.688C147.427 120.966 148.366 118.308 149.284 115.63C152.348 106.63 156.311 98.1958 160.713 89.7715C174.696 63.0037 188.221 34.7206 211.148 14.3266C212.176 13.4115 212.276 11.8293 211.357 10.7971C210.449 9.76499 208.872 9.67095 207.834 10.5871C184.448 31.3841 170.554 60.1542 156.291 87.4522C152.548 94.6182 149.114 101.794 146.26 109.3C146.549 96.0225 146.439 77.6428 144.014 61.3804C141.858 46.9173 137.756 34.1355 130.819 27.6075C108.481 6.59751 79.3456 2.03988 59.5628 16.0919C57.4467 17.5961 55.4306 19.2504 53.5542 21.0446C43.2036 2.31694 21.0453 -5.18919 1.46209 3.76811C0.204451 4.34119 -0.344506 5.82541 0.224424 7.0806C0.803335 8.33578 2.2805 8.88988 3.53814 8.3168C21.1849 0.245631 41.1974 7.44864 49.931 24.8802ZM51.3782 31.15C50.5697 32.2942 49.8211 33.4804 49.1224 34.7066C48.7531 35.3647 48.1143 36.6299 47.8448 37.8681C47.7849 38.1581 47.775 38.6121 47.775 38.8222C48.4637 39.1622 49.0026 39.3263 49.4418 39.1052C49.9908 38.8332 50.2703 38.1931 50.5398 37.478C51.2185 35.6837 51.4381 33.3054 51.3782 31.15Z" fill="#FDB12E"/>
</g>
</svg>
