<svg width="37" height="95" viewBox="0 0 37 95" fill="none" xmlns="http://www.w3.org/2000/svg">
<path fill-rule="evenodd" clip-rule="evenodd" d="M1.07292 27.8181C1.11682 28.0216 1.16484 28.2195 1.21211 28.4144C1.29865 28.7712 1.38269 29.1177 1.43434 29.4689C1.50046 30.2234 1.57282 30.9771 1.64508 31.7299L1.64509 31.7299C1.82757 33.6308 2.00951 35.5259 2.08921 37.4157C2.33016 46.8493 2.57111 56.2829 2.84506 65.6721L3.3905 83.8962C3.39173 84.1733 3.39295 84.4505 3.42718 84.6832C3.46264 85.193 3.37627 85.6811 2.72398 85.816C2.1491 85.9396 1.771 85.5195 1.62513 85.0654C1.37903 84.4674 1.19894 83.7806 1.10766 83.16C1.07202 82.7996 1.03544 82.4385 0.998802 82.0769C0.785332 79.9701 0.570247 77.8472 0.532657 75.7562C0.288761 60.6575 0.122279 45.5476 0.708318 30.4466C0.704637 29.6151 0.778362 28.7724 0.852086 27.9297L0.852099 27.9296C0.852099 27.9296 0.929508 27.9183 1.07292 27.8181ZM36.4576 0.936494L36.4576 0.936738C36.442 1.16683 36.4264 1.39693 36.3997 1.61874C35.4009 10.9562 34.6013 20.3041 34.1671 29.7176C33.434 44.0873 32.9445 58.5008 33.3179 72.8673C33.3962 75.55 33.5075 78.1881 33.6187 80.8263C33.6428 81.2586 33.6554 81.6133 33.635 82.0125C33.6375 82.5668 33.5067 83.0217 32.9318 83.1453C32.357 83.2689 31.9789 82.8488 31.833 82.3947C31.5869 81.7967 31.3738 81.1544 31.3155 80.4894L31.3061 80.3995L31.3061 80.3994C31.1125 78.554 30.9113 76.636 30.9141 74.8033C30.732 53.6737 31.4801 32.6854 34.2536 11.7577C34.5602 9.36232 34.9751 6.98629 35.39 4.61027L35.39 4.61004C35.5974 3.42198 35.8049 2.23392 35.9988 1.04343C36.075 0.754967 36.1512 0.466503 36.1944 0.222478C36.2718 0.211168 36.3936 0.232988 36.5154 0.254807C36.4888 0.476516 36.4732 0.7065 36.4576 0.936494ZM8.62258 23.7831L8.62256 23.783C8.54515 23.7943 8.46774 23.8056 8.32432 23.9058C8.31537 24.3825 8.31752 24.8675 8.31967 25.3525L8.31966 25.3526L8.31967 25.3526C8.32181 25.8376 8.32396 26.3226 8.315 26.7993C8.27583 29.5312 8.23567 32.2644 8.19551 34.9986L8.19481 35.0461L8.19443 35.0722C8.00086 48.2472 7.80696 61.4447 7.71891 74.6267C7.67241 78.3177 7.85994 81.9744 8.0482 85.6452L8.04821 85.6454L8.04823 85.6457L8.04824 85.6458C8.12518 87.1461 8.20224 88.6486 8.26349 90.1568C8.3014 91.221 8.49413 92.2625 8.68685 93.304L8.68686 93.3041C8.74391 93.6919 8.84536 94.1129 9.09023 94.4337C9.27929 94.6438 9.65616 94.7868 9.88839 94.7528C10.1206 94.7189 10.429 94.3965 10.4722 94.1525C10.5586 93.6645 10.5676 93.1877 10.5321 92.6779C10.4486 90.9463 10.3449 89.2177 10.2414 87.4909L10.2413 87.4908L10.2413 87.4905L10.2413 87.4903L10.2413 87.4902C10.0578 84.4309 9.8747 81.3773 9.8046 78.3234C9.64404 70.8774 9.53873 63.4497 9.43348 56.0256C9.35618 50.573 9.2789 45.1224 9.17978 39.6678C9.05869 34.8124 8.90461 30.0015 8.75052 25.1906C8.75947 24.7139 8.69102 24.2485 8.62258 23.7831ZM14.9103 29.441C14.9914 30.2611 15.0725 31.0813 15.0762 31.9127C15.1252 34.2512 15.1725 36.592 15.2197 38.934C15.3753 46.6396 15.5311 54.3577 15.7518 62.0429C15.8861 66.5943 16.0847 71.1362 16.2823 75.6571C16.3913 78.1502 16.5001 80.6369 16.5976 83.1152L16.5976 83.1153C16.6444 83.7027 16.6913 84.2901 16.6163 84.8557C16.5846 85.1773 16.2215 85.6661 15.9893 85.7001C15.6797 85.7453 15.2026 85.4585 15.0795 85.1595C14.8562 84.7167 14.699 84.185 14.6191 83.642C14.566 83.1269 14.5066 82.6127 14.447 82.0976L14.447 82.0972C14.2989 80.8171 14.1503 79.5313 14.0971 78.2113C13.6805 64.0888 13.4631 49.9768 14.0756 35.8623C14.1414 34.3265 14.2515 32.7309 14.3577 31.1917C14.3811 30.8531 14.4042 30.5171 14.4267 30.1852C14.4699 29.9412 14.5131 29.6971 14.5119 29.42C14.588 29.424 14.6463 29.4248 14.6961 29.4255C14.7767 29.4267 14.835 29.4275 14.9103 29.441ZM23.1693 30.8153C23.1364 30.6618 23.1032 30.5061 23.0714 30.3483C22.8836 30.4154 22.8062 30.4267 22.8062 30.4267C22.7997 31.4577 22.7932 32.4887 22.7423 33.4866C22.1607 44.5856 22.1323 55.6829 22.2588 66.7576C22.2621 70.0058 22.3429 73.2428 22.4236 76.4797C22.4374 77.1115 22.5287 77.7321 22.653 78.3082C22.7659 78.8068 23.0665 79.2383 23.6528 79.1922C24.2835 79.1793 24.5361 78.7462 24.5781 78.225C24.6746 77.5374 24.7268 76.8166 24.7015 76.1072C24.6573 74.8657 24.5937 73.627 24.5301 72.3883C24.4665 71.1496 24.403 69.9109 24.3587 68.6694C24.1329 60.1448 23.94 51.5758 23.7916 43.0399L23.4125 32.3983C23.4016 31.9027 23.2885 31.3734 23.1693 30.8153Z" fill="#F1554C"/>
</svg>
