<svg width="68" height="67" viewBox="0 0 68 67" fill="none" xmlns="http://www.w3.org/2000/svg">
<path d="M28.1918 19.1022C27.5432 19.1699 26.9288 19.2715 26.2803 19.3392C21.7404 19.8471 17.2347 20.5581 12.8997 21.9464C11.6026 22.3527 10.3397 22.8606 9.11084 23.4362C8.32576 23.8087 7.5748 24.2827 6.92626 24.8584C5.01475 26.5175 5.21955 28.8538 7.43827 30.1067C8.39402 30.6484 9.48631 30.987 10.5103 31.3933C10.8175 31.5288 11.1247 31.5965 11.432 31.8335C11.193 31.9012 10.9541 31.969 10.7151 32.0367C8.73536 32.5107 6.72145 32.9848 4.84408 33.8313C3.92246 34.2376 3.03498 34.7116 2.18163 35.2534C1.66962 35.5581 1.22588 35.9983 0.850403 36.4385C-0.24189 37.759 -0.276024 39.3843 0.71386 40.8064C1.22587 41.5513 1.94269 42.127 2.69363 42.601C4.02486 43.4475 5.42436 44.057 6.89213 44.5649C10.4079 45.8177 14.0603 46.6981 17.7126 47.4768C21.5015 48.2556 25.3245 48.9667 29.1134 49.7116C29.3523 49.7455 29.5571 49.8132 29.7961 50.0163C29.4889 50.1518 29.2158 50.2534 28.9086 50.3888C26.6216 51.303 24.4029 52.3527 22.4231 53.8087C21.5015 54.4859 20.6482 55.2646 19.8631 56.0773C19.1463 56.8222 18.7025 57.8041 18.6001 58.8538C18.4294 60.3436 18.9756 61.6303 19.9996 62.7138C20.853 63.6281 21.9111 64.2375 23.0375 64.7454C24.9832 65.5919 27.0312 66.066 29.1134 66.3707C34.8138 67.1834 40.5483 67.1495 46.2487 66.6077C50.4472 66.2014 54.5774 65.4904 58.6052 64.2714C60.1071 63.7974 61.609 63.2556 62.9744 62.4768C63.9643 61.9351 64.8517 61.2917 65.6368 60.4452C67.5825 58.2443 67.7873 55.6032 66.2512 53.1653C65.6368 52.2172 64.8859 51.4385 63.9984 50.7274C62.7696 49.7455 61.4725 48.9328 60.0388 48.2895C58.4004 47.5446 56.7278 46.8674 55.0894 46.1563C54.8505 46.0547 54.6115 45.9531 54.2019 45.7838C54.5433 45.6145 54.7139 45.513 54.9187 45.4114C56.762 44.5649 58.6052 43.7522 60.3802 42.838C62.1552 41.9238 63.7936 40.8064 65.1931 39.3504C65.8758 38.6394 66.4902 37.8606 66.9681 37.048C68.2652 34.8132 68.3334 32.4769 67.207 30.1067C66.4902 28.6168 65.432 27.3979 64.2032 26.2805C62.872 25.0615 61.3701 24.0796 59.834 23.1654C59.5951 23.0299 59.322 22.8606 59.0148 22.6575C59.2879 22.4882 59.4927 22.3866 59.6975 22.285C61.9162 21.2015 63.6571 19.6101 64.92 17.4769C65.9099 15.7839 66.695 13.9893 67.0363 12.0593C67.3777 10.434 66.9681 8.97801 65.944 7.65747C64.7835 6.16763 63.3157 5.05025 61.5407 4.40691C60.3802 3.96673 59.1855 3.56041 57.9567 3.28953C54.9187 2.64619 51.8467 2.03671 48.8087 1.56267C42.4257 0.546873 36.0085 -0.0626066 29.5571 0.00511338C25.9048 0.0389734 22.2524 0.309853 18.6684 1.12249C17.1323 1.46109 15.6304 1.86741 14.2651 2.61233C13.3435 3.12023 12.3877 3.66199 11.6368 4.37305C9.31564 6.43851 9.28151 9.18117 11.5002 11.3482C12.1488 11.9916 12.8997 12.601 13.6848 13.0412C15.255 13.9216 16.8593 14.7681 18.4977 15.4114C21.4674 16.5965 24.5053 17.6123 27.475 18.662C27.7139 18.7636 27.9528 18.8313 28.1918 18.9329C28.1918 19.0006 28.1918 19.0344 28.1918 19.1022Z" fill="#3CC3A3"/>
</svg>
