<svg width="88" height="90" viewBox="0 0 88 90" fill="none" xmlns="http://www.w3.org/2000/svg">
<path d="M88 43.3481C87.6146 66.6436 70.9798 86.2301 48.5645 89.5487C25.5712 92.9324 4.31197 76.9249 0.586795 53.6944C-2.30343 35.8649 5.72497 17.775 19.3411 8.33967C27.3053 2.67846 36.2329 -0.119608 45.9954 0.140677C47.0873 0.205749 48.1149 -0.0545366 49.2068 0.0105347C50.5555 0.0756061 51.9685 0.0756061 53.3173 0.335892C70.4017 3.7196 83.6325 17.1243 86.8439 34.4984C87.422 37.4266 87.6146 40.4198 88 43.3481Z" fill="#FDB12E"/>
<path fill-rule="evenodd" clip-rule="evenodd" d="M41.6932 7.81852C43.8127 7.75344 44.3266 8.46923 43.8127 10.0309C43.7511 10.1872 43.6931 10.3509 43.6343 10.5167L43.6343 10.5168C43.4485 11.0417 43.2552 11.5875 42.9136 11.9831C41.4363 13.8051 39.8949 15.562 38.3534 17.2539C38.031 17.635 37.5287 17.8794 37.0723 18.1015L37.0723 18.1016C36.9832 18.1449 36.8959 18.1874 36.812 18.2299C35.7843 18.6204 34.7567 18.4902 33.9217 17.7094C33.0226 16.9285 32.7657 15.8223 33.151 14.7161C33.4079 13.9352 33.7933 13.0893 34.3713 12.5687C35.977 11.1372 37.7112 9.83573 39.4453 8.59937C40.0619 8.23497 40.8429 8.03715 41.3608 7.90597C41.4903 7.87317 41.6033 7.84454 41.6932 7.81852ZM53.1892 17.9053C52.4827 20.1828 54.0241 22.3301 56.5932 22.3952C58.0704 22.3952 59.2265 21.289 60.1899 19.9225C60.3606 19.6697 60.5313 19.4197 60.7009 19.1713L60.701 19.1712C61.361 18.2045 62.0043 17.2621 62.5663 16.2785C63.0159 15.5627 63.4013 14.7168 63.594 13.8709C63.9793 12.4393 63.1444 11.5934 61.6672 11.7886C60.8964 11.8537 60.1257 12.1139 59.4834 12.5044C58.0704 13.2852 56.6574 14.1962 55.3087 15.1072C54.281 15.7579 53.5103 16.734 53.1892 17.9053ZM25.2296 17.3097L25.2296 17.3098C25.0815 17.7366 24.9684 18.0625 24.8003 18.3606C24.5273 18.7673 24.2584 19.178 23.9894 19.5888C23.1826 20.8211 22.3757 22.0534 21.4605 23.1759C19.7905 25.2581 18.0564 27.2103 16.3223 29.1624C15.8085 29.7481 15.2304 30.2686 14.5239 30.6591C13.4321 31.2447 12.3402 31.1796 11.3768 30.3988C10.4134 29.5528 10.1565 28.4466 10.5418 27.2753C10.7345 26.6246 11.1199 25.9089 11.6337 25.4534C11.9897 25.1248 12.3437 24.7952 12.6972 24.4661L12.6978 24.4655C15.2144 22.1227 17.7052 19.8038 20.6897 18.0352C21.4605 17.5797 22.3596 17.1893 23.1946 16.8639C23.5852 16.732 24.0344 16.6892 24.6017 16.6352C24.874 16.6093 25.1735 16.5808 25.5068 16.5386C25.3958 16.8309 25.3079 17.0843 25.2297 17.3096L25.2296 17.3097ZM38.7393 34.5632C36.5556 34.4982 34.9499 32.4159 35.528 30.2685C35.7206 29.4877 36.1702 28.6417 36.6841 28.1212C38.6751 26.104 40.7304 24.1518 42.9141 22.3298C43.8133 21.549 45.0978 21.1585 46.2539 20.8332C47.988 20.3777 48.6945 21.2236 48.1165 22.9805C48.0523 23.1432 47.988 23.3222 47.9238 23.5011C47.8596 23.68 47.7954 23.859 47.7311 24.0217C46.1897 27.3403 44.0702 30.3336 41.758 33.1967C40.9873 34.1077 39.9596 34.5632 38.7393 34.5632ZM37.261 68.6598C37.1968 69.8961 36.7472 71.1976 36.0407 72.4339C34.4992 75.1018 32.5082 77.3793 30.3887 79.5918C29.3611 80.6329 28.1407 81.0233 26.7277 80.5678C25.0578 80.0473 24.0302 78.2903 24.4798 76.4683C24.6725 75.6875 25.0578 74.9066 25.6359 74.321C27.2416 72.499 28.9115 70.7421 30.7098 69.0502C31.4732 68.332 32.4218 67.8014 33.3198 67.2992L33.3199 67.2991L33.32 67.2991C33.4796 67.2098 33.6376 67.1214 33.7927 67.033C34.2423 66.7727 34.7561 66.6426 35.27 66.5775C36.683 66.3823 37.3252 66.9679 37.261 68.6598ZM49.3827 58.5818C49.2853 58.8408 49.1877 59.1003 49.0801 59.3548C49.2085 61.7624 51.2638 63.3241 53.4475 62.5433C54.2825 62.283 55.1174 61.8275 55.6312 61.1768C57.4296 58.9644 59.1637 56.6218 60.7694 54.2142C61.3475 53.3682 61.6044 52.262 61.7328 51.2859C61.9255 49.7893 61.0906 49.0084 59.6133 49.3338C58.9068 49.4639 58.1361 49.7242 57.4938 50.1147C54.7321 51.8716 52.2914 54.0189 50.3004 56.6869C49.8838 57.2496 49.634 57.9137 49.3827 58.5818ZM45.7402 78.6168C45.8687 78.3565 45.9757 78.0818 46.0828 77.807C46.2969 77.2575 46.511 76.708 46.8963 76.2742C47.8597 75.103 48.9516 73.9967 50.1719 72.9556C51.6491 71.7193 53.1904 70.6132 54.7318 69.507L54.732 69.5069L54.732 69.5068C55.6312 68.9212 56.5946 68.3355 57.558 68.0102C58.0719 67.815 58.8426 67.9451 59.2922 68.2705C59.9344 68.6609 59.8702 69.4417 59.5491 70.0925C59.0995 71.0035 58.6499 71.8494 58.1361 72.6302C56.98 74.257 55.7597 75.9489 54.4751 77.4455C53.5117 78.6168 52.4199 79.658 51.328 80.634C50.8142 81.0895 50.1077 81.4149 49.4012 81.6101C47.4101 82.1957 45.8045 80.7642 45.7402 78.6168ZM77.2048 60.5509C77.2313 60.4666 77.2547 60.3924 77.2749 60.331C77.4033 57.9885 76.2472 56.8822 74.4489 57.2076C73.5497 57.4679 72.5863 57.9234 71.8798 58.509C70.0814 60.0707 68.4115 61.7626 66.7416 63.4545C66.1636 64.0401 65.7782 64.821 65.5213 65.6018C64.7506 68.2047 66.9343 70.5472 69.5034 69.7664C70.3383 69.5712 71.1091 69.0506 71.7513 68.4649C73.6782 66.708 75.2196 64.6257 76.5042 62.3482C76.829 61.7449 77.0625 61.0029 77.2048 60.5509ZM53.1265 37.8813C52.7412 39.5081 53.9615 40.9397 55.9525 40.9397C56.081 40.8746 56.2523 40.8096 56.4426 40.7373C56.8232 40.5927 57.2799 40.4191 57.6224 40.1588C58.4574 39.378 59.2281 38.5321 59.8704 37.6211C60.898 36.1895 61.8614 34.6928 62.7606 33.1962C63.3576 32.1728 63.8888 31.116 64.4248 30.0498L64.4249 30.0498L64.4249 30.0497L64.4249 30.0496L64.425 30.0496L64.425 30.0495L64.425 30.0495L64.4251 30.0494L64.4251 30.0493L64.4254 30.0487C64.639 29.624 64.8533 29.1977 65.0728 28.7714C65.2655 28.3809 65.4582 27.9905 65.5224 27.6001C65.7793 26.6891 65.3297 26.2336 64.4948 26.5589C63.9809 26.7541 63.4671 27.0144 63.0175 27.3398C60.0155 29.3078 57.5529 31.9317 55.086 34.5603L55.0849 34.5615C54.8604 34.8006 54.636 35.0398 54.4111 35.2785C53.7688 35.9292 53.3192 36.9703 53.1265 37.8813ZM46.9611 41.6562C47.4749 42.4371 47.2822 43.1529 46.9611 43.7385C46.4473 44.8447 45.805 45.951 45.0985 46.927C44.9028 47.2134 44.7071 47.5017 44.5108 47.7908L44.5107 47.791L44.5107 47.791L44.5107 47.791L44.5107 47.7911L44.5106 47.7911L44.5106 47.7911L44.5106 47.7912C43.5472 49.2102 42.5688 50.6513 41.5018 52.0026C40.7953 52.9136 39.9603 53.8246 39.0611 54.5404C37.9051 55.3863 36.6205 55.3212 35.6571 54.5404C34.6295 53.7595 34.2441 52.393 34.8222 51.0265C35.2717 50.0505 35.914 49.0093 36.749 48.2935C38.6832 46.5789 40.6742 45.0371 42.7222 43.4513L43.1075 43.1529C43.814 42.6323 44.5847 42.2419 45.4196 41.9165C45.7822 41.7329 46.1768 41.7112 46.5356 41.6915H46.5357C46.6853 41.6833 46.8288 41.6754 46.9611 41.6562ZM33.7136 40.099C33.7602 39.9218 33.8066 39.7456 33.8574 39.5739C33.7932 39.5088 33.729 39.46 33.6647 39.4112L33.6647 39.4112C33.6005 39.3624 33.5363 39.3136 33.472 39.2485C33.2578 39.295 33.0436 39.3379 32.8302 39.3805C32.1481 39.5168 31.4748 39.6514 30.8387 39.8993C27.3062 41.1356 24.416 43.4131 21.7185 46.016C21.3331 46.4064 21.012 46.927 20.8193 47.4475C20.3697 48.6188 20.4982 49.725 21.3973 50.636C22.2965 51.547 23.3884 51.6772 24.5445 51.2217C25.0583 51.0265 25.5721 50.7011 25.9575 50.3107C27.4989 48.8791 28.9761 47.4475 30.3249 45.8858C31.307 44.7152 32.1333 43.334 32.9438 41.979L32.9438 41.9789L32.944 41.9787C33.0345 41.8274 33.1248 41.6764 33.2151 41.526C33.4515 41.0949 33.5835 40.5933 33.7136 40.099ZM17.2865 39.0529C17.1612 39.4759 17.0563 39.9059 16.9519 40.3338C16.7352 41.2221 16.5206 42.1016 16.1304 42.8921C15.2313 44.8442 14.2678 46.7313 13.1118 48.4882C12.5337 49.3341 11.6345 50.115 10.7354 50.6356C9.57926 51.2863 8.35894 51.0911 7.33131 50.1801C6.30367 49.204 6.17522 48.0327 6.62481 46.7313C6.64966 46.6725 6.67452 46.6127 6.69964 46.5522C6.86933 46.1437 7.05159 45.7049 7.33131 45.3648C7.59602 45.062 7.85847 44.758 8.12045 44.4546C9.82898 42.4759 11.518 40.5198 13.6898 39.0529C14.3321 38.5974 15.1028 38.2069 15.8735 37.9467C16.7727 37.6864 17.1581 38.1419 17.2865 39.0529ZM81.7706 38.9223C81.9633 37.751 81.2568 37.0352 79.8438 37.1003C79.7124 37.1446 79.5512 37.1814 79.3779 37.221C79.0429 37.2975 78.6629 37.3842 78.3666 37.5558L78.0422 37.8022L78.042 37.8023C76.1017 39.2758 74.2221 40.7033 72.4577 42.306C71.5585 43.0868 71.1731 44.2581 71.1731 45.4294C71.1089 48.0973 73.5495 49.6591 75.7975 48.2926C76.6324 47.772 77.4032 47.0562 77.917 46.2753C79.0088 44.6486 80.0365 42.9567 80.9999 41.2649C81.3852 40.5491 81.6422 39.7031 81.7706 38.9223ZM29.3611 56.231C29.8106 57.207 29.5537 58.118 29.1684 58.8989C28.4619 60.3305 27.6912 61.762 26.7277 63.0634C25.5074 64.7553 24.1587 66.317 22.8099 67.8787C22.4245 68.3342 21.9107 68.7897 21.3969 69.05C19.7912 69.961 17.9928 68.9849 17.7359 67.1629C17.5433 66.0567 17.9286 65.0807 18.6351 64.2998C21.5253 61.0462 24.8652 58.2482 28.783 56.3611C28.8577 56.3233 28.954 56.3074 29.072 56.288L29.0721 56.288C29.1572 56.274 29.2535 56.2582 29.3611 56.231ZM32.9417 21.7462C33.0011 21.5051 33.0654 21.2449 33.151 20.9629C32.9817 21.001 32.8454 21.0335 32.7326 21.0605C32.4601 21.1256 32.3238 21.1581 32.1876 21.1581C32.0484 21.2387 31.9154 21.313 31.7866 21.385C31.4994 21.5455 31.2333 21.6942 30.9673 21.8739C28.2982 23.6236 26.0982 25.8486 23.8808 28.0912C23.377 28.6008 22.8722 29.1113 22.3608 29.6174C21.5901 30.3982 21.1405 31.3092 21.0763 32.4154C21.0121 33.4566 21.3332 34.3025 22.2324 34.8231C23.1315 35.4087 24.095 35.3437 24.8657 34.758C25.6364 34.1724 26.2787 33.3915 26.8567 32.6107C27.8844 31.1791 28.7835 29.6825 29.6827 28.1858C29.9374 27.7213 30.1921 27.2614 30.4457 26.8036C31.1511 25.5297 31.8473 24.2725 32.5087 22.9801C32.7228 22.6331 32.8227 22.2282 32.9417 21.7462Z" fill="#FBE8DE"/>
</svg>
