<svg width="95" height="77" viewBox="0 0 95 77" fill="none" xmlns="http://www.w3.org/2000/svg">
<g opacity="0.4">
<path fill-rule="evenodd" clip-rule="evenodd" d="M12.6938 15.961C12.6955 15.0528 12.8289 14.364 11.9822 14.114C11.0958 13.8525 10.9285 14.538 10.6336 15.1013C10.4878 15.3795 10.3626 15.7716 9.9306 15.7193C9.48328 15.6659 9.33624 15.3297 9.27222 14.9239C9.23298 14.6757 9.26644 14.3457 8.95253 14.2595C8.58781 14.1596 8.44325 14.4862 8.25903 14.7167C6.70146 16.6636 5.46772 18.811 4.46114 21.0833C3.83869 22.4892 3.28356 23.9387 3.1167 25.4885C2.88581 27.6356 4.50657 28.8281 6.48297 27.9767C7.65104 27.4735 8.59029 26.6557 9.28585 25.6116C11.2862 22.609 12.2226 19.2247 12.6938 15.961ZM16.0834 15.0575C15.7662 20.63 14.3206 25.8617 11.3496 30.625C10.5627 31.8863 9.45 32.8409 8.25342 33.6919C7.51491 34.2174 6.6624 33.9439 5.85201 33.9886C5.60336 34.0023 4.87765 33.2894 5.04122 34.3608C5.05113 34.4276 4.63066 34.3687 4.43074 34.2771C3.10489 33.6678 2.01323 32.8243 1.34823 31.4586C-0.549268 27.5611 -0.346053 23.6761 1.34617 19.7915C2.83063 16.3843 4.72235 13.2686 7.55456 10.7779C8.98657 9.51868 10.7767 9.25589 12.4817 8.88575C13.9228 8.57281 15.3746 9.94022 15.7488 11.5683C16.0115 12.7111 16.0545 13.8787 16.0834 15.0575Z" fill="#FDB12E"/>
<path fill-rule="evenodd" clip-rule="evenodd" d="M84.9588 9.9635C84.1145 12.736 84.2054 15.2562 85.4936 17.6573C86.4473 19.4351 87.724 19.5171 89.0239 17.9483C89.9739 16.8018 90.5344 15.4464 90.9763 14.038C91.6401 11.9232 90.885 10.4663 88.8248 9.70693C87.9962 9.40145 87.5175 9.59834 87.3589 10.4364C87.2218 11.1618 86.9513 11.8362 86.1562 11.8022C85.2673 11.7636 85.3346 10.8799 85.1628 10.2516C85.1537 10.218 85.1211 10.1902 84.9588 9.9635ZM81.5415 15.704C81.4775 11.2507 82.6642 7.66987 84.9784 4.45424C85.4856 3.74836 86.0556 3.09056 86.8069 2.63545C87.8618 1.99589 89.0254 2.34323 89.348 3.50215C89.5289 4.15373 89.8461 4.29176 90.414 4.38958C92.9707 4.82977 94.9083 6.69788 94.9884 9.25323C95.1549 14.5484 93.5135 19.3316 89.9101 23.2141C87.2927 26.0339 84.4229 25.3629 82.7769 21.8389C81.8005 19.7477 81.5436 17.5112 81.5415 15.704Z" fill="#FDB12E"/>
<path fill-rule="evenodd" clip-rule="evenodd" d="M56.1182 24.768C56.1706 25.6691 56.3751 26.7087 57.328 27.1659C58.2028 27.5858 58.8934 26.8165 59.451 26.2378C61.7462 23.8574 63.1733 20.9866 63.9709 17.7942C64.1782 16.9656 63.664 16.5594 62.9412 16.3153C62.2572 16.084 61.809 16.208 61.5302 16.9462C61.3518 17.4183 61.099 17.9899 60.439 17.8962C59.864 17.8145 59.9809 17.2085 59.8161 16.8251C59.7323 16.6307 59.8 16.3348 59.5162 16.2879C59.2647 16.2465 59.0871 16.4625 58.9917 16.6477C57.6836 19.1869 56.3978 21.7364 56.1182 24.768ZM67.68 16.1363C67.4904 20.2016 65.9576 23.8724 64.2943 27.5008C63.308 29.6516 62.0585 31.5579 59.8781 32.7326C57.9595 33.7663 56.1777 33.4177 55.1145 31.4638C53.4421 28.3891 52.7862 25.1291 53.8196 21.6772C54.7213 18.6647 56.0988 15.905 58.1821 13.5217C58.501 13.1573 58.9066 12.7839 59.3044 12.8946C60.1693 13.135 60.4993 12.5186 60.8033 12.0366C61.6265 10.7288 62.823 10.4159 64.1985 10.6526C65.718 10.9141 66.9369 11.6523 67.4557 13.2336C67.7667 14.1811 67.8196 15.1486 67.68 16.1363Z" fill="#FDB12E"/>
<path fill-rule="evenodd" clip-rule="evenodd" d="M82.6739 37.461C82.3393 37.7946 82.3236 38.1432 82.2596 38.4715C82.1869 38.8433 81.9209 39.0534 81.6194 38.8744C80.8763 38.4321 80.5174 38.9656 80.1085 39.385C79.0049 40.5162 78.0099 41.7634 77.2709 43.1403C76.4696 44.6325 75.6213 46.1736 75.8381 48.0048C75.9727 49.1434 76.0777 50.3939 77.3354 50.7707C78.624 51.1566 79.598 50.3106 80.4427 49.407C80.4935 49.3527 80.5265 49.2823 80.5744 49.2247C82.4162 46.9926 83.2385 44.2864 83.8981 41.5615C84.2538 40.0913 83.8606 38.6095 82.6739 37.461ZM87.5454 38.6368C87.4661 42.145 86.3067 45.3536 85.0011 48.5601C84.1003 50.7731 82.8942 52.7299 81.3544 54.518C80.0062 56.0828 77.2446 56.7078 75.3488 55.5903C74.6388 55.1717 74.5128 54.2457 73.7375 53.9307C74.6388 52.9479 73.2782 52.5376 73.1973 51.7899C72.8673 48.7562 72.9614 45.8398 74.3802 42.9923C75.7689 40.204 77.5858 37.8563 80.0583 36.0035C80.3333 35.7971 80.4052 35.5691 80.4358 35.2483C80.4783 34.8048 80.5366 34.3414 80.7047 33.9352C81.6708 31.5979 83.287 31.217 85.1725 32.8952C86.88 34.4152 87.6074 36.3695 87.5454 38.6368Z" fill="#FDB12E"/>
<path fill-rule="evenodd" clip-rule="evenodd" d="M22.9707 40.7956C23.0161 41.3717 22.924 42.0328 23.5093 42.3209C24.0545 42.5891 24.4911 42.1029 24.8979 41.7899C25.4675 41.3514 25.9351 40.8026 26.3147 40.195C27.8239 37.7781 28.8185 35.1655 29.2547 32.3387C29.365 31.6216 29.3794 30.7329 28.6764 30.5978C27.9338 30.4552 26.8677 30.2811 26.4134 31.397C26.287 31.7078 26.1288 32.0174 25.9277 32.2844C24.0306 34.8095 23.5948 37.8336 22.9707 40.7956ZM32.167 31.8187C31.9204 35.717 30.7755 39.6394 28.6739 43.2782C28.4112 43.7321 28.0928 44.1532 27.8293 44.6066C26.7632 46.4399 25.0805 47.1649 23.0665 47.2146C22.3709 47.2316 21.9831 46.6787 21.6692 46.0967C20.5333 43.9907 20.2438 41.7425 20.7076 39.4321C21.6271 34.8545 23.3375 30.5877 25.9169 26.6832C26.3778 25.9848 26.9701 25.4119 27.5769 24.8636C28.2625 24.2443 28.8462 24.4785 29.0783 25.3887C29.1576 25.7008 29.1349 26.0631 29.5686 26.1825C31.2984 26.6591 31.5293 28.2309 31.9584 29.6112C32.143 30.2064 32.0873 30.8766 32.167 31.8187Z" fill="#FDB12E"/>
<path fill-rule="evenodd" clip-rule="evenodd" d="M39.4465 58.9605C40.3675 58.139 40.6823 57.1455 41.1746 56.2361C42.0792 54.5632 42.4885 52.7867 42.7376 50.943C42.7789 50.6363 42.7619 50.308 42.3997 50.1998C42.0457 50.0941 41.8615 50.3896 41.7037 50.6259C41.5608 50.8406 41.5501 51.2319 41.3712 51.3189C40.767 51.6141 41.1767 53.1037 39.8843 52.5719C39.7191 52.5044 39.5654 52.8036 39.762 52.95C40.6203 53.587 40.0731 54.285 39.8389 54.9288C39.38 56.1917 39.0504 57.4509 39.4465 58.9605ZM38.5532 64.0202C39.7857 63.442 39.2802 62.8422 38.5664 62.5695C36.9353 61.9453 36.8333 60.4386 36.5343 59.1317C36.343 58.2961 36.5041 57.3183 36.7226 56.4595C37.711 52.5724 39.4912 49.0297 41.6328 45.6673C41.9852 45.1136 42.6055 44.7526 42.9587 44.1598C43.1115 43.9041 43.4073 43.7387 43.7393 43.8515C44.0673 43.963 44.1631 44.1955 44.1268 44.5569C44.0594 45.2309 44.3519 45.7395 44.8459 46.2273C46.2064 47.5694 46.0792 49.3729 45.9355 51.0193C45.5691 55.2235 44.1565 59.1201 41.8695 62.6619C41.1731 63.7409 40.2017 64.569 38.5532 64.0202Z" fill="#FDB12E"/>
<path fill-rule="evenodd" clip-rule="evenodd" d="M36.003 8.72425C35.9151 8.41753 35.8271 8.11039 35.6991 7.66274C34.7193 8.90746 34.0597 10.1978 33.6599 11.6025C33.3951 12.533 34.1179 13.338 35.0869 13.2866C36.0634 13.2352 36.7858 12.6914 37.3091 11.9187C38.6895 9.88027 39.3045 7.53051 39.6589 5.15547C39.7642 4.44752 39.6799 3.48963 39.2413 2.70831C38.8621 2.03394 39.6291 0.334104 40.4209 0.0783621C41.4122 -0.24204 41.8827 0.477103 42.2201 1.20246C42.8855 2.63122 42.653 4.18183 42.5167 5.65245C42.2077 8.97792 41.2106 12.1214 39.5003 15.0096C38.739 16.2954 37.8654 17.4771 36.2439 17.7109C33.481 18.1084 32.3481 17.817 31.6302 15.0316C30.6839 11.3612 32.6901 6.26921 35.8085 4.06785C36.1538 3.82371 36.5028 3.61771 36.9518 3.79221C37.464 3.99075 37.3896 4.46286 37.407 4.84916C37.4714 6.28745 36.8295 7.51352 36.2864 8.76529C36.1918 8.75161 36.0976 8.73793 36.003 8.72425Z" fill="#FDB12E"/>
<path fill-rule="evenodd" clip-rule="evenodd" d="M55.1157 76.9901C54.2313 77.0668 53.5845 76.7186 53.5453 75.8714C53.4767 74.3746 53.1446 72.9795 53.5792 71.341C54.3102 68.5842 55.4333 66.1039 56.9776 63.7981C57.6596 62.7805 57.3816 61.6493 57.812 60.6322C58.1705 59.7849 58.5926 59.0119 59.2564 58.3786C59.6864 57.9682 60.144 57.6607 60.757 58.0142C61.3323 58.3458 61.5727 58.7106 61.6086 59.5093C61.8333 64.5064 59.9482 68.9614 58.2692 73.4793C57.8975 74.4783 57.3044 75.3383 56.686 76.1939C56.2709 76.7675 55.7691 77.0593 55.1157 76.9901Z" fill="#FDB12E"/>
</g>
</svg>
