<svg width="45" height="106" viewBox="0 0 45 106" fill="none" xmlns="http://www.w3.org/2000/svg">
<g opacity="0.4">
<path fill-rule="evenodd" clip-rule="evenodd" d="M2.3301 82.9554V73.2457C1.07687 76.6203 1.13044 79.7999 2.3301 82.9554ZM39.9393 25.2486C38.5332 29.2801 37.1264 33.3123 35.7197 37.3445C38.1142 33.645 39.5107 29.6086 39.9393 25.2486ZM35.5903 0.451264C38.1394 -0.328242 40.3239 -0.330053 41.5873 2.34478C42.1387 3.51253 41.7306 5.70311 40.7573 6.71146C42.0051 6.47356 42.6901 6.74889 42.8694 8.17748C43.0169 9.35489 43.8253 10.4387 44.042 11.6197C44.9178 16.3831 45.5944 21.193 44.2039 25.9594C43.847 27.1815 42.3548 28.1083 43.4774 29.6208C42.6467 32.958 41.8287 36.3037 40.047 39.2955C39.6208 40.0104 39.046 40.6371 38.5301 41.2971C36.3487 44.0861 34.1709 46.878 31.9624 49.6452C31.8137 49.8312 31.4056 49.7877 31.1456 49.9097C30.9186 50.0154 30.7296 50.2044 30.5232 50.3559C31.4869 51.6088 30.038 51.9995 29.5643 52.3678C28.1365 53.4764 26.5016 54.3168 24.9456 55.2588C24.7651 55.3687 24.484 55.4121 24.4003 55.5685C23.4811 57.2797 22.2153 58.3846 20.1862 58.7101C19.4705 58.8254 18.8872 59.7691 18.0354 60.0608C17.9132 60.4466 17.9084 60.9568 17.6514 61.199C14.9698 63.7283 12.2478 66.2147 9.4964 68.7507C9.63304 70.2155 7.76103 73.2448 6.22429 73.7163C6.56679 73.9373 6.81358 74.0973 6.82141 74.1021C6.60592 74.9589 6.24476 75.7203 6.25198 76.4787C6.28629 80.346 6.39343 84.1639 7.89767 87.8815C9.43862 91.6908 10.4336 95.7194 11.8578 99.5813C12.3622 100.95 13.3795 102.144 14.2535 103.352C14.7687 104.064 14.9277 104.535 14.0512 105.066C11.7139 106.484 10.0002 106.404 8.51465 104.014C6.5072 100.785 4.50878 97.4233 3.30732 93.8482C1.82475 89.4356 0.976627 84.7767 0.201336 80.1661C-0.631139 75.2162 1.60505 71.088 4.49493 67.3016C7.65509 63.1589 11.4677 59.7341 15.8444 56.8914C21.1402 53.4522 25.5145 49.0034 29.4547 44.0758C33.5822 38.9133 36.572 33.1989 38.0335 26.7522C39.1507 21.827 39.5829 16.8499 38.2598 11.8528C37.2991 8.22518 36.4342 4.5722 35.5367 0.928266C35.5012 0.783958 35.5698 0.613686 35.5903 0.451264Z" fill="#3CC3A3"/>
<path fill-rule="evenodd" clip-rule="evenodd" d="M24.9446 22.8743C22.6109 24.1737 21.9831 24.1218 20.2002 22.3635C18.2957 20.4857 16.482 18.5161 14.622 16.593C14.3187 16.2796 13.937 16.0339 13.6704 15.6951C13.2015 15.1004 12.7934 14.4586 12.3594 13.836C13.2346 13.6972 14.1706 13.2999 14.9706 13.4864C15.93 13.7104 16.9473 14.2629 17.6383 14.97C20.0996 17.4896 22.4327 20.1349 24.9446 22.8743Z" fill="#3CC3A3"/>
<path fill-rule="evenodd" clip-rule="evenodd" d="M7.07092 39.5527C5.09357 39.0425 3.03014 38.5721 1.01607 37.9418C0.58508 37.8065 0.334074 37.0904 0 36.6424C0.441218 36.3326 0.845116 35.9227 1.33389 35.7409C1.82326 35.5574 2.40894 35.5018 2.93262 35.5628C5.31568 35.8411 7.69332 36.1732 10.0704 36.5053C10.5001 36.5651 10.9438 36.6593 11.3296 36.8447C11.5939 36.9715 11.9665 37.312 11.9388 37.5064C11.8954 37.8174 11.6131 38.2551 11.3368 38.3457C9.99993 38.7835 8.63053 39.1228 7.07092 39.5527Z" fill="#3CC3A3"/>
<path fill-rule="evenodd" clip-rule="evenodd" d="M27.5666 89.5464C26.4163 90.9031 25.4321 90.9816 24.4299 90.1629C23.0834 89.0627 21.723 87.9626 20.5101 86.7236C20.1218 86.3263 20.1808 85.4888 20.0352 84.853C20.9465 84.7661 22.2033 84.2559 22.7059 84.6695C24.4497 86.1029 25.9311 87.8575 27.5666 89.5464Z" fill="#3CC3A3"/>
<path fill-rule="evenodd" clip-rule="evenodd" d="M34.7006 79.7814C31.3298 81.2559 28.9961 78.7833 26.3217 77.8263C26.0767 77.7381 25.8119 76.8662 25.919 76.772C26.4499 76.3047 27.3077 75.5101 27.6779 75.6743C30.0278 76.7183 32.2814 77.9814 34.5568 79.1915C34.6464 79.2392 34.6326 79.4825 34.7006 79.7814Z" fill="#3CC3A3"/>
<path fill-rule="evenodd" clip-rule="evenodd" d="M15.0738 27.2664C14.2552 27.3721 13.3463 27.7573 12.6342 27.5291C10.6797 26.9011 8.78904 26.0564 6.91763 25.1996C6.51915 25.0173 6.30847 24.4219 6.01172 24.0162C6.49989 23.7589 7.05969 23.2016 7.46358 23.2982C9.08279 23.6859 10.6887 24.1913 12.2309 24.8222C13.2909 25.2558 14.2372 25.9682 15.2346 26.5563C15.181 26.793 15.1274 27.0297 15.0738 27.2664Z" fill="#3CC3A3"/>
<path fill-rule="evenodd" clip-rule="evenodd" d="M34.091 63.5723C33.8352 64.1549 33.7979 64.4653 33.6245 64.5999C31.8091 66.0044 30.0178 67.4481 28.1132 68.7209C27.5727 69.0819 26.686 68.9225 25.9102 68.7317C28.2974 66.5327 30.4409 64.1235 34.091 63.5723Z" fill="#3CC3A3"/>
</g>
</svg>
