<svg width="48" height="48" viewBox="0 0 48 48" fill="none" xmlns="http://www.w3.org/2000/svg">
<path d="M34.3323 23.1057C34.3323 24.3527 33.5823 25.3634 32.6576 25.3634C31.7325 25.3634 31.1953 24.2025 31.1953 22.9556C31.1953 21.7086 31.7325 20.8477 32.6576 20.8477C33.5823 20.8477 34.3323 21.8584 34.3323 23.1057V23.1057Z" fill="#E8916F"/>
<path d="M44.8633 23.1057C44.8633 24.3527 45.6133 25.3634 46.538 25.3634C47.463 25.3634 48.0002 24.2025 48.0002 22.9556C48.0002 21.7086 47.463 20.8477 46.538 20.8477C45.6129 20.8477 44.8633 21.8584 44.8633 23.1057V23.1057Z" fill="#D98868"/>
<path d="M37.8906 30.1055H41.3063V35.5789H37.8906V30.1055Z" fill="#D98868"/>
<path d="M33.4492 25.1932V20.5771C33.4492 17.375 36.0449 14.7793 39.2471 14.7793H39.948C43.1498 14.7793 45.7455 17.375 45.7455 20.5771V25.1932C45.7455 28.5862 42.9949 31.3368 39.6023 31.3368H39.5924C36.1998 31.3368 33.4492 28.5862 33.4492 25.1932V25.1932Z" fill="#EBAD88"/>
<path d="M39.943 14.7793H39.2509C39.0212 14.7793 38.7949 14.7943 38.5723 14.8203C41.4565 15.1572 43.6956 17.6112 43.6956 20.5907V25.179C43.6956 28.2302 41.48 30.7626 38.5723 31.2511C38.9055 31.3071 39.2476 31.3368 39.5969 31.3368C42.9924 31.3368 45.7449 28.5796 45.7449 25.179V20.5903C45.7449 17.3812 43.1473 14.7793 39.943 14.7793V14.7793Z" fill="#E8916F"/>
<path d="M47.5906 39.623V40.4042C47.5906 40.6115 47.4225 40.7792 47.2156 40.7792H31.9805C31.7732 40.7792 31.6055 40.6115 31.6055 40.4042V39.623C31.6055 36.2609 33.9697 33.5352 36.8862 33.5352H42.3098C45.2263 33.5352 47.5906 36.2609 47.5906 39.623Z" fill="#47D5E6"/>
<path d="M42.3096 33.5352H39.4121C42.3286 33.5352 44.6929 36.2609 44.6929 39.623V40.7792H47.2153C47.4222 40.7792 47.5903 40.6115 47.5903 40.4042V39.623C47.5903 36.2609 45.2261 33.5352 42.3096 33.5352Z" fill="#22C0D4"/>
<path d="M37.0371 33.5352H42.1571L39.5973 40.7792L37.0371 33.5352Z" fill="#DCDFE8"/>
<path d="M39.598 40.7781L37.7867 33.1444C37.7483 32.9822 37.578 32.8888 37.4209 32.9434L35.9099 33.4674C35.7572 33.5187 35.6543 33.6619 35.6543 33.8226V36.4817C35.6543 36.5535 35.6818 36.6223 35.7308 36.6743L39.598 40.7781Z" fill="#20B5C7"/>
<path d="M39.5977 40.7781L41.4089 33.1444C41.4474 32.9822 41.6173 32.8888 41.7748 32.9434L43.2858 33.4674C43.4385 33.5187 43.541 33.6619 43.541 33.8226V36.4817C43.541 36.5535 43.5139 36.6223 43.4645 36.6743L39.5977 40.7781Z" fill="#20B5C7"/>
<path d="M33.4235 21.8197C33.4235 21.8197 33.9351 22.0267 34.4602 21.0397C35.0608 19.9114 36.6432 19.2812 38.5398 19.35C40.7286 19.4291 41.7178 18.7168 42.2217 17.9463C42.2649 17.88 42.3645 17.8925 42.3898 17.9672C43.0314 19.8781 43.9022 19.4079 44.4746 21.1745C44.8137 22.2207 45.7025 21.8197 45.7025 21.8197C45.7025 21.8197 48.1488 20.3992 46.8883 18.1437C47.1047 13.6108 43.5558 13.3423 43.5558 13.3423C43.5558 13.3423 41.9335 11.2791 37.4869 12.3525C31.0706 13.9008 32.2098 18.4165 32.2098 18.4165C32.2098 18.4165 31.1064 20.5556 33.4235 21.8197Z" fill="#FFD659"/>
<path d="M46.8873 18.1442C47.1041 13.6116 43.5548 13.3432 43.5548 13.3432C43.5548 13.3432 42.1475 11.5561 38.3652 12.1753C39.1779 12.3394 39.7495 12.6298 40.119 12.8799C40.5098 13.1447 40.9349 13.3575 41.3817 13.5105C42.4075 13.8625 44.1433 14.9336 43.9899 18.1442C44.4887 19.0363 44.4066 19.7969 44.1265 20.3917C44.2502 20.5953 44.3674 20.8461 44.474 21.175C44.8131 22.2212 45.7019 21.8202 45.7019 21.8202C45.7019 21.8202 48.1482 20.3997 46.8873 18.1442V18.1442Z" fill="#FFBD54"/>
<path d="M6.69531 30.1055H10.111V35.5789H6.69531V30.1055Z" fill="#D98868"/>
<path d="M2.25391 25.1932V20.5771C2.25391 17.375 4.84961 14.7793 8.05139 14.7793H8.75232C11.9545 14.7793 14.5498 17.375 14.5498 20.5771V25.1932C14.5498 28.5862 11.7996 31.3368 8.40662 31.3368H8.39709C5.00415 31.3368 2.25391 28.5862 2.25391 25.1932V25.1932Z" fill="#EBAD88"/>
<path d="M8.74768 14.7793H8.05554C7.82593 14.7793 7.59961 14.7943 7.37695 14.8203C10.2612 15.1572 12.5002 17.6112 12.5002 20.5907V25.179C12.5002 28.2302 10.2847 30.7626 7.37695 31.2511C7.71021 31.3071 8.05225 31.3368 8.40161 31.3368C11.7971 31.3368 14.5496 28.5796 14.5496 25.179V20.5903C14.5499 17.3812 11.952 14.7793 8.74768 14.7793V14.7793Z" fill="#E8916F"/>
<path d="M16.3953 39.623V40.4042C16.3953 40.6115 16.2275 40.7792 16.0203 40.7792H0.785156C0.578247 40.7792 0.410156 40.6115 0.410156 40.4042V39.623C0.410156 36.2609 2.77441 33.5352 5.69092 33.5352H11.1145C14.031 33.5352 16.3953 36.2609 16.3953 39.623Z" fill="#FF2C5C"/>
<path d="M11.1143 33.5352H8.2168C11.1337 33.5352 13.4976 36.2609 13.4976 39.623V40.7792H16.02C16.2273 40.7792 16.395 40.6115 16.395 40.4042V39.623C16.395 36.2609 14.0308 33.5352 11.1143 33.5352Z" fill="#E62753"/>
<path d="M5.8418 33.5352H10.9618L8.40161 40.7792L5.8418 33.5352Z" fill="#DCDFE8"/>
<path d="M8.40234 40.7789L6.59033 33.1423C6.55225 32.9812 6.38416 32.8878 6.22705 32.9406L4.71423 33.4492C4.56152 33.5005 4.45898 33.6437 4.45898 33.8044V36.4825C4.45898 36.554 4.48608 36.6232 4.53552 36.6752L8.40234 40.7789Z" fill="#D6244D"/>
<path d="M8.40234 40.7789L10.2144 33.1423C10.2524 32.9812 10.4209 32.8878 10.5776 32.9406L12.0905 33.4492C12.2432 33.5005 12.3461 33.6437 12.3461 33.8044V36.4825C12.3461 36.554 12.3186 36.6232 12.2695 36.6752L8.40234 40.7789Z" fill="#D6244D"/>
<path d="M9.59143 17.7746C9.59143 17.7746 6.00256 19.3885 4.76331 21.4726C3.13477 24.2111 3.09119 27.0346 2.28625 29.7281C2.24011 29.8823 2.0343 29.9115 1.94751 29.7757C1.396 28.9129 0 26.4798 0 23.9507C0 10.4266 9.88733 12.0639 10.329 13.0915C12.323 12.2565 16.322 13.9821 16.322 21.9044C16.322 25.7206 15.8914 28.3471 14.7286 30.0317C14.6353 30.1668 14.4261 30.1272 14.3903 29.9668C14.1661 28.9601 13.5813 26.2132 13.3022 23.7804C12.6632 18.2031 9.59143 17.7746 9.59143 17.7746V17.7746Z" fill="#FFD659"/>
<path d="M10.3281 13.0932C10.1501 12.6794 8.43994 12.1667 6.46094 12.5857C6.81104 12.6706 7.07581 12.8892 7.3999 13.4664C7.83203 14.2358 8.47766 14.8686 9.27856 15.2381C11.4323 16.2328 12.7902 18.3084 13.4365 21.9061C13.5892 22.7553 13.4142 23.5705 13.3669 24.3147C13.6632 26.6038 14.1818 29.0348 14.3894 29.9686C14.4253 30.1286 14.6344 30.1685 14.7278 30.0334C15.8905 28.3488 16.3212 25.7224 16.3212 21.9061C16.3212 13.9839 12.3221 12.2583 10.3281 13.0932V13.0932Z" fill="#FFBD54"/>
<path d="M16.5559 19.3422C16.5559 21.0996 15.4957 22.5242 14.1884 22.5242C12.8806 22.5242 12.1211 20.8883 12.1211 19.1309C12.1211 17.3734 12.8806 16.1602 14.1884 16.1602C15.4957 16.1602 16.5559 17.5847 16.5559 19.3422Z" fill="#E8916F"/>
<path d="M31.4453 19.3422C31.4453 21.0996 32.5055 22.5242 33.8129 22.5242C35.1206 22.5242 35.8801 20.8883 35.8801 19.1309C35.8801 17.3734 35.1206 16.1602 33.8129 16.1602C32.5055 16.1602 31.4453 17.5847 31.4453 19.3422Z" fill="#D98868"/>
<path d="M21.5859 29.207H26.4148V36.9213H21.5859V29.207Z" fill="#D98868"/>
<path d="M15.3086 22.2577V15.804C15.3086 11.2769 18.9784 7.60742 23.5051 7.60742H24.4961C29.0232 7.60742 32.693 11.2769 32.693 15.804V22.2577C32.693 27.0543 28.8042 30.9431 24.0076 30.9431H23.994C19.197 30.9431 15.3086 27.0543 15.3086 22.2577V22.2577Z" fill="#EBAD88"/>
<path d="M24.4888 7.60742H23.5103C23.1854 7.60742 22.8657 7.6283 22.5508 7.66492C26.6289 8.13989 29.7944 11.5988 29.7944 15.7977V22.2646C29.7944 26.5647 26.6619 30.1338 22.5508 30.8226C23.0221 30.9014 23.5059 30.9431 23.9995 30.9431C28.8002 30.9431 32.6915 27.0576 32.6915 22.2646V15.7977C32.6915 11.2743 29.0192 7.60742 24.4888 7.60742V7.60742Z" fill="#E8916F"/>
<path d="M35.2988 42.6206V43.6877C35.2988 43.9987 35.0469 44.2502 34.7363 44.2502H13.2617C12.9512 44.2502 12.6992 43.9987 12.6992 43.6877V42.6206C12.6992 37.8822 16.0416 34.041 20.1652 34.041H27.8329C31.9564 34.041 35.2988 37.8822 35.2988 42.6206Z" fill="#685C79"/>
<path d="M27.833 34.041H24.9355C29.0591 34.041 32.4019 37.8822 32.4019 42.6206V44.2502H34.7365C35.0474 44.2502 35.299 43.9987 35.299 43.6877V42.6206C35.299 37.8822 31.9565 34.041 27.833 34.041V34.041Z" fill="#594F69"/>
<path d="M20.3809 34.041H27.6194L24.0001 44.2502L20.3809 34.041Z" fill="#FFD659"/>
<path d="M28.1799 23.5325C27.8203 23.3861 27.4098 23.5593 27.2637 23.9189C27.2571 23.9357 26.555 25.5906 24.0882 25.5906C21.6339 25.5906 20.7598 23.9526 20.7176 23.8705C20.5455 23.5248 20.1262 23.3828 19.7794 23.5523C19.4304 23.723 19.2858 24.1437 19.4564 24.4927C19.5066 24.5949 20.7195 26.9969 24.0882 26.9969C27.4907 26.9969 28.5242 24.5528 28.5663 24.4488C28.7124 24.0892 28.5395 23.679 28.1799 23.5325Z" fill="#D98868"/>
<path d="M29.4282 17.9748C29.3568 17.9576 27.6569 17.561 25.6475 18.2755C25.2816 18.4058 25.0905 18.8079 25.2205 19.1738C25.323 19.4616 25.594 19.6414 25.8829 19.6414C25.9613 19.6414 26.0408 19.6282 26.1188 19.6004C27.7169 19.032 29.0877 19.3393 29.0986 19.3419C29.4758 19.433 29.856 19.2009 29.9468 18.8233C30.038 18.4457 29.8058 18.066 29.4282 17.9748V17.9748Z" fill="#D98868"/>
<path d="M21.8819 19.6004C21.9599 19.6282 22.0393 19.6414 22.1173 19.6414C22.4066 19.6414 22.6776 19.4616 22.7798 19.1738C22.9102 18.8079 22.719 18.4058 22.3532 18.2755C20.3438 17.561 18.6438 17.9576 18.5721 17.9748C18.196 18.0656 17.9652 18.4432 18.0542 18.82C18.1436 19.1968 18.5223 19.4298 18.8991 19.3426C18.913 19.3393 20.2837 19.032 21.8819 19.6004Z" fill="#D98868"/>
<path d="M23.9994 44.2508L21.4081 33.3645C21.37 33.2037 21.2019 33.1107 21.0452 33.1631L18.6798 33.9559C18.5271 34.0068 18.4238 34.15 18.4238 34.3115V38.2095C18.4238 38.2995 18.467 38.3845 18.5403 38.4372L19.7206 39.2916C19.7935 39.3447 19.8367 39.4293 19.8367 39.5194V41.0868C19.8367 41.1769 19.8799 41.2615 19.9528 41.3142L23.9994 44.2508Z" fill="#50475E"/>
<path d="M24 44.2508L26.5913 33.3645C26.6294 33.2037 26.7975 33.1107 26.9542 33.1631L29.3196 33.9559C29.4723 34.0068 29.5756 34.15 29.5756 34.3115V38.2095C29.5756 38.2995 29.5323 38.3845 29.4591 38.4372L28.2788 39.2916C28.2059 39.3447 28.1627 39.4293 28.1627 39.5194V41.0868C28.1627 41.1769 28.1195 41.2615 28.0466 41.3142L24 44.2508Z" fill="#50475E"/>
<path d="M15.2712 17.5293C15.2712 17.5293 15.9941 17.8204 16.7368 16.4299C17.5857 14.8395 19.8232 13.9514 22.5042 14.0481C25.6639 14.162 27.0551 13.1135 27.7535 12.0013C27.796 11.9343 27.8967 11.9468 27.9216 12.0222C28.8313 14.8054 30.0782 14.106 30.8952 16.6196C31.3742 18.0944 32.6311 17.5293 32.6311 17.5293C32.6311 17.5293 36.0896 15.5272 34.3072 12.3481C34.6134 5.95959 29.5956 5.5813 29.5956 5.5813C29.5956 5.5813 27.3023 2.67358 21.0156 4.18603C11.9442 6.36865 13.5548 12.733 13.5548 12.733C13.5548 12.733 11.9947 15.7477 15.2712 17.5293Z" fill="#8C4A37"/>
<path d="M34.3075 12.3481C34.6137 5.95957 29.5958 5.58128 29.5958 5.58128C29.5958 5.58128 27.7703 3.26683 22.9121 3.84178C25.6191 4.21311 26.6984 5.58128 26.6984 5.58128C26.6984 5.58128 31.7162 5.95957 31.41 12.3481C32.4607 14.2224 31.6898 15.6872 30.8801 16.5742C30.8853 16.5896 30.8904 16.6042 30.8952 16.6196C31.3745 18.0943 32.6314 17.5293 32.6314 17.5293C32.6314 17.5293 36.0899 15.5272 34.3075 12.3481Z" fill="#804231"/>
</svg>
