<svg width="107" height="97" viewBox="0 0 107 97" fill="none" xmlns="http://www.w3.org/2000/svg">
<g opacity="0.4">
<path fill-rule="evenodd" clip-rule="evenodd" d="M24.2598 63.4356C25.843 63.8092 27.3421 63.5756 28.7618 62.7538C27.2038 62.5641 25.7478 63.1179 24.2598 63.4356ZM36.8445 48.0007C36.952 53.1922 35.3972 57.0131 33.2918 60.6011C31.8161 63.1161 29.4059 64.3744 26.499 64.5235C24.0232 64.6505 21.5854 64.4568 19.2242 63.5544C17.4442 62.8748 16.2642 61.5614 15.2794 60.0456C13.4487 57.2267 11.2988 54.5122 11.225 50.928C11.1324 46.4526 12.0496 42.2429 14.9907 38.7092C16.2362 37.2133 17.7143 36.2091 19.8614 36.5456C21.9924 36.8796 22.8523 39.4878 22.8363 41.0504C22.8288 41.7735 22.2284 42.1378 21.8741 42.5621C20.2609 44.4951 19.9318 46.9145 19.1711 49.1704C19.0142 49.6349 19.3325 49.7628 19.6867 49.8402C21.9849 50.3418 24.0718 50.1941 25.6349 48.088C26.4635 46.9721 27.3597 45.9141 27.9075 44.6131C28.1682 43.9947 28.1806 43.4276 27.9516 42.769C27.681 41.9884 27.1332 41.028 28.4985 40.6009C28.7778 40.5135 28.7205 40.2747 28.59 40.0462C28.0171 39.047 28.3478 38.0734 29.4269 37.5465C31.6122 36.479 35.0084 38.4298 35.2193 40.8674C35.2416 41.1237 35.2576 41.4213 35.3931 41.62C36.91 43.8403 36.6126 46.4298 36.8445 48.0007Z" fill="#FEE0AB"/>
<path fill-rule="evenodd" clip-rule="evenodd" d="M66.8686 48.5659C65.6207 48.37 64.4057 48.459 63.2578 49C64.4979 49.1565 65.7335 49.2957 66.8686 48.5659ZM59.9871 23.613C59.4648 24.0671 58.7391 23.8423 58.4306 24.4926C58.838 24.8055 59.2124 24.3701 59.5674 24.4475C60.0624 24.5559 61.0781 24.3804 60.275 25.4467C60.2156 25.5258 60.0773 25.6048 60.2453 25.688C61.6362 26.3784 60.595 27.2663 60.3763 28.0176C60.1489 28.8028 59.7993 29.5549 59.7807 30.3873C59.7552 31.5517 59.7437 32.7165 59.7593 33.8801C59.7782 35.3085 59.999 35.4919 61.408 35.3574C63.8384 35.1252 65.5439 33.3647 65.485 30.9172C65.4364 28.9104 65.833 26.9902 66.2828 25.075C66.5147 24.0882 67.1308 23.2972 68.2218 23.1088C69.5064 22.8865 71.3701 23.6809 71.8487 24.827C72.6543 26.756 73.38 28.7494 73.6654 30.8216C74.2284 34.9124 74.1127 38.9929 72.9719 43.0031C72.5262 44.569 71.9183 46.0951 70.9772 47.3874C69.7396 49.0866 67.8808 49.8511 65.8075 50.0688C63.1881 50.3437 60.6642 50.258 58.4743 48.462C57.9945 48.0683 57.6918 47.5542 57.3651 47.1001C55.2144 44.1087 52.6378 41.2985 52.1279 37.4432C51.5406 33.0034 52.221 28.7449 54.4969 24.8337C55.2865 23.4764 56.3668 22.4573 58.1151 22.6556C58.8289 22.7367 59.4937 22.9495 59.9871 23.613Z" fill="#FEE0AB"/>
<path fill-rule="evenodd" clip-rule="evenodd" d="M50.8379 84.1772C52.0129 84.7774 54.0129 84.7124 54.9648 84.0869C53.5933 84.0103 52.2844 83.9105 50.8379 84.1772ZM63.6661 71.6304C63.7794 75.4435 62.6892 79.2703 60.1398 82.6339C59.08 84.0317 57.6377 84.9072 55.9503 85.2859C53.0516 85.9362 50.2312 85.6634 47.5322 84.3521C45.9622 83.5896 44.9597 82.2907 43.9346 80.9186C42.0297 78.3683 41.0891 75.4212 40.2979 72.4421C39.3926 69.0343 40.0322 65.7489 41.5952 62.5795C42.1323 61.49 42.5001 60.3935 43.6146 59.7411C44.463 59.2444 45.2723 59.4597 46.087 59.7581C46.2822 59.8297 46.5862 60.0632 46.5701 60.1865C46.3428 61.9333 47.8238 63.3924 47.3737 65.174C47.1994 65.864 47.1043 66.5755 46.9948 67.2804C46.6904 69.2387 47.7509 70.6838 49.7522 70.9023C51.7011 71.1151 53.4112 70.5174 54.613 68.9142C55.6035 67.5938 56.314 66.1024 56.6937 64.4744C57.0088 63.1234 58.0693 62.3965 59.44 62.6026C61.7172 62.9449 62.2831 63.5584 62.5277 65.9434C62.5426 66.0916 62.5351 66.2767 62.6192 66.3768C63.8189 67.8202 63.4515 69.586 63.6661 71.6304Z" fill="#FEE0AB"/>
<path fill-rule="evenodd" clip-rule="evenodd" d="M95.0254 31.0862C95.8071 31.2796 96.5872 31.5952 97.3079 31.0099C96.5373 30.9321 95.7676 30.7341 95.0254 31.0862ZM93.4502 14.0705C95.129 14.5957 93.7982 15.5867 93.8044 16.3405C93.8073 16.7105 93.3814 17.129 93.7838 17.521C94.1759 17.9026 94.6718 17.8741 95.1512 17.6808C97.2912 16.8185 98.4486 15.0817 98.9004 12.9487C99.2319 11.3816 99.7781 9.88399 100.11 8.32183C100.408 6.92027 101.83 6.17809 103.234 6.49723C104.91 6.87846 105.958 7.79779 106.19 9.57231C106.466 11.6817 107.059 13.7186 106.996 15.9091C106.85 21.0034 105.415 25.5785 102.269 29.5907C99.3333 33.333 93.7068 33.4957 90.6854 29.7969C89.7056 28.5969 88.7974 27.2201 88.6199 25.5483C88.5907 25.2726 88.407 24.9998 88.2521 24.7523C85.6705 20.6362 85.937 16.3905 87.8501 12.1697C89.1598 9.28131 91.4115 9.42081 93.2422 10.7967C93.4712 10.9689 93.7875 11.1742 93.7348 11.5033C93.6673 11.9259 93.2468 11.716 92.9898 11.8038C92.7455 11.8874 92.4074 11.8982 92.4494 12.2467C92.4926 12.611 92.8365 12.5025 93.0837 12.5286C93.533 12.5758 94.005 12.6056 94.178 13.1379C94.3641 13.7116 93.7163 13.7132 93.4502 14.0705Z" fill="#FEE0AB"/>
<path fill-rule="evenodd" clip-rule="evenodd" d="M15.1718 90.2085C14.9263 90.5735 15.0812 90.8974 15.4469 90.9338C16.0215 90.9906 15.6652 90.561 15.6845 90.3162C15.7121 89.9671 15.8744 90.1887 16.047 90.221C16.4263 90.2922 16.3954 89.9372 16.2401 89.8349C15.9823 89.6643 15.6257 89.5243 15.332 89.5587C14.986 89.5984 15.0799 89.941 15.1718 90.2085ZM13.7305 94.7761C12.8532 94.5031 11.8528 95.5639 11.3166 94.1842C11.3141 94.7806 10.9661 95.6637 11.6555 95.6285C12.2853 95.5962 13.2325 95.6509 13.7305 94.7761ZM19.0162 91.5638C19.6666 91.9529 19.7959 91.1478 20.4829 91.1818C19.5525 91.9107 19.0191 92.7058 18.6571 93.7051C18.4178 94.3653 17.4207 94.7676 16.7848 95.0806C14.5315 96.1895 12.1035 96.9279 9.5603 96.9999C8.79053 97.0219 8.04753 96.5368 7.23904 96.4809C6.98863 96.4639 6.75304 96.259 6.77075 95.9428C6.77487 95.8637 6.91367 95.7192 6.97092 95.7284C7.43591 95.8033 7.76211 95.7644 7.5327 95.1621C7.43014 94.893 7.46762 94.5205 7.11095 94.4199C6.48451 94.2432 6.97627 95.1369 6.49398 95.0955C6.03352 95.4879 6.63484 93.5585 5.79999 94.7929C5.74727 94.7511 5.66861 94.7192 5.64596 94.6646C5.15007 93.4629 3.98697 92.794 3.34035 91.6685C2.7242 90.5965 1.93302 89.6266 1.46802 88.4486C0.0697505 84.9107 -0.373002 81.269 0.327576 77.5254C0.691663 75.5783 1.92148 74.7852 3.69579 75.1317C4.30329 75.2501 4.77322 75.5555 5.01498 76.0763C5.92891 78.0457 7.30782 79.8794 6.59159 82.3109C6.37001 83.063 6.79505 83.8668 7.32759 84.4815C7.65667 84.8611 8.05865 85.0871 8.61466 84.8019C9.67809 84.2563 10.7349 83.7339 11.487 82.7364C12.0241 82.024 12.6641 81.3899 13.2362 80.7027C14.0261 79.7536 14.2419 78.5487 14.3301 77.4079C14.4648 75.6685 15.5793 74.8531 17.195 75.5862C17.8519 75.8842 18.4915 76.3292 18.7683 76.9803C19.501 78.7014 20.3338 80.3559 20.7292 82.2521C21.1155 84.1044 21.2255 85.9033 21.1316 87.7544C21.0908 88.5599 20.5764 89.2611 20.6476 90.1043C20.6608 90.2604 20.3013 90.5828 20.097 90.5981C19.4355 90.6478 19.3948 91.2393 19.0162 91.5638Z" fill="#FEE0AB"/>
<path fill-rule="evenodd" clip-rule="evenodd" d="M84.8568 57.5859C84.1764 58.2913 83.9754 58.3593 83.7464 57.9103C83.4362 57.3022 82.5507 57.0951 82.0936 57.5358C81.8131 57.8059 81.818 58.1579 82.061 58.4098C82.4387 58.8016 84.6492 58.1679 84.8568 57.5859ZM86.6238 66.0261C86.1963 65.6209 85.492 65.9053 85.2725 65.6275C84.5077 64.6594 83.9937 65.8511 83.3487 65.7761C83.2354 65.7629 82.8021 66.1834 82.9265 66.4761C83.0534 66.7737 83.6044 67.0043 83.7647 66.8664C84.588 66.1569 85.7066 66.5767 86.6238 66.0261ZM84.2352 61.4542C83.7805 61.448 83.2508 61.4625 83.1775 62.0867C83.091 62.8214 83.7644 62.4899 84.0976 62.6497C84.5111 62.8488 84.8785 62.4559 85.2212 62.5756C85.5952 62.7055 85.8221 62.5959 85.9576 62.3189C86.1545 61.9166 85.7858 61.6264 85.6211 61.3247C85.4465 61.0064 85.1557 61.2444 84.9452 61.3566C84.7294 61.472 84.5696 61.7539 84.2352 61.4542ZM93.3214 49.7982C93.9058 50.0474 94.3984 50.3537 94.4886 50.9489C94.5586 51.4113 94.022 51.1741 93.7629 51.4759C95.001 51.5048 94.7555 52.5984 94.6245 53.0525C94.2786 54.2488 94.7172 55.3925 94.578 56.5614C94.4861 57.3296 94.3103 58.1074 94.2468 58.8844C94.1814 59.6903 93.6443 58.5797 93.2275 58.6381C93.0088 58.8777 93.0249 59.1294 93.3049 59.2722C93.5924 59.4192 94.1027 59.3894 94.0623 59.7967C94.0133 60.2913 93.8708 61.05 93.55 61.1908C92.6855 61.5699 92.8856 62.4317 92.9388 62.8308C93.0533 63.6917 92.6624 63.5862 92.2073 63.457C91.5492 63.2695 91.1542 63.4806 91.022 64.1222C90.8535 64.941 89.9379 64.806 89.529 65.3826C89.1278 65.9476 88.4997 66.3471 88.5545 67.1923C87.4239 67.0561 87.9466 66.0553 87.4981 65.4476C87.3383 67.4324 85.879 67.398 84.5574 67.5458C84.1183 67.5955 83.6208 67.4258 83.2353 67.5764C82.4264 67.8919 82.4853 67.4986 82.69 66.7573C82.239 67.6406 81.8226 67.9415 81.1879 67.2072C80.9577 66.9411 80.5767 66.9816 80.2505 66.9084C79.65 66.773 79.5767 66.6323 79.5928 65.8553C79.5973 65.6364 79.4593 65.6587 79.3255 65.597C77.9478 64.9629 77.3494 63.8035 77.3391 62.2848C77.3341 61.5617 77.6282 60.4089 76.2081 60.4842C76.0125 60.4941 75.9733 60.3447 75.9103 60.2102C74.6064 57.4215 75.031 54.7401 76.4976 52.1746C77.1747 50.9907 78.9074 50.4017 80.2246 50.867C80.6554 51.0193 81.1179 51.4316 81.3008 51.8439C81.4828 52.2532 81.0248 52.4167 80.6072 52.4705C80.2822 52.5123 80.3827 52.7926 80.4519 53.0074C80.5681 53.3671 80.8098 53.4602 81.1517 53.3332C81.9836 53.0231 82.171 53.1618 82.0734 54.1527C82.0022 54.8788 83.0314 55.1677 83.6076 55.5609C83.9981 55.8275 84.2061 55.2563 84.321 54.928C84.4046 54.6913 84.5335 54.5141 84.7221 54.4177C86.5446 53.4793 86.7452 51.6828 87.0277 49.9592C87.1603 49.1508 87.1805 48.2795 87.3362 47.515C87.494 46.7397 87.7382 45.9272 87.9396 45.1279C88.2629 43.8468 89.3127 43.8058 90.3189 43.8629C90.9692 43.8997 91.613 44.1249 92.2481 44.3079C92.4017 44.3522 92.6319 44.5757 92.6179 44.6916C92.496 45.6995 93.6707 46.4193 93.1892 47.551C93.0677 47.8366 93.4569 48.4062 93.7106 48.7766C94.1933 49.4795 94.2114 49.5018 93.3214 49.7982Z" fill="#FEE0AB"/>
<path fill-rule="evenodd" clip-rule="evenodd" d="M44.4963 28.8304C43.5848 29.2448 42.9432 29.7138 42.5605 30.4816C43.1858 29.9944 44.2319 29.9944 44.4963 28.8304ZM40.94 15.2149C41.7876 15.0563 42.2015 14.5497 42.6772 14.1606C43.5994 13.4056 44.3531 13.6465 44.6261 14.8614C44.7448 15.3883 44.774 15.6818 45.4869 15.8279C46.1904 15.9724 46.3477 16.9823 46.6669 17.6392C47.6509 19.6658 48.0289 21.8435 47.9013 24.082C47.7312 27.0681 46.253 29.3079 43.8222 30.9731C42.7081 31.7364 41.5627 32.1859 40.1583 32.02C39.4898 31.9409 39.1047 31.5121 38.5895 31.2546C36.8176 30.3704 34.9877 29.6047 33.3337 28.4792C31.554 27.2689 29.4828 22.7359 30.3506 20.3327C30.9066 18.7925 31.8444 17.864 33.4021 17.5382C34.2979 17.3507 34.7077 17.7245 34.7731 18.826C35.255 18.4857 35.4881 18.0904 35.6212 17.561C35.9334 16.3213 36.3922 15.1354 36.9721 13.9888C37.6599 12.6274 38.8024 11.9626 40.2089 11.6294C40.7612 11.4986 41.3119 11.5677 41.6475 12.0111C41.9737 12.4415 41.9457 12.9619 41.6496 13.4826C41.3761 13.9631 41.2209 14.5116 40.94 15.2149Z" fill="#FEE0AB"/>
<path fill-rule="evenodd" clip-rule="evenodd" d="M66.6936 5.33745C67.3896 3.75128 67.7051 2.11378 68.9337 0.957259C69.1219 0.780098 69.2858 0.549126 69.5083 0.44109C70.0375 0.184041 70.7097 -0.233199 71.1676 0.163758C71.5647 0.508147 71.4992 1.23583 71.2974 1.82775C71.1998 2.11212 70.8382 2.50245 71.2529 2.71232C71.6038 2.88906 71.8044 2.4325 72.0284 2.1978C72.1578 2.06203 72.2541 1.89357 72.3896 1.76649C72.6425 1.52931 72.7648 1.01562 73.241 1.2052C73.6211 1.35587 73.9564 1.63114 74.0124 2.10012C74.0643 2.53516 74.0606 2.93998 74.734 2.64526C75.0766 2.49542 75.3167 2.94246 75.5025 3.19496C77.5548 5.98401 77.9799 8.8695 75.3122 11.712C74.4963 12.5808 73.6582 13.4281 72.8316 14.2866C72.3773 14.7585 71.8254 14.7523 71.2743 14.5556C70.6524 14.3338 71.3229 13.8267 71.0453 13.4206C70.4127 14.4426 69.804 14.3069 68.9947 13.5697C68.493 13.1131 67.8917 12.5423 66.9477 12.9243C66.6001 13.0651 65.9386 12.6768 65.533 12.3767C63.4996 10.8729 62.2755 8.88234 62.2273 6.29197C62.208 5.2646 62.5437 4.35354 63.5774 3.89077C63.7755 3.80219 64.1755 3.70036 64.1907 3.73472C64.6647 4.80638 66.0465 4.37838 66.6936 5.33745Z" fill="#FEE0AB"/>
</g>
</svg>
