<svg width="59" height="94" viewBox="0 0 59 94" fill="none" xmlns="http://www.w3.org/2000/svg">
<g opacity="0.3">
<path fill-rule="evenodd" clip-rule="evenodd" d="M48.4957 88.2594C48.0691 90.9255 47.8321 91.3139 45.3423 91.9729C44.0505 92.3142 42.6904 92.3931 41.3652 92.614C41.1449 92.6502 40.7549 92.8268 40.7635 92.9035C40.9445 94.5893 39.7341 93.7964 39.1637 93.7137C37.2864 93.4409 35.4048 93.1174 33.5786 92.6172C32.6936 92.3753 31.898 91.9815 31.4153 90.8105C30.8853 89.525 29.5456 88.5862 28.6153 87.4498C28.3088 87.0755 27.9543 86.5099 28.0351 86.1173C28.1035 85.7856 28.7618 85.5652 29.1728 85.3189C29.4308 85.1639 29.7147 85.0516 29.9867 84.9203C29.7104 84.7858 29.4308 84.6584 29.1588 84.5163C28.8022 84.3305 28.4515 84.1339 28.0981 83.9421C28.3384 83.536 28.5355 83.0925 28.8356 82.7371C29.0074 82.5351 29.3506 82.3644 29.6118 82.3709C31.5952 82.4195 32.3127 81.0043 32.8073 79.4936C33.932 76.061 34.9151 72.5815 36.0393 69.1484C36.3421 68.2248 36.7482 67.1477 37.4577 66.5865C38.7273 65.5835 40.3633 66.1701 41.4584 67.7138C43.9153 71.1777 45.4457 75.0942 46.6206 79.1144C47.4905 82.0906 47.8881 85.2061 48.4957 88.2594Z" fill="#8A64F9"/>
<path fill-rule="evenodd" clip-rule="evenodd" d="M8.52915 63.6409C11.7494 63.198 14.969 62.7551 18.1887 62.3122C18.2227 62.3916 18.2561 62.471 18.2895 62.5504C17.3333 62.8783 16.3992 63.3185 15.4167 63.5151C11.7478 64.247 8.04381 64.5986 4.3474 63.79C3.73708 63.6561 3.25173 62.9215 2.72598 62.4456C2.594 62.3257 2.56276 62.0313 2.42863 61.987C0.592813 61.3751 0.490464 59.5807 0.140862 58.1829C-0.174803 56.9227 0.10531 55.466 0.345021 54.1362C0.439829 53.6085 1.0453 52.9981 1.57105 52.754C3.57601 51.8201 4.16209 49.962 4.84945 48.1266C5.77705 45.6501 6.7025 43.172 7.70605 40.7257C8.58572 38.5808 11.2829 38.3021 12.6043 40.2223C16.1617 45.3903 18.276 51.1374 19.2515 57.3187C19.3496 57.9431 19.3437 58.5907 19.3226 59.2253C19.2882 60.291 18.9203 61.1309 17.7362 61.3756C15.1597 61.9093 12.5881 62.4683 10.0105 62.9987C9.50201 63.103 8.97572 63.1251 8.45751 63.1851C8.48175 63.3374 8.50545 63.4892 8.52915 63.6409Z" fill="#8A64F9"/>
<path fill-rule="evenodd" clip-rule="evenodd" d="M37.8916 23.5115C37.877 23.3543 37.863 23.1977 37.8485 23.041C36.8746 23.1237 35.8985 23.1885 34.9294 23.31C34.7947 23.3273 34.6956 23.6238 34.5798 23.7907C34.7236 23.8653 34.8793 24.0214 35.0086 24.0025C35.9723 23.8582 36.9311 23.6795 37.8916 23.5115ZM25.5614 22.0263C25.4008 22.4757 25.3006 22.7571 25.187 23.0758C25.0512 22.9461 24.9273 22.8835 24.9246 22.816C24.8848 21.9004 24.8923 20.9817 24.8158 20.0699C24.7954 19.8328 24.5368 19.6086 24.3682 19.3937C24.1522 19.1177 23.9168 18.8573 23.6895 18.5899C23.9717 18.375 24.2432 18.1438 24.5411 17.9537C24.6531 17.8824 24.8595 17.9537 24.965 17.8786C25.3017 17.6398 25.6115 17.3628 25.9314 17.1003C25.6228 16.9069 25.3308 16.6752 25.0006 16.531C24.6952 16.3975 24.3493 16.357 23.8942 16.2441C24.4959 15.5646 24.5492 14.2953 25.9961 14.8052C26.1464 14.8582 26.5902 14.4709 26.6877 14.2089C27.3433 12.4475 28.0247 10.6872 28.5241 8.87886C28.7552 8.04273 28.5311 7.09101 28.6291 6.20411C28.7789 4.84945 29.0186 3.50398 29.2389 2.15742C29.3897 1.24027 31.9463 -0.342322 32.7365 0.0660202C33.2251 0.318803 33.6308 0.801144 33.9744 1.2554C37.3369 5.70611 38.8532 10.9168 39.964 16.2641C40.3195 17.9769 40.4197 19.7556 40.5016 21.5105C40.5646 22.8608 39.943 23.8395 38.523 24.2079C37.5884 24.4499 36.6861 24.8139 35.7645 25.1067C35.3238 25.2466 34.3822 25.0019 35.1552 25.9806C34.9101 26.046 34.6208 26.2302 34.4269 26.1572C32.9003 25.5863 31.3855 24.9824 29.8826 24.351C29.4167 24.1555 29.0477 23.678 28.6097 24.4666C28.4761 24.7064 27.827 24.7243 27.4225 24.6989C27.3288 24.6935 27.3627 24.0269 27.1779 23.7893C26.7125 23.1903 26.1561 22.6626 25.5614 22.0263Z" fill="#8A64F9"/>
<path fill-rule="evenodd" clip-rule="evenodd" d="M47.0401 93.0215C45.2167 93.3478 43.3932 93.6735 41.5698 93.9992C41.5364 93.7653 41.5036 93.532 41.4707 93.2986C42.359 93.1987 43.2489 93.1155 44.1345 92.994C45.0912 92.8627 46.0425 92.6953 46.9959 92.543C47.011 92.7028 47.0255 92.8622 47.0401 93.0215Z" fill="#8A64F9"/>
<path fill-rule="evenodd" clip-rule="evenodd" d="M43.8364 41.9222C43.5843 41.7002 43.5261 41.63 43.4523 41.5873C42.911 41.2724 42.3664 40.9629 41.8228 40.6512C42.3276 40.0474 42.7596 39.0168 43.3494 38.9163C45.4325 38.5604 46.0256 37.0712 46.554 35.4098C47.3249 32.9867 48.0209 30.5329 48.9334 28.1639C49.2221 27.4147 50.0441 26.4732 50.7277 26.3771C51.5858 26.2572 53.0171 26.6461 53.3882 27.2878C54.7387 29.6233 55.9491 32.0869 56.8342 34.6336C57.7435 37.2506 58.3112 40.0025 58.8294 42.7329C59.0918 44.1184 58.9997 45.594 58.8871 47.0146C58.8526 47.4515 58.2951 48.0522 57.8469 48.2142C56.2061 48.8078 54.5098 49.2475 52.8404 49.7433C53.0079 49.934 53.2471 50.2062 53.4863 50.479C53.2864 50.5838 53.0386 50.822 52.8964 50.7696C52.4262 50.5962 52.0038 50.2959 51.5433 50.089C51.2066 49.9378 50.8387 49.7649 50.4853 49.766C50.0129 49.7676 49.4026 50.1641 49.0928 49.981C47.6438 49.1249 45.7352 49.2145 44.7408 47.3052C44.1375 46.1471 43.7798 44.4873 42.0927 44.0368C41.8875 43.9817 41.7286 43.2698 41.7819 42.8955C41.8169 42.6492 42.2441 42.4034 42.5447 42.2646C42.897 42.102 43.3031 42.0567 43.8364 41.9222Z" fill="#8A64F9"/>
<path fill-rule="evenodd" clip-rule="evenodd" d="M57.9428 49.2871C56.8175 50.1108 55.6071 50.8033 54.0762 50.1222C55.3647 49.844 56.6537 49.5653 57.9428 49.2871Z" fill="#8A64F9"/>
</g>
</svg>
