<svg width="48" height="40" viewBox="0 0 48 40" fill="none" xmlns="http://www.w3.org/2000/svg">
<g opacity="0.3">
<path fill-rule="evenodd" clip-rule="evenodd" d="M38.7582 0C39.809 0.142104 40.7159 0.589423 41.4772 1.27894C41.7915 1.56315 41.913 2.10602 41.5469 2.39229C40.3505 3.32812 40.6126 4.60994 40.6893 5.80073C41.1782 13.3759 42.9024 20.7114 45.1814 27.929C46.0129 30.5631 46.9467 33.1655 47.8183 35.7868C47.9365 36.1426 48.1928 36.4853 47.7499 36.8927C47.3083 37.2992 47.0118 36.8647 46.6854 36.8857C44.2078 37.0459 43.6534 35.1339 42.8357 33.4917C38.6997 25.1866 36.6786 16.3585 36.2428 7.14104C36.1632 5.45433 36.2511 3.7705 36.7197 2.13856C37.0187 1.09894 37.5287 0.192355 38.7582 0Z" fill="#FEE0AB"/>
<path fill-rule="evenodd" clip-rule="evenodd" d="M18.1887 15.7351C18.4889 14.9921 18.9119 14.6959 19.6292 14.9422C20.3342 15.184 20.6916 15.5354 20.7285 16.3674C20.8077 18.1472 21.7901 19.6304 22.6596 21.1128C25.7203 26.3336 29.1621 31.313 32.5292 36.3394C32.7942 36.7352 33.0907 37.1257 32.8232 37.6805C32.4985 38.356 32.0283 37.739 31.648 37.8663C30.3961 38.2852 29.7435 37.426 29.0924 36.6343C25.7129 32.5232 22.2325 28.4837 19.7093 23.7568C18.8816 22.206 18.0987 20.6379 17.4767 18.9891C17.2018 18.2596 17.6948 17.4396 17.0272 16.7237C16.7552 16.4325 16.8754 15.7166 17.2412 15.2594C17.4311 15.0217 17.6235 14.7136 17.9536 14.8117C18.3409 14.9266 18.1111 15.3203 18.1887 15.7351Z" fill="#FEE0AB"/>
<path fill-rule="evenodd" clip-rule="evenodd" d="M1.29338 27.5634C2.73767 27.6149 3.59148 28.1627 4.4005 29.1562C5.95883 31.0703 8.1375 32.2656 10.2602 33.4778C13.0659 35.0809 15.9665 36.4925 18.984 37.6692C19.7487 37.967 20.4627 38.4045 21.1726 38.8234C21.443 38.9828 21.7573 39.211 21.5114 39.6418C21.3116 39.9932 21.0408 39.9631 20.6709 39.9853C17.786 40.1587 15.3855 38.678 12.8772 37.6849C9.45781 36.331 6.18441 34.6393 3.26015 32.3636C2.18699 31.5283 1.23366 30.5793 0.425472 29.4898C0.0792227 29.0227 -0.165018 28.5359 0.136032 27.9337C0.466524 27.2734 0.978642 27.4629 1.29338 27.5634Z" fill="#FEE0AB"/>
</g>
</svg>
