<svg width="115" height="102" viewBox="0 0 115 102" fill="none" xmlns="http://www.w3.org/2000/svg">
<g opacity="0.5">
<path fill-rule="evenodd" clip-rule="evenodd" d="M50.877 64.5286C51.6776 64.5286 52.3814 64.6505 53.0218 64.5022C54.2076 64.2277 55.8031 61.8143 55.7121 60.5888C55.6986 60.4011 55.6369 60.1279 55.5072 60.0528C54.9126 59.7115 54.2851 59.4266 53.6699 59.1211C53.3048 59.7491 52.1742 59.0448 52.0198 60.0851C51.9564 60.5137 50.9762 60.2399 51.2374 61.0004C50.604 62.125 51.0677 63.3224 50.877 64.5286ZM47.7461 59.6558C47.9386 59.3262 48.1887 59.0219 48.3079 58.673C48.7399 57.4088 49.8616 56.9227 50.9388 56.619C51.6872 56.4079 52.4838 56.1557 53.3443 56.2161C55.299 56.3539 56.672 57.2704 57.65 58.9257C58.106 59.6974 58.5346 60.4778 58.7271 61.3468C58.8568 61.935 59.0159 62.6163 58.8427 63.1529C58.1706 65.2362 57.0242 66.9848 54.8547 67.8127C54.2571 68.0402 53.6355 68.2073 53.0215 68.392C52.924 68.4219 52.7931 68.4331 52.7068 68.3909C51.1337 67.6274 49.6133 66.7578 48.7 65.2098C48.3079 64.5455 47.9445 63.7767 48.0408 62.9412C48.157 61.9279 47.7238 60.8619 48.3296 59.8968C48.1482 59.8217 47.9662 59.7466 47.7461 59.6558Z" fill="#8A64F9"/>
<path fill-rule="evenodd" clip-rule="evenodd" d="M0.971301 78.43C0.46296 78.3145 0.166525 78.1016 0.349082 77.5012C0.42774 77.4648 0.566858 77.4279 0.675453 77.3487C1.71209 76.6005 2.98706 76.4885 4.15401 76.1174C4.66294 75.9555 5.47065 76.1003 5.89682 76.4264C7.22167 77.4408 8.69152 78.3215 9.31844 80.0624C9.83617 81.4996 9.6272 83.3443 8.71265 84.52C8.182 85.2025 7.43886 85.6312 6.89237 86.3248C5.9966 86.18 5.05271 86.5435 4.16164 86.0053C3.74546 85.7537 1.93339 84.7968 1.57885 84.5323C0.752937 83.916 0.430675 83.0142 0.121913 82.1001C0.0579298 81.9112 -0.0436211 81.6708 0.0203618 81.5149C0.430088 80.5133 0.138349 79.3101 0.971301 78.43Z" fill="#8A64F9"/>
<path fill-rule="evenodd" clip-rule="evenodd" d="M73.2812 45.4868C74.5533 46.6988 76.6782 47.3749 78.4251 47.3086C79.2622 47.2775 79.8944 46.9837 80.4491 46.4115C80.7702 46.0802 81.0995 45.7577 81.4335 45.4234C81.2439 45.1625 81.0737 45.0182 81.0203 44.8388C80.7725 44.0156 80.3217 43.499 79.3902 43.4286C78.9675 43.3969 78.5672 43.1213 78.1451 42.9947C77.8692 42.912 77.3838 42.773 77.3157 42.8745C76.93 43.4526 76.7205 42.5461 76.2151 42.9859C75.9239 43.2591 75.4373 43.7159 74.9477 44.175C74.5521 43.8643 74.2404 43.6192 73.9645 43.4028C72.9619 43.903 73.4691 44.7479 73.2812 45.4868ZM83.2176 46.5316C83.524 46.6378 83.7095 46.7023 83.9067 46.7703C83.7477 47.271 83.5991 47.7401 83.4495 48.2116C83.1982 48.2403 82.9464 48.2702 82.5936 48.3107C82.7104 48.4672 82.7838 48.5669 82.8977 48.72C82.3553 49.3867 81.7319 49.8986 80.7698 49.8563C80.5297 49.8458 80.2785 49.9419 80.0425 50.0193C79.3874 50.2345 78.7494 50.2797 78.0978 49.9865C77.8747 49.8862 77.4521 49.7725 77.3805 49.8645C76.7806 50.6391 76.2869 49.6429 75.6987 49.7772C75.4516 49.8335 75.2174 49.1885 74.6891 49.1703C74.4067 49.1609 74.1567 48.7452 73.8567 48.5763C73.5057 48.3787 73.3677 47.851 72.8477 47.9272C72.6035 47.1385 71.814 46.7744 71.4177 46.12C70.5355 44.6635 70.5343 42.5701 71.2598 41.1611C71.9014 39.9127 73.1112 39.5474 74.223 40.3871C74.7619 40.7946 75.171 41.1189 75.785 40.6269C75.9963 40.9617 76.193 40.8269 76.3468 40.587C76.5915 40.2053 76.9643 40.183 77.3282 40.2587C78.5938 40.5243 79.8787 40.8826 80.8972 41.6449C81.7929 42.3157 82.4345 43.3248 83.1882 44.1844C83.1272 44.9473 84.0975 45.6679 83.2176 46.5316Z" fill="#8A64F9"/>
<path fill-rule="evenodd" clip-rule="evenodd" d="M94.8802 82.9131C95.3616 82.6621 95.9016 82.247 96.6917 82.5683C96.6078 82.682 96.5367 82.78 96.3917 82.9787C96.7034 83.0597 97.21 83.0761 97.2476 83.218C97.5094 84.199 98.6176 84.4769 98.9493 85.3864C99.5093 86.9244 100.001 88.4589 99.1782 90.0521C99.0867 90.2292 98.9933 90.2696 99.1242 90.52C99.4876 91.2113 99.1495 91.7086 98.5149 92.0674C98.0735 92.3166 98.3177 92.5653 98.5748 92.8145C98.023 93.5222 97.4695 94.2323 96.9253 94.9301H95.1661C94.8409 94.5806 94.4411 94.159 94.0496 93.7298C93.6968 93.3445 93.2354 93.1035 92.9173 92.6403C92.1964 91.5901 92.0597 90.4567 92.3009 89.2892C92.4894 88.3815 92.9355 87.5295 93.1591 86.6259C93.3053 86.0355 93.4497 85.5617 94.0396 85.2392C94.2768 85.1096 94.44 84.6352 94.4329 84.3221C94.4229 83.8642 94.7423 83.6923 94.9418 83.4021C95.0076 83.3077 94.909 83.1013 94.8802 82.9131Z" fill="#8A64F9"/>
<path fill-rule="evenodd" clip-rule="evenodd" d="M111.098 32.7218C111.023 32.6467 110.914 32.5852 110.878 32.4943C110.616 31.8305 109.914 31.9413 109.426 31.7631C109.165 31.6675 108.703 32.1008 108.34 32.309C108.177 32.4016 107.855 32.9317 107.639 33.3158C107.473 33.6142 107.29 34.1015 107.065 34.1302C106.56 34.1965 106.663 34.4774 106.617 34.7788C106.586 34.9863 106.447 35.1775 106.367 35.3516C107.488 36.4904 108.543 36.0131 109.698 35.4771C110.959 34.8925 111.178 33.9156 111.098 32.7218ZM108.143 38.3301C107.901 38.6831 107.688 38.9916 107.469 39.3123C107.325 39.1786 107.198 38.9728 107.104 38.9869C105.963 39.1575 105.586 38.0616 104.819 37.6236C104.732 37.5743 104.673 37.2624 104.726 37.2172C105.523 36.537 104.673 36.0345 104.567 35.4464C104.44 35.5596 104.328 35.661 104.215 35.7613C104.177 35.7232 104.105 35.6839 104.107 35.6481C104.144 34.9509 103.764 34.1916 104.466 33.5882C104.626 33.4504 104.596 33.1144 104.714 32.9039C105.017 32.3644 105.098 31.652 105.654 31.3137C106.224 30.9654 106.001 30.2565 106.569 29.8478C107.534 29.1535 109.041 28.8017 110.171 29.2233C111.812 29.836 112.857 31.0832 113.468 32.5914C113.96 33.8052 114.193 35.1808 113.964 36.513C113.831 37.2888 113.148 37.8218 112.542 38.2879C112.36 38.4275 111.905 38.2129 111.479 38.1449C111.507 38.2551 111.511 38.4937 111.622 38.6644C111.791 38.9259 111.859 39.171 111.532 39.276C111.2 39.3833 111.078 39.1534 111.099 38.8262C111.102 38.7729 110.953 38.7095 110.786 38.5858C110.536 38.7945 110.265 39.0203 109.939 39.2918C109.888 39.1153 109.838 38.9423 109.744 38.6151C109.323 39.0051 108.944 39.3551 108.39 39.8682C108.285 39.215 108.218 38.7951 108.143 38.3301Z" fill="#8A64F9"/>
<path fill-rule="evenodd" clip-rule="evenodd" d="M27.4962 54.8263C27.761 55.0497 27.8784 55.1488 28.0222 55.2696C28.1231 55.0661 28.1989 54.709 28.3333 54.6855C28.6749 54.6257 29.1316 54.59 29.3834 54.7682C30.1389 55.3047 30.9331 55.8577 31.4937 56.5754C32.0243 57.2562 32.3771 58.1246 32.616 58.9654C32.754 59.4521 32.6759 60.0098 32.3912 60.5979C31.8066 61.8017 31.2207 62.8818 30.001 63.5901C29.4615 63.9032 28.8551 63.9173 28.3444 64.2334C28.1425 64.3588 27.8971 64.4134 27.6618 64.5037C27.5743 64.3489 27.4616 64.1489 27.3489 63.9496C27.1681 64.2076 27.0466 64.1771 26.7701 63.9865C26.2735 63.6435 25.3079 62.7663 24.8894 62.4244C23.5422 61.3256 24.3182 59.9587 24.3769 58.7057C24.391 58.3914 24.8935 58.0994 25.1905 57.7769C26.2911 58.3679 26.8599 59.312 27.245 60.3551C28.3245 60.2208 28.4994 59.2146 29.0923 58.6541C29.2232 58.5304 29.1345 58.1738 29.1592 57.6643C28.6415 58.1809 28.2981 58.5239 28.0099 58.8112C27.198 58.7538 27.2961 57.7763 26.6122 57.7171C26.6011 57.0838 26.4925 56.43 26.6157 55.8243C26.6862 55.4801 27.1376 55.2139 27.4962 54.8263Z" fill="#8A64F9"/>
<path fill-rule="evenodd" clip-rule="evenodd" d="M88.6641 13.2558C89.1225 12.7979 89.4624 12.4584 89.8586 12.0626H91.8427C92.0493 11.1977 91.4095 11.5478 90.9968 11.4334C91.0408 11.322 91.0532 11.1889 91.1259 11.1262C91.6313 10.6923 90.8829 10.5234 90.9545 10.0824C91.2932 9.27852 92.2371 9.13193 92.9462 8.69392C93.147 8.56961 93.5385 8.63821 93.7944 8.73907C95.0935 9.25155 95.5642 10.4161 96.0873 11.59C96.4242 12.3446 96.1107 13.2359 96.7001 13.8956C96.4665 14.7587 96.3761 15.6992 95.9593 16.4627C95.5173 17.2736 94.5716 17.7152 93.6829 17.8037C93.1904 17.853 92.7607 18.4305 92.277 18.0558C91.8667 17.738 91.2891 17.9169 90.9158 17.4144C90.6499 17.0561 90.0594 17.0321 89.8991 16.4058C89.8199 16.0968 89.2288 16.0475 88.9617 15.5568C88.5308 14.7652 88.8501 14.0093 88.6641 13.2558Z" fill="#8A64F9"/>
<path fill-rule="evenodd" clip-rule="evenodd" d="M83.0449 63.3499C83.2439 64.1427 83.4188 64.8094 83.5744 65.4802C83.6096 65.6309 83.6478 65.8701 83.5691 65.9434C82.8641 66.5955 83.5192 67.1314 83.6906 67.7072C84.9227 67.7271 84.8887 67.6497 85.5209 66.7508C86.2728 65.6807 86.1437 64.5168 86.1226 63.3517C86.119 63.14 85.9165 62.8849 85.7357 62.7325C85.3747 62.4276 84.7801 62.8984 84.4514 62.3906L84.1162 62.9025C83.494 62.4874 83.3367 63.1535 83.0449 63.3499ZM81.5793 64.376C81.3874 64.0036 81.1837 63.609 81.0176 63.2865C81.1984 62.3307 82.2873 62.5952 82.6418 61.8528C82.9893 61.124 84.0512 61.4348 84.62 60.6994C84.3946 60.5482 84.1762 60.4022 83.9538 60.2526C83.9854 60.2122 84.0301 60.099 84.0917 60.0879C85.17 59.8914 85.9566 60.4672 86.6903 61.1216C87.3014 61.6658 87.6513 62.4099 88.1103 63.0684C88.368 63.4384 87.9189 63.779 88.3087 64.0148C88.6574 64.2264 88.7648 64.5706 88.6996 64.9653C88.6274 65.3986 89.0372 65.8653 88.9638 66.0905C88.79 66.6206 88.7765 67.1753 88.5987 67.6895C88.2664 68.6494 87.7792 69.5237 87.0261 70.2279C86.5941 70.6319 85.9865 70.768 85.2252 70.6348C83.3879 70.3141 83.3662 70.3335 82.5379 69.424C81.8887 68.7116 81.4678 67.8977 81.2935 66.9014C81.1937 66.3362 80.8579 65.8378 81.2565 65.2784C80.7223 64.7659 81.53 64.7782 81.5793 64.376Z" fill="#8A64F9"/>
<path fill-rule="evenodd" clip-rule="evenodd" d="M38.6555 21.002C40.1124 21.8217 40.4482 22.5054 39.6475 23.7544C39.2349 24.3988 39.7455 25.1247 39.1627 25.6536C39.0764 25.7316 39.3035 26.1585 39.3898 26.4223C39.6287 27.1477 39.8647 27.2127 40.6548 27.0046C42.1634 26.6082 42.8778 25.5422 43.2411 24.0974C42.6788 23.9379 42.1129 23.7854 41.5517 23.6166C40.8667 23.4107 41.1156 22.642 40.835 22.289C41.1579 21.9665 41.5124 21.6124 41.8675 21.2582C42.8431 20.7135 43.4489 21.7783 44.3382 22.0193C44.991 23.0718 45.902 23.9848 45.8081 25.395C45.6883 27.1752 44.9205 28.6593 42.9735 29.3718C41.3486 29.9675 40.0631 29.7177 38.669 28.4799C37.8196 27.7258 37.1269 26.9489 37.097 25.6096C37.0559 23.8411 37.3946 22.2873 38.6555 21.002Z" fill="#8A64F9"/>
<path fill-rule="evenodd" clip-rule="evenodd" d="M36.4218 86.5568C35.0329 86.9644 34.2223 86.0291 33.2884 85.4715C32.4319 84.9602 32.3204 83.9516 32.0668 83.1231C31.8332 82.3561 32.3052 81.5587 32.5834 80.8163C32.8176 80.1912 33.2044 79.6219 33.5214 79.032C33.3764 78.9792 33.1915 78.9124 32.9685 78.8315C33.2044 78.584 33.4122 78.3653 33.6705 78.0932C33.3389 78.0334 33.0471 77.9806 32.5675 77.8939C32.8775 77.6634 33.0964 77.3655 33.2948 77.379C33.849 77.4166 34.3914 77.2248 34.9742 77.5426C36.4582 78.3512 37.2166 79.7051 37.7637 81.1576C38.5309 83.1958 38.1206 85.0487 36.4218 86.5568Z" fill="#8A64F9"/>
<path fill-rule="evenodd" clip-rule="evenodd" d="M54.2007 94.1446C54.0481 94.4507 53.9172 94.7128 53.7657 95.0171C54.8188 96.0984 55.2538 97.4019 55.0859 98.9112C55.0454 99.2689 55.0554 99.5779 54.7871 99.9127C54.2788 100.549 54.2095 101.478 53.2228 101.815C52.7954 101.961 52.3293 102.081 52.0417 101.934C51.2411 101.523 50.3206 101.206 49.824 100.383C49.5757 99.9719 49.3456 99.5462 49.2934 99.0056C49.1202 97.2301 49.8422 95.7565 50.7462 94.3434C50.9493 94.0256 51.2933 93.7957 51.703 93.6104C52.175 93.3976 52.4667 93.2246 52.9392 93.577C53.2832 93.8344 53.737 93.9441 54.2007 94.1446Z" fill="#8A64F9"/>
<path fill-rule="evenodd" clip-rule="evenodd" d="M111.917 57.5088C111.285 57.0227 110.914 56.1455 109.929 56.1818C109.681 55.7544 109.29 55.3509 109.216 54.8953C109.036 53.7912 109.295 52.8055 110.437 52.2649C110.572 52.201 110.665 52.0468 110.812 51.9002C110.612 51.8327 110.435 51.7723 110.417 51.7665C110.695 51.4885 111.038 51.1461 111.38 50.8043C111.306 50.7169 111.232 50.6301 111.158 50.5427C111.305 50.5228 111.458 50.4665 111.597 50.4905C112.24 50.6014 112.98 50.1645 113.525 50.8201C114.234 51.6721 114.758 52.5997 114.965 53.7208C115.24 55.209 113.802 56.8544 112.709 57.385C112.431 57.5199 112.085 56.9746 111.917 57.5088Z" fill="#8A64F9"/>
<path fill-rule="evenodd" clip-rule="evenodd" d="M69.4863 76.9777C69.4863 77.4186 69.4587 77.6361 69.491 77.8443C69.6577 78.9291 68.7514 79.3132 68.121 79.791C67.494 80.266 66.8947 79.5682 66.3083 79.3952C65.7606 79.234 65.3092 78.7086 64.8478 78.3069C64.0701 77.6315 63.7789 76.026 64.272 75.0643C64.3841 74.8456 64.2644 74.4733 64.7845 74.4246C65.095 74.3953 65.3885 73.901 65.6379 73.5767C66.2919 72.7306 66.8648 72.6338 67.5651 73.3727C68.0223 73.8553 68.5524 74.2505 68.8788 74.8978C69.2568 75.6472 69.6812 76.328 69.4863 76.9777Z" fill="#8A64F9"/>
<path fill-rule="evenodd" clip-rule="evenodd" d="M52.0417 40.57C52.7338 41.3129 53.5051 41.955 53.8684 43.0005C54.3187 44.2952 54.0733 45.0018 52.9709 45.7564C51.7147 46.6166 50.8747 46.4677 49.7782 45.3507C49.6291 45.1988 49.4777 45.0499 49.3574 44.9302C49.1754 44.3697 49.5922 43.7229 48.9952 43.2849C48.6635 41.8084 49.6626 40.5988 51.2393 40.5706C51.5052 40.5659 51.7711 40.57 52.0417 40.57Z" fill="#8A64F9"/>
<path fill-rule="evenodd" clip-rule="evenodd" d="M66.9234 24.1326C67.2116 23.908 67.3877 23.7708 67.5638 23.6336C67.3578 23.4606 67.1517 23.2871 66.9504 23.1182C67.0326 23.0267 67.1318 22.9159 67.2709 22.7617C66.9081 22.6819 66.5853 22.6116 66.1973 22.5271C66.651 21.3104 67.7657 21.2219 68.6392 20.8243C68.81 20.7469 69.178 20.9715 69.3894 21.1392C70.2458 21.8165 70.8698 22.6819 71.3036 23.6811C71.3605 23.813 71.4368 24.0517 71.3828 24.098C70.6268 24.7424 71.6247 25.9896 70.6338 26.4212C70.4395 26.5056 70.0034 26.0078 69.4815 25.9715C69.6934 26.2031 69.9042 26.4353 70.1454 26.6997C69.7568 26.9571 69.39 27.2245 68.9967 27.4456C68.8763 27.5142 68.6832 27.469 68.5259 27.4514C68.432 27.4409 68.2612 27.3699 68.2647 27.3471C68.3944 26.4734 67.3513 27.1225 67.2351 26.549C67.1776 26.2652 66.9639 26.0055 66.9375 25.724C66.8882 25.1986 66.9234 24.6656 66.9234 24.1326Z" fill="#8A64F9"/>
<path fill-rule="evenodd" clip-rule="evenodd" d="M69.1977 0.70364V0H70.6241C71.3473 1.08478 72.337 2.11268 71.9872 3.74688C71.7582 3.76154 71.4712 3.77913 71.0691 3.80435V2.48502C70.8126 2.53369 70.6153 2.51258 70.5431 2.5976C70.4222 2.73892 70.4099 2.9676 70.3019 3.12475C70.1023 3.41441 69.9931 3.34933 69.7254 2.91952C69.5447 2.62868 69.2963 2.37889 69.0469 2.07281C69.375 1.92152 69.5922 1.82184 69.8241 1.71512C69.1502 1.38265 69.1619 1.39438 69.7172 0.817982C69.8135 0.718299 69.7589 0.473784 69.7847 0.162424C69.5464 0.382897 69.4349 0.484925 69.1977 0.70364Z" fill="#8A64F9"/>
</g>
</svg>
