<svg width="98" height="86" viewBox="0 0 98 86" fill="none" xmlns="http://www.w3.org/2000/svg">
<g opacity="0.5">
<path fill-rule="evenodd" clip-rule="evenodd" d="M34.5065 48.675L27.4604 46.7236C29.6942 47.7863 32.0525 48.4161 34.5065 48.675ZM48.2439 56.9086C45.6416 55.8552 43.0282 54.9009 40.5734 53.573C42.8093 55.4419 45.505 56.2601 48.2439 56.9086ZM47.5639 46.1087C48.1986 45.2339 47.5506 44.9426 46.9744 44.6492C45.0265 43.656 43.156 44.3779 41.3742 45.0852C40.0755 45.6006 38.7905 46.3 37.9244 47.4971C37.5939 47.9534 37.4584 48.4057 38.2859 48.4972C40.5454 48.7467 42.7771 48.6871 44.9306 47.8739C45.9565 47.4865 46.8794 46.9189 47.5639 46.1087ZM41.3192 52.5349C42.7074 53.6209 44.3673 54.1981 45.9921 54.82C53.0128 57.5067 60.2629 57.8755 67.6601 57.039C72.6015 56.4799 77.441 55.4552 82.2539 54.2577C82.6931 54.1488 83.1329 54.0211 83.5873 54.15C84.0978 54.2951 84.3637 54.5318 83.7865 54.9413C83.6447 55.0425 83.3696 55.0365 83.5693 55.2945C84.2578 56.1846 83.5678 56.6569 83.0009 57.1294C81.9374 58.0164 80.5978 58.362 79.3389 58.8173C75.8123 60.0934 72.234 61.2372 68.5366 61.9017C65.1041 62.5183 61.6208 62.6307 58.1363 62.6455C55.9182 62.6549 53.6619 62.6337 51.5885 61.8825C50.2111 61.3834 48.7808 61.4308 47.4276 60.9569C44.8337 60.0483 42.2597 59.1158 39.914 57.6489C37.9835 56.4414 36.4883 54.8353 35.524 52.7709C35.2063 52.0902 34.7204 51.7155 34.0225 51.5567C32.1416 51.1283 30.2688 50.6381 28.4179 50.1269C25.4064 49.2958 22.5406 47.9907 19.7437 46.5837C15.2827 44.3395 11.107 41.6787 7.63459 38.0308C5.59369 35.8867 3.72086 33.6403 3.20775 30.5849C3.0726 29.7805 3.09326 29.0124 3.61159 28.3242C3.83463 28.0274 4.09229 27.8655 4.47866 27.9479C4.93518 28.0459 4.79051 28.3164 4.79188 28.658C4.8005 31.0007 6.42418 32.4521 7.86006 33.9828C11.8169 38.2015 16.7309 41.0136 21.8925 43.4509C25.8424 45.3158 29.9363 46.7775 34.1966 47.7584C34.5349 47.8364 34.8906 48.101 35.0217 47.4509C35.4783 45.1859 36.8471 43.506 38.6798 42.2243C41.5083 40.2455 44.5848 39.1937 48.0293 40.3926C49.8802 41.0366 50.554 42.261 50.532 44.2095C50.4767 49.1738 46.6763 51.8808 42.5334 52.1839C42.1623 52.2105 41.7916 52.2374 41.4214 52.2643C41.3871 52.3546 41.3533 52.4448 41.3192 52.5349Z" fill="#8A64F9"/>
<path fill-rule="evenodd" clip-rule="evenodd" d="M87.2184 50.3848C89.4203 51.0883 91.6678 51.4799 93.9809 51.4134C91.7269 51.0705 89.4727 50.7279 87.2184 50.3848ZM85.6033 60.5826C86.9949 58.6994 88.6835 57.0864 90.305 55.4119C90.5474 55.1617 90.9641 54.9964 90.784 54.5014C90.6109 54.026 90.179 54.0822 89.8424 54.0714C88.0082 54.0109 86.2943 53.4154 84.5302 53.0176C83.4157 52.7667 82.2447 52.7245 81.1075 52.4318C79.3567 51.9805 77.57 51.66 75.7903 51.3303C74.8885 51.1631 74.104 50.5809 73.0907 50.7598C72.0968 50.9351 71.5913 50.3145 71.5638 48.8349C71.5496 48.0797 71.8679 47.3108 72.8224 47.2769C73.6073 47.2492 74.408 47.2817 75.182 47.4075C80.3044 48.2403 85.42 49.1144 90.5414 49.953C91.6909 50.1413 92.8544 50.2524 94.0127 50.3851C96.1189 50.6263 96.6051 51.3032 96.3321 53.4149C96.1202 55.0541 95.3391 56.2686 94.0176 57.2418C91.4741 59.1155 88.9837 61.0617 86.8287 63.3913C86.397 63.8582 86.0312 64.3854 85.6171 64.8698C85.138 65.4311 84.7483 65.3858 84.482 64.6688C83.8909 63.0801 83.9804 62.7484 85.6033 60.5826Z" fill="#8A64F9"/>
</g>
</svg>
