<svg width="74" height="175" viewBox="0 0 74 175" fill="none" xmlns="http://www.w3.org/2000/svg">
<g opacity="0.3">
<path fill-rule="evenodd" clip-rule="evenodd" d="M3.83026 136.954V120.924C1.76939 126.496 1.85749 131.745 3.83026 136.954ZM65.6758 41.6831C63.3635 48.339 61.0503 54.9959 58.737 61.6528C62.6746 55.5452 64.9711 48.8813 65.6758 41.6831ZM58.5246 0.744035C62.7167 -0.542885 66.3088 -0.545875 68.3865 3.87012C69.2932 5.79801 68.6221 9.41454 67.0215 11.0793C69.0735 10.6865 70.1999 11.1411 70.4949 13.4996C70.7374 15.4434 72.0668 17.2328 72.4231 19.1826C73.8634 27.0466 74.976 34.9875 72.6894 42.8565C72.1024 44.8741 69.6486 46.4043 71.4946 48.9013C70.1287 54.4109 68.7834 59.9344 65.8535 64.8737C65.1527 66.0539 64.2074 67.0887 63.3591 68.1782C59.7719 72.7826 56.1906 77.392 52.5588 81.9605C52.3143 82.2675 51.6432 82.1958 51.2156 82.3971C50.8424 82.5716 50.5316 82.8836 50.1921 83.1338C51.7768 85.2022 49.3943 85.8472 48.6152 86.4553C46.2673 88.2855 43.5789 89.673 41.0201 91.2281C40.7232 91.4095 40.2609 91.4813 40.1233 91.7395C38.6118 94.5645 36.5302 96.3888 33.1934 96.9261C32.0165 97.1165 31.0573 98.6745 29.6567 99.156C29.4557 99.793 29.4478 100.635 29.0251 101.035C24.6153 105.211 20.1392 109.316 15.6146 113.502C15.8393 115.921 12.7609 120.922 10.2338 121.701C10.797 122.065 11.2029 122.33 11.2157 122.337C10.8614 123.752 10.2675 125.009 10.2793 126.261C10.3358 132.646 10.512 138.949 12.9856 145.086C15.5196 151.375 17.1558 158.026 19.4978 164.402C20.3273 166.661 22.0002 168.634 23.4374 170.627C24.2847 171.803 24.5461 172.58 23.1048 173.457C19.2612 175.798 16.4431 175.666 14.0002 171.721C10.699 166.39 7.41274 160.839 5.437 154.937C2.999 147.652 1.6043 139.961 0.329372 132.349C-1.03959 124.177 2.6377 117.361 7.38997 111.11C12.5867 104.271 18.8564 98.6167 26.0536 93.9236C34.7623 88.2456 41.9555 80.9009 48.4351 72.7657C55.2225 64.2427 60.1391 54.8086 62.5424 44.1654C64.3796 36.0341 65.0903 27.8172 62.9146 19.5673C61.3348 13.5783 59.9124 7.54746 58.4365 1.53154C58.3781 1.29329 58.491 1.01218 58.5246 0.744035Z" fill="#FBCCC9"/>
<path fill-rule="evenodd" clip-rule="evenodd" d="M41.019 37.7613C37.1814 39.9065 36.149 39.8208 33.217 36.918C30.0851 33.8178 27.1027 30.5661 24.0441 27.3912C23.5452 26.8738 22.9176 26.4681 22.4791 25.9089C21.708 24.927 21.0369 23.8673 20.3232 22.8396C21.7625 22.6103 23.3017 21.9544 24.6172 22.2624C26.195 22.6323 27.8679 23.5444 29.0042 24.7117C33.0517 28.8715 36.8884 33.2386 41.019 37.7613Z" fill="#FBCCC9"/>
<path fill-rule="evenodd" clip-rule="evenodd" d="M11.6278 65.2972C8.37611 64.4549 4.98291 63.6783 1.67087 62.6376C0.962134 62.4143 0.549367 61.2321 0 60.4924C0.72556 59.9811 1.38975 59.3042 2.19351 59.0041C2.99826 58.7011 3.96138 58.6094 4.82255 58.7101C8.74137 59.1696 12.6513 59.7179 16.5602 60.2661C17.2669 60.3648 17.9965 60.5203 18.631 60.8264C19.0655 61.0357 19.6782 61.5979 19.6327 61.9189C19.5614 62.4323 19.0972 63.155 18.6428 63.3045C16.4444 64.0272 14.1925 64.5874 11.6278 65.2972Z" fill="#FBCCC9"/>
<path fill-rule="evenodd" clip-rule="evenodd" d="M45.3303 147.835C43.4387 150.075 41.8203 150.204 40.1722 148.852C37.9579 147.036 35.7209 145.22 33.7263 143.174C33.0879 142.519 33.1849 141.136 32.9453 140.086C34.4439 139.943 36.5108 139.1 37.3373 139.783C40.2049 142.15 42.6409 145.047 45.3303 147.835Z" fill="#FBCCC9"/>
<path fill-rule="evenodd" clip-rule="evenodd" d="M57.0622 131.712C51.5191 134.147 47.6814 130.065 43.2835 128.485C42.8806 128.339 42.4451 126.9 42.6213 126.744C43.4943 125.973 44.9049 124.661 45.5136 124.932C49.378 126.655 53.084 128.741 56.8256 130.738C56.9731 130.817 56.9504 131.219 57.0622 131.712Z" fill="#FBCCC9"/>
<path fill-rule="evenodd" clip-rule="evenodd" d="M24.7909 45.0159C23.4447 45.1903 21.95 45.8263 20.779 45.4495C17.565 44.4128 14.4558 43.0182 11.3784 41.6037C10.7231 41.3027 10.3767 40.3198 9.88867 39.6499C10.6914 39.2252 11.612 38.3052 12.2762 38.4647C14.9389 39.1046 17.5798 39.939 20.1158 40.9807C21.8589 41.6964 23.415 42.8727 25.0552 43.8436C24.9671 44.2344 24.879 44.6251 24.7909 45.0159Z" fill="#FBCCC9"/>
<path fill-rule="evenodd" clip-rule="evenodd" d="M56.0595 104.954C55.6388 105.916 55.5774 106.428 55.2924 106.651C52.307 108.969 49.3612 111.353 46.2293 113.454C45.3404 114.05 43.8824 113.787 42.6064 113.472C46.5322 109.842 50.057 105.864 56.0595 104.954Z" fill="#FBCCC9"/>
</g>
</svg>
