<svg width="972" height="210" viewBox="0 0 972 210" fill="none" xmlns="http://www.w3.org/2000/svg">
<g opacity="0.05">
<path d="M6.12272 159.418H5.10227C2.28722 159.418 0 161.701 0 164.51V211.89C0 214.699 2.28722 216.982 5.10227 216.982H6.12272C8.93777 216.982 11.225 214.699 11.225 211.89V164.528C11.225 161.701 8.95536 159.418 6.12272 159.418Z" fill="white"/>
<path d="M25.6345 57.4593C22.538 57.4593 20.022 59.9705 20.022 63.0612V211.398C20.022 214.489 22.538 217 25.6345 217C28.7311 217 31.247 214.489 31.247 211.398V63.0612C31.247 59.9705 28.7311 57.4593 25.6345 57.4593Z" fill="white"/>
<path d="M45.6565 86.8913C42.56 86.8913 40.044 89.4025 40.044 92.4933V211.398C40.044 214.489 42.56 217 45.6565 217C48.7531 217 51.269 214.489 51.269 211.398V92.4933C51.269 89.4025 48.7531 86.8913 45.6565 86.8913Z" fill="white"/>
<path d="M65.6609 0C62.5644 0 60.0484 2.51121 60.0484 5.60193V211.398C60.0484 214.489 62.5644 217 65.6609 217C68.7575 217 71.2734 214.489 71.2734 211.398V5.60193C71.291 2.51121 68.7751 0 65.6609 0Z" fill="white"/>
<path d="M85.6829 21.7228C82.5864 21.7228 80.0704 24.234 80.0704 27.3247V211.398C80.0704 214.489 82.5864 217 85.6829 217C88.7795 217 91.2954 214.489 91.2954 211.398V27.3247C91.2954 24.234 88.7795 21.7228 85.6829 21.7228Z" fill="white"/>
<path d="M105.705 48.3451C102.608 48.3451 100.092 50.8563 100.092 53.947V211.38C100.092 214.471 102.608 216.982 105.705 216.982C108.801 216.982 111.317 214.471 111.317 211.38V53.9646C111.317 50.8563 108.801 48.3451 105.705 48.3451Z" fill="white"/>
<path d="M125.709 114.919C122.613 114.919 120.097 117.43 120.097 120.52V211.38C120.097 214.471 122.613 216.982 125.709 216.982C128.806 216.982 131.322 214.471 131.322 211.38V120.538C131.339 117.43 128.824 114.919 125.709 114.919Z" fill="white"/>
<path d="M145.731 77.3206C142.635 77.3206 140.119 79.8318 140.119 82.9225V211.398C140.119 214.489 142.635 217 145.731 217C148.828 217 151.344 214.489 151.344 211.398V82.9225C151.344 79.8318 148.828 77.3206 145.731 77.3206Z" fill="white"/>
<path d="M165.753 130.337C162.657 130.337 160.141 132.848 160.141 135.939V211.38C160.141 214.471 162.657 216.982 165.753 216.982C168.85 216.982 171.366 214.471 171.366 211.38V135.956C171.366 132.848 168.85 130.337 165.753 130.337Z" fill="white"/>
<path d="M185.758 58.8641C182.661 58.8641 180.145 61.3753 180.145 64.466V211.398C180.145 214.489 182.661 217 185.758 217C188.854 217 191.37 214.489 191.37 211.398V64.466C191.388 61.3753 188.872 58.8641 185.758 58.8641Z" fill="white"/>
<path d="M205.78 156.977C202.683 156.977 200.167 159.488 200.167 162.579V211.398C200.167 214.489 202.683 217 205.78 217C208.876 217 211.392 214.489 211.392 211.398V162.579C211.392 159.488 208.876 156.977 205.78 156.977Z" fill="white"/>
<path d="M225.802 177.295C222.705 177.295 220.189 179.806 220.189 182.897V211.398C220.189 214.489 222.705 217 225.802 217C228.898 217 231.414 214.489 231.414 211.398V182.897C231.414 179.806 228.898 177.295 225.802 177.295Z" fill="white"/>
<path d="M245.806 135.956C242.71 135.956 240.194 138.468 240.194 141.558V211.398C240.194 214.489 242.71 217 245.806 217C248.903 217 251.419 214.489 251.419 211.398V141.558C251.436 138.45 248.92 135.956 245.806 135.956Z" fill="white"/>
<path d="M265.828 101.607C262.732 101.607 260.216 104.119 260.216 107.209V211.38C260.216 214.471 262.732 216.982 265.828 216.982C268.925 216.982 271.441 214.471 271.441 211.38V107.209C271.441 104.119 268.925 101.607 265.828 101.607Z" fill="white"/>
<path d="M285.85 126.842C282.754 126.842 280.238 129.354 280.238 132.444V211.398C280.238 214.489 282.754 217 285.85 217C288.947 217 291.463 214.489 291.463 211.398V132.444C291.463 129.354 288.947 126.842 285.85 126.842Z" fill="white"/>
<path d="M305.855 179.982C302.758 179.982 300.242 182.493 300.242 185.584V211.398C300.242 214.489 302.758 217 305.855 217C308.951 217 311.467 214.489 311.467 211.398V185.584C311.485 182.493 308.969 179.982 305.855 179.982Z" fill="white"/>
<path d="M325.877 151.954C322.78 151.954 320.264 154.466 320.264 157.556V211.398C320.264 214.489 322.78 217 325.877 217C328.973 217 331.489 214.489 331.489 211.398V157.556C331.489 154.466 328.973 151.954 325.877 151.954Z" fill="white"/>
<path d="M345.899 140.031C342.802 140.031 340.286 142.542 340.286 145.632V211.38C340.286 214.471 342.802 216.982 345.899 216.982C348.995 216.982 351.511 214.471 351.511 211.38V145.65C351.511 142.542 348.995 140.031 345.899 140.031Z" fill="white"/>
<path d="M365.903 116.727C362.807 116.727 360.291 119.238 360.291 122.329V211.38C360.291 214.471 362.807 216.982 365.903 216.982C369 216.982 371.516 214.471 371.516 211.38V122.347C371.533 119.238 369.017 116.727 365.903 116.727Z" fill="white"/>
<path d="M385.925 146.458C382.829 146.458 380.313 148.969 380.313 152.06V211.398C380.313 214.489 382.829 217 385.925 217C389.022 217 391.538 214.489 391.538 211.398V152.06C391.538 148.969 389.022 146.458 385.925 146.458Z" fill="white"/>
<path d="M405.947 130.758C402.851 130.758 400.335 133.27 400.335 136.36V211.398C400.335 214.489 402.851 217 405.947 217C409.044 217 411.56 214.489 411.56 211.398V136.36C411.56 133.252 409.044 130.758 405.947 130.758Z" fill="white"/>
<path d="M425.952 175.187C422.855 175.187 420.339 177.699 420.339 180.789V211.398C420.339 214.489 422.855 217 425.952 217C429.048 217 431.564 214.489 431.564 211.398V180.789C431.582 177.699 429.066 175.187 425.952 175.187Z" fill="white"/>
<path d="M445.974 149.619C442.877 149.619 440.361 152.13 440.361 155.221V211.398C440.361 214.489 442.877 217 445.974 217C449.07 217 451.586 214.489 451.586 211.398V155.221C451.586 152.13 449.07 149.619 445.974 149.619Z" fill="white"/>
<path d="M465.996 115.094C462.899 115.094 460.383 117.605 460.383 120.696V211.381C460.383 214.471 462.899 216.982 465.996 216.982C469.092 216.982 471.608 214.471 471.608 211.381V120.714C471.608 117.605 469.092 115.094 465.996 115.094Z" fill="white"/>
<path d="M486 169.111C482.903 169.111 480.387 171.623 480.387 174.713V211.381C480.387 214.471 482.903 216.982 486 216.982C489.096 216.982 491.612 214.471 491.612 211.381V174.731C491.63 171.623 489.114 169.111 486 169.111Z" fill="white"/>
<path d="M506.022 139.978C502.925 139.978 500.409 142.489 500.409 145.58V211.398C500.409 214.489 502.925 217 506.022 217C509.118 217 511.634 214.489 511.634 211.398V145.58C511.634 142.489 509.118 139.978 506.022 139.978Z" fill="white"/>
<path d="M526.044 112.126C522.947 112.126 520.431 114.637 520.431 117.728V211.398C520.431 214.489 522.947 217 526.044 217C529.141 217 531.656 214.489 531.656 211.398V117.728C531.656 114.637 529.141 112.126 526.044 112.126Z" fill="white"/>
<path d="M546.048 151.533C542.952 151.533 540.436 154.044 540.436 157.135V211.38C540.436 214.471 542.952 216.982 546.048 216.982C549.145 216.982 551.661 214.471 551.661 211.38V157.152C551.678 154.044 549.163 151.533 546.048 151.533Z" fill="white"/>
<path d="M566.07 111.951C562.974 111.951 560.458 114.462 560.458 117.553V211.398C560.458 214.489 562.974 217 566.07 217C569.167 217 571.683 214.489 571.683 211.398V117.553C571.683 114.462 569.167 111.951 566.07 111.951Z" fill="white"/>
<path d="M586.092 181.667C582.996 181.667 580.48 184.179 580.48 187.269V211.38C580.48 214.471 582.996 216.982 586.092 216.982C589.189 216.982 591.705 214.471 591.705 211.38V187.269C591.705 184.179 589.189 181.667 586.092 181.667Z" fill="white"/>
<path d="M606.097 177.295C603 177.295 600.484 179.806 600.484 182.897V211.398C600.484 214.489 603 217 606.097 217C609.193 217 611.709 214.489 611.709 211.398V182.897C611.727 179.806 609.211 177.295 606.097 177.295Z" fill="white"/>
<path d="M626.119 135.956C623.022 135.956 620.506 138.468 620.506 141.558V211.398C620.506 214.489 623.022 217 626.119 217C629.215 217 631.731 214.489 631.731 211.398V141.558C631.731 138.45 629.215 135.956 626.119 135.956Z" fill="white"/>
<path d="M646.141 101.607C643.044 101.607 640.528 104.119 640.528 107.209V211.38C640.528 214.471 643.044 216.982 646.141 216.982C649.237 216.982 651.753 214.471 651.753 211.38V107.209C651.753 104.119 649.237 101.607 646.141 101.607Z" fill="white"/>
<path d="M666.145 126.842C663.049 126.842 660.533 129.354 660.533 132.444V211.398C660.533 214.489 663.049 217 666.145 217C669.242 217 671.758 214.489 671.758 211.398V132.444C671.775 129.354 669.259 126.842 666.145 126.842Z" fill="white"/>
<path d="M686.167 179.982C683.071 179.982 680.555 182.493 680.555 185.584V211.398C680.555 214.489 683.071 217 686.167 217C689.264 217 691.78 214.489 691.78 211.398V185.584C691.78 182.493 689.264 179.982 686.167 179.982Z" fill="white"/>
<path d="M706.189 151.954C703.093 151.954 700.577 154.466 700.577 157.556V211.398C700.577 214.489 703.093 217 706.189 217C709.286 217 711.802 214.489 711.802 211.398V157.556C711.802 154.466 709.286 151.954 706.189 151.954Z" fill="white"/>
<path d="M726.194 140.031C723.097 140.031 720.581 142.542 720.581 145.632V211.38C720.581 214.471 723.097 216.982 726.194 216.982C729.29 216.982 731.806 214.471 731.806 211.38V145.65C731.824 142.542 729.308 140.031 726.194 140.031Z" fill="white"/>
<path d="M746.216 116.727C743.119 116.727 740.603 119.238 740.603 122.329V211.38C740.603 214.471 743.119 216.982 746.216 216.982C749.312 216.982 751.828 214.471 751.828 211.38V122.347C751.828 119.238 749.312 116.727 746.216 116.727Z" fill="white"/>
<path d="M766.238 146.458C763.141 146.458 760.625 148.969 760.625 152.06V211.398C760.625 214.489 763.141 217 766.238 217C769.334 217 771.85 214.489 771.85 211.398V152.06C771.85 148.969 769.334 146.458 766.238 146.458Z" fill="white"/>
<path d="M786.242 130.758C783.146 130.758 780.63 133.27 780.63 136.36V211.398C780.63 214.489 783.146 217 786.242 217C789.339 217 791.855 214.489 791.855 211.398V136.36C791.872 133.252 789.356 130.758 786.242 130.758Z" fill="white"/>
<path d="M806.264 175.187C803.168 175.187 800.652 177.699 800.652 180.789V211.398C800.652 214.489 803.168 217 806.264 217C809.361 217 811.877 214.489 811.877 211.398V180.789C811.877 177.699 809.361 175.187 806.264 175.187Z" fill="white"/>
<path d="M826.286 149.619C823.19 149.619 820.674 152.13 820.674 155.221V211.398C820.674 214.489 823.19 217 826.286 217C829.383 217 831.899 214.489 831.899 211.398V155.221C831.899 152.13 829.383 149.619 826.286 149.619Z" fill="white"/>
<path d="M846.29 115.094C843.194 115.094 840.678 117.605 840.678 120.696V211.381C840.678 214.471 843.194 216.982 846.29 216.982C849.387 216.982 851.903 214.471 851.903 211.381V120.714C851.921 117.605 849.405 115.094 846.29 115.094Z" fill="white"/>
<path d="M866.312 169.111C863.216 169.111 860.7 171.623 860.7 174.713V211.381C860.7 214.471 863.216 216.982 866.312 216.982C869.409 216.982 871.925 214.471 871.925 211.381V174.731C871.925 171.623 869.409 169.111 866.312 169.111Z" fill="white"/>
<path d="M886.335 139.978C883.238 139.978 880.722 142.489 880.722 145.58V211.398C880.722 214.489 883.238 217 886.335 217C889.431 217 891.947 214.489 891.947 211.398V145.58C891.947 142.489 889.431 139.978 886.335 139.978Z" fill="white"/>
<path d="M906.339 112.126C903.242 112.126 900.726 114.637 900.726 117.728V211.398C900.726 214.489 903.242 217 906.339 217C909.435 217 911.951 214.489 911.951 211.398V117.728C911.969 114.637 909.453 112.126 906.339 112.126Z" fill="white"/>
<path d="M926.361 151.533C923.264 151.533 920.748 154.044 920.748 157.135V211.38C920.748 214.471 923.264 216.982 926.361 216.982C929.458 216.982 931.974 214.471 931.974 211.38V157.152C931.974 154.044 929.458 151.533 926.361 151.533Z" fill="white"/>
<path d="M946.383 111.951C943.286 111.951 940.771 114.462 940.771 117.553V211.398C940.771 214.489 943.286 217 946.383 217C949.48 217 951.996 214.489 951.996 211.398V117.553C951.996 114.462 949.48 111.951 946.383 111.951Z" fill="white"/>
<path d="M966.387 181.667C963.291 181.667 960.775 184.179 960.775 187.269V211.38C960.775 214.471 963.291 216.982 966.387 216.982C969.484 216.982 972 214.471 972 211.38V187.269C972.018 184.179 969.502 181.667 966.387 181.667Z" fill="white"/>
</g>
</svg>
