<svg width="83" height="81" viewBox="0 0 83 81" fill="none" xmlns="http://www.w3.org/2000/svg">
<g opacity="0.1">
<path d="M68.2367 23.678L66.9017 21.3657C62.7767 14.221 56.2979 8.95487 48.5342 6.33584L49.1419 4.07975C49.4623 2.89017 48.7423 1.64309 47.5518 1.32579C37.6592 -1.31116 27.1984 0.121094 18.342 5.23438C9.48551 10.3477 3.01478 18.6908 0.352109 28.5766C0.0317049 29.7661 0.751705 31.0132 1.94211 31.3305L4.19977 31.9323C2.58606 39.9654 3.90726 48.2093 8.03226 55.354L9.36726 57.6663C7.56605 59.7801 7.155 62.858 8.625 65.4041L15.375 77.0954C17.235 80.317 21.3809 81.4221 24.6109 79.5573L32.4254 75.0456C33.4934 74.429 33.8691 73.0343 33.2541 71.9691L22.0041 52.4835C21.3891 51.4183 19.9934 51.0463 18.9254 51.6629L13.0645 55.0467L11.9395 53.0981C8.35453 46.8887 7.23074 39.7087 8.62429 32.738C11.1629 32.6233 13.6557 31.0456 14.6841 28.6159C18.9089 18.7288 29.745 12.4726 40.3938 13.7723C41.8858 13.9502 43.4653 13.5578 44.7156 12.836C45.6534 12.2946 46.374 11.4974 46.9526 10.5745C53.7122 12.838 59.3684 17.4012 62.9684 23.6366L64.0934 25.5852L58.2325 28.969C57.1645 29.5856 56.7889 30.9802 57.4039 32.0454L68.6539 51.531C69.2689 52.5962 70.6645 52.9682 71.7325 52.3516L79.547 47.8399C82.777 45.9751 83.8929 41.8321 82.0329 38.6105L75.2829 26.9191C73.839 24.358 70.9679 23.175 68.2367 23.678Z" fill="white"/>
<path d="M52.5638 37.4379C51.4958 38.0545 51.1201 39.4492 51.7351 40.5144L58.4851 52.2058C59.1001 53.271 60.4958 53.643 61.5638 53.0264C62.6318 52.4098 63.0074 51.0151 62.3924 49.9499L55.6424 38.2586C55.0274 37.1934 53.6318 36.8213 52.5638 37.4379Z" fill="white"/>
<path d="M59.0779 62.2559L43.3279 34.9761C42.7129 33.9108 41.3172 33.5388 40.2492 34.1554C39.1813 34.772 38.8056 36.1667 39.4206 37.2319L55.1706 64.5117C55.7856 65.5769 57.1813 65.9489 58.2492 65.3323C59.3172 64.7157 59.6929 63.3211 59.0779 62.2559Z" fill="white"/>
<path d="M51.2633 66.7676L35.5133 39.4878C34.8983 38.4226 33.5027 38.0505 32.4347 38.6671C31.3667 39.2838 30.9911 40.6784 31.6061 41.7436L47.3561 69.0234C47.9711 70.0886 49.3667 70.4607 50.4347 69.8441C51.5027 69.2275 51.8783 67.8328 51.2633 66.7676Z" fill="white"/>
<path d="M38.9488 63.4851L32.1988 51.7937C31.5838 50.7285 30.1882 50.3565 29.1202 50.9731C28.0522 51.5897 27.6766 52.9844 28.2916 54.0496L35.0416 65.7409C35.6566 66.8061 37.0522 67.1782 38.1202 66.5616C39.1882 65.945 39.5638 64.5503 38.9488 63.4851Z" fill="white"/>
</g>
</svg>
