<svg width="112" height="28" viewBox="0 0 112 28" fill="none" xmlns="http://www.w3.org/2000/svg">
<g clip-path="url(#clip0_2894_19424)">
<path fill-rule="evenodd" clip-rule="evenodd" d="M39.4121 8.16211H52.9138V11.3704H47.9676V26.8774H44.3582V11.3704H39.4121V8.16211Z" fill="white"/>
<path fill-rule="evenodd" clip-rule="evenodd" d="M62.0036 15.3808H64.9981C65.8714 15.3808 66.4774 15.1937 66.8161 14.8194C67.1726 14.4276 67.3509 13.9549 67.3509 13.4024C67.3509 12.8323 67.1726 12.351 66.8161 11.9586C66.4593 11.5668 65.8536 11.3704 64.9981 11.3704H62.0036V15.3808ZM63.3137 18.5892H62.0036V26.8774H58.3945V8.16211H65.2123C66.9233 8.16211 68.2866 8.62583 69.3025 9.55235C70.4077 10.6043 70.9602 11.8785 70.9602 13.3757C70.9602 14.8729 70.4077 16.1476 69.3025 17.1989C68.7682 17.6983 68.144 18.0637 67.4314 18.2954L74.4362 26.8774H69.971L63.3137 18.5892Z" fill="white"/>
<path fill-rule="evenodd" clip-rule="evenodd" d="M96.816 3.28134L88.7363 7.94636C88.2472 7.87342 87.7475 7.83562 87.2383 7.83562C81.681 7.83562 77.1758 12.3408 77.1758 17.8981C77.1758 23.4555 81.681 27.9606 87.2383 27.9606C90.1625 27.9606 92.7954 26.7132 94.6338 24.7213L105.828 18.2579C106.037 18.1371 106.109 17.8695 105.988 17.6602C105.867 17.451 105.599 17.3793 105.39 17.5001L95.9375 22.9582C96.8047 21.4716 97.3008 19.7428 97.3008 17.8981C97.3008 13.3017 94.219 9.42499 90.0085 8.22183L97.2535 4.03912C97.4627 3.9183 97.5344 3.65073 97.4137 3.44148C97.2929 3.23223 97.0252 3.16053 96.816 3.28134ZM87.2383 10.4606C91.3455 10.4606 94.6758 13.7905 94.6758 17.8981C94.6758 22.0057 91.3455 25.3356 87.2383 25.3356C83.1307 25.3356 79.8008 22.0057 79.8008 17.8981C79.8008 13.7905 83.1307 10.4606 87.2383 10.4606Z" fill="white"/>
<path d="M98.2227 11.1563L107.316 5.90634C107.525 5.78553 107.793 5.85723 107.913 6.06648C108.034 6.27573 107.962 6.5433 107.753 6.66411L98.6602 11.9141C98.451 12.0349 98.1833 11.9633 98.0625 11.754C97.9418 11.5448 98.0135 11.2772 98.2227 11.1563Z" fill="white"/>
<path d="M99.0979 15.5313L110.464 8.96885C110.673 8.84801 110.941 8.91976 111.062 9.12897C111.182 9.33827 111.111 9.60585 110.902 9.7266L99.5354 16.2891C99.3254 16.4099 99.0585 16.3383 98.9377 16.129C98.817 15.9198 98.8879 15.6522 99.0979 15.5313Z" fill="white"/>
<path d="M82.8868 15.0938L108.651 0.218843C108.86 0.0980311 109.128 0.169726 109.249 0.378979C109.369 0.588232 109.298 0.855803 109.089 0.976611L83.3243 15.8516C83.1151 15.9724 82.8475 15.9008 82.7267 15.6915C82.6058 15.4823 82.6776 15.2147 82.8868 15.0938Z" fill="white"/>
<mask id="mask0_2894_19424" style="mask-type:alpha" maskUnits="userSpaceOnUse" x="22" y="7" width="14" height="21">
<path fill-rule="evenodd" clip-rule="evenodd" d="M22.7031 7.89453H35.8038V27.1448H22.7031V7.89453Z" fill="white"/>
</mask>
<g mask="url(#mask0_2894_19424)">
<path fill-rule="evenodd" clip-rule="evenodd" d="M22.7031 24.3376L25.0559 21.8779C26.3033 23.2506 27.7737 23.9362 29.4673 23.9362C30.2694 23.9362 30.9244 23.7137 31.4325 23.2678C31.9404 22.8225 32.1944 22.2614 32.1944 21.5834C32.1944 20.8711 31.9093 20.2962 31.3389 19.8592C30.7682 19.4226 29.8993 18.9817 28.7321 18.5358C27.5646 18.0905 26.7224 17.7162 26.2056 17.4126C24.441 16.3794 23.5587 14.9621 23.5587 13.1619C23.5587 11.5755 24.1736 10.3011 25.4035 9.33858C26.6334 8.37608 28.0771 7.89453 29.7347 7.89453C31.7666 7.89453 33.5755 8.48303 35.1622 9.65944L33.2906 12.333C32.3991 11.5134 31.3211 11.1032 30.0556 11.1032C29.2888 11.1032 28.6159 11.2728 28.0369 11.6111C27.4573 11.9498 27.1681 12.4581 27.1681 13.1351C27.1681 13.6698 27.4663 14.1377 28.0637 14.5388C28.6608 14.9398 29.378 15.2963 30.216 15.6082C31.0537 15.9202 31.8959 16.2811 32.7425 16.691C33.5889 17.1013 34.3108 17.7162 34.9082 18.5358C35.5053 19.3558 35.8038 20.3539 35.8038 21.5303C35.8038 23.1526 35.1797 24.4935 33.9323 25.5541C32.6846 26.6146 31.196 27.1448 29.4673 27.1448C27.0076 27.1448 24.7526 26.2091 22.7031 24.3376Z" fill="white"/>
</g>
<mask id="mask1_2894_19424" style="mask-type:alpha" maskUnits="userSpaceOnUse" x="0" y="8" width="19" height="19">
<path fill-rule="evenodd" clip-rule="evenodd" d="M0 8.06348H18.5815V26.8008H0V8.06348Z" fill="white"/>
</mask>
<g mask="url(#mask1_2894_19424)">
<path fill-rule="evenodd" clip-rule="evenodd" d="M8.02084 8.06348L0 26.7787C0 26.7787 3.62096 26.8283 3.76979 26.7787C3.91863 26.7291 9.27745 13.892 9.27745 13.892L14.8118 26.7787H18.5816L10.5607 8.06348H8.02084Z" fill="white"/>
</g>
</g>
<defs>
<clipPath id="clip0_2894_19424">
<rect width="112" height="28" fill="white"/>
</clipPath>
</defs>
</svg>
