<svg width="114" height="47" viewBox="0 0 114 47" fill="none" xmlns="http://www.w3.org/2000/svg">
<g clip-path="url(#clip0_2894_19427)">
<path d="M48.4505 34.2423V29.2454H55.031V26.0274H48.4505V23.6489H55.7268V20.251H44.5938V34.2423H48.4505ZM60.339 34.4822C61.0548 34.4822 61.6677 34.3589 62.178 34.1124C62.6883 33.8659 63.129 33.5361 63.5001 33.123V34.2423H67.2376V28.0262C67.2376 27.2666 67.1481 26.6037 66.9691 26.0374C66.7902 25.4711 66.4954 24.9881 66.0845 24.5883C65.6604 24.1619 65.1137 23.8355 64.4444 23.6089C63.775 23.3824 62.9566 23.2692 61.9891 23.2692C61.0614 23.2692 60.2562 23.3457 59.5737 23.499C58.8911 23.6523 58.245 23.8555 57.6353 24.1086L58.4106 26.787C58.8877 26.6004 59.3583 26.4538 59.8222 26.3472C60.286 26.2406 60.8029 26.1874 61.3729 26.1874C62.1018 26.1874 62.6418 26.3406 62.9931 26.647C63.3443 26.9535 63.5199 27.3865 63.5199 27.9463V28.1262C63.2151 28.0195 62.834 27.9229 62.3768 27.8363C61.9195 27.7497 61.4391 27.7064 60.9355 27.7064C60.2993 27.7064 59.7227 27.7796 59.2058 27.9263C58.689 28.0728 58.2483 28.286 57.8838 28.5658C57.5193 28.8457 57.2344 29.1988 57.0289 29.6252C56.8235 30.0516 56.7208 30.5446 56.7208 31.1042V31.1442C56.7208 31.6905 56.8136 32.1703 56.9992 32.5834C57.1847 32.9964 57.4398 33.3429 57.7645 33.6227C58.0892 33.9025 58.4703 34.1157 58.9076 34.2623C59.345 34.4089 59.8222 34.4822 60.339 34.4822ZM61.6909 32.1036C61.3066 32.1036 60.9885 32.0004 60.7367 31.7939C60.4848 31.5873 60.3589 31.2975 60.3589 30.9244V30.8844C60.3589 30.4846 60.5081 30.1615 60.8063 29.915C61.1044 29.6685 61.5319 29.5452 62.0885 29.5452C62.3669 29.5452 62.6353 29.5719 62.8936 29.6252C63.1521 29.6785 63.3741 29.7451 63.5597 29.8251V30.3247C63.5597 30.871 63.3874 31.3041 63.0428 31.624C62.6982 31.9437 62.2476 32.1036 61.6909 32.1036ZM73.1023 22.4497V19.6514H69.1659V22.4497H73.1023ZM73.0227 34.2423V23.4291H69.2455V34.2423H73.0227ZM78.9869 34.2423V19.6514H75.2096V34.2423H78.9869ZM86.5815 34.5022C87.4424 34.5022 88.2379 34.3522 88.967 34.0524C89.6961 33.7526 90.3256 33.3462 90.8556 32.8332C91.3856 32.3202 91.8 31.7205 92.0977 31.0343C92.3963 30.3481 92.5452 29.6185 92.5452 28.8457V28.8057C92.5452 28.0328 92.3997 27.3066 92.1079 26.627C91.8161 25.9475 91.4052 25.3545 90.8752 24.8482C90.3452 24.3418 89.719 23.9387 88.9968 23.6389C88.2745 23.3391 87.4824 23.1892 86.6206 23.1892C85.7597 23.1892 84.9643 23.3391 84.2353 23.6389C83.5064 23.9387 82.8768 24.3451 82.3467 24.8581C81.8165 25.3712 81.4024 25.9708 81.1041 26.657C80.8059 27.3433 80.6568 28.0728 80.6568 28.8457V28.8857C80.6568 29.6585 80.8026 30.3847 81.0942 31.0642C81.3858 31.7439 81.7966 32.3402 82.3268 32.8532C82.8569 33.3661 83.4832 33.7692 84.2055 34.0624C84.9278 34.3555 85.7197 34.5022 86.5815 34.5022ZM86.6206 31.2841C86.2897 31.2841 85.9851 31.2176 85.7061 31.0842C85.4279 30.951 85.1863 30.7745 84.9808 30.5546C84.7754 30.3347 84.6163 30.0782 84.5037 29.7851C84.3911 29.492 84.3347 29.1788 84.3347 28.8457V28.8057C84.3347 28.4859 84.3878 28.1794 84.4938 27.8863C84.5998 27.5931 84.7489 27.3366 84.9411 27.1168C85.1335 26.8969 85.3683 26.7237 85.6465 26.597C85.9256 26.4705 86.2369 26.4071 86.5815 26.4071C86.9124 26.4071 87.217 26.4738 87.496 26.607C87.7742 26.7403 88.0158 26.9169 88.2217 27.1368C88.4268 27.3566 88.5858 27.6131 88.6981 27.9063C88.8113 28.1994 88.8674 28.5126 88.8674 28.8457V28.8857C88.8674 29.2054 88.8147 29.5119 88.7084 29.8051C88.602 30.0982 88.4531 30.3547 88.2609 30.5746C88.0686 30.7945 87.8338 30.9677 87.5556 31.0942C87.2774 31.2209 86.9652 31.2841 86.6206 31.2841ZM97.9134 34.2423V30.8844C97.9134 29.6319 98.178 28.7125 98.708 28.1262C99.238 27.5398 100 27.2467 100.995 27.2467H101.313V23.2492C100.411 23.2092 99.6957 23.4091 99.1657 23.8488C98.6357 24.2885 98.218 24.8748 97.9134 25.6077V23.4291H94.1361V34.2423H97.9134ZM105.825 37.5003C106.355 37.5003 106.826 37.4336 107.237 37.3004C107.648 37.1672 108.013 36.9606 108.331 36.6808C108.648 36.401 108.933 36.0379 109.185 35.5915C109.437 35.145 109.683 34.6087 109.921 33.9824L113.857 23.4291H109.98L107.953 29.945L105.806 23.4291H101.849L106.064 34.0424C105.944 34.2156 105.815 34.3322 105.676 34.3922C105.537 34.4522 105.374 34.4822 105.189 34.4822C104.977 34.4822 104.725 34.4322 104.434 34.3322C104.143 34.2323 103.844 34.0891 103.539 33.9025L102.366 36.5609C102.87 36.8407 103.403 37.0672 103.966 37.2404C104.53 37.4137 105.15 37.5003 105.825 37.5003Z" fill="#F1554C"/>
<path d="M33.8446 16.168H0.851562V41.4713H33.8446V16.168Z" fill="white"/>
<path fill-rule="evenodd" clip-rule="evenodd" d="M1.37891 16.5389V40.7616L25.4892 33.6322V7.57617L1.37891 16.5389Z" fill="white" stroke="#F1554C" stroke-width="2"/>
<path fill-rule="evenodd" clip-rule="evenodd" d="M1.27344 16.3621V40.6604L16.924 29.767V2.64453L1.27344 16.3621Z" fill="white" stroke="#F1554C" stroke-width="2"/>
<path fill-rule="evenodd" clip-rule="evenodd" d="M23.0586 41.0459L28.8757 46.8943V41.1387" fill="white"/>
</g>
<defs>
<clipPath id="clip0_2894_19427">
<rect width="114" height="47" fill="white"/>
</clipPath>
</defs>
</svg>
