<svg width="96" height="89" viewBox="0 0 96 89" fill="none" xmlns="http://www.w3.org/2000/svg">
<g opacity="0.1">
<path d="M78.2397 4.63549C75.3647 0.831161 70.7115 -0.801052 66.0964 0.37591C65.9878 0.403656 65.8806 0.435997 65.7749 0.47303L34.1048 11.5616L28.2067 8.14918C20.8254 3.87863 11.353 6.42209 7.09146 13.8189L2.06783 22.5384C-2.19374 29.9353 0.344373 39.4276 7.72563 43.6982L13.6239 47.1107L19.8762 80.14C19.897 80.2502 19.9226 80.3596 19.953 80.4676C20.8059 83.5035 22.7208 85.9422 25.281 87.4233C26.6089 88.1915 28.1105 88.7022 29.7267 88.905C34.43 89.4953 38.8256 87.3038 41.198 83.1861C42.2652 81.3337 41.632 78.9656 39.7836 77.8961C37.9352 76.8267 35.572 77.4613 34.5048 79.3136C33.3154 81.3779 31.282 81.2947 30.6871 81.2201C30.093 81.1454 28.1311 80.7303 27.4332 78.5063L20.8867 43.9232C20.6772 42.8158 19.9963 41.8549 19.0223 41.2913L11.5898 36.9911C7.89915 34.8559 6.6301 30.1097 8.76088 26.4113L13.7845 17.6917C15.9153 13.9933 20.6515 12.7216 24.3421 14.8569L31.7746 19.1571C32.7487 19.7206 33.9195 19.8308 34.9813 19.4592L68.1413 7.84875C70.3872 7.34877 71.7186 8.83594 72.0783 9.31153C72.4454 9.79703 73.5492 11.544 72.3471 13.6306L44.1655 62.5455C43.0983 64.3978 43.7315 66.766 45.5799 67.8354C47.4283 68.9049 49.7915 68.2703 50.8587 66.418L79.0403 17.5031C81.4217 13.3704 81.1147 8.43982 78.2397 4.63549Z" fill="white"/>
<path d="M68.7263 68.1578L68.8845 68.061C70.6865 66.9586 74.0407 64.907 76.8663 60.0026C79.7974 54.9151 79.8302 50.7787 79.8462 48.7908C79.8628 46.6521 78.1471 44.9046 76.0126 44.8875C73.8785 44.8707 72.1346 46.5905 72.1176 48.7291C72.1047 50.3545 72.0852 52.8112 70.1731 56.1301C68.3325 59.3248 66.2414 60.6039 64.8578 61.4505L64.689 61.5536C62.8691 62.6708 62.2976 65.055 63.4124 66.8787C63.7608 67.4486 64.2323 67.8962 64.772 68.2084C65.959 68.8952 67.4748 68.926 68.7263 68.1578Z" fill="white"/>
<path d="M94.4556 34.9229C93.8933 32.8596 91.7684 31.6437 89.7097 32.2072C87.6508 32.7707 86.4375 34.8999 86.9998 36.9631C89.4979 46.1309 88.2788 55.6836 83.5672 63.8615C78.846 72.0561 71.1948 77.8997 62.0229 80.3156C59.9587 80.8592 58.7252 82.9769 59.2678 85.0453C59.5407 86.086 60.2112 86.9159 61.0731 87.4146C61.9241 87.907 62.962 88.0762 63.9875 87.806C75.1694 84.8608 84.4998 77.732 90.2602 67.7336C96.0112 57.752 97.5013 46.0996 94.4556 34.9229Z" fill="white"/>
</g>
</svg>
