<svg width="122" height="110" viewBox="0 0 122 110" fill="none" xmlns="http://www.w3.org/2000/svg">
<g opacity="0.5">
<path d="M22.1394 26.9218C18.9334 26.9218 16.6734 24.8646 16.4632 21.8052C16.3055 20.0118 16.8311 18.3766 17.8297 16.8996C18.8808 15.4227 21.1934 14.3149 23.0329 15.4227C23.1905 15.5282 23.4008 15.5809 23.611 15.6336C26.0287 15.8974 28.1835 18.5876 28.131 21.3832C28.0784 24.0734 25.871 26.3943 23.0329 26.8163C22.7175 26.869 22.3496 26.9218 22.1394 26.9218Z" fill="#FDB12E"/>
<path d="M47.5258 10.886C43.8993 10.886 41.5343 7.93208 42.3752 4.34519C42.638 3.13198 43.2161 2.02427 44.1096 1.18029C45.1082 0.230825 46.2644 -0.243909 47.6835 0.125329C48.3142 0.283573 48.9449 0.283573 49.523 0.441818C51.6253 0.863805 53.0969 2.12976 53.6225 4.2397C54.2006 6.34963 53.4123 8.03757 51.8355 9.40903C50.6267 10.464 49.1551 10.886 47.5258 10.886Z" fill="#FDB12E"/>
<path d="M12.4168 41.9538C12.3642 45.4879 9.05312 47.7561 5.84711 46.3847C1.43227 44.5385 1.01181 39.7384 2.95644 36.679C3.42946 35.9405 4.11271 35.4658 4.95363 35.202C5.68943 34.991 6.4778 34.9383 7.00337 35.413C7.8443 36.2042 8.89545 36.468 9.78893 37.0482C11.4182 38.1032 12.4168 39.9494 12.4168 41.9538Z" fill="#FDB12E"/>
<path d="M19.7744 96.2863C15.9377 96.2863 13.0996 93.2269 13.3098 89.6928C13.4675 87.2136 15.0442 86.0004 17.4618 86.5806C17.8297 86.6861 18.1976 86.6334 18.5655 86.6861C19.2488 86.7389 19.9846 86.7389 20.6679 86.8443C23.0855 87.2663 24.8199 89.218 24.8199 91.5389C24.8199 93.7016 23.0855 95.7061 20.773 96.2335C20.4051 96.2335 19.9846 96.2335 19.7744 96.2863Z" fill="#FDB12E"/>
<path d="M10.1571 65.7976C10.1571 67.6965 9.579 69.279 8.31761 70.5449C6.58321 72.2856 4.06045 72.4439 2.16837 70.8614C-0.196719 68.9625 -0.722296 65.0063 1.06466 62.6327C2.3786 60.892 4.27068 60.5755 6.26787 60.9975C8.31761 61.4195 9.52644 62.7909 9.99946 64.8481C10.1046 65.2173 10.1571 65.5866 10.1571 65.7976Z" fill="#FDB12E"/>
<path d="M66.0781 104.408C66.0781 101.665 68.1279 99.6602 71.0185 99.6602C74.3822 99.6602 76.7999 101.876 76.7999 104.988C76.7999 107.731 74.4348 109.946 71.5441 109.999C68.4432 109.999 66.0781 107.572 66.0781 104.408Z" fill="#FDB12E"/>
<path d="M43.6879 109.05C40.3767 109.05 37.1707 105.832 37.2233 102.509C37.2233 100.188 39.0103 98.922 41.2177 99.6078C41.7432 99.766 42.3739 99.766 42.9521 99.766C45.3697 99.6605 47.1567 100.768 47.945 102.825C49.1539 105.938 47.0516 109.102 43.6879 109.05Z" fill="#FDB12E"/>
<path d="M106.495 94.2818C106.495 96.6027 104.55 98.6599 102.132 98.9237C100.03 99.1347 97.8226 97.8687 97.0342 95.917C96.5086 94.6511 96.5612 93.4378 97.3496 92.3301C97.4021 92.2246 97.5072 92.1191 97.5598 92.0136C99.3468 89.5345 102.027 89.0597 104.603 90.7477C105.811 91.5917 106.495 92.8576 106.495 94.2818Z" fill="#FDB12E"/>
<path d="M65.5527 7.14057C65.5527 6.03286 65.8155 5.13614 66.3937 4.29216C67.4448 2.70971 69.1267 2.28773 70.8085 3.18445C71.4917 3.55369 72.1224 3.92292 72.7531 4.39766C74.1196 5.50537 74.6978 6.92958 74.2773 8.67027C73.8568 10.4637 72.648 11.5714 70.8085 11.9407C69.0741 12.2572 67.655 11.6242 66.6039 10.2527C65.8681 9.30325 65.5527 8.24828 65.5527 7.14057Z" fill="#FDB12E"/>
<path d="M117.112 66.536C119.897 66.4833 122.052 68.8042 122 71.2834C121.947 72.7603 121.422 73.9736 120.318 74.9758C118.005 77.0857 114.484 75.978 113.801 72.9186C113.643 72.2329 113.591 71.4416 113.801 70.8086C114.116 69.7537 114.642 68.6987 115.167 67.6965C115.693 66.8525 116.586 66.536 117.112 66.536Z" fill="#FDB12E"/>
<path d="M76.7482 41.955C76.7482 41.7967 76.6956 41.5857 76.6956 41.3747C76.5905 39.634 77.5366 38.4736 79.1659 38.1043C81.4258 37.6296 83.9486 39.1593 84.4216 41.322C84.9472 43.5902 83.4756 45.8056 81.163 46.3858C78.7979 46.966 76.2226 45.1726 76.6431 42.4824C76.6956 42.3242 76.6956 42.166 76.7482 41.955Z" fill="#FDB12E"/>
<path d="M34.6484 32.6179C34.701 30.9827 35.1215 29.7168 36.1726 28.7673C37.9596 27.1321 40.4298 27.7123 41.2181 29.664C41.4284 30.1388 41.6912 30.5607 41.9539 30.9827C42.6898 32.4069 42.7423 33.8311 41.7963 35.1498C40.9028 36.4158 39.6414 36.996 38.0647 36.7323C36.3828 36.4685 35.3842 35.4136 34.8587 33.8839C34.7536 33.3564 34.701 32.8817 34.6484 32.6179Z" fill="#FDB12E"/>
<path d="M54.7778 79.0898C56.1969 79.7228 58.0364 80.1448 59.035 81.8855C59.8234 83.3097 59.508 85.0504 58.2992 86.3164C57.0378 87.5823 55.1983 87.8988 53.6741 87.1603C51.4667 86.0526 50.5207 82.9932 51.7295 80.8305C52.3076 79.7228 53.3062 79.0898 54.7778 79.0898Z" fill="#FDB12E"/>
<path d="M77.5885 83.5198C75.3285 83.5198 73.489 81.6209 73.5941 79.3527C73.6467 78.456 73.9095 77.5065 74.3299 76.7153C74.9606 75.4493 76.1695 74.9746 77.4834 75.2383C78.3769 75.3966 79.2704 75.7658 80.0062 76.2933C81.5829 77.3482 82.161 79.0889 81.6355 80.6714C81.1099 82.3593 79.3755 83.5198 77.5885 83.5198Z" fill="#FDB12E"/>
<path d="M25.3457 48.9701C25.3457 47.8096 25.661 46.8074 26.502 46.0161C27.8159 44.8029 29.708 44.9084 30.8117 46.2799C31.1796 46.7546 31.5475 47.1766 31.968 47.5986C32.5987 48.2316 33.0717 48.9701 33.2819 49.8668C33.8075 52.3459 31.7577 54.4559 29.2875 53.9811C27.1327 53.6119 25.3983 51.3965 25.3457 48.9701Z" fill="#FDB12E"/>
<path d="M91.7264 22.0163C90.2022 22.0163 88.8883 21.0668 88.5204 19.5371C88.3627 18.8514 88.0999 18.2184 87.6269 17.6382C86.5232 16.3195 86.9437 14.4733 88.4678 13.6821C88.7832 13.5238 89.1511 13.3656 89.519 13.3128C91.9892 12.9963 94.9324 15.2645 95.1952 17.7437C95.458 20.0119 93.8287 22.0163 91.7264 22.0163Z" fill="#FDB12E"/>
<path d="M56.5646 26.8158C56.5646 28.0818 56.3544 29.0312 55.7237 29.928C54.4098 31.8269 51.8344 31.9852 50.3103 30.1917C49.0489 28.7675 48.9438 26.7631 49.9424 25.1806C50.1526 24.8114 50.3628 24.4421 50.5205 24.0729C51.3614 21.963 53.7265 21.4882 55.2507 23.1762C56.3018 24.2839 56.5646 25.6026 56.5646 26.8158Z" fill="#FDB12E"/>
<path d="M107.967 33.0394C107.967 35.0439 106.495 36.6263 104.551 36.7846C102.448 36.9428 100.609 35.4131 100.399 33.2504C100.293 32.4592 100.346 31.668 100.399 30.8768C100.556 29.5053 101.66 28.5558 103.079 28.4503C105.444 28.2393 108.019 30.6658 107.967 33.0394Z" fill="#FDB12E"/>
<path d="M119.109 48.5491C119.109 50.5535 117.533 52.347 115.483 52.5579C113.591 52.7689 111.751 51.503 111.384 49.604C111.121 48.3381 111.436 47.0721 111.962 45.9644C112.172 45.4897 112.75 45.0677 113.223 44.8039C115.693 43.5907 119.109 45.7534 119.109 48.5491Z" fill="#FDB12E"/>
<path d="M94.6176 61.8397C94.6176 63.5804 93.5139 65.0573 91.8321 65.4266C90.2553 65.7958 88.6786 64.9518 87.9428 63.3694C87.7326 62.9474 87.4698 62.4727 87.1544 62.1034C86.0507 60.5737 86.5763 58.5693 88.3107 57.7781C91.0437 56.5648 94.6176 58.8858 94.6176 61.8397Z" fill="#FDB12E"/>
<path d="M69.2321 30.6659C69.2321 30.8242 69.2321 31.0352 69.1795 31.2989C68.9168 33.0923 67.6554 34.3583 66.0261 34.3583C64.4493 34.3583 63.1354 33.1978 62.8201 31.5099C62.6624 30.5604 62.4522 29.6109 62.2945 28.6615C62.0843 27.5538 62.347 26.5515 63.2931 25.8658C64.2917 25.1273 65.3428 25.1801 66.394 25.7603C67.813 26.4988 69.2321 28.8725 69.2321 30.6659Z" fill="#FDB12E"/>
<path d="M40.7986 71.7584C40.6935 73.1299 40.0102 74.2904 38.5912 74.9233C37.1721 75.5563 35.8056 75.3453 34.5968 74.2904C33.1777 73.0771 32.7047 70.809 33.4931 69.0683C34.2814 67.3276 36.2261 66.6419 37.9605 67.5386C39.7474 68.4353 40.7986 69.965 40.7986 71.7584Z" fill="#FDB12E"/>
<path d="M53.0979 49.4454C53.0453 50.2367 53.0453 50.7641 52.9928 51.2389C52.7826 52.5048 52.0467 53.3488 50.7854 53.718C49.5765 54.0345 48.5254 53.6653 47.737 52.7686C46.2654 51.1861 46.4231 48.4432 47.8947 46.9663C48.8933 46.0168 50.3123 45.7531 51.5212 46.3333C52.6774 46.8608 53.203 47.9685 53.1505 49.3399C53.0979 49.4982 53.0979 49.6037 53.0979 49.4454Z" fill="#FDB12E"/>
<path d="M66.3413 68.6983C66.3413 70.0697 65.3427 71.2302 63.9237 71.5467C62.5572 71.8632 61.3483 71.4939 60.3497 70.439C59.4037 69.384 59.0884 68.1708 59.4563 66.7993C59.7716 65.6389 60.56 64.9004 61.7162 64.6366C62.8199 64.3729 63.766 64.7421 64.5543 65.5861C64.8697 65.9554 65.2376 66.3246 65.5529 66.6938C66.1311 67.2741 66.3939 67.907 66.3413 68.6983Z" fill="#FDB12E"/>
<path d="M52.9384 63.2117C52.8859 64.8997 52.3603 65.9019 51.204 66.4821C50.0478 67.0624 48.8915 66.9041 47.8929 66.1129C46.3687 64.9524 46.0008 62.5788 46.9994 60.9436C48.2083 58.9919 50.8361 58.9919 51.9924 60.9963C52.4654 61.7348 52.7282 62.6843 52.9384 63.2117Z" fill="#FDB12E"/>
<path d="M72.0193 53.2949C72.0193 54.8773 71.1258 56.196 69.7593 56.5653C68.3928 56.9345 66.9212 56.3015 66.1854 54.9301C65.7124 54.0861 65.5021 53.1366 65.7124 52.1344C65.9751 50.8685 66.7109 50.0245 67.9723 49.708C69.1812 49.3915 70.1798 49.8135 71.0207 50.7102C71.7039 51.3959 71.9667 52.3454 72.0193 53.2949Z" fill="#FDB12E"/>
<path d="M63.8717 47.1244C62.1373 47.1244 60.5605 45.4892 60.5605 43.6957C60.5605 42.1133 61.7694 40.9001 63.3461 40.9528C65.3958 40.9528 66.9726 42.3243 66.9726 44.0122C66.9726 45.6474 65.5535 47.1244 63.8717 47.1244Z" fill="#FDB12E"/>
</g>
</svg>
