<svg width="85" height="84" viewBox="0 0 85 84" fill="none" xmlns="http://www.w3.org/2000/svg">
<g opacity="0.3">
<path fill-rule="evenodd" clip-rule="evenodd" d="M4.60327 58.85H5.33326C5.55841 59.0217 5.33409 59.2963 5.50471 59.496C5.64765 59.5038 5.79224 59.5116 6.00707 59.5231C6.17314 59.1822 6.2913 58.6874 6.8833 58.8504C7.11052 58.9039 6.92999 59.1971 7.09358 59.2708C7.43895 59.384 7.67567 59.1934 7.99791 59.018C8.41682 59.6038 9.18027 59.7442 9.69089 60.2687C9.79004 60.6718 9.61281 61.1222 9.92637 61.5166C10.0247 61.6401 9.99123 62.0238 9.87266 62.1354C9.50912 62.4779 9.94951 62.8283 9.83218 63.0626C9.65908 63.4088 9.79706 63.683 9.72931 63.9506C10.0425 64.0803 10.1532 63.9131 10.3585 63.6991C10.3969 64.5249 10.5316 65.2689 10.1003 65.9927C9.93752 66.0104 9.75988 66.0297 9.50209 66.0585C9.60124 66.4196 9.25959 66.6835 9.27364 67.0421C9.29594 67.6329 9.11128 68.1644 8.81011 68.6473C8.55769 69.0508 8.599 69.4761 8.59198 69.9191C8.24331 70.2382 7.88637 70.5638 7.52241 70.8965C7.5381 70.9097 7.48564 70.866 7.37038 70.7705C7.21421 70.9006 7.05847 71.1229 6.85975 71.1723C6.58627 71.2398 6.40036 71.5272 6.05334 71.4288C5.81001 71.3596 5.53115 71.4103 5.2684 71.4169C5.04862 71.4226 4.81314 71.3967 4.61319 71.4667C4.35375 71.5569 4.13314 71.8121 3.87576 71.8463C3.39654 71.9097 2.90244 71.8644 2.37488 71.8644C2.11007 71.3629 1.53087 71.244 1.06735 71.0381C0.500542 70.7861 0.231599 70.3501 0.0539556 69.8779C-0.126993 69.3962 0.186568 68.8981 0.413786 68.4769C0.705452 67.9376 1.08429 67.4332 1.6073 67.0787C1.22723 66.4698 0.87855 65.8856 1.38174 65.2059C1.52674 63.231 2.76322 61.7307 3.64772 60.0814C3.88237 59.6442 4.45744 59.44 4.60327 58.85Z" fill="#FEE0AB"/>
<path fill-rule="evenodd" clip-rule="evenodd" d="M78.8919 20.5253C78.8208 20.6109 78.7576 20.6871 78.6928 20.7649C78.7477 20.9399 78.9262 20.8588 79.0513 20.9238C79.2592 21.0774 78.9898 21.3635 79.2265 21.5488C79.3029 21.541 79.4446 21.5686 79.4979 21.5126C80.1866 20.7921 80.3118 21.0918 80.9228 21.6357C80.9951 21.7003 81.0319 21.7011 81.1339 21.7102C82.5402 21.8325 83.0863 22.3796 83.2441 23.7617C83.4272 23.7839 83.4842 23.4912 83.7428 23.6044C83.8812 24.0573 84.4583 24.3443 84.3302 24.9902C84.3038 25.1249 84.5889 25.3208 84.7301 25.4884C84.189 25.9376 85.2325 26.5613 84.5831 26.9977C84.5967 27.2855 84.9243 27.3378 84.9859 27.5873C85.0578 27.8759 84.8314 28.05 84.757 28.2814C84.4988 29.0892 83.944 29.7397 83.5424 30.4688C83.2041 31.0835 82.4485 31.3441 81.8684 31.678C81.5561 31.6166 81.4566 31.3437 81.2417 31.2177C81.1765 31.3832 81.1256 31.512 81.0401 31.7274C80.8935 31.5137 80.772 31.3375 80.6596 31.1749C80.3539 31.3733 80.565 31.6434 80.4064 31.8575H78.87C78.7911 31.7784 78.6349 31.6228 78.4494 31.4379C77.9128 31.9563 77.4546 31.545 76.9717 31.2411C76.333 31.8855 75.6832 30.9056 75.0259 31.272C74.7433 30.962 74.3178 30.8031 74.3855 30.2934C74.393 30.2374 74.3306 30.1213 74.2922 30.1172C73.5287 30.0398 73.5985 29.293 73.3027 28.8652C73.4899 28.3996 73.8394 28.036 74.2116 27.6902C74.2942 27.614 74.3711 27.4638 74.4512 27.4633C75.4526 27.4588 75.4935 26.5177 75.9356 25.9717C76.3185 25.4987 76.4615 24.9071 76.6218 24.3504C76.7779 23.8099 76.8829 23.245 76.9027 22.6555C76.9238 22.0218 76.8878 21.2367 77.7765 20.979C77.9347 20.9329 78.0528 20.7328 78.1768 20.5928C78.3887 20.3536 78.6217 20.394 78.8919 20.5253Z" fill="#FEE0AB"/>
<path fill-rule="evenodd" clip-rule="evenodd" d="M56.2843 36.1153C55.9105 36.2767 55.5225 36.4154 55.0685 36.3948C54.2071 36.3565 53.3404 36.3471 52.4803 36.3989C52.0515 36.4249 51.6098 36.3611 51.2434 36.2651C50.9521 36.1898 50.758 36.618 50.5237 36.2944C50.3325 36.0309 50.0268 36.2363 49.7966 36.1515C49.5364 36.0556 49.3187 35.8147 48.9754 35.9868C48.8225 36.0515 49.0753 36.4018 48.7258 36.3734C48.0454 36.3269 48.4437 35.4467 47.8756 35.2808C47.8351 35.3964 47.7889 35.5261 47.7397 35.664C47.5616 35.699 47.4468 35.5146 47.4389 35.4446C47.3724 34.8798 47.0601 34.3618 47.1237 33.7739C47.1473 33.5615 47.1791 33.377 47.2807 33.1638C47.5811 32.5318 47.8545 31.8496 47.781 31.1382C47.736 30.7009 48.0983 30.4263 48.0487 29.9924C48.0066 29.6219 47.8471 29.1694 48.2524 28.8536C48.2524 28.1809 48.292 27.5045 48.2425 26.835C48.1764 25.9486 48.6981 25.4217 49.3083 24.9404C49.3988 24.8696 49.5946 24.9309 49.7301 24.9309C49.8991 25.3019 50.0999 25.6337 50.0838 26.2076C50.2903 25.805 50.3948 25.5616 50.6093 25.3739C50.9026 25.117 51.1579 25.0392 51.4665 25.3237C51.5958 25.4431 51.6817 25.6259 51.9118 25.6069C52.5592 25.5522 53.019 25.9067 53.3941 26.362C53.7527 26.7968 54.3084 27.0413 54.3951 27.7527C54.4579 28.2661 54.9132 28.7227 55.1462 29.2262C55.7716 30.5758 56.4041 31.9233 56.9672 33.2988C57.2387 33.9612 56.9577 34.6298 56.6995 35.2598C56.5814 35.5471 56.4289 35.8205 56.2843 36.1153Z" fill="#FEE0AB"/>
<path fill-rule="evenodd" clip-rule="evenodd" d="M62.1905 50.5356C62.224 50.9436 62.1302 51.38 62.3049 51.5703C62.5925 51.8819 61.9674 52.0746 62.3351 52.3154C62.9106 51.8724 62.8841 51.0424 63.4204 50.5743C63.7988 50.7382 64.1702 50.9148 64.3532 51.1845C64.6606 51.2372 64.7015 51.0392 64.8969 50.9543C65.4748 51.2767 66.1792 51.534 66.6006 52.1133C67.1335 52.8465 67.6367 53.6292 67.6326 54.6008C67.6305 55.05 67.5946 55.5024 67.6388 55.9475C67.7854 57.416 67.3331 58.7738 66.891 60.1325C66.7064 60.6998 66.3994 61.2136 66.0387 61.6764C65.7822 61.8332 65.517 61.7286 65.1956 61.7673L64.7296 61.3025C64.4139 61.2642 64.3611 61.706 64.0624 61.7599C63.8794 61.7921 63.8091 61.636 63.6951 61.5426C63.6174 61.613 63.5385 61.6842 63.4398 61.7735C63.3919 61.6344 63.3468 61.5039 63.3014 61.3733C63.2489 61.2997 63.2093 61.3215 63.1403 61.4034C62.635 62.0033 61.9501 62.0329 61.2279 61.974C60.7673 61.6797 60.4979 61.1675 59.8382 61.0086C59.1582 60.8451 58.8793 59.7397 59.1925 59.0616C59.449 58.5054 59.7605 57.9945 59.3139 57.3675C59.19 57.1933 59.2102 56.8182 59.3106 56.6029C59.5866 56.0121 59.5296 55.3588 59.7394 54.7593C59.9344 54.2019 60.0493 53.6148 60.2678 53.068C60.3343 52.9021 60.4149 52.7576 60.4248 52.5707C60.4616 51.8749 60.8706 51.3315 61.2081 50.7637C61.4242 50.401 61.7989 50.5509 62.1905 50.5356Z" fill="#FEE0AB"/>
<path fill-rule="evenodd" clip-rule="evenodd" d="M34.6013 33.4405C34.5348 33.3836 34.4575 33.3182 34.3617 33.2367C34.3059 33.3894 34.2584 33.5187 34.2018 33.6727C33.5007 33.3742 32.9302 33.8785 32.2907 33.9975C32.0378 34.0444 31.0802 34.2042 30.8324 34.1807C30.7625 34.1737 30.6568 34.1173 30.6307 34.1445C30.33 34.4508 29.9392 34.3009 29.5967 34.3791C29.3026 34.4462 29.0431 33.9843 28.7651 34.359C28.2065 33.8991 27.5522 34.2276 26.9465 34.1478C26.5784 34.0996 26.1992 34.1387 25.8315 34.1387C25.7191 34.0267 25.6129 33.9209 25.5064 33.8151C25.5898 33.6669 25.8059 33.5788 25.7109 33.3334C25.394 33.1136 24.9995 33.3367 24.6595 33.1951C24.3455 32.9192 24.1831 32.6261 24.5512 32.2704C24.6318 32.1926 24.757 32.1251 24.7826 32.0308C25.0255 31.153 25.7873 31.1143 26.4784 31.0028C27.1878 30.8887 27.7971 30.5643 28.3499 30.3193C28.6424 29.5523 28.2016 28.9553 28.1888 28.3061C28.176 27.6984 28.3334 27.073 27.9905 26.4822C27.9091 26.3418 27.8537 26.0075 28.0657 25.8651C28.4172 25.6271 28.3813 25.0944 28.7862 24.9458C28.9679 24.8791 29.1861 24.9243 29.3992 25.0837C29.6029 25.236 29.4265 25.558 29.719 25.6049C29.9483 25.6411 30.0577 25.4596 30.1594 25.3229C30.3304 25.0927 30.5783 25.1104 30.765 25.1718C31.0212 25.2558 31.2422 25.4472 31.4781 25.5925C31.8139 25.192 32.0688 25.6559 32.2382 25.7597C32.4737 25.903 32.7468 26.0182 32.9595 26.2031C33.1851 26.3987 33.3846 26.6251 33.5999 26.8326C33.7337 26.9619 33.8172 27.0928 33.8585 27.2916C33.8882 27.4337 34.0374 27.4794 33.9031 27.7071C33.7589 27.9528 34.2051 27.7614 34.3001 28.022C34.6798 29.0644 35.3482 29.9727 35.7692 31.0028C35.8601 31.2242 35.8692 31.4 35.8039 31.615C35.5829 32.3449 35.2557 33.0016 34.6013 33.4405Z" fill="#FEE0AB"/>
<path fill-rule="evenodd" clip-rule="evenodd" d="M30.5381 0C31.5106 0.0547567 31.5106 0.0547567 31.6693 1.10707C32.2315 0.583797 32.2315 0.583797 32.8033 0.43476C32.9644 0.860462 33.1867 1.27464 33.7849 1.13548C33.8663 1.11654 33.9898 1.19188 34.0662 1.25611C34.5149 1.63488 34.6888 2.2442 35.1821 2.58797C35.1581 3.31546 35.6538 4.02771 35.3849 4.73007C35.0998 5.47567 35.028 6.27767 34.6186 6.99609C34.1179 7.87467 33.5779 8.70302 32.8103 9.43915C32.396 9.39839 31.9543 9.41897 31.7168 9.89861C31.6151 9.80886 31.5358 9.73805 31.4565 9.66764C30.7236 10.4017 30.5369 11.5409 29.6338 12.1169C29.2773 12.2873 29.067 11.832 28.8105 11.9246C28.4746 12.0457 28.2556 11.6187 27.9421 11.8209C27.6694 11.9971 27.3868 11.8941 27.1365 11.8699C26.8746 11.529 27.512 11.3754 27.2402 11.0654C27.0382 11.0234 26.934 11.3832 26.6614 11.1704C26.5027 10.4301 26.7638 9.76069 27.0464 9.05091C27.3525 8.28102 27.7797 7.52102 27.7417 6.64697C27.7281 6.33366 27.945 6.12657 28.0615 5.88038C28.4052 5.15536 28.6464 4.39824 28.9224 3.65264C29.269 2.71519 29.3727 1.68922 29.9341 0.813528C30.1122 0.536451 30.3196 0.301779 30.5381 0Z" fill="#FEE0AB"/>
<path fill-rule="evenodd" clip-rule="evenodd" d="M37.7536 61.9948C37.5594 62.22 37.7825 62.4938 37.5549 62.651C37.231 62.7033 36.9839 62.4583 37.0062 62.25C37.0901 61.474 36.5745 61.1244 36.0738 60.7354C35.9267 60.6217 35.8065 60.4743 35.6739 60.3418C35.4673 59.8831 35.7826 59.5237 35.9065 59.1272C36.0742 59.0095 36.2585 59.0815 36.4365 59.0803C36.6167 59.1754 36.4365 59.5698 36.8232 59.5101C37.0765 59.4233 37.1723 59.0515 37.1735 58.9403C37.1806 58.2783 37.3384 57.678 37.6598 57.1095C37.3342 56.4096 37.8668 55.8097 37.8928 55.1469C37.9205 54.4453 38.2737 53.8801 38.7434 53.3679C38.9413 53.1518 39.1565 53.2815 39.3619 53.2012C39.3466 53.5853 39.8233 53.7063 39.5746 54.3395C39.9807 53.8982 39.9642 53.4325 40.3377 53.4638C40.9379 53.5137 41.6316 53.4939 42.0984 53.7928C42.5487 54.0814 43.3526 54.2061 43.2977 55.0411C43.294 55.1008 43.3386 55.1856 43.3882 55.2239C44.2487 55.8888 44.3131 56.9341 44.6366 57.8485C44.8961 58.5801 45.1163 59.3232 45.1125 60.1252C45.1109 60.5719 44.6494 60.9066 44.8977 61.3447C44.6465 61.7424 44.1809 61.9305 44.1074 62.5094C43.1932 61.7584 42.293 62.6811 41.4209 62.4172C41.2209 62.5152 41.3019 62.698 41.216 62.8235C41.0643 62.9672 40.8632 62.8318 40.8689 62.8297C40.4934 62.9635 40.7041 63.2669 40.455 63.3081C40.3327 63.2365 40.3711 63.1163 40.3624 62.9985C40.1332 62.7346 39.7985 62.9841 39.5358 62.8437C39.4077 62.7157 39.2755 62.5835 39.1396 62.4489C38.7546 62.6938 38.6864 63.1294 38.4869 63.5391C38.2146 63.3946 38.0775 63.2048 38.106 62.8812C38.1349 62.5497 38.1555 62.2039 37.7536 61.9948Z" fill="#FEE0AB"/>
<path fill-rule="evenodd" clip-rule="evenodd" d="M31.2294 83.1207C31.0927 82.9062 31.1736 82.7255 31.0009 82.6518C30.7679 82.8934 30.9931 83.224 30.8605 83.5073C30.7481 83.5188 30.6465 83.5287 30.4635 83.5472V82.4649C30.2553 83.1042 29.3274 82.8799 29.2158 83.5411C29.0452 83.2776 28.7854 83.3039 28.5263 83.3266C28.2983 83.4838 28.5259 83.7593 28.3611 83.9433C28.1202 84.038 27.8653 83.9894 27.6059 83.9721C27.4291 83.7387 27.5638 83.4694 27.5191 83.2183C27.2746 82.9593 27.0593 82.6555 26.6685 82.581C26.7801 82.3978 26.6342 82.1059 26.695 82.0449C26.9664 81.7732 26.7396 81.3063 27.1486 81.0898C27.527 80.8897 27.0754 80.3475 27.4729 80.1103C27.0412 79.6389 27.6749 79.2305 27.5464 78.7377C27.4291 78.2894 27.5212 77.7863 27.5212 77.3363C27.3208 77.2366 27.3089 77.4038 27.2056 77.4417C26.9073 77.4594 27.2015 77.0995 26.9792 77.0567C26.9309 77.0901 26.8511 77.1139 26.8305 77.1629C26.5537 77.8167 26.2628 78.4759 26.4446 79.2083C26.6359 79.9753 26.685 79.9831 26.3793 80.9465C26.2926 81.2203 26.8168 81.3109 26.4611 81.5838C26.2637 81.7349 26.5371 82.1166 26.2095 82.2648C26.3417 82.4966 26.3777 82.7811 26.6012 82.9622C26.559 83.0808 26.4653 83.0898 26.3554 83.096C26.0112 83.1154 25.7927 82.9696 25.7204 82.632C25.6597 82.3488 25.8245 82.0437 25.632 81.7699C25.4944 81.5735 25.734 81.3043 25.5019 81.1054C25.4461 81.0585 25.4465 80.8304 25.501 80.7884C25.8819 80.4953 25.5758 80.2466 25.5196 79.9498C25.4643 79.6591 25.4308 79.3326 25.6266 78.9954C25.8691 78.58 25.696 78.1131 25.5118 77.6636C25.4077 77.4104 25.1817 77.5582 25.0784 77.4038C25.3821 77.0316 25.2561 76.6084 25.249 76.2308C25.1284 76.0954 24.9289 76.1258 24.9264 76.1501C24.8909 76.4853 24.4641 76.7792 24.8062 77.1539C24.512 77.4128 24.3059 77.8328 23.7448 77.6821C23.7882 77.4371 23.8766 77.1638 23.9526 76.9509C24.0365 76.7175 24.1757 76.5079 24.1394 76.2457C24.0968 75.941 24.4674 75.7644 24.3699 75.4391C24.2699 75.1056 24.5546 75.0785 24.7483 74.9294C24.9437 74.78 24.7041 74.3712 25.0243 74.2011C24.8413 74.0414 24.6492 74.1414 24.4612 74.1155C24.2703 74.367 24.4071 74.7232 24.0915 74.9834C23.6275 75.3654 23.6916 75.4272 23.402 76.5215C23.2966 76.9192 23.0938 77.291 22.9244 77.7002C22.4043 77.3223 22.4861 76.8332 22.6823 76.3638C22.8467 75.9702 22.9335 75.5548 23.0648 75.1711C23.188 74.8121 23.1227 74.2773 23.6242 74.0513C23.9617 73.8993 23.8981 73.3855 24.2695 73.2266C24.3918 73.3563 24.5071 73.5173 24.8053 73.374C24.6624 73.1974 24.5244 73.0269 24.3819 72.8511C24.6814 72.6712 24.9396 72.7062 25.1565 72.9899C25.5432 72.39 26.3591 72.5745 26.7648 72.0841C27.118 72.0944 27.2002 72.4012 27.4332 72.5494C27.4795 72.4147 27.5245 72.2846 27.5712 72.1504C27.7232 72.0463 27.8707 72.4996 28.0723 72.1405C28.1302 72.0376 28.5007 72.0529 28.704 72.1056C28.8622 72.1467 28.9961 72.3184 29.1188 72.4518C29.2943 72.6432 29.5563 72.4477 29.743 72.5905C29.4951 72.9586 29.8045 73.1982 29.9248 73.4642C30.0979 73.8479 30.6957 73.4774 30.8816 74.0801C30.8911 74.1303 30.5635 74.2118 30.6824 74.3847C31.1158 75.0159 30.9014 75.8463 31.3463 76.4709C31.3818 76.5207 31.3236 76.6339 31.3571 76.6891C31.5942 77.081 30.7469 77.4659 31.3521 77.8525C31.3521 78.2642 31.4558 78.7114 31.3281 79.0794C31.1303 79.6496 31.1344 80.2137 31.1286 80.7905C31.1282 80.8596 31.1526 80.9296 31.1699 81.0243C31.3905 81.0609 31.4438 80.8423 31.557 80.7411C31.6355 80.6707 31.5058 80.4553 31.7937 80.4216C31.8003 81.359 31.9503 82.2994 31.2294 83.1207Z" fill="#FEE0AB"/>
<path fill-rule="evenodd" clip-rule="evenodd" d="M53.2049 8.02207C53.2136 7.82939 53.2131 7.71988 53.1045 7.64947C52.7942 7.45886 52.7314 8.0653 52.4076 7.83268C52.3295 7.80757 52.308 7.75281 52.3584 7.70258C52.6154 7.44609 53.0029 7.15008 52.6649 6.79519C52.2758 6.38513 52.9016 6.23321 52.7802 5.93431C53.1338 5.83798 53.4176 5.41639 53.851 5.70088C53.9398 5.75934 53.9948 5.87544 54.2236 5.81904C55.1391 5.1002 55.6828 4.01865 56.1009 2.90458C56.2442 2.52211 56.495 2.31584 56.6974 2.0293C58.0339 2.93052 58.0339 2.93052 58.5234 2.70902C58.9337 3.2607 59.3513 3.81609 59.2865 4.56746C59.2592 4.87912 59.3542 5.12861 59.5182 5.37151C59.132 5.84703 59.4538 6.30402 59.6256 6.70914C59.8421 7.21883 59.6488 7.72646 59.7686 8.21927C59.7835 8.28144 59.869 8.32632 59.94 8.39672C59.631 8.88541 59.5013 9.4935 58.9076 9.8875C58.4082 9.78951 57.8182 10.0435 57.2485 9.76193C56.702 9.49062 56.0757 9.51532 55.5093 9.34446C54.9854 9.18596 54.5132 8.85577 53.984 8.58404C53.5065 8.68244 53.2235 9.12214 52.8632 9.43586C52.182 9.47044 51.5115 9.71788 51.0942 10.0847C50.534 10.2012 49.916 9.92702 49.3884 10.3437C49.2075 10.1086 49.0253 9.87186 48.9336 9.75287C49.8578 9.94761 49.8086 9.84015 51.081 9.25677C51.8655 8.89735 52.3456 8.11923 53.2049 8.02207Z" fill="#FEE0AB"/>
<path fill-rule="evenodd" clip-rule="evenodd" d="M22.8289 56.7916C22.7967 57.0749 22.7764 57.2519 22.7587 57.4042C22.6901 57.5059 22.6508 57.4858 22.5806 57.4026C22.4637 57.2643 22.3175 57.1679 22.3319 56.939C22.3579 56.5289 22.3265 56.1156 22.3431 55.7047C22.3563 55.3721 22.3336 55.0476 22.1101 54.7907C21.7779 54.4078 21.9382 53.9636 21.875 53.568C22.3282 53.1624 22.4906 52.698 22.5988 52.134C22.7095 51.5601 22.6876 50.9458 22.9942 50.3933C23.121 50.1648 23.0152 49.8087 23.0152 49.5209C23.2507 49.2801 23.5217 49.0816 23.5705 48.7374H24.0389C24.2819 48.9799 24.0307 49.3155 24.1976 49.5827C24.3744 49.6584 24.5863 49.7054 24.5805 49.4299C24.5748 49.1347 25.1023 49.1298 24.69 48.6699C25.4985 48.84 26.0835 49.0693 26.6404 48.9536C26.9684 48.9952 26.7631 49.3126 27.051 49.4345C27.85 49.7729 28.1537 50.3884 28.2069 51.2064C28.2714 52.197 28.0281 53.1233 27.7509 54.0538C27.5385 54.7644 27.1551 55.2 26.3454 55.2638C25.6109 55.3218 25.287 55.7702 25.2696 56.5257C25.263 56.8208 25.2688 57.1165 25.2688 57.4009C25.0416 57.5627 25.042 57.2717 24.9288 57.2754C24.6297 57.1432 24.5326 57.6562 24.2046 57.452C24.0084 57.3095 24.2682 57.0251 24.0654 56.8538C24.0166 56.8822 23.9237 56.9102 23.9233 56.9398C23.9171 57.2659 23.5849 57.4911 23.658 57.8522C23.6779 57.9497 23.4808 57.9386 23.3709 57.9423C23.1611 57.8213 23.2552 57.6175 23.2437 57.4466C23.2309 57.2647 23.2408 57.0815 23.2408 56.9625C23.1338 56.7661 23.0053 56.8423 22.8289 56.7916Z" fill="#FEE0AB"/>
<path fill-rule="evenodd" clip-rule="evenodd" d="M8.97919 30.8847C9.21219 30.9707 9.34233 31.0189 9.45594 31.0609C9.52989 31.2367 9.46296 31.3425 9.36505 31.4693C9.18906 31.6962 9.17708 31.9469 9.41545 32.1499C9.85956 32.529 9.78396 32.8411 9.40388 33.2536C9.19443 33.4813 9.02422 33.8704 9.23037 34.2784C9.02381 34.5847 8.78007 34.0972 8.66976 34.2038C8.40041 34.4636 8.10668 34.3344 7.82616 34.3586C7.56507 34.3809 7.30108 34.3632 7.03792 34.3632H6.21746C5.96835 34.04 5.63165 33.7324 5.47177 33.3516C5.3561 33.0778 5.24208 32.7645 5.16276 32.4619C5.06939 32.1083 5.58951 31.9625 5.28587 31.5842C5.11607 31.373 5.20737 30.9534 5.18093 30.6274C4.65875 30.2017 3.77425 30.5034 3.43177 29.736C3.46606 29.7019 3.51935 29.6492 3.61561 29.5532C3.49332 29.368 3.17604 29.3815 3.10995 29.0625C3.07483 28.8937 3.02815 28.5491 2.76953 28.4404C2.85753 28.258 2.94552 28.0752 3.03641 27.8858C3.08351 27.9134 3.17191 27.9381 3.17604 27.9731C3.19422 28.1197 3.14671 28.2864 3.20083 28.4136C3.25536 28.5413 3.40161 28.6298 3.50613 28.7339C3.68377 28.6714 3.6028 28.4931 3.67592 28.363C3.93041 28.4021 4.21918 28.7957 4.42698 28.2341C4.51043 28.4519 4.5596 28.5808 4.62652 28.7566C4.78805 28.7413 5.03014 28.7924 5.12805 28.6973C5.62256 28.2135 6.22655 27.8027 6.48269 27.1312C6.67851 26.619 7.08667 26.3502 7.43948 25.9883C7.78072 26.209 7.76502 26.479 7.61382 26.6697C7.42172 26.9117 7.4213 27.1188 7.56135 27.426C7.76709 27.1987 8.00753 27.0192 8.12651 26.7796C8.26201 26.5054 8.36033 26.2617 8.71273 26.2826C8.93871 26.5437 8.73669 26.8693 8.8408 27.1345C9.13205 27.1427 9.0077 26.9484 9.05066 26.8261C9.32622 26.6322 9.60094 26.6544 9.80337 26.936C9.96821 27.1649 10.0294 27.4614 10.2855 27.6351C10.4751 27.764 10.4433 28.0102 10.3813 28.144C10.0707 28.8126 9.95458 29.5396 9.74182 30.235C9.62077 30.6298 9.37703 30.7237 8.97919 30.8847Z" fill="#FEE0AB"/>
<path fill-rule="evenodd" clip-rule="evenodd" d="M67.6401 7.63678C67.8656 7.63225 67.8975 7.88668 68.0933 7.94432C68.002 8.04519 67.9317 8.12341 67.8615 8.20123C67.9264 8.30209 68.033 8.34038 68.1412 8.31033C68.3953 8.2391 68.4585 7.90315 68.7671 7.86116C69.0934 7.88215 69.2525 8.21687 69.5425 8.36426C70.282 8.73973 70.7013 10.184 70.4489 11.007C70.2523 11.646 70.2605 12.2755 70.515 12.9935C70.4943 13.0943 70.3101 12.9943 70.1891 13.0659C69.9358 13.3903 70.2188 13.6464 70.3419 13.9289C70.2622 14.2442 69.9333 14.3471 69.7966 14.6098C69.4624 14.3299 69.1641 14.1874 68.7043 14.3541C68.3007 14.5007 68.1251 14.0326 67.8685 13.8169C67.9454 13.7209 68.0061 13.6464 68.0668 13.5707C67.7781 13.3327 67.6339 13.5641 67.5062 13.7234C67.2641 14.0244 67.348 14.5444 66.8043 14.6621C66.6296 14.7 66.7465 14.9968 66.7329 15.1743C66.706 15.5209 66.5056 15.6778 66.2098 15.7371C65.8905 15.5765 66.2057 15.2101 65.9401 15.0528C65.4195 15.4316 65.6538 16.2817 64.9102 16.6383C65.1208 15.9042 65.3617 15.2587 65.4823 14.5913C65.6042 13.9186 66.2817 13.3866 65.9661 12.5184C65.5356 13.3747 65.3105 14.2171 65.0097 15.0409C64.9147 14.5806 64.9366 14.1689 65.1308 13.7045C65.503 12.8131 65.7488 11.8691 66.0545 10.9498C66.2185 10.4582 66.3788 9.96332 66.5825 9.4878C66.637 9.36017 66.7126 9.25478 66.737 9.10162C66.8667 8.29427 66.9171 8.22881 67.6401 7.63678Z" fill="#FEE0AB"/>
</g>
</svg>
