<svg width="105" height="95" viewBox="0 0 105 95" fill="none" xmlns="http://www.w3.org/2000/svg">
<g opacity="0.4">
<path fill-rule="evenodd" clip-rule="evenodd" d="M104.521 49.4412C104.483 49.546 104.389 49.809 104.27 50.1399C104.375 50.1908 104.489 50.2451 104.647 50.3213C104.728 50.6137 105.172 50.9231 104.902 51.3186C104.659 51.6743 105.301 52.0504 104.81 52.339C104.894 53.0854 104.369 53.6238 104.023 54.1452C103.709 54.6181 103.633 55.2087 103.158 55.6196C102.746 55.977 102.514 56.544 102.201 57.0202C101.929 57.0327 101.676 57.0434 101.326 57.0592C101.389 57.2613 101.436 57.4129 101.511 57.6518C101.417 57.7579 101.262 57.933 101.094 58.1227C101.198 58.4416 101.295 58.7415 101.41 59.0935C101.247 59.2795 101.085 59.4642 100.908 59.6659C101.047 59.7156 101.178 59.762 101.399 59.8411C101.146 60.0212 100.937 60.1695 100.718 60.3252C100.761 60.3753 100.827 60.4528 100.931 60.5741C100.184 60.8524 99.5188 60.1823 98.6952 60.5062C98.1863 60.8735 97.8087 61.6232 97.0529 61.9002C96.7613 62.0075 97.0107 62.5426 96.511 62.4796C96.3331 62.4573 96.4647 63.0305 96.0477 62.9191C95.8922 63.4384 95.4293 63.6471 95.064 63.9743C94.7608 64.2452 94.484 64.5985 94.24 64.9517C94.0364 65.2458 93.8193 65.5307 93.6037 65.8165C93.4089 66.0753 93.1802 66.3135 93.0196 66.5918C92.8831 66.8291 92.8947 67.2346 92.7102 67.3418C92.462 67.486 92.2924 67.6417 92.2395 67.9767C91.9954 67.8309 91.8465 67.7423 91.6967 67.6529C91.2305 67.8811 90.7635 68.0981 90.2994 67.5274V66.3416C89.4071 65.8384 88.4743 65.399 88.0565 64.2613C88.0892 63.8861 87.9071 63.3543 88.2679 62.9153C87.7442 61.8683 88.1988 60.9821 88.703 60.109C89.3099 59.0583 90.1062 58.1612 91.0398 57.335C90.4909 56.5104 89.9171 55.7422 89.4493 54.9143C89.1275 54.3448 88.7717 53.7236 88.7539 53.0721C88.7357 52.397 88.5235 51.6926 88.9256 51.008C89.1051 50.7015 88.9326 50.2575 89.1341 49.8537C89.2549 49.611 89.3297 49.3414 89.5159 49.1086C89.6164 48.9831 89.6119 48.7732 89.6946 48.4402C89.8803 48.2675 90.3461 48.0347 90.4433 47.6968C90.584 47.2056 91.2119 47.3928 91.2028 46.8184C91.365 46.9414 91.437 46.996 91.5491 47.0809C91.8088 47.0039 92.1026 46.9169 92.4091 46.8266C92.5208 47.0387 92.6147 47.2164 92.7284 47.4326C92.5038 47.8397 92.2585 48.2845 91.9764 48.7955C92.534 48.7405 92.9646 48.6974 93.3324 48.6609C93.4825 48.8113 93.5624 48.8908 93.6509 48.9794C93.5003 49.2751 93.3485 49.5741 93.1483 49.9688C93.502 50.0053 93.7767 50.0334 94.1171 50.0682C94.0331 50.4675 93.9496 50.868 93.8673 51.2618C93.7233 51.3902 93.5678 51.5294 93.4077 51.6727C93.509 51.7741 93.5508 51.8284 93.5599 51.823C93.7072 51.7414 93.8507 51.6524 94.0257 51.5464C94.0848 51.7046 94.1217 51.8019 94.1692 51.9278C93.8499 52.0897 93.5462 52.2438 93.2 52.419C93.3605 52.4728 93.4879 52.5155 93.7237 52.5942C93.4548 52.8638 93.2161 53.1032 92.9051 53.4159C93.3018 53.7294 93.6534 54.0077 94.0302 54.3059C94.5854 54.4115 95.0313 54.1771 95.4677 53.7994C96.4775 52.9267 97.5874 52.1651 98.5822 51.2879C99.6007 50.3896 100.684 49.5095 101.409 48.306C101.579 48.0244 101.877 47.8206 102.133 47.5647H103.32C103.385 47.6471 103.497 47.7891 103.612 47.9349C103.483 48.3056 103.349 48.6874 103.176 49.1836C103.535 49.0846 103.828 49.0043 104.208 48.8995C104.268 49.003 104.361 49.1641 104.521 49.4412Z" fill="#3CC3A3"/>
<path fill-rule="evenodd" clip-rule="evenodd" d="M32.9274 73.2269C32.5613 73.3404 32.2606 73.434 31.8717 73.5545C31.9664 73.3511 32.0289 73.217 32.1079 73.0467C31.849 72.6562 31.5561 72.3066 31.0204 72.3841C30.979 72.2259 30.9525 72.124 30.9153 71.9824H29.9833C29.8902 71.8892 29.8096 71.8449 29.7885 71.7811C29.6458 71.3504 29.6156 70.8385 29.3566 70.5005C29.0232 70.0661 29.1891 69.6399 29.1738 69.2191C29.1609 68.8774 29.2987 68.5275 29.3827 68.1846C29.6838 66.9587 30.1496 65.7928 30.7428 64.6841C31.1081 64.0024 31.5172 63.3385 31.9656 62.7086C32.4037 62.0932 32.917 61.5312 33.4122 60.9269C33.2778 60.8408 33.1305 60.7405 32.9774 60.6498C31.4977 59.7735 30.2017 58.6702 29 57.4468C28.4329 56.8694 28.4296 56.0945 28.2641 55.3814C28.1975 55.096 28.2534 54.7817 28.2534 54.4806C28.5566 53.9016 29.1676 53.8527 29.7603 53.6166C29.9602 53.9687 30.1653 54.3306 30.397 54.7378C30.4375 54.7079 30.5078 54.6562 30.634 54.563C30.7114 54.64 30.8475 54.7142 30.8855 54.8231C31.1213 55.4944 31.669 55.8361 32.251 56.1268C33.4354 56.7195 34.6304 57.289 35.9021 57.9073C36.1995 57.5925 36.4969 57.1096 36.9288 56.8682C37.3267 56.6454 37.3474 56.008 37.9679 56.0693C37.8794 55.9603 37.8177 55.8846 37.7259 55.7719C37.9162 55.6386 38.109 55.5035 38.3774 55.3155C38.4622 55.1283 38.5917 54.843 38.7183 54.5634C38.9102 54.5522 39.0885 54.5419 39.3454 54.527C39.2362 54.3861 39.1791 54.3128 39.0906 54.1985C39.5696 54.1285 39.6015 53.632 39.903 53.3653C40.2216 53.0832 40.447 52.696 40.749 52.3083C40.816 52.3576 40.8859 52.409 41.0191 52.5071C41.0779 52.3688 41.1329 52.2383 41.202 52.0747C41.2835 52.1406 41.3587 52.2011 41.4944 52.3112C41.6421 51.5181 42.0913 50.882 42.5687 50.31C43.0606 49.7203 43.5028 49.0431 44.3078 48.6484C44.4087 48.7317 44.544 48.8431 44.697 48.969C44.3789 49.5807 44.0707 50.187 43.4188 50.5063V51.4096C43.5731 51.3719 43.7299 51.379 43.7626 51.3185C43.8933 51.0746 43.9855 50.8099 44.0372 50.6853C44.5733 50.2429 45.0114 49.8818 45.5641 49.4262C45.5955 49.8482 45.6154 50.1237 45.6352 50.3879C45.4669 50.4571 45.3386 50.5097 45.2038 50.5651C45.2385 50.6136 45.282 50.7072 45.3051 50.7022C45.579 50.6459 45.8499 50.5747 46.1829 50.4923C46.2772 50.6587 46.3922 50.8613 46.5081 51.065C46.446 51.1342 46.372 51.2162 46.2921 51.3048C46.3393 51.632 46.7323 51.9207 46.4282 52.2955C46.3397 52.2156 46.2611 52.1443 46.1809 52.071C46.1436 52.141 46.0712 52.2151 46.0861 52.2619C46.1275 52.3945 46.2048 52.5158 46.2917 52.6873C46.2297 53.2609 45.7717 53.6419 45.3469 54.0291C44.9448 54.3957 44.5026 54.7175 43.9855 55.1329C44.1981 55.255 44.3831 55.3619 44.5911 55.482C44.4612 55.7317 44.3826 55.8825 44.2999 56.0407C44.3479 56.0941 44.4199 56.1728 44.5316 56.2962C44.2863 56.3356 44.0794 56.3691 43.7828 56.4176C43.8635 56.6234 43.9326 56.7986 44.0124 57.0019H43.2612C43.1218 57.2881 43.0002 57.5379 42.8843 57.7756C42.9919 57.8916 43.0672 57.9727 43.1756 58.0895C42.9452 58.1322 42.7387 58.1707 42.4384 58.227C42.5112 58.4192 42.5778 58.5923 42.656 58.7981C42.4632 58.8267 42.2556 58.8574 41.985 58.8971C42.0645 59.1117 42.129 59.2856 42.2357 59.5739C41.942 59.4595 41.7281 59.3763 41.47 59.2761C41.3484 59.508 41.2243 59.7449 41.1035 59.9752C41.1465 60.0572 41.1635 60.147 41.2144 60.1748C41.3041 60.2237 41.4253 60.2146 41.5143 60.2643C41.8597 60.4572 41.9404 60.9045 42.28 61.0963C42.6461 61.3034 42.8053 61.6587 43.0386 61.9751C43.2488 62.2601 43.4047 62.5003 43.3812 62.861C43.3729 62.9844 43.4829 63.1153 43.5512 63.2698C43.4916 63.3712 43.4064 63.5158 43.2901 63.7137C42.9853 63.749 42.7635 64.1577 42.2072 63.9419C41.2355 63.5647 40.224 63.2267 39.1688 63.0996C39.11 63.0925 39.0616 62.9989 38.9657 62.9028C38.6571 63.2511 38.3506 63.597 37.9658 64.0314C37.9609 64.0724 37.9402 64.2501 37.9174 64.4418C37.7015 64.4758 37.4947 64.5085 37.1733 64.559C37.3855 64.8572 37.5439 65.08 37.7801 65.4122C37.5133 65.3339 37.3354 65.2822 37.1096 65.2159C37.0628 65.2714 36.9681 65.3836 36.8651 65.5054C36.9958 65.8669 36.8907 66.0881 36.4675 66.3287C36.341 66.7843 36.2193 67.2221 36.118 67.5873C35.9269 67.6578 35.8202 67.6971 35.6824 67.748L35.9294 67.9953C35.5922 68.2537 35.2054 68.4629 34.944 68.7768C34.7078 69.0597 34.6094 69.4573 34.4257 69.8582C34.4435 69.8855 34.5175 69.9965 34.635 70.1725C34.3864 70.4289 34.1423 70.6807 33.9074 70.9225C33.9988 71.0368 34.0662 71.1209 34.1829 71.2667C34.017 71.4564 33.854 71.6428 33.6724 71.8502V72.5088C33.406 72.7655 33.1359 73.026 32.9274 73.2269Z" fill="#3CC3A3"/>
<path fill-rule="evenodd" clip-rule="evenodd" d="M60.6701 77.7291C61.1913 78.3602 61.1917 78.3615 61.8242 78.0115C61.842 78.2136 61.8358 78.3897 61.8793 78.552C61.9103 78.6671 62.0079 78.7645 62.0708 78.8622C61.9905 78.943 61.9372 78.996 61.8693 79.0639C62.0269 79.1376 62.1775 79.2084 62.4241 79.324C62.1676 79.6897 61.9256 80.0343 61.684 80.3793C61.9955 80.94 61.3365 81.0394 61.2418 81.3397C61.0958 81.8035 60.5324 81.9033 60.5162 82.3991C60.4976 82.9773 59.9052 83.0485 59.6479 83.3852C59.4246 83.678 59.0274 83.8693 58.9761 84.2429C59.0651 84.3953 59.1354 84.5158 59.2508 84.7142C58.917 84.9031 58.6262 85.0683 58.3345 85.2336L57.6309 85.5666C57.417 85.8192 57.2032 86.0718 56.9173 86.4089V86.6305C56.1971 87.1602 55.5245 87.656 54.7435 88.2308C54.9669 88.3447 55.1022 88.4139 55.3264 88.5286C55.0161 88.963 54.7021 89.4029 54.3646 89.8754C55.2312 90.1711 56.0466 90.4499 56.8875 90.7373C56.8044 90.9046 56.7341 91.0458 56.6389 91.2372C57.0137 91.3709 57.3641 91.496 57.7641 91.6389V92.1301C58.0156 92.3616 58.2361 92.5641 58.4644 92.7745C58.4785 93.04 58.4913 93.2934 58.5041 93.5357L58.9133 93.9449L57.8754 94.8097C57.6309 95.0822 57.3761 95.0317 57.1022 94.8498C57.0191 94.7948 56.9024 94.7633 56.8015 94.7654C55.6366 94.791 54.5838 94.3471 53.524 93.959C52.7422 93.6732 51.9897 93.3075 51.1789 92.958C50.9576 93.1787 50.613 93.346 50.5688 93.8016C50.1005 93.9126 49.6202 94.0269 49.171 94.1334C48.9393 93.8985 48.7544 93.7113 48.5691 93.5233C48.6394 93.4454 48.7122 93.3651 48.8198 93.2462C48.7081 93.0135 48.5877 92.7629 48.5158 92.6138C48.167 92.6677 47.8584 92.7157 47.5573 92.7621C47.3906 92.4324 47.2408 92.1346 47.0874 91.8302C47.0125 91.9052 46.9595 91.9582 46.9401 91.9777C46.6907 91.7238 46.4391 91.4683 46.0917 91.1154C46.1996 90.3318 45.6987 89.4319 45.8331 88.459C45.8617 88.2552 45.7057 87.9604 45.5415 87.8063C44.8759 87.1809 44.8474 86.2772 44.5346 85.5082C44.4151 85.2145 44.2877 84.8418 44.2773 84.4868C44.2599 83.9232 44.1942 83.3442 44.2906 82.7967C44.4428 81.9307 44.6066 81.0071 45.6139 80.6663C45.9469 80.5536 46.3134 80.5412 46.7523 80.4683V82.2297C47.1341 81.9837 47.3898 81.8189 47.7712 81.5729C47.8241 81.7286 47.8878 81.9141 47.9507 82.0997C48.0074 82.0566 48.064 82.0135 48.1207 81.9704V83.0096C48.3147 82.911 48.4549 82.8398 48.5873 82.7722C49.0659 83.1914 49.0535 83.7281 48.9873 84.2802C49.1474 84.3369 49.2777 84.3829 49.4866 84.457C49.3977 84.6989 49.3088 84.9391 49.2012 85.2294C49.3315 85.2058 49.3969 85.2129 49.4333 85.1835C49.521 85.1139 49.5814 84.9896 49.6773 84.9532C50.6408 84.5867 51.1256 83.5612 52.0927 83.2046C52.2872 82.5035 53.0255 82.3539 53.457 81.8814C53.9058 81.3902 54.5392 81.0705 55.0806 80.6609C55.6048 80.2641 55.9001 79.5957 56.5839 79.3857C57.0332 78.5669 57.6797 77.9465 58.4843 77.4835C58.4562 76.9289 59.2181 76.8602 59.2003 76.2754H60.2176C60.2904 76.3479 60.3967 76.4543 60.503 76.5607C60.0161 76.8034 59.8382 77.2743 59.5267 77.7721C60.2006 77.9117 60.5886 77.0904 61.2236 77.4694C61.0399 77.5555 60.8898 77.626 60.6701 77.7291Z" fill="#3CC3A3"/>
<path fill-rule="evenodd" clip-rule="evenodd" d="M58.0541 65.791C58.0016 65.2629 58.7437 65.2049 58.3921 64.7129C58.3023 64.7933 58.2225 64.8641 58.1426 64.9349C58.1161 64.908 58.0702 64.8844 58.0657 64.8545C57.9821 64.3012 58.0156 63.7765 58.4078 63.3255C58.8392 62.8302 59.267 62.3307 59.6806 61.8204C59.8114 61.6593 59.892 61.4576 60.0207 61.2307C59.8163 60.6977 59.5363 60.1452 59.293 59.596C59.032 59.0063 59.0378 58.3668 58.754 57.7833C58.603 57.4735 58.9968 56.9297 58.9046 56.5503C58.8008 56.1258 58.5505 55.7647 58.9162 55.3646C58.9236 54.2455 59.6835 53.5481 60.3483 52.7712H62.2276C62.3376 52.8755 62.4464 52.9791 62.6226 53.146C62.3368 53.5108 62.0505 53.8757 61.7341 54.2795C61.7692 54.3549 61.854 54.535 61.9674 54.7765C62.0733 54.7765 62.276 54.8374 62.3484 54.7657C62.6623 54.4572 63.0251 54.5818 63.3556 54.5454C63.4777 54.81 63.5794 55.0312 63.6928 55.2768C63.5232 55.4888 63.3482 55.7079 63.0826 56.0397C63.4843 56.091 63.7536 56.1254 64.1077 56.1705V57.2531C64.8697 57.278 64.9532 56.354 65.5948 56.3577C65.886 55.9138 66.3109 55.6048 66.6935 55.2507C67.1349 54.8428 67.5548 54.4104 67.9709 53.9759C68.354 53.5754 68.7428 53.1766 69.087 52.7442C69.4411 52.2986 69.7456 51.8132 69.9503 51.5192C70.4165 51.3518 70.6792 51.2574 71.0052 51.1406C71.1119 51.2926 71.2869 51.4471 71.3316 51.6331C71.3659 51.7759 71.2521 51.966 71.1756 52.1205C71.0883 52.2961 70.9688 52.4552 70.97 52.7641C71.2989 52.6254 71.6277 52.4862 71.9897 52.3334C72.1829 52.7103 72.3897 53.1137 72.7033 53.7254C72.7033 53.7125 72.6851 53.9349 72.7095 54.1524C72.7285 54.3213 72.8001 54.4845 72.8634 54.7011C72.8187 54.779 72.7368 54.9231 72.6611 55.0565C72.7748 55.1795 72.8505 55.2611 72.918 55.3335C72.2644 56.3813 71.6761 57.466 70.9593 58.4803C70.3574 59.3318 70.4418 59.3914 70.0008 59.6325C70.0711 59.7107 70.1423 59.7894 70.1993 59.8528C69.3067 60.8542 68.4214 61.8478 67.5229 62.8562V63.2311C68.2286 63.6812 68.9116 64.1165 69.6256 64.5717C69.5222 64.7746 69.4589 64.8989 69.3613 65.0914C69.6314 65.3238 69.813 65.7707 70.3359 65.6058C70.4504 65.8336 70.5439 66.0196 70.6358 66.2026C70.57 66.2946 70.4881 66.4085 70.376 66.5646C70.6589 66.8483 70.9129 67.103 71.1876 67.3784C71.0829 67.648 70.994 67.8779 70.8951 68.1326C70.9675 68.2568 71.0544 68.4068 71.1347 68.5447C71.0949 68.6304 71.0825 68.719 71.0333 68.7518C70.9224 68.8242 70.7595 68.8383 70.6784 68.9303C70.1931 69.4786 70.1063 69.5092 69.4961 69.3005C68.706 69.0301 67.8563 68.871 67.1345 68.4763C66.1673 67.9479 65.2982 67.2397 64.2992 66.5476C63.8798 66.8582 63.409 67.2844 62.9556 67.7694C62.5171 68.2386 61.9393 68.6105 61.1359 68.8499C61.2774 68.6159 61.3353 68.5202 61.4606 68.3115C60.9572 68.4055 60.5349 68.4842 60.1129 68.5629L60.0405 68.4175C60.2945 68.2191 60.5481 68.0212 60.8021 67.8232L60.4095 67.4302H59.6393C59.5367 67.1722 59.4225 66.8831 59.2876 66.5435H58.3528C58.2241 66.2192 58.1087 65.9285 58.0541 65.791Z" fill="#3CC3A3"/>
<path fill-rule="evenodd" clip-rule="evenodd" d="M62.9471 43.6291C62.56 43.7219 62.2187 43.8039 61.7372 43.9194C61.2428 43.5537 60.6517 43.0982 60.0415 42.6707C59.3139 42.1609 58.6818 41.5115 57.8512 41.1524C57.6588 41.0692 57.457 41.0091 57.1897 40.9131C56.8658 40.4273 56.8282 39.5252 55.878 39.6246C55.4482 39.2312 55.3957 38.5478 54.7673 38.4816C54.5617 38.1308 54.4318 37.7295 54.1617 37.4789C52.9285 36.3338 52.0363 34.9583 51.2689 33.2988C51.2023 32.7865 51.2019 32.1036 51.0915 31.4186C50.9177 30.3397 51.4919 29.4132 52.4251 28.8152C52.6828 28.6503 52.8156 28.288 53.2438 28.3265C53.5416 28.3534 53.856 28.1948 54.2515 28.0974C54.3685 28.2018 54.5236 28.3397 54.7193 28.5137C54.4012 29.0483 53.7997 29.3859 53.7542 30.104C54.462 30.3405 54.7793 29.5532 55.4916 29.4625C55.5785 29.5404 55.7328 29.6779 55.8776 29.8079C55.6252 30.1869 55.4552 30.442 55.1421 30.912C55.629 30.758 55.9752 30.7555 56.103 30.5869C56.4261 30.1604 56.9486 29.9893 57.2518 29.5147C57.5343 29.0728 57.9976 28.7435 58.4713 28.4354C59.141 28.0001 59.6837 27.3743 60.3117 26.8682C61.2346 26.1244 62.0995 25.3094 63.1275 24.691C63.5341 24.4471 63.8349 24.0222 64.1724 23.6681C64.4794 23.3458 64.9671 23.205 65.0635 22.7246H66.5808V23.7045C66.5386 23.7467 66.393 23.8925 66.2176 24.0685C66.4186 24.0325 66.6193 24.0039 66.8162 23.9592C67.0164 23.9136 67.2133 23.8524 67.5169 23.7691C67.4706 24.4984 67.5058 25.1441 68.0319 25.6146C67.9211 25.7641 67.8578 25.8494 67.7304 26.0221C67.8909 26.1107 68.077 26.2126 68.4233 26.4027C68.0667 26.5005 67.9455 26.5336 67.78 26.5792C67.8429 26.7233 67.9273 26.8579 67.9579 27.0041C67.9889 27.1482 67.9649 27.3035 67.9649 27.4514C67.5467 28.0262 67.1281 28.6011 66.6685 29.2322C66.5841 29.2418 66.4062 29.2612 66.1448 29.2898C66.2242 29.3991 66.273 29.4675 66.3371 29.5561C66.2697 29.7176 66.1948 29.897 66.1109 30.0966C65.1181 30.0485 65.111 31.0727 64.4972 31.4716C64.627 31.6426 64.6916 31.7275 64.7209 31.7664C64.3127 32.1756 63.9006 32.5881 63.4845 33.0044C63.518 33.035 63.4646 32.9865 63.4878 33.0073C63.3025 33.1924 63.1114 33.3837 62.9203 33.5755C62.8582 33.527 62.7966 33.479 62.7345 33.4305V34.0252C62.6034 33.9172 62.5273 33.8542 62.3564 33.7138C62.3941 33.9673 62.4193 34.1358 62.4545 34.3727C62.1728 34.738 61.834 35.1774 61.467 35.6537C61.302 35.5328 61.1895 35.4495 61.0894 35.3758C60.6831 35.8513 60.2666 36.3387 59.8463 36.8307C60.008 36.9115 60.1574 36.9856 60.375 37.0937C60.1723 37.3509 59.9981 37.5721 59.8347 37.7796C59.8612 37.8711 59.8612 37.9556 59.903 38.0028C60.5901 38.774 61.405 39.4635 61.9407 40.3275C62.5442 41.3003 63.2983 42.3046 62.9471 43.6291Z" fill="#3CC3A3"/>
<path fill-rule="evenodd" clip-rule="evenodd" d="M78.6006 27.2991C78.6701 27.2295 78.7235 27.1761 78.7785 27.121C78.738 27.0688 78.7036 27.0088 78.6552 26.9645C78.3628 26.6973 77.9934 26.4683 77.7568 26.2066C77.5247 25.9506 77.2649 25.7555 77.0299 25.5211C76.7176 25.2093 76.3693 24.7628 76.3528 24.3615C76.3234 23.6434 76.28 22.9231 76.4504 22.1706C76.7445 20.8714 77.4242 19.8878 78.3243 18.9903C79.4668 17.851 80.6057 16.7079 81.8045 15.5077C81.3494 15.1155 81.3263 14.375 80.6057 14.2308C80.3029 13.6415 80.0013 13.0522 79.6985 12.4628C79.4193 11.919 79.4693 11.3322 79.4722 10.7511C79.4747 10.3374 79.4731 9.92363 79.4731 9.50989C79.8532 9.02408 80.2334 8.53828 80.6073 8.06117H82.4866C82.1855 8.57597 81.9278 9.01621 81.675 9.44859C82.37 9.95386 82.6252 8.85925 83.2358 9.19306C83.6168 9.71531 82.9077 9.96132 82.6831 10.4666C83.1166 10.3626 83.3686 10.3018 83.6767 10.2276C83.8596 10.7644 83.7682 11.234 83.4798 11.7385C83.6337 11.7985 83.7549 11.8457 83.9378 11.9165C84.0681 12.0565 83.7975 12.0768 83.7516 12.2831C83.9328 12.5606 84.1533 12.8985 84.4259 13.3164C86.2874 11.3607 88.661 10.0499 90.1126 7.81641H91.2444C91.1571 8.18915 91.081 8.51467 90.9767 8.95989C91.2911 8.8489 91.5331 8.76358 91.8649 8.64637V9.52273C92.046 9.57035 92.1478 9.59686 92.2496 9.62378C92.2781 9.68715 92.3228 9.74885 92.3306 9.81471C92.3443 9.9257 92.3158 10.0433 92.3373 10.1522C92.5668 11.3251 91.9836 12.2557 91.3714 13.1346C90.7095 14.0855 89.9409 14.9622 89.164 15.9401C89.7183 16.6064 90.6048 16.9303 91.385 17.5524C91.3995 17.6551 91.4231 17.8282 91.4508 18.0274C91.6576 18.2863 91.9919 18.5368 92.0866 18.8582C92.2942 19.5627 92.808 20.2187 92.4589 21.1282C92.3737 21.1671 92.1859 21.2595 91.9935 21.3415C91.8016 21.4231 91.6059 21.4935 91.3879 21.5784C91.0892 21.2744 90.4145 21.3709 90.5051 20.7791C89.8164 20.5798 89.2104 20.4042 88.6229 20.234C88.4885 20 88.3665 19.788 88.2287 19.5482H86.9828C86.9513 19.4136 86.9269 19.3117 86.8971 19.1858C86.4363 18.8309 86.0491 19.2487 85.7798 19.3208C85.4117 19.7482 85.1299 20.0754 84.8185 20.4361C84.7291 20.3682 84.6575 20.3135 84.5334 20.2195C84.4002 20.408 84.2567 20.6109 84.0817 20.8582C84.0586 20.8279 84.1152 20.9012 84.1992 21.0097C83.6763 21.141 83.6308 21.667 83.4008 22.0998C83.22 21.9884 83.1013 21.9151 82.9193 21.8028C82.8883 21.9975 82.8581 22.188 82.8217 22.4133C82.7439 22.4344 82.6426 22.4618 82.4614 22.511C82.413 22.9687 82.348 23.5261 81.6705 23.3741C81.4429 23.6694 81.0615 23.944 81.0876 24.1726C81.1654 24.8597 80.5908 25.1881 80.434 25.7253C80.36 26.4041 80.3703 26.4037 80.5809 26.8572C80.0898 27.249 79.5355 27.5128 78.8989 27.6756C78.8157 27.5704 78.7227 27.4536 78.6006 27.2991Z" fill="#3CC3A3"/>
<path fill-rule="evenodd" clip-rule="evenodd" d="M12.6245 14.5378C12.3436 14.5726 12.1744 14.5937 11.961 14.6203C12.0909 14.7644 12.1649 14.846 12.2832 14.9773C12.0032 15.4987 11.4724 15.8114 11.1125 16.2673L11.2888 16.4438C11.0021 16.6691 10.715 16.8944 10.4709 17.0861C10.3361 17.4419 10.624 17.8432 10.1495 18.0635C10.5698 18.3456 10.9541 18.5974 11.3318 18.8583C12.5161 19.6775 13.7828 20.3803 14.759 21.4836C15.3183 22.1152 15.8449 22.7257 15.8548 23.6327C15.8565 23.7855 16.0116 23.9363 16.1353 24.1603C15.7948 24.3761 15.4759 24.5778 15.0763 24.8308C12.8247 23.5101 10.497 22.3331 8.36207 20.6081C8.20901 20.6955 7.87477 20.7692 7.81313 20.9411C7.56865 21.622 7.08963 22.0999 6.60191 22.5874C6.54235 22.647 6.56469 22.7882 6.54855 22.8926C6.33965 22.9158 6.16219 22.9348 5.89124 22.9647C5.94336 23.1432 5.98762 23.2947 6.06498 23.5602C5.63063 23.9243 5.30631 24.466 5.13547 25.1386C5.03619 25.5291 4.66223 25.8492 4.32716 26.321V28.7753C4.11371 28.7889 3.93583 28.8001 3.73438 28.8129C3.69094 28.9351 3.64461 29.066 3.58918 29.223H2.81149C2.68987 28.8701 2.56536 28.5081 2.4214 28.0911C2.20505 28.1863 1.98912 28.2812 1.73182 28.3942C1.67887 28.2302 1.63709 28.1018 1.59531 27.9734C1.5316 27.9469 1.46128 27.8881 1.40378 27.8989C0.926408 27.9896 0.599611 27.5854 0.540871 27.3282C0.301358 26.2812 -0.375401 25.2458 0.274469 24.1218C0.286466 23.0086 0.976875 22.1591 1.3682 21.1908C1.49603 20.8748 2.04538 20.9303 1.89646 20.3845C1.83523 20.16 2.24228 19.8042 2.4425 19.5123C2.6241 19.2476 2.79494 18.973 3.00384 18.7316C3.24915 18.4479 3.54781 18.2102 3.79105 17.9252C3.99333 17.6875 4.14929 17.4104 4.34743 17.1189C2.97654 16.088 2.13804 14.6236 1.17709 13.2581C0.868908 11.9369 0.336519 10.6539 0.54418 9.10702C0.861462 8.74215 1.26727 8.27498 1.70369 7.77344C2.18685 7.87283 2.73 7.57299 3.17138 8.07701C2.88222 8.46715 2.59514 8.85438 2.30516 9.24576C2.385 9.33025 2.45904 9.40977 2.53226 9.48763C3.14449 9.61436 3.3687 8.72227 4.00822 8.92893C4.10337 9.11364 4.1981 9.29877 4.29738 9.49094C4.10047 9.61726 3.87502 9.76221 3.63841 9.91379C3.78278 10.0587 3.88909 10.1652 3.9954 10.2716C4.31475 9.94071 4.625 9.93657 5.0002 10.3892C4.96628 10.6415 5.16153 11.0059 4.78468 11.2996C4.94104 11.3749 5.0941 11.4487 5.31293 11.5534C5.13298 11.7957 4.97331 12.0102 4.80991 12.2302C4.96214 12.2844 5.09286 12.3304 5.36629 12.4277C5.11478 12.4956 4.99565 12.5275 4.78716 12.5839C4.80908 12.7673 4.76523 13.0183 4.86948 13.1587C5.30135 13.7402 5.77789 14.2881 6.28877 14.9097C6.57006 14.6571 6.786 14.4691 6.9949 14.274C8.22928 13.1218 9.26221 11.7402 10.7932 10.9243C10.7849 10.4998 11.2288 10.5296 11.4199 10.3023C11.6362 10.0451 11.8766 9.80818 12.0317 9.64211H12.79C12.4462 10.1486 11.8604 10.4348 12.0516 11.1645C12.5413 10.8721 13.0208 10.586 13.6049 10.2377C13.5528 10.5719 13.5122 10.8295 13.4667 11.1223C13.6711 11.2254 13.9747 11.3799 14.3007 11.5447C14.2167 11.7191 14.1464 11.8645 14.0645 12.0347C14.1824 12.0595 14.2849 12.0807 14.3921 12.103C14.4033 12.1469 14.4463 12.2219 14.4256 12.2496C14.1509 12.6207 13.7832 12.9487 13.6082 13.36C13.3889 13.876 12.9054 14.1084 12.6245 14.5378Z" fill="#3CC3A3"/>
<path fill-rule="evenodd" clip-rule="evenodd" d="M33.2174 26.067C34.1163 24.9629 34.8754 24.0451 35.6188 23.1145C36.3228 22.2332 36.9247 21.2815 37.472 20.3061C37.4021 20.2196 37.3342 20.1359 37.218 19.9926C37.4091 19.7756 37.5982 19.5602 37.7988 19.332H38.5422C38.8201 19.6103 39.0439 20.0075 39.362 20.109C39.7505 20.2324 39.8055 20.5434 39.9623 20.7758C40.5058 21.5805 40.8839 22.3972 40.4661 23.4458C40.2092 24.0907 39.949 24.7359 39.6818 25.3779C39.6016 25.5713 39.5428 25.7738 39.4406 26.0683L38.871 26.639V27.3497C38.4251 28.1585 38.054 28.8328 37.6478 29.57C38.2092 29.9518 38.7262 30.32 39.259 30.6637C40.3147 31.345 41.188 32.1911 41.7096 33.3537C41.8217 33.6038 41.873 33.8817 41.9897 34.2723C41.9495 34.3613 41.8515 34.5804 41.7431 34.8206C41.5106 34.9291 41.2595 35.0463 41.0635 35.1374C40.5331 34.954 40.064 34.8169 39.6156 34.6301C39.1668 34.4437 38.7386 34.2077 38.3014 33.9935C38.2269 33.3396 37.4823 33.6038 37.1758 33.159C36.9243 32.7937 36.365 32.6417 35.8744 32.3556C34.4042 33.8573 33.1095 35.4978 31.9214 37.2256C31.83 37.3581 31.8594 37.5739 31.8329 37.7508C31.315 38.15 30.8029 38.0891 30.2891 37.7263V37.3673C29.6214 36.9668 28.9956 36.5915 28.3109 36.1807C27.9833 35.7964 28.15 35.1925 27.9366 34.7254C27.6987 34.2052 27.8997 33.7016 27.8096 33.3189C28.5558 31.6536 29.439 30.1949 30.7036 28.9363V28.1676C29.9726 27.6578 29.5184 26.863 29.0584 26.0836C28.9041 25.8223 28.8801 25.481 28.8094 25.1737C28.6659 24.5483 28.4512 23.9432 28.4702 23.2789C28.507 22.0083 29.2276 21.1017 30.4392 20.6457C31.2033 20.3583 31.9454 20.5028 32.767 20.4221C32.3247 21.3386 31.2653 21.2603 30.6461 22.0286C31.7142 21.9814 32.3649 20.9742 33.4541 21.1663C33.4119 21.4231 33.3697 21.6803 33.325 21.9511C33.5248 22.0216 33.8181 22.1255 34.1002 22.2257V23.66C33.8098 24.1673 33.4909 24.6734 33.2307 25.2085C33.1467 25.3804 33.2174 25.628 33.2174 26.067Z" fill="#3CC3A3"/>
<path fill-rule="evenodd" clip-rule="evenodd" d="M52.2807 12.0072C51.8583 12.5373 51.4728 13.0219 51.0463 13.557V15.0061C50.6496 15.1655 50.2636 15.3213 49.8276 15.4964C49.3122 14.9953 49.1033 14.3306 48.9382 13.7023C48.7173 13.7847 48.5221 13.8572 48.2321 13.9649C48.0046 13.6373 47.7278 13.3478 47.5785 13.0032C47.1317 11.9707 47.1673 10.8683 47.2161 9.8308C47.4035 9.4034 47.5706 9.02155 47.7791 8.54485C47.4672 8.49805 47.1909 8.54154 47.0763 8.42558C46.3474 7.68796 45.6281 6.93751 44.96 6.14524C44.6001 5.71783 44.2204 5.23451 44.0768 4.71392C43.8675 3.95187 43.8625 3.1335 43.7637 2.28241C44.107 1.79909 44.3862 1.23294 44.8222 0.842806C45.2231 0.484148 45.7931 0.315172 46.4111 0C46.5551 0.156137 46.6953 0.307303 46.8372 0.460955C46.7545 0.540473 45.6529 1.60278 45.6529 1.60278C45.7323 1.68271 45.8121 1.76264 45.9296 1.87985C46.4339 1.51167 46.9361 1.03 47.756 1.34766C47.5524 1.6268 47.394 1.84382 47.1156 2.22526C47.4921 2.07823 47.7022 1.99664 47.9934 1.88316C48.1308 2.09024 48.278 2.31264 48.4567 2.58267C48.1456 2.89453 47.9012 3.1393 47.6062 3.435C47.7965 3.47393 47.8991 3.49547 48.0695 3.53067C47.8139 3.96222 47.9583 4.55902 47.2993 4.77935C47.9533 5.58488 48.6813 6.02886 49.4202 6.52005C51.9071 4.45548 54.3399 2.43565 56.8053 0.388892H57.8937C57.703 0.771571 57.5516 1.0768 57.3981 1.38576C57.7249 1.6355 57.9835 1.35512 58.273 1.22921C59.1095 2.01072 59.3064 2.98647 59.1343 4.07487C58.7868 4.52133 58.4298 4.9798 58.0654 5.4478C58.089 5.46933 58.1431 5.51986 58.2921 5.65778C58.0914 5.68345 57.8983 5.7083 57.7047 5.73315C57.7804 5.81433 57.8561 5.89591 57.9318 5.9775H57.5119C56.7387 7.43409 55.432 8.42516 54.4752 9.75211C55.7865 10.4835 57.2538 11.0277 58.6412 11.8556C58.6834 12.0643 58.731 12.3012 58.7868 12.5812C58.9572 12.4006 59.0851 12.2652 59.2083 12.1348C59.7668 12.2101 59.7552 12.8529 60.2239 13.0881C60.6342 13.2944 60.8738 13.8419 61.1931 14.2436V15.5847C61.0847 15.6932 60.9784 15.7996 60.8295 15.9487C59.6679 15.8245 58.7074 15.1618 57.6496 14.6259C57.6281 14.6454 57.5495 14.7166 57.5152 14.7477C56.7751 14.5646 56.3338 13.7694 55.48 13.8883C55.082 13.376 54.4276 13.3362 53.9171 13.0343C53.4013 12.7295 52.9016 12.3986 52.2807 12.0072Z" fill="#3CC3A3"/>
<path fill-rule="evenodd" clip-rule="evenodd" d="M85.1339 30.0526C85.3668 30.1843 85.5501 30.2878 85.8189 30.4398C85.7577 30.8076 85.6957 31.1783 85.62 31.6347C85.809 31.9635 85.9674 32.4642 86.5412 32.6663C86.7981 32.3077 86.9557 31.8973 87.45 31.6968C87.7971 31.5556 88.001 31.0607 88.267 30.7223C88.5595 30.35 88.9657 30.0957 89.1961 29.6422C89.3897 29.2607 89.8059 28.9998 90.0685 28.6445C90.3395 28.2771 90.5447 27.8609 90.7784 27.4666H92.05C92.117 27.8236 92.2271 28.1765 91.8072 28.5451C92.1696 28.5616 92.45 28.5745 92.7065 28.5861C92.8211 29.1129 92.9245 29.59 93.0263 30.0563C92.8434 30.128 92.7139 30.1785 92.5613 30.2381C92.5774 30.3417 92.5749 30.4498 92.6118 30.5417C92.9261 31.3191 92.8749 31.5858 92.2705 32.1859C92.0182 32.4361 91.9127 32.8254 92.0153 33.0685C92.1766 33.4503 91.6922 33.3033 91.9209 33.6558C91.6785 33.4557 91.6024 33.3928 91.4709 33.2843V33.9134C91.2326 33.9593 91.0266 33.9987 90.7817 34.0455V34.663C90.493 34.9641 90.2894 35.1769 90.1198 35.3542C90.5132 35.7398 90.876 36.0951 91.1776 36.3913V37.2419C91.4208 37.4854 91.6752 37.7402 91.9358 38.0019C91.8548 38.146 91.803 38.2367 91.7125 38.3962C91.8308 38.6364 91.976 38.9321 92.1633 39.3135C91.9458 39.7683 91.7054 40.2706 91.4771 40.7477H90.5368C89.4414 40.1203 88.3795 39.5111 87.3206 38.9039C87.1327 39.1943 86.9834 39.4254 86.8568 39.6212C86.6616 39.526 86.511 39.4523 86.252 39.326V40.3771C85.9087 40.2491 85.6688 40.1596 85.2195 39.9923C85.4049 40.2458 85.4557 40.315 85.5534 40.4483C85.3465 40.643 85.1277 40.8488 84.7815 41.1743C84.712 40.754 84.6685 40.4906 84.621 40.2007C84.7794 40.146 84.9076 40.1017 85.0706 40.0449C85.0868 39.96 85.1062 39.8573 85.1298 39.7318C84.9871 39.6821 84.8559 39.6374 84.7244 39.5918C84.7728 39.3922 84.822 39.1909 84.9056 38.8497C84.6967 39.0414 84.616 39.1156 84.568 39.1595C84.0877 39.0692 83.6335 38.9843 83.1549 38.8948C83.0813 38.7532 82.9857 38.5685 82.8728 38.3523C82.958 38.0218 83.0548 37.6466 83.1529 37.2639C83.3733 37.3003 83.6534 37.3471 83.9334 37.3935C83.945 37.3521 83.9562 37.3107 83.9682 37.2688C83.6757 37.1218 83.3837 36.9748 83.126 36.8452C83.277 36.5329 83.4271 36.2219 83.5835 35.898C82.8414 34.6361 82.0326 33.4449 81.5755 32.0741C81.3013 31.1298 81.626 30.1967 81.7617 29.2674C81.8672 28.5447 82.4641 28.0336 83.1173 27.6679C83.2104 27.6157 83.2985 27.5557 83.4474 27.4629H84.5693C84.7463 27.6401 84.9056 27.8 85.0177 27.9122C84.7968 28.1334 84.5721 28.3579 84.4389 28.4908V29.1858C84.6876 29.1212 84.9262 29.0595 85.1993 28.9886C85.3424 29.1224 85.4735 29.2454 85.6555 29.4156C85.4644 29.6492 85.3068 29.8418 85.1339 30.0526Z" fill="#3CC3A3"/>
<path fill-rule="evenodd" clip-rule="evenodd" d="M17.289 41.6543C17.4164 41.7818 17.5227 41.8883 17.6732 42.039C16.982 42.6308 16.2945 43.2189 15.6074 43.8074C15.6227 43.8472 15.6384 43.887 15.6541 43.9263C15.8002 43.8837 15.9785 43.8799 16.0848 43.7905C16.2833 43.624 16.4397 43.4082 16.7123 43.3544C17.1942 43.0823 17.6761 42.8097 18.1448 42.5447C18.5535 42.8756 18.2553 43.1369 18.0795 43.5382C18.3471 43.4368 18.5204 43.3709 18.707 43.2997C18.7885 43.3813 18.8948 43.4877 19.0015 43.5946C19.0019 44.0456 19.0019 44.497 19.0019 44.9538C18.8704 45.0822 18.7364 45.2139 18.5945 45.3522C18.6152 45.4044 18.6205 45.4765 18.659 45.5047C18.9155 45.6972 19.1715 45.8923 19.4421 46.0638C19.7329 46.2477 20.1399 46.3007 20.1511 46.7716C20.1524 46.8258 20.2442 46.8871 20.3046 46.9298C20.5366 47.0934 20.8084 47.2172 20.9975 47.4197C21.1861 47.6214 21.2932 47.8993 21.4839 48.2257C21.4839 48.4166 21.4839 48.7177 21.4835 49.0183C21.297 49.2047 21.1112 49.3911 20.9557 49.5468C19.5331 49.0378 18.127 48.535 16.7214 48.0322C16.4091 48.1992 16.0728 48.3785 15.736 48.5578C15.722 48.535 15.7079 48.5123 15.6939 48.4895C15.4014 48.7819 15.1089 49.0747 14.7354 49.4487C14.73 49.5377 14.7193 49.7125 14.7056 49.9353C14.1132 50.5056 13.4931 51.1032 12.993 51.5853C12.7419 52.3651 12.8693 53.1661 11.8314 53.3305C11.6168 52.9868 10.8457 52.9317 11.0215 52.1303C10.808 52.0686 10.5458 51.992 10.2599 51.9092C10.1954 51.9526 10.0792 52.0305 9.98856 52.091C9.69817 51.7837 9.44459 51.5145 9.07601 51.1239C8.99369 50.4194 8.88821 49.5178 8.77734 48.569C9.7143 47.5547 10.6376 46.5554 11.6172 45.4947C11.2341 45.2545 10.8391 45.0536 10.5007 44.7824C10.1507 44.5016 9.85577 44.152 9.52774 43.8236C9.61833 43.5308 9.71058 43.2322 9.80986 42.9096C9.62619 42.8466 9.49506 42.8015 9.33207 42.7451V41.9823C9.39495 41.9189 9.47479 41.8394 9.56703 41.7466C9.88969 41.6824 10.2285 41.6149 10.6471 41.5312C11.7615 42.1575 12.9802 42.8421 14.1658 43.5076C15.3546 43.0549 16.1253 42.0108 17.289 41.6543Z" fill="#3CC3A3"/>
</g>
</svg>
