<svg width="118" height="21" viewBox="0 0 118 21" fill="none" xmlns="http://www.w3.org/2000/svg">
<g clip-path="url(#clip0_2894_17409)">
<path d="M108.501 0.765625H99.002V19.7636H118V10.2646C118 5.01363 113.752 0.765625 108.501 0.765625ZM3.34333 19.7439H0.0196667V8.3373L0 5.1513H3.068V6.66563H3.08767C3.67767 5.70196 5.15267 4.71863 7.23733 4.71863C10.797 4.71863 13.511 7.05896 13.511 11.7396V19.7243H10.1677V11.6806C10.1677 9.2813 9.06633 7.6883 6.74567 7.6883C4.44467 7.6883 3.34333 9.30096 3.34333 11.6806V19.7439Z" fill="#6E6E78"/>
<path d="M30.6803 15.3976C29.7953 18.1313 27.3567 20.1766 23.5413 20.1766C19.254 20.1766 16.127 17.1086 16.127 12.3886C16.127 7.72763 19.372 4.71863 23.4823 4.71863C27.573 4.71863 30.5427 7.6883 30.5427 12.3689V13.2933H19.5097C19.7653 15.8696 21.3387 17.4036 23.7183 17.4036C25.6063 17.4036 26.6683 16.5579 27.101 15.3976H30.6803ZM19.5097 10.7563H27.0617C26.865 8.88796 25.6653 7.31463 23.384 7.31463C21.2207 7.31463 19.8047 8.9273 19.5097 10.7563ZM40.5727 20.1766C36.5213 20.1766 33.0207 17.5019 33.0207 12.4476C33.0207 7.43263 36.6393 4.71863 40.6907 4.71863C44.388 4.71863 47.043 6.96063 47.6527 9.89096H44.1323C43.7193 8.6913 42.5787 7.72763 40.6907 7.72763C38.1537 7.72763 36.364 9.59595 36.364 12.4476C36.364 15.2993 38.1537 17.2069 40.6513 17.2069C42.6377 17.2069 43.857 16.1646 44.2307 14.9649H47.7707C47.161 17.8756 44.2503 20.1766 40.5727 20.1766ZM57.7417 19.8619C54.3393 19.8619 52.1367 18.1116 52.1367 14.1193V8.08163H49.226V5.17096H52.1367V0.765625H53.651C54.654 0.765625 55.4603 1.57196 55.4603 2.57496V5.17096H59.5117V8.08163H55.4603V13.9423C55.4603 16.2826 56.8567 16.8529 58.371 16.8529C58.813 16.8551 59.2541 16.8156 59.6887 16.7349V19.6456C59.2363 19.7833 58.4693 19.8619 57.7417 19.8619ZM62.088 12.4869C62.088 7.90463 64.979 4.7383 69.463 4.7383C71.2133 4.7383 73.5733 5.76096 74.183 7.19663H74.2027V5.19063H77.4082L77.3886 8.37663V19.7833H74.183V17.7379H74.1633C73.5537 19.1736 71.2527 20.1963 69.463 20.1963C64.979 20.1766 62.088 17.0693 62.088 12.4869ZM74.1633 12.4869C74.1633 9.5173 72.236 7.78663 69.817 7.78663C67.339 7.78663 65.4706 9.5173 65.4706 12.4869C65.4706 15.4566 67.339 17.1283 69.817 17.1283C72.1377 17.1283 74.1633 15.4566 74.1633 12.4869ZM89.346 8.08163C86.573 8.08163 84.8817 9.65495 84.8817 12.6246V19.7439H81.558V8.3373L81.5187 5.1513H84.7243V7.55063H84.7832C85.3339 5.9183 86.9662 4.71863 89.0509 4.71863C89.6409 4.71863 89.9949 4.77763 89.9949 4.77763V8.08163H89.346Z" fill="#6E6E78"/>
</g>
<defs>
<clipPath id="clip0_2894_17409">
<rect width="118" height="21" fill="white"/>
</clipPath>
</defs>
</svg>
