<svg width="140" height="295" viewBox="0 0 140 295" fill="none" xmlns="http://www.w3.org/2000/svg">
<rect width="140" height="295" rx="5" fill="#F1554C"/>
<path d="M72.9113 182.222L82.5532 182.222L82.5532 187.629L57.8789 187.629L57.8789 171.882L62.8804 171.882L62.8804 182.222L68.0487 182.222L68.0487 173.526L72.9113 173.526L72.9113 182.222Z" fill="white"/>
<path d="M65.377 161.736C65.377 156.412 68.9058 152.538 74.1852 152.538C79.4646 152.538 82.9379 156.412 82.9379 161.736C82.9379 167.087 79.4368 170.961 74.1852 170.961C68.9058 170.961 65.377 167.087 65.377 161.736ZM78.3254 161.736C78.3254 159.367 76.6582 157.722 74.1296 157.722C71.6289 157.722 69.9617 159.367 69.9617 161.736C69.9617 164.133 71.6289 165.777 74.1296 165.777C76.6582 165.777 78.3254 164.16 78.3254 161.736Z" fill="white"/>
<path d="M82.5231 149.559L57.4043 149.559L57.4043 144.403L82.5231 144.403L82.5231 149.559Z" fill="white"/>
<path d="M60.3488 140.945C58.7094 140.945 57.459 139.635 57.459 137.991C57.459 136.375 58.7372 135.092 60.3488 135.092C61.9882 135.092 63.2663 136.402 63.2663 137.991C63.2663 139.635 61.9604 140.945 60.3488 140.945ZM65.8782 140.527L65.8782 135.371L82.55 135.371L82.55 140.527L65.8782 140.527Z" fill="white"/>
<path d="M65.377 123.191C65.377 117.868 68.9058 113.993 74.1852 113.993C79.4646 113.993 82.9379 117.868 82.9379 123.191C82.9379 128.542 79.4368 132.416 74.1852 132.416C68.9058 132.416 65.377 128.542 65.377 123.191ZM78.3254 123.191C78.3254 120.822 76.6582 119.177 74.1296 119.177C71.6289 119.177 69.9617 120.822 69.9617 123.191C69.9617 125.588 71.6289 127.232 74.1296 127.232C76.6582 127.232 78.3254 125.588 78.3254 123.191Z" fill="white"/>
<path d="M82.5215 110.371L57.875 110.371L57.875 94.652L62.8765 94.652L62.8765 104.936L67.7114 104.936L67.7114 95.8226L72.435 95.8226L72.435 104.936L77.5199 104.936L77.5199 94.652L82.5215 94.652L82.5215 110.371Z" fill="white"/>
<path d="M74.2984 91.7539C68.9912 91.7539 65.3234 88.5767 65.3234 83.5042C65.3234 81.4418 66.157 79.4629 67.3796 78.4875L57.4043 78.4875L57.4043 73.3314L82.5231 73.3314L82.5231 78.1809L80.3836 78.4596C81.9118 79.3515 82.9399 81.4418 82.9399 83.8386C82.9677 88.6324 79.5778 91.7539 74.2984 91.7539ZM74.1039 78.5153C71.6031 78.5153 69.9359 80.1876 69.9359 82.5845C69.9359 85.0371 71.6309 86.57 74.1039 86.57C76.5769 86.57 78.2718 85.0371 78.2718 82.5845C78.2718 80.1876 76.6047 78.5153 74.1039 78.5153Z" fill="white"/>
<path d="M65.2969 62.2378C65.2969 59.9524 66.1583 58.1687 67.5198 57.249L65.8526 56.9703L65.8526 52.1208L81.4407 52.1208C87.4148 52.1208 90.9992 55.5767 90.9992 61.2902C90.9992 66.3905 88.1095 69.8465 83.358 70.3203L83.358 65.1085C85.2197 64.997 86.3311 63.6035 86.3311 61.3459C86.3311 58.8655 84.8585 57.3047 82.4966 57.3047L80.3571 57.3047C81.5519 58.3081 82.3299 60.1754 82.3299 62.3493C82.3299 67.0316 78.8844 70.2646 73.9106 70.2646C68.8257 70.2646 65.2969 66.9758 65.2969 62.2378ZM77.8563 61.2066C77.8563 58.8655 76.2169 57.3047 73.7439 57.3047C71.2987 57.3047 69.7427 58.8655 69.7427 61.2623C69.7427 63.5477 71.3821 65.1085 73.7439 65.1085C76.1613 65.0806 77.8563 63.492 77.8563 61.2066Z" fill="white"/>
<path d="M74.1583 49.166C68.9623 49.166 65.3223 45.6543 65.3223 40.6097C65.3223 35.37 68.7678 32.0813 74.1861 32.0813L75.4921 32.0813L75.5476 44.205C77.7428 43.8985 78.7709 42.6721 78.7709 40.3867C78.7709 38.4358 78.0762 37.0701 76.8814 36.7078L76.8814 31.9977C80.577 32.6108 82.9388 35.8996 82.9388 40.4982C82.9666 45.5707 79.2988 49.166 74.1583 49.166ZM72.4078 44.1493L72.4078 37.2095C70.6295 37.2095 69.518 38.5194 69.518 40.5818C69.4902 42.6164 70.4072 43.7591 72.4078 44.1493Z" fill="white"/>
<g clip-path="url(#clip0_2894_16160)">
<path d="M58.7209 229.847C57.6905 228.835 56.2674 228.206 54.6966 228.206C51.5506 228.206 49 230.722 49 233.825C49 235.786 50.0219 237.511 51.5675 238.514C51.8377 238.785 79.7885 261.151 80.1094 261.359C81.1398 262.371 82.5586 263 84.1295 263C87.2755 263 89.8261 260.484 89.8261 257.381C89.8261 255.42 88.8041 253.696 87.2586 252.692C86.9926 252.425 59.0418 230.055 58.7209 229.847Z" fill="white"/>
<path d="M71.98 216.907C70.9496 215.89 69.5266 215.261 67.9514 215.261C64.8055 215.261 62.2549 217.777 62.2549 220.88C62.2549 222.842 63.2768 224.566 64.8223 225.574C65.0968 225.845 79.7753 237.59 80.1005 237.802C81.1308 238.818 82.5539 239.447 84.129 239.447C87.275 239.447 89.8256 236.932 89.8256 233.829C89.8256 231.867 88.8036 230.143 87.2581 229.135C86.9878 228.864 72.3052 217.115 71.98 216.907Z" fill="white"/>
<path d="M54.6966 204.649C57.8426 204.649 60.3931 207.164 60.3931 210.267C60.3931 213.37 57.8426 215.886 54.6966 215.886C51.5506 215.886 49 213.37 49 210.267C49 207.164 51.5506 204.649 54.6966 204.649Z" fill="white"/>
<path d="M54.6966 251.763C57.8426 251.763 60.3931 254.279 60.3931 257.381C60.3931 260.484 57.8426 263 54.6966 263C51.5506 263 49 260.484 49 257.381C49 254.279 51.5506 251.763 54.6966 251.763Z" fill="white"/>
</g>
<defs>
<clipPath id="clip0_2894_16160">
<rect width="58.3508" height="40.8261" fill="white" transform="translate(49 263) rotate(-90)"/>
</clipPath>
</defs>
</svg>
