<svg width="128" height="32" viewBox="0 0 128 32" fill="none" xmlns="http://www.w3.org/2000/svg">
<path fill-rule="evenodd" clip-rule="evenodd" d="M45.043 9.32812H60.4735V12.9948H54.8207V30.717H50.6957V12.9948H45.043V9.32812Z" fill="#6E6E78"/>
<path fill-rule="evenodd" clip-rule="evenodd" d="M70.862 17.5781H74.2842C75.2823 17.5781 75.9749 17.3643 76.362 16.9365C76.7694 16.4887 76.9731 15.9485 76.9731 15.317C76.9731 14.6655 76.7694 14.1155 76.362 13.667C75.9542 13.2192 75.262 12.9948 74.2842 12.9948H70.862V17.5781ZM72.3592 21.2448H70.862V30.717H66.7373V9.32812H74.529C76.4845 9.32812 78.0425 9.8581 79.2036 10.917C80.4666 12.1192 81.0981 13.5754 81.0981 15.2865C81.0981 16.9976 80.4666 18.4544 79.2036 19.6559C78.5929 20.2266 77.8796 20.6442 77.0651 20.909L85.0706 30.717H79.9675L72.3592 21.2448Z" fill="#6E6E78"/>
<path fill-rule="evenodd" clip-rule="evenodd" d="M110.646 3.75066L101.412 9.08211C100.853 8.99875 100.282 8.95555 99.7002 8.95555C93.349 8.95555 88.2002 14.1043 88.2002 20.4556C88.2002 26.8069 93.349 31.9556 99.7002 31.9556C103.042 31.9556 106.051 30.5299 108.152 28.2535L120.945 20.8667C121.184 20.7287 121.266 20.4229 121.128 20.1837C120.99 19.9446 120.684 19.8626 120.445 20.0007L109.642 26.2385C110.633 24.5396 111.2 22.5638 111.2 20.4556C111.2 15.2025 107.678 10.772 102.866 9.39693L111.146 4.61669C111.385 4.47861 111.467 4.17282 111.329 3.93367C111.191 3.69453 110.885 3.61259 110.646 3.75066ZM99.7002 11.9556C104.394 11.9556 108.2 15.7612 108.2 20.4556C108.2 25.15 104.394 28.9556 99.7002 28.9556C95.0058 28.9556 91.2002 25.15 91.2002 20.4556C91.2002 15.7612 95.0058 11.9556 99.7002 11.9556Z" fill="#6E6E78"/>
<path d="M112.255 12.7507L122.647 6.75066C122.886 6.61259 123.192 6.69453 123.33 6.93367C123.468 7.17282 123.386 7.47861 123.147 7.61668L112.755 13.6167C112.516 13.7548 112.21 13.6729 112.072 13.4337C111.934 13.1946 112.016 12.8888 112.255 12.7507Z" fill="#6E6E78"/>
<path d="M113.255 17.7507L126.245 10.2507C126.484 10.1126 126.79 10.1946 126.928 10.4337C127.066 10.6729 126.984 10.9787 126.745 11.1167L113.755 18.6167C113.515 18.7548 113.21 18.6729 113.072 18.4337C112.934 18.1946 113.015 17.8888 113.255 17.7507Z" fill="#6E6E78"/>
<path d="M94.7266 17.2507L124.172 0.250665C124.411 0.112594 124.717 0.194531 124.855 0.433677C124.993 0.672824 124.911 0.978619 124.672 1.11668L95.2266 18.1167C94.9875 18.2548 94.6817 18.1729 94.5436 17.9337C94.4055 17.6946 94.4875 17.3888 94.7266 17.2507Z" fill="#6E6E78"/>
<mask id="mask0_2894_17421" style="mask-type:alpha" maskUnits="userSpaceOnUse" x="25" y="9" width="16" height="23">
<path fill-rule="evenodd" clip-rule="evenodd" d="M25.9463 9.02148H40.9185V31.0218H25.9463V9.02148Z" fill="white"/>
</mask>
<g mask="url(#mask0_2894_17421)">
<path fill-rule="evenodd" clip-rule="evenodd" d="M25.9463 27.8135L28.6352 25.0024C30.0608 26.5712 31.7413 27.3548 33.6768 27.3548C34.5935 27.3548 35.3421 27.1005 35.9227 26.5909C36.5032 26.082 36.7935 25.4407 36.7935 24.6659C36.7935 23.8518 36.4676 23.1948 35.8157 22.6954C35.1635 22.1964 34.1705 21.6925 32.8366 21.1829C31.5023 20.674 30.5398 20.2462 29.9491 19.8993C27.9324 18.7185 26.9241 17.0987 26.9241 15.0413C26.9241 13.2283 27.6268 11.7718 29.0324 10.6718C30.438 9.57182 32.088 9.02148 33.9824 9.02148C36.3046 9.02148 38.3719 9.69405 40.1852 11.0385L38.0463 14.094C37.0274 13.1573 35.7954 12.6885 34.3491 12.6885C33.4728 12.6885 32.7038 12.8823 32.0421 13.269C31.3797 13.6561 31.0491 14.237 31.0491 15.0107C31.0491 15.6218 31.3899 16.1565 32.0727 16.6149C32.7551 17.0732 33.5747 17.4806 34.5324 17.8371C35.4898 18.1936 36.4523 18.6061 37.4199 19.0746C38.3872 19.5435 39.2122 20.2462 39.8949 21.1829C40.5773 22.12 40.9185 23.2607 40.9185 24.6052C40.9185 26.4592 40.2052 27.9917 38.7796 29.2038C37.3537 30.4158 35.6524 31.0218 33.6768 31.0218C30.8657 31.0218 28.2885 29.9524 25.9463 27.8135Z" fill="#6E6E78"/>
</g>
<mask id="mask1_2894_17421" style="mask-type:alpha" maskUnits="userSpaceOnUse" x="0" y="9" width="22" height="22">
<path fill-rule="evenodd" clip-rule="evenodd" d="M0 9.21484H21.236V30.6289H0V9.21484Z" fill="white"/>
</mask>
<g mask="url(#mask1_2894_17421)">
<path fill-rule="evenodd" clip-rule="evenodd" d="M9.16667 9.21484L0 30.6037C0 30.6037 4.13824 30.6604 4.30833 30.6037C4.47843 30.547 10.6028 15.876 10.6028 15.876L16.9278 30.6037H21.2361L12.0694 9.21484H9.16667Z" fill="#6E6E78"/>
</g>
</svg>
