<svg width="40" height="40" viewBox="0 0 40 40" fill="none" xmlns="http://www.w3.org/2000/svg">
<g clip-path="url(#clip0_2894_17305)">
<path d="M39.1988 0.78125C39.1988 0.78125 39.048 4.98671 37.3004 9.93123L30.0488 2.67968C34.9934 0.932031 39.1988 0.78125 39.1988 0.78125Z" fill="#F1554C"/>
<path d="M30.0492 2.67969L37.3007 9.93124C36.1648 13.1484 34.3515 16.6781 31.4656 19.564C28.8061 22.2235 25.6068 24.3523 22.2617 25.8281L14.1523 17.7187C15.1398 15.4804 16.518 13.0922 18.3391 10.8305C18.9766 10.039 19.668 9.26327 20.4164 8.51483C23.3023 5.6289 26.832 3.81562 30.0492 2.67969Z" fill="white"/>
<path d="M30.3602 9.62031C31.5805 10.8406 31.5805 12.8195 30.3602 14.0398C29.1398 15.2601 27.1617 15.2601 25.9406 14.0398C24.7203 12.8187 24.7203 10.8406 25.9406 9.62031C27.1609 8.4 29.1398 8.4 30.3602 9.62031Z" fill="#7BD8E8"/>
<path d="M29.2551 21.7727C33.2816 27.8125 25.7441 31.7164 21.5215 31.7164C23.7309 29.507 23.0855 26.6516 23.0855 26.6516L22.2613 25.8273C24.4996 24.8398 26.8879 23.4617 29.1496 21.6406L29.2551 21.7727Z" fill="#F1554C"/>
<path d="M13.245 23.4406L13.1184 23.314C12.745 22.9398 12.5614 22.3976 12.6926 21.8851C13.0184 20.6164 13.4997 19.2008 14.1528 17.7188L22.2622 25.8281C20.7801 26.4812 19.3645 26.9625 18.0958 27.2883C17.5833 27.4195 17.0411 27.2359 16.6668 26.8625L16.5403 26.7359L13.245 23.4406Z" fill="#F1554C"/>
<path d="M18.2074 10.7254L18.3394 10.8309C16.5183 13.0926 15.1402 15.4809 14.1527 17.7191L13.3285 16.8949C13.3285 16.8949 10.473 16.2496 8.26367 18.459C8.26367 14.2363 12.1676 6.69885 18.2074 10.7254Z" fill="#F1554C"/>
<path d="M13.2449 23.4414L16.5402 26.7367C16.3035 27.6734 15.7418 28.6594 14.8926 29.5086C13.0621 31.339 8.26367 31.718 8.26367 31.718C8.26367 31.718 8.64258 26.9195 10.473 25.0891C11.3223 24.2398 12.3082 23.6781 13.2449 23.4414Z" fill="#FDB12E"/>
<path d="M20.9883 20.117C21.293 19.8115 21.293 19.317 20.9883 19.0123C20.6828 18.7068 20.1883 18.7068 19.8828 19.0123C19.5781 19.317 19.5781 19.8115 19.8828 20.117C20.1883 20.4217 20.6828 20.4217 20.9883 20.117Z" fill="#10131F"/>
<path d="M30.932 14.5911C32.4584 13.0647 32.4587 10.5934 30.932 9.06677C29.4054 7.54028 26.9342 7.54021 25.4076 9.06677C23.885 10.5893 23.8849 13.0675 25.4078 14.5913C26.9309 16.1135 29.409 16.1141 30.932 14.5911ZM26.5125 10.1716C27.4283 9.25575 28.9111 9.25559 29.8271 10.1716C30.743 11.0874 30.7432 12.5703 29.8271 13.4862C28.9136 14.3998 27.4266 14.3998 26.5126 13.4864C25.599 12.5721 25.5989 11.0851 26.5125 10.1716Z" fill="#10131F"/>
<path d="M7.98445 19.1804C8.08109 19.2204 8.18265 19.2399 8.28328 19.2399C8.48664 19.2399 8.6864 19.1604 8.83586 19.0111C10.4048 17.4421 12.3401 17.5402 12.9723 17.6233L13.2458 17.8969C12.7074 19.1782 12.2737 20.4522 11.9555 21.6914C11.8407 22.1398 11.8794 22.6143 12.0501 23.0484C11.298 23.395 10.5723 23.904 9.94039 24.5359C7.92937 26.547 7.52102 31.4481 7.50461 31.6557C7.48664 31.8836 7.5693 32.108 7.73094 32.2696C7.87805 32.4167 8.07703 32.4985 8.28328 32.4985C8.30375 32.4985 8.3243 32.4977 8.34484 32.496C8.5525 32.4797 13.4537 32.0713 15.4647 30.0603C16.0964 29.4287 16.6053 28.7031 16.9519 27.951C17.4115 28.1317 17.8844 28.154 18.3097 28.045C19.5483 27.727 20.8222 27.2934 22.1036 26.7549L22.3772 27.0285C22.4603 27.6607 22.5584 29.596 20.9895 31.1648C20.7661 31.3882 20.6993 31.7242 20.8202 32.0161C20.9411 32.3081 21.2259 32.4984 21.5419 32.4984C24.6341 32.4984 28.9571 30.6569 30.5493 27.6818C31.2408 26.3899 31.7116 24.346 30.2102 21.7953C30.8467 21.2573 31.4597 20.6948 32.038 20.1165C34.6177 17.5368 36.6428 14.1976 38.0574 10.1916C39.8245 5.19179 39.9935 0.985865 39.9998 0.809303C40.0077 0.592506 39.9249 0.382272 39.7716 0.228835C39.6181 0.0754762 39.4088 -0.00764858 39.1911 0.00055453C39.0145 0.00688264 34.8086 0.175945 29.809 1.94305C25.8028 3.35758 22.4635 5.38281 19.8839 7.96249C19.3058 8.54054 18.7433 9.1535 18.2051 9.7903C15.6545 8.2889 13.6106 8.75968 12.3185 9.45116C9.34343 11.0433 7.50195 15.3665 7.50195 18.4586C7.50219 18.7746 7.69258 19.0595 7.98445 19.1804ZM14.3599 28.9554C13.2857 30.0296 10.7658 30.5962 9.17304 30.8275C9.40445 29.2347 9.97109 26.7149 11.0452 25.6407C11.6468 25.0392 12.3443 24.5831 13.0454 24.3262L15.6744 26.9553C15.4176 27.6564 14.9615 28.3539 14.3599 28.9554ZM17.9216 26.5314C17.6955 26.5893 17.4336 26.5043 17.239 26.31C13.4467 22.5178 18.3147 27.3858 13.6912 22.7621C13.4963 22.5669 13.4113 22.3051 13.469 22.0794C13.7193 21.1049 14.0465 20.105 14.4445 19.0956L20.905 25.5561C19.8954 25.9542 18.8958 26.2814 17.9216 26.5314ZM29.1719 26.9446C28.1483 28.857 25.5711 30.2667 23.2225 30.7519C23.9714 29.3428 24.1364 27.5489 23.8629 26.4612C23.7993 26.2085 23.6345 26.0815 23.6253 26.0666C25.5185 25.1496 27.3114 24.0496 28.9757 22.7842C29.7888 24.2696 29.8557 25.6667 29.1719 26.9446ZM36.9779 8.48335L31.5173 3.02274C34.4924 2.09868 37.0806 1.75266 38.3724 1.62829C38.248 2.92039 37.9019 5.50859 36.9779 8.48335ZM20.989 9.06733C23.3035 6.75281 26.2905 4.91078 29.8696 3.58484L36.4158 10.1311C35.09 13.7101 33.248 16.6971 30.9333 19.0117C30.2293 19.7156 29.4713 20.3957 28.6802 21.0329C26.7785 22.5642 24.6854 23.8612 22.4522 24.8937L15.1069 17.5486C16.1394 15.3153 17.4365 13.2222 18.9676 11.3207C19.6054 10.529 20.2854 9.77092 20.989 9.06733ZM13.0561 10.8287C14.3341 10.1448 15.7311 10.2119 17.2164 11.0249C15.951 12.6891 14.8509 14.4821 13.934 16.3754C13.9223 16.3683 13.7817 16.1915 13.5205 16.1326C13.413 16.1083 11.3459 15.6636 9.24867 16.7783C9.73398 14.4296 11.1436 11.8523 13.0561 10.8287Z" fill="#10131F"/>
<path d="M16.5701 35.5847L18.7795 33.3746C19.0845 33.0694 19.0844 32.5747 18.7793 32.2697C18.4741 31.9647 17.9794 31.9648 17.6744 32.2699L15.465 34.4801C15.16 34.7852 15.1601 35.2799 15.4652 35.5849C15.7704 35.8899 16.2651 35.8899 16.5701 35.5847Z" fill="#10131F"/>
<path d="M5.52103 24.5353L7.73119 22.3259C8.03635 22.0209 8.03642 21.5262 7.73142 21.2211C7.42642 20.9159 6.93181 20.9159 6.62658 21.2209L4.41643 23.4303C4.11127 23.7353 4.11119 24.23 4.41619 24.5351C4.72111 24.8401 5.21572 24.8404 5.52103 24.5353Z" fill="#10131F"/>
<path d="M12.15 33.3752L6.85778 38.6666C6.55263 38.9717 6.55263 39.4664 6.8577 39.7715C7.16263 40.0766 7.65739 40.0767 7.96254 39.7716L13.2547 34.4802C13.5599 34.1751 13.5599 33.6804 13.2548 33.3753C12.9499 33.0702 12.4551 33.0702 12.15 33.3752Z" fill="#10131F"/>
<path d="M5.89996 33.3752L0.607783 38.6666C0.302627 38.9717 0.302627 39.4664 0.607705 39.7715C0.912626 40.0766 1.40739 40.0767 1.71255 39.7716L7.00473 34.4802C7.30988 34.1751 7.30988 33.6804 7.00481 33.3753C6.69981 33.0702 6.20504 33.0702 5.89996 33.3752Z" fill="#10131F"/>
<path d="M1.33372 33.1414L6.62512 27.8493C6.93019 27.5441 6.93019 27.0495 6.62504 26.7444C6.32004 26.4394 5.82527 26.4394 5.5202 26.7444L0.228798 32.0366C-0.0762792 32.3418 -0.0762792 32.8364 0.228877 33.1415C0.533954 33.4466 1.02864 33.4466 1.33372 33.1414Z" fill="#10131F"/>
<path d="M23.199 17.9072L24.3036 16.8025C24.6087 16.4974 24.6087 16.0027 24.3036 15.6976C23.9985 15.3925 23.504 15.3925 23.1987 15.6976L22.094 16.8022C21.789 17.1073 21.789 17.602 22.094 17.9072C22.3992 18.2122 22.8938 18.2122 23.199 17.9072Z" fill="#10131F"/>
</g>
<defs>
<clipPath id="clip0_2894_17305">
<rect width="40" height="40" fill="white"/>
</clipPath>
</defs>
</svg>
