<svg width="41" height="40" viewBox="0 0 41 40" fill="none" xmlns="http://www.w3.org/2000/svg">
<g clip-path="url(#clip0_2894_17321)">
<path d="M24.2689 36.0664V37.0648C24.2689 37.1525 24.2642 37.2402 24.2548 37.3255C24.1248 38.5001 23.1288 39.4139 21.9198 39.4139H18.3179C17.1088 39.4139 16.1128 38.5001 15.9828 37.3255C15.9734 37.2402 15.9688 37.1525 15.9688 37.0648V36.0664C16.2796 36.205 16.6241 36.2817 16.9867 36.2817H23.251C23.6135 36.2817 23.9581 36.205 24.2689 36.0664Z" fill="#50758D"/>
<path d="M20.0013 5.13381C19.6769 5.13381 19.4141 4.87095 19.4141 4.54654V0.587276C19.4141 0.262865 19.6769 0 20.0013 0C20.3257 0 20.5886 0.262865 20.5886 0.587276V4.54654C20.5886 4.87095 20.3257 5.13381 20.0013 5.13381Z" fill="#FFE7C9"/>
<path d="M9.45926 9.50155C9.30892 9.50155 9.15866 9.44424 9.04394 9.3296L6.24428 6.52986C6.01493 6.30043 6.01493 5.92865 6.24428 5.6993C6.47379 5.46995 6.84557 5.4701 7.07484 5.6993L9.87451 8.49904C10.1039 8.72846 10.1039 9.10025 9.87451 9.3296C9.75979 9.44424 9.60945 9.50155 9.45926 9.50155Z" fill="#FFE7C9"/>
<path d="M5.09349 20.0418H1.13415C0.80974 20.0418 0.546875 19.7789 0.546875 19.4545C0.546875 19.1301 0.80974 18.8672 1.13415 18.8672H5.09341C5.41783 18.8672 5.68069 19.1301 5.68069 19.4545C5.68069 19.7789 5.41783 20.0418 5.09349 20.0418Z" fill="#FFE7C9"/>
<path d="M6.6596 33.3843C6.50934 33.3843 6.35899 33.327 6.24428 33.2123C6.01493 32.9829 6.01493 32.6111 6.24428 32.3818L9.04394 29.5821C9.27337 29.3528 9.64516 29.3528 9.87451 29.5821C10.1039 29.8115 10.1039 30.1833 9.87451 30.4127L7.07484 33.2123C6.96013 33.327 6.80986 33.3843 6.6596 33.3843Z" fill="#FFE7C9"/>
<path d="M33.3421 33.3843C33.1918 33.3843 33.0415 33.327 32.9268 33.2123L30.1271 30.4127C29.8977 30.1832 29.8977 29.8115 30.1271 29.5821C30.3565 29.3528 30.7283 29.3528 30.9577 29.5821L33.7573 32.3818C33.9867 32.6112 33.9867 32.983 33.7573 33.2123C33.6427 33.327 33.4924 33.3843 33.3421 33.3843Z" fill="#FFE7C9"/>
<path d="M38.8688 20.0418H34.9095C34.5851 20.0418 34.3223 19.7789 34.3223 19.4545C34.3223 19.1301 34.5851 18.8672 34.9095 18.8672H38.8688C39.1932 18.8672 39.4561 19.1301 39.4561 19.4545C39.4561 19.7789 39.1931 20.0418 38.8688 20.0418Z" fill="#FFE7C9"/>
<path d="M30.5424 9.50155C30.3922 9.50155 30.2418 9.44424 30.1271 9.3296C29.8977 9.10017 29.8977 8.72839 30.1271 8.49904L32.9268 5.6993C33.1562 5.47003 33.528 5.47003 33.7573 5.6993C33.9867 5.92873 33.9867 6.30051 33.7573 6.52986L30.9577 9.3296C30.843 9.44424 30.6927 9.50155 30.5424 9.50155Z" fill="#FFE7C9"/>
<path d="M20.1188 35.498C20.1188 35.498 16.2796 36.2043 15.9688 36.0657V37.0641C15.9688 37.1518 15.9734 37.2395 15.9828 37.3249C16.1128 38.4994 17.1088 39.4132 18.3179 39.4132H19.3358C18.3143 39.4132 17.4451 38.7609 17.1215 37.8502C17.0668 37.6962 17.1789 37.5339 17.3423 37.5339H23.251C23.608 37.5339 23.9479 37.4595 24.2548 37.3249C24.2642 37.2395 24.2689 37.1518 24.2689 37.0641V36.0657C23.9581 36.2043 20.1188 35.498 20.1188 35.498Z" fill="#2B597F"/>
<path d="M25.7571 33.776C25.7571 34.7971 25.1455 35.6764 24.2693 36.0664C23.9584 36.205 23.6139 36.2817 23.2513 36.2817H16.9871C16.6245 36.2817 16.28 36.205 15.9691 36.0664C15.0929 35.6764 14.4814 34.7971 14.4814 33.776C14.4814 33.776 14.4445 30.1161 14.4375 30.0205V30.0174L20.1192 29.2344L25.7359 30.0174L25.7571 33.776Z" fill="#50758D"/>
<path d="M18.9446 36.2799H16.9871C16.6245 36.2799 16.28 36.2032 15.9691 36.0646C15.0929 35.6746 14.4814 34.7953 14.4814 33.7742C14.4814 33.7742 14.4445 30.1143 14.4375 30.0188V30.0156H16.3951V30.0188C16.4021 30.1143 16.4389 33.7742 16.4389 33.7742C16.4389 34.7953 17.0505 35.6746 17.9267 36.0646C18.2375 36.2032 18.582 36.2799 18.9446 36.2799Z" fill="#2B597F"/>
<path d="M25.7579 33.7351H23.7611C23.4369 33.7351 23.1738 33.472 23.1738 33.1478C23.1738 32.8236 23.4369 32.5605 23.7611 32.5605H25.7516L25.7547 33.1478L25.7579 33.7351Z" fill="#2B597F"/>
<path d="M21.6065 33.1478C21.6065 33.472 21.3434 33.7351 21.0192 33.7351H14.4801L14.4668 32.5605H21.0192C21.3434 32.5605 21.6065 32.8236 21.6065 33.1478Z" fill="#2B597F"/>
<path d="M20.0124 7.08739C20.0123 7.08739 20.0122 7.08739 20.0121 7.08739L20.0124 7.08715C13.9649 6.99413 8.87928 12.2649 8.98804 18.2683C8.98804 21.3308 10.201 24.1066 12.1664 26.1261C13.3245 27.3171 14.3268 28.418 14.438 30.017L25.7364 30.0358C25.7998 28.3898 26.7355 27.2779 27.9015 26.0603C29.8293 24.0471 31.0164 21.2987 31.0164 18.2683C31.0163 12.0965 26.0911 7.09287 20.0124 7.08739Z" fill="#FAD207"/>
<path d="M25.7364 30.0324V30.0355L14.438 30.0168C14.3268 28.4178 13.3245 27.3169 12.1664 26.1259C10.201 24.1064 8.98804 21.3306 8.98804 18.2681C8.8792 12.2646 13.965 6.99397 20.0124 7.08715C20.3178 7.08715 20.62 7.10047 20.9191 7.12474C15.3455 7.61335 10.8431 12.6162 10.9456 18.2681C10.9456 21.3306 12.1585 24.1064 14.124 26.1259C15.2821 27.3169 16.2844 28.4178 16.3955 30.0168L25.7364 30.0324Z" fill="#FDB12E"/>
<path d="M20.2779 23.8653C20.0435 24.1671 19.6875 24.3498 19.3056 24.364C19.2895 24.3646 19.2734 24.3649 19.2573 24.3649C18.8928 24.3649 18.5444 24.2107 18.2989 23.9392L14.6186 19.8675C14.1402 19.3381 14.1815 18.5211 14.7109 18.0426C15.2402 17.5641 16.0571 17.6054 16.5357 18.1348L19.1824 21.0629L23.4051 15.6247C23.8426 15.0611 24.6543 14.9589 25.2179 15.3966C25.7815 15.8342 25.8836 16.6459 25.446 17.2095L20.2779 23.8653Z" fill="#FDB12E"/>
<path d="M20.0013 5.13381C20.3257 5.13381 20.5886 4.87095 20.5886 4.54654V0.587276C20.5886 0.262865 20.3257 0 20.0013 0C19.6769 0 19.4141 0.262865 19.4141 0.587276V4.54654C19.4141 4.87095 19.6769 5.13381 20.0013 5.13381Z" fill="#10131F"/>
<path d="M9.04394 9.3296C9.27337 9.55887 9.64508 9.55887 9.87451 9.3296C10.1039 9.10017 10.1039 8.72839 9.87451 8.49904L7.07484 5.6993C6.84549 5.4701 6.47371 5.46995 6.24428 5.6993C6.01493 5.92873 6.01493 6.30051 6.24428 6.52986L9.04394 9.3296Z" fill="#10131F"/>
<path d="M5.09349 18.8672H1.13415C0.80974 18.8672 0.546875 19.1301 0.546875 19.4545C0.546875 19.7789 0.80974 20.0418 1.13415 20.0418H5.09341C5.41783 20.0418 5.68069 19.7789 5.68069 19.4545C5.68069 19.1301 5.41783 18.8672 5.09349 18.8672Z" fill="#10131F"/>
<path d="M9.04394 29.5821L6.24428 32.3817C6.01493 32.6111 6.01493 32.9829 6.24428 33.2123C6.47371 33.4415 6.84541 33.4415 7.07484 33.2123L9.87451 30.4126C10.1039 30.1832 10.1039 29.8114 9.87451 29.5821C9.64516 29.3529 9.27337 29.3529 9.04394 29.5821Z" fill="#10131F"/>
<path d="M30.9577 29.5821C30.7282 29.3528 30.3564 29.3528 30.1271 29.5821C29.8977 29.8115 29.8977 30.1833 30.1271 30.4127L32.9268 33.2123C33.1562 33.4416 33.5279 33.4416 33.7573 33.2123C33.9867 32.9829 33.9867 32.6111 33.7573 32.3818L30.9577 29.5821Z" fill="#10131F"/>
<path d="M38.8688 18.8672H34.9095C34.5851 18.8672 34.3223 19.1301 34.3223 19.4545C34.3223 19.7789 34.5851 20.0418 34.9095 20.0418H38.8688C39.1932 20.0418 39.4561 19.7789 39.4561 19.4545C39.4561 19.1301 39.1931 18.8672 38.8688 18.8672Z" fill="#10131F"/>
<path d="M32.9268 5.6993L30.1271 8.49904C29.8977 8.72846 29.8977 9.10025 30.1271 9.3296C30.3565 9.55887 30.7282 9.55887 30.9577 9.3296L33.7573 6.52986C33.9867 6.30043 33.9867 5.92865 33.7573 5.6993C33.5279 5.47003 33.1561 5.47003 32.9268 5.6993Z" fill="#10131F"/>
<path d="M31.6036 18.2685C31.6036 11.7793 26.3991 6.5 20.002 6.5C17.7611 6.5 15.5861 7.14937 13.7123 8.37787C11.8893 9.57318 10.436 11.2547 9.50956 13.2408C9.37245 13.5347 9.49961 13.8842 9.79349 14.0213C10.0877 14.1586 10.4369 14.0312 10.574 13.7374C12.2919 10.0544 15.9926 7.67455 20.002 7.67455C25.7515 7.67455 30.429 12.4269 30.429 18.2685C30.429 21.0431 29.3805 23.6662 27.4768 25.6546C26.3796 26.8006 25.4456 27.8956 25.2052 29.4298H14.9523C14.6495 27.8371 13.563 26.7196 12.5867 25.7163C10.6446 23.7203 9.57494 21.0753 9.57494 18.2685C9.57494 17.5754 9.64127 16.8823 9.77195 16.2081C9.83374 15.8898 9.62568 15.5816 9.30722 15.5198C8.98884 15.4585 8.68064 15.6661 8.61886 15.9846C8.47384 16.7322 8.40039 17.5005 8.40039 18.2685C8.40039 21.383 9.58818 24.319 11.745 26.5354C12.9836 27.8083 13.8605 28.8244 13.8605 30.3137C13.8605 30.3188 13.8606 30.3242 13.8607 30.3293L13.8944 33.7757C13.8944 34.8938 14.4908 35.8752 15.3822 36.4186V37.0644C15.3822 38.6836 16.6994 40.0008 18.3185 40.0008H21.9205C23.5397 40.0008 24.8569 38.6836 24.8569 37.0644V36.4186C25.7482 35.8752 26.3446 34.8938 26.3446 33.7757C26.3446 33.7757 26.3405 29.9368 26.3327 29.8985C26.4441 28.5374 27.2691 27.57 28.3252 26.4668C30.4392 24.2588 31.6036 21.3471 31.6036 18.2685ZM23.6822 37.0644C23.6822 38.0359 22.8918 38.8263 21.9204 38.8263H18.3185C17.347 38.8263 16.5566 38.0359 16.5566 37.0644V36.8381C16.6975 36.8578 16.8411 36.8687 16.9873 36.8687H23.2516C23.3978 36.8687 23.5414 36.8577 23.6822 36.8381V37.0644ZM23.2516 35.6941H16.9873C15.9294 35.6941 15.0689 34.8336 15.0689 33.7757V33.7365H21.0199C21.3443 33.7365 21.6072 33.4737 21.6072 33.1493C21.6072 32.8249 21.3443 32.562 21.0199 32.562H15.0689V30.6044H25.1518L25.17 32.562H23.7605C23.4361 32.562 23.1733 32.8249 23.1733 33.1493C23.1733 33.4737 23.4361 33.7365 23.7605 33.7365H25.17V33.7757C25.17 34.8336 24.3094 35.6941 23.2516 35.6941Z" fill="#10131F"/>
<path d="M23.8189 18.3445C23.6201 18.6006 23.6665 18.9696 23.9226 19.1685C24.1787 19.3674 24.5476 19.3211 24.7466 19.0648L25.9093 17.5676C26.2171 17.1711 26.3521 16.6785 26.2895 16.1804C26.2268 15.6823 25.9739 15.2385 25.5774 14.9306C25.181 14.6227 24.688 14.4869 24.1903 14.5504C23.6922 14.6131 23.2484 14.8659 22.9405 15.2625L19.1476 20.1474L16.9708 17.7388C16.2758 16.9702 15.0851 16.9102 14.3165 17.6048C13.9441 17.9415 13.7251 18.4029 13.6997 18.9043C13.6744 19.4056 13.8458 19.8868 14.1824 20.2592L17.8627 24.331C18.6035 25.1903 20.0674 25.1376 20.7412 24.2234L23.0657 21.2299C23.2646 20.9738 23.2181 20.6048 22.962 20.4059C22.7059 20.207 22.337 20.2533 22.138 20.5096L19.8136 23.5031C19.5613 23.8459 19.0107 23.8659 18.7342 23.5435L15.0539 19.4717C14.7933 19.1834 14.8159 18.7369 15.1042 18.4763C15.3924 18.216 15.839 18.2382 16.0996 18.5266L18.7462 21.4549C18.9769 21.7224 19.4354 21.707 19.6458 21.4212L23.8684 15.9829C24.0945 15.679 24.5632 15.62 24.8573 15.8585C25.1613 16.0846 25.2202 16.553 24.9817 16.8474L23.8189 18.3445Z" fill="#10131F"/>
</g>
<defs>
<clipPath id="clip0_2894_17321">
<rect width="40" height="40" fill="white" transform="translate(0.00195312)"/>
</clipPath>
</defs>
</svg>
