<svg width="41" height="40" viewBox="0 0 41 40" fill="none" xmlns="http://www.w3.org/2000/svg">
<g clip-path="url(#clip0_2894_17313)">
<path d="M39.2012 13.75H34.5137V31.4062H39.2012V13.75Z" fill="#F1554C"/>
<path d="M39.2012 6.25V13.75H34.5137V6.25C34.5137 4.93867 35.5831 3.90625 36.8574 3.90625C38.1509 3.90625 39.2012 4.95609 39.2012 6.25Z" fill="white"/>
<path d="M34.5137 31.4062H39.2012C39.2012 33.4344 38.5434 35.4086 37.3262 37.0312L36.8574 37.6562L36.3887 37.0312C35.1715 35.4086 34.5137 33.4344 34.5137 31.4062Z" fill="white"/>
<path d="M36.8574 0.78125C35.9941 0.78125 35.2949 1.48047 35.2949 2.34375V4.50313L35.2957 4.50391H38.4191L38.4199 4.50313V2.34375C38.4199 1.48047 37.7207 0.78125 36.8574 0.78125Z" fill="#F1554C"/>
<path d="M29.6855 8.59375L22.0137 0.921875C21.8129 0.829688 21.5918 0.78125 21.3668 0.78125H2.32617C1.46289 0.78125 0.763672 1.48047 0.763672 2.34375V37.6562C0.763672 38.5195 1.46289 39.2188 2.32617 39.2188H28.2637C29.127 39.2188 29.8262 38.5195 29.8262 37.6562V9.24063C29.8262 9.01562 29.7777 8.79453 29.6855 8.59375Z" fill="white"/>
<path d="M29.6856 8.59375H22.0137V0.921875C22.1832 0.998437 22.3379 1.10547 22.4715 1.23906L29.3684 8.13593C29.502 8.26953 29.609 8.42422 29.6856 8.59375Z" fill="#FDB12E"/>
<path d="M21.5449 26.7188C21.5449 25.8555 22.2441 25.1562 23.1074 25.1562C23.9707 25.1562 24.6699 25.8555 24.6699 26.7188C24.6699 27.582 23.9707 28.2812 23.1074 28.2812C22.2449 28.2812 21.5449 27.5812 21.5449 26.7188Z" fill="#F1554C"/>
<path d="M18.4199 32.9688C18.4199 33.832 17.7207 34.5312 16.8574 34.5312C15.9941 34.5312 15.2949 33.832 15.2949 32.9688C15.2949 32.1062 15.9949 31.4062 16.8574 31.4062C17.7199 31.4062 18.4199 32.1062 18.4199 32.9688Z" fill="#F1554C"/>
<path d="M12.1699 26.7188C13.0332 26.7188 13.7324 27.418 13.7324 28.2812C13.7324 29.1437 13.0324 29.8438 12.1699 29.8438C11.3074 29.8438 10.6074 29.1437 10.6074 28.2812C10.6074 27.418 11.3066 26.7188 12.1699 26.7188Z" fill="#F1554C"/>
<path d="M9.04492 32.9688C9.04492 33.832 8.3457 34.5312 7.48242 34.5312C6.61914 34.5312 5.91992 33.832 5.91992 32.9688C5.91992 32.1055 6.61914 31.4062 7.48242 31.4062C8.34492 31.4062 9.04492 32.1062 9.04492 32.9688Z" fill="#F1554C"/>
<path d="M5.4707 6.25C5.90195 6.25 6.25195 5.9 6.25195 5.46875C6.25195 5.0375 5.90195 4.6875 5.4707 4.6875C5.03945 4.6875 4.68945 5.0375 4.68945 5.46875C4.68945 5.9 5.03945 6.25 5.4707 6.25Z" fill="#10131F"/>
<path d="M5.4707 10.9375C5.90195 10.9375 6.25195 10.5875 6.25195 10.1562C6.25195 9.725 5.90195 9.375 5.4707 9.375C5.03945 9.375 4.68945 9.725 4.68945 10.1562C4.68945 10.5875 5.03945 10.9375 5.4707 10.9375Z" fill="#10131F"/>
<path d="M2.3457 40H28.2832C29.5755 40 30.627 38.9486 30.627 37.6562V9.24063C30.627 8.61961 30.3768 8.02008 29.9403 7.58352L23.0435 0.686641C22.6112 0.254375 22.0125 0 21.3863 0H2.3457C1.05336 0 0.00195312 1.05141 0.00195312 2.34375V37.6562C0.00195312 38.9486 1.05336 40 2.3457 40ZM27.9595 7.8125H22.8145V2.66734L27.9595 7.8125ZM1.56445 2.34375C1.56445 1.91297 1.91492 1.5625 2.3457 1.5625H21.252V8.59375C21.252 9.02523 21.6018 9.375 22.0332 9.375H29.0645V37.6562C29.0645 38.087 28.714 38.4375 28.2832 38.4375H2.3457C1.91492 38.4375 1.56445 38.087 1.56445 37.6562V2.34375Z" fill="#10131F"/>
<path d="M36.877 40C37.3084 40 37.6582 39.6502 37.6582 39.2188V37.9166L37.9707 37.5C39.2806 35.7537 40.002 33.5896 40.002 31.4062V6.25C40.002 5.48172 39.7256 4.75594 39.2207 4.18453V2.34375C39.2207 1.05141 38.1693 0 36.877 0C35.5846 0 34.5332 1.05141 34.5332 2.34375V4.18531C34.0334 4.7518 33.752 5.48578 33.752 6.25V31.4062C33.752 33.5897 34.4733 35.7538 35.7832 37.5L36.0957 37.9166V39.2188C36.0957 39.6502 36.4455 40 36.877 40ZM35.3145 14.5312H38.4395V30.625H35.3145V14.5312ZM35.3145 6.25C35.3145 5.39219 36.0132 4.6875 36.877 4.6875C37.7202 4.6875 38.4395 5.36984 38.4395 6.25V12.9688H35.3145V6.25ZM36.877 1.5625C37.3077 1.5625 37.6582 1.91297 37.6582 2.34375V3.225C37.4051 3.15961 37.1429 3.125 36.877 3.125C36.611 3.125 36.3488 3.15953 36.0957 3.22492V2.34375C36.0957 1.91297 36.4462 1.5625 36.877 1.5625ZM35.3507 32.1875H38.4032C38.2652 33.676 37.7365 35.1224 36.877 36.3472C36.0174 35.1225 35.4887 33.676 35.3507 32.1875Z" fill="#10131F"/>
<path d="M23.127 24.375C21.8346 24.375 20.7832 25.4264 20.7832 26.7188C20.7832 27.0744 20.8621 27.4178 21.0114 27.7295L17.8877 30.8531C17.576 30.704 17.2326 30.625 16.877 30.625C16.5213 30.625 16.1779 30.704 15.8663 30.8532L14.305 29.292C14.4543 28.9803 14.5332 28.6369 14.5332 28.2812C14.5332 26.9889 13.4818 25.9375 12.1895 25.9375C10.8971 25.9375 9.8457 26.9889 9.8457 28.2812C9.8457 28.6369 9.92461 28.9803 10.0739 29.292L8.51266 30.8532C8.20102 30.704 7.85758 30.625 7.50195 30.625C6.20961 30.625 5.1582 31.6764 5.1582 32.9688C5.1582 34.2611 6.20961 35.3125 7.50195 35.3125C8.7943 35.3125 9.8457 34.2611 9.8457 32.9688C9.8457 32.6131 9.7668 32.2697 9.6175 31.958L11.1788 30.3968C11.4904 30.546 11.8338 30.625 12.1895 30.625C12.5451 30.625 12.8885 30.546 13.2002 30.3968L14.7614 31.958C14.6121 32.2697 14.5332 32.6131 14.5332 32.9688C14.5332 34.2611 15.5846 35.3125 16.877 35.3125C18.1693 35.3125 19.2207 34.2611 19.2207 32.9688C19.2207 32.6131 19.1418 32.2697 18.9925 31.958L22.1162 28.8343C22.4279 28.9835 22.7713 29.0625 23.127 29.0625C24.4193 29.0625 25.4707 28.0111 25.4707 26.7188C25.4707 25.4264 24.4193 24.375 23.127 24.375ZM7.50195 33.75C7.07117 33.75 6.7207 33.3995 6.7207 32.9688C6.7207 32.538 7.07117 32.1875 7.50195 32.1875C7.93328 32.1875 8.2832 32.5374 8.2832 32.9688C8.2832 33.3995 7.93273 33.75 7.50195 33.75ZM11.4082 28.2812C11.4082 27.8505 11.7587 27.5 12.1895 27.5C12.6202 27.5 12.9707 27.8505 12.9707 28.2812C12.9707 28.7127 12.6208 29.0625 12.1895 29.0625C11.7581 29.0625 11.4082 28.7126 11.4082 28.2812ZM16.877 33.75C16.4462 33.75 16.0957 33.3995 16.0957 32.9688C16.0957 32.5373 16.4456 32.1875 16.877 32.1875C17.3083 32.1875 17.6582 32.5374 17.6582 32.9688C17.6582 33.3995 17.3077 33.75 16.877 33.75ZM23.127 27.5C22.9537 27.5 22.7893 27.443 22.6537 27.3392C22.6061 27.2769 22.5677 27.2387 22.5064 27.1918C22.4027 27.0563 22.3457 26.892 22.3457 26.7188C22.3457 26.288 22.6962 25.9375 23.127 25.9375C23.5577 25.9375 23.9082 26.288 23.9082 26.7188C23.9082 27.1495 23.5577 27.5 23.127 27.5Z" fill="#10131F"/>
<path d="M8.5957 6.25H16.877C17.3084 6.25 17.6582 5.90023 17.6582 5.46875C17.6582 5.03727 17.3084 4.6875 16.877 4.6875H8.5957C8.1643 4.6875 7.81445 5.03727 7.81445 5.46875C7.81445 5.90023 8.1643 6.25 8.5957 6.25Z" fill="#10131F"/>
<path d="M8.5957 10.9375H16.877C17.3084 10.9375 17.6582 10.5877 17.6582 10.1562C17.6582 9.72477 17.3084 9.375 16.877 9.375H8.5957C8.1643 9.375 7.81445 9.72477 7.81445 10.1562C7.81445 10.5877 8.1643 10.9375 8.5957 10.9375Z" fill="#10131F"/>
<path d="M5.4707 16.0938H25.1582C25.5896 16.0938 25.9395 15.744 25.9395 15.3125C25.9395 14.881 25.5896 14.5312 25.1582 14.5312H5.4707C5.0393 14.5312 4.68945 14.881 4.68945 15.3125C4.68945 15.744 5.0393 16.0938 5.4707 16.0938Z" fill="#10131F"/>
<path d="M5.4707 20.7812H25.1582C25.5896 20.7812 25.9395 20.4315 25.9395 20C25.9395 19.5685 25.5896 19.2188 25.1582 19.2188H5.4707C5.0393 19.2188 4.68945 19.5685 4.68945 20C4.68945 20.4315 5.0393 20.7812 5.4707 20.7812Z" fill="#10131F"/>
</g>
<defs>
<clipPath id="clip0_2894_17313">
<rect width="40" height="40" fill="white" transform="translate(0.00195312)"/>
</clipPath>
</defs>
</svg>
